<svg xmlns="http://www.w3.org/2000/svg" xmlns:xlink="http://www.w3.org/1999/xlink" width="295" height="225" viewBox="0 0 295 225">
  <defs>
    <clipPath id="clip-path">
      <rect id="Rectángulo_420255" data-name="Rectángulo 420255" width="295" height="225" transform="translate(1020 1292.387)" fill="#fff" stroke="#707070" stroke-width="1"/>
    </clipPath>
  </defs>
  <g id="Enmascarar_grupo_1211470" data-name="Enmascarar grupo 1211470" transform="translate(-1020 -1292.387)" clip-path="url(#clip-path)">
    <g id="Grupo_1215744" data-name="Grupo 1215744" transform="translate(1020 1327.113)">
      <rect id="Rectángulo_420254" data-name="Rectángulo 420254" width="127" height="190" rx="20" transform="translate(140 0.275)" fill="#86b60c"/>
      <g id="Grupo_1215742" data-name="Grupo 1215742" transform="translate(0 9.105)">
        <g id="Grupo_1215741" data-name="Grupo 1215741" transform="translate(0)">
          <g id="Grupo_1215740" data-name="Grupo 1215740" transform="translate(0 0)">
            <g id="Grupo_1215698" data-name="Grupo 1215698" transform="translate(227.121 0)">
              <circle id="Elipse_14341" data-name="Elipse 14341" cx="27.006" cy="27.006" r="27.006" transform="translate(0 38.193) rotate(-45)" fill="#99d3f7"/>
              <path id="Trazado_1085492" data-name="Trazado 1085492" d="M2024.88,552.1a21.733,21.733,0,0,0,21.023,21.722c.234.007.472.011.709.011a21.733,21.733,0,1,0,0-43.467c-.238,0-.475,0-.709.011A21.733,21.733,0,0,0,2024.88,552.1Z" transform="translate(-2008.421 -513.91)" fill="#fff"/>
              <path id="Trazado_1085493" data-name="Trazado 1085493" d="M2031.651,561.373c-.265,0-.529-.006-.79-.013a24.222,24.222,0,0,1,0-48.417c.261-.009.526-.013.79-.013a24.222,24.222,0,1,1,0,48.445Zm0-47.7c-.257,0-.514.006-.768.013a23.478,23.478,0,0,0,0,46.931c.253.007.511.013.766.013a23.478,23.478,0,1,0,0-46.957Z" transform="translate(-1993.461 -498.958)" fill="#fff"/>
              <g id="Grupo_1215697" data-name="Grupo 1215697" transform="translate(18.626 18.626)">
                <path id="Trazado_1085494" data-name="Trazado 1085494" d="M2118.557,600.386a.266.266,0,0,1,.247-.2.227.227,0,0,1,.11.027l7.72,4.109,7.658-12.236a.235.235,0,0,1,.2-.108.28.28,0,0,1,.237.134.233.233,0,0,1,.007.234l-7.053,13.288.01.006-.087.138-.076.143-.024-.014a.814.814,0,0,1-.6.261.782.782,0,0,1-.24-.038l-.014.024-.143-.09h0l-.649-.407,0-.006-7.21-4.993a.241.241,0,0,1-.1-.275Z" transform="translate(-2107.349 -585.356)" fill="#99d3f7"/>
                <g id="Grupo_1215695" data-name="Grupo 1215695" transform="translate(19.332 0)">
                  <rect id="Rectángulo_420202" data-name="Rectángulo 420202" width="0.468" height="3.485" transform="translate(0.468 3.485) rotate(180)" fill="#99d3f7"/>
                  <rect id="Rectángulo_420203" data-name="Rectángulo 420203" width="0.468" height="3.485" transform="translate(0.468 39.136) rotate(180)" fill="#99d3f7"/>
                </g>
                <g id="Grupo_1215696" data-name="Grupo 1215696" transform="translate(0 19.332)">
                  <rect id="Rectángulo_420204" data-name="Rectángulo 420204" width="0.468" height="3.485" transform="translate(3.485) rotate(90)" fill="#99d3f7"/>
                  <rect id="Rectángulo_420205" data-name="Rectángulo 420205" width="0.468" height="3.485" transform="translate(39.136 0) rotate(90)" fill="#99d3f7"/>
                </g>
              </g>
            </g>
            <g id="Grupo_1215711" data-name="Grupo 1215711" transform="translate(40.534 2.697)">
              <rect id="Rectángulo_420206" data-name="Rectángulo 420206" width="133.809" height="202.676" transform="translate(202.676) rotate(90)" fill="#c6e5fd"/>
              <g id="Grupo_1215699" data-name="Grupo 1215699" transform="translate(3.608 5.093)">
                <path id="Trazado_1085495" data-name="Trazado 1085495" d="M797.459,469.6H629.374a2.444,2.444,0,0,0,0,4.888H797.461a2.444,2.444,0,0,0,0-4.888Z" transform="translate(-626.93 -469.6)" fill="#fff"/>
                <path id="Trazado_1085496" data-name="Trazado 1085496" d="M1878.561,471.65a2.151,2.151,0,1,0,2.15,2.15A2.151,2.151,0,0,0,1878.561,471.65Z" transform="translate(-1698.154 -471.358)" fill="#fff"/>
                <path id="Trazado_1085497" data-name="Trazado 1085497" d="M1923.79,471.65a2.151,2.151,0,1,0,2.151,2.15A2.151,2.151,0,0,0,1923.79,471.65Z" transform="translate(-1736.931 -471.358)" fill="#fff"/>
                <path id="Trazado_1085498" data-name="Trazado 1085498" d="M1969,471.65a2.151,2.151,0,1,0,2.15,2.15A2.151,2.151,0,0,0,1969,471.65Z" transform="translate(-1775.691 -471.358)" fill="#fff"/>
              </g>
              <g id="Grupo_1215700" data-name="Grupo 1215700" transform="translate(109.749 19.104)">
                <rect id="Rectángulo_420207" data-name="Rectángulo 420207" width="75.401" height="0.284" transform="translate(0.595 48.416)" fill="#77c3f0"/>
                <rect id="Rectángulo_420208" data-name="Rectángulo 420208" width="75.401" height="0.284" transform="translate(0.595 40.581)" fill="#77c3f0"/>
                <rect id="Rectángulo_420209" data-name="Rectángulo 420209" width="75.401" height="0.284" transform="translate(0.595 32.749)" fill="#77c3f0"/>
                <rect id="Rectángulo_420210" data-name="Rectángulo 420210" width="75.401" height="0.284" transform="translate(0.595 24.913)" fill="#77c3f0"/>
                <rect id="Rectángulo_420211" data-name="Rectángulo 420211" width="75.401" height="0.284" transform="translate(0.595 17.08)" fill="#77c3f0"/>
                <rect id="Rectángulo_420212" data-name="Rectángulo 420212" width="75.401" height="0.284" transform="translate(0.595 9.246)" fill="#77c3f0"/>
                <rect id="Rectángulo_420213" data-name="Rectángulo 420213" width="75.401" height="0.284" transform="translate(0.595 1.412)" fill="#77c3f0"/>
                <rect id="Rectángulo_420214" data-name="Rectángulo 420214" width="3.597" height="28.784" transform="translate(7.568 19.773)" fill="#9fd5f8"/>
                <rect id="Rectángulo_420215" data-name="Rectángulo 420215" width="3.597" height="34.713" transform="translate(12.913 13.844)" fill="#77c3f0"/>
                <rect id="Rectángulo_420216" data-name="Rectángulo 420216" width="3.597" height="21.86" transform="translate(21.208 26.697)" fill="#9fd5f8"/>
                <rect id="Rectángulo_420217" data-name="Rectángulo 420217" width="3.597" height="27.791" transform="translate(26.554 20.766)" fill="#77c3f0"/>
                <rect id="Rectángulo_420218" data-name="Rectángulo 420218" width="3.597" height="28.784" transform="translate(34.85 19.773)" fill="#9fd5f8"/>
                <rect id="Rectángulo_420219" data-name="Rectángulo 420219" width="3.597" height="26.187" transform="translate(40.194 22.37)" fill="#77c3f0"/>
                <rect id="Rectángulo_420220" data-name="Rectángulo 420220" width="3.597" height="34.713" transform="translate(48.492 13.844)" fill="#9fd5f8"/>
                <rect id="Rectángulo_420221" data-name="Rectángulo 420221" width="3.597" height="34.713" transform="translate(53.836 13.844)" fill="#77c3f0"/>
                <rect id="Rectángulo_420222" data-name="Rectángulo 420222" width="3.597" height="36.011" transform="translate(62.132 12.546)" fill="#9fd5f8"/>
                <rect id="Rectángulo_420223" data-name="Rectángulo 420223" width="3.597" height="39.803" transform="translate(67.476 8.754)" fill="#77c3f0"/>
                <path id="Trazado_1085499" data-name="Trazado 1085499" d="M1449.615,622.105h-78.7v-54.3h1.277v53.018h77.418Z" transform="translate(-1370.92 -567.81)" fill="#77c3f0"/>
              </g>
              <g id="Grupo_1215703" data-name="Grupo 1215703" transform="translate(14.232 19.104)">
                <rect id="Rectángulo_420224" data-name="Rectángulo 420224" width="86.413" height="69.466" fill="#fff"/>
                <path id="Trazado_1085500" data-name="Trazado 1085500" d="M938.887,783.329a6.224,6.224,0,0,1,.7-2.866L936.5,778.68a9.845,9.845,0,0,0,0,9.3l3.087-1.783A6.251,6.251,0,0,1,938.887,783.329Z" transform="translate(-901.957 -748.596)" fill="#77c3f0"/>
                <path id="Trazado_1085501" data-name="Trazado 1085501" d="M1011.375,835.09a6.265,6.265,0,0,1-4.965,2.863v3.565a9.826,9.826,0,0,0,8.052-4.647Z" transform="translate(-962.896 -796.959)" fill="#9fd5f8"/>
                <path id="Trazado_1085502" data-name="Trazado 1085502" d="M1006.41,745.955a6.265,6.265,0,0,1,4.965,2.863l3.087-1.782a9.829,9.829,0,0,0-8.052-4.647Z" transform="translate(-962.896 -717.484)" fill="#9fd5f8"/>
                <path id="Trazado_1085503" data-name="Trazado 1085503" d="M1044.068,783.329a6.225,6.225,0,0,1-.7,2.866l3.087,1.783a9.844,9.844,0,0,0,0-9.3l-3.087,1.783A6.251,6.251,0,0,1,1044.068,783.329Z" transform="translate(-994.583 -748.596)" fill="#9fd5f8"/>
                <path id="Trazado_1085504" data-name="Trazado 1085504" d="M948.747,748.808a6.265,6.265,0,0,1,4.965-2.863V742.38a9.826,9.826,0,0,0-8.052,4.647Z" transform="translate(-910.813 -717.475)" fill="#77c3f0"/>
                <path id="Trazado_1085505" data-name="Trazado 1085505" d="M953.712,837.953a6.263,6.263,0,0,1-4.965-2.863l-3.087,1.782a9.829,9.829,0,0,0,8.052,4.647Z" transform="translate(-910.813 -796.959)" fill="#77c3f0"/>
                <g id="Grupo_1215701" data-name="Grupo 1215701" transform="translate(19.85 11.975)">
                  <path id="Trazado_1085506" data-name="Trazado 1085506" d="M1086.39,809.06c0,.106.01.21.01.315s-.007.21-.01.315h8.534c-.006-.106-.016-.208-.016-.315s.01-.21.016-.315Z" transform="translate(-1051.316 -786.617)" fill="#b9e0fb"/>
                  <path id="Trazado_1085507" data-name="Trazado 1085507" d="M1043.42,881.607l4.266,7.389c.088-.057.174-.118.265-.171s.19-.093.284-.14l-4.269-7.394c-.18.11-.361.215-.546.315Z" transform="translate(-1014.476 -848.543)" fill="#b9e0fb"/>
                  <path id="Trazado_1085508" data-name="Trazado 1085508" d="M1120.269,700.135a5.573,5.573,0,0,1,.546-.314l-7.3-12.641a5.8,5.8,0,0,1-.546.315l7.3,12.64Z" transform="translate(-1074.104 -682.125)" fill="#b9e0fb"/>
                  <path id="Trazado_1085509" data-name="Trazado 1085509" d="M870.834,809.691c0-.106-.01-.21-.01-.315s.007-.21.01-.315H862.3c.006.106.016.21.016.315s-.01.21-.016.315Z" transform="translate(-859.196 -786.617)" fill="#b9e0fb"/>
                  <path id="Trazado_1085510" data-name="Trazado 1085510" d="M841.088,700.135l7.3-12.64a5.773,5.773,0,0,1-.546-.315l-7.3,12.641a5.891,5.891,0,0,1,.546.314Z" transform="translate(-840.54 -682.125)" fill="#b9e0fb"/>
                  <path id="Trazado_1085511" data-name="Trazado 1085511" d="M1120.277,844.55l-7.3,12.639a5.757,5.757,0,0,1,.547.315l7.3-12.64A5.581,5.581,0,0,1,1120.277,844.55Z" transform="translate(-1074.113 -817.044)" fill="#b9e0fb"/>
                  <path id="Trazado_1085512" data-name="Trazado 1085512" d="M841.106,844.55a5.618,5.618,0,0,1-.546.314l7.3,12.64a5.751,5.751,0,0,1,.546-.315l-7.3-12.639Z" transform="translate(-840.557 -817.044)" fill="#b9e0fb"/>
                  <path id="Trazado_1085513" data-name="Trazado 1085513" d="M953.113,651.75a5.434,5.434,0,0,1,0,.631H967.7a6.209,6.209,0,0,1,0-.631H953.11Z" transform="translate(-937.05 -651.75)" fill="#b9e0fb"/>
                  <path id="Trazado_1085514" data-name="Trazado 1085514" d="M935.619,881.3l-4.269,7.393c.094.047.191.087.283.14s.178.114.265.171l4.266-7.389c-.185-.1-.367-.205-.547-.315Z" transform="translate(-918.395 -848.551)" fill="#b9e0fb"/>
                  <path id="Trazado_1085515" data-name="Trazado 1085515" d="M967.749,966.991a5.435,5.435,0,0,1,0-.631H953.17a5.844,5.844,0,0,1,0,.631h14.582Z" transform="translate(-937.102 -921.476)" fill="#b9e0fb"/>
                  <path id="Trazado_1085516" data-name="Trazado 1085516" d="M1043.965,694.934l4.269-7.393c-.094-.047-.191-.087-.282-.138s-.177-.114-.265-.173l-4.266,7.389c.185.1.367.205.546.315Z" transform="translate(-1014.476 -682.168)" fill="#b9e0fb"/>
                  <path id="Trazado_1085517" data-name="Trazado 1085517" d="M936.174,694.619l-4.266-7.389c-.088.057-.173.118-.265.171s-.19.093-.283.14l4.269,7.393c.18-.11.361-.215.546-.315Z" transform="translate(-918.403 -682.168)" fill="#b9e0fb"/>
                </g>
                <g id="Grupo_1215702" data-name="Grupo 1215702" transform="translate(12.563 7.56)">
                  <path id="Trazado_1085518" data-name="Trazado 1085518" d="M1157.461,787.572a4.731,4.731,0,1,1,4.731-4.731A4.736,4.736,0,0,1,1157.461,787.572Zm0-8.831a4.1,4.1,0,1,0,4.1,4.1A4.1,4.1,0,0,0,1157.461,778.741Z" transform="translate(-1100.904 -755.668)" fill="#77c3f0"/>
                  <path id="Trazado_1085519" data-name="Trazado 1085519" d="M794.191,787.572a4.731,4.731,0,1,1,4.731-4.731A4.736,4.736,0,0,1,794.191,787.572Zm0-8.831a4.1,4.1,0,1,0,4.1,4.1A4.1,4.1,0,0,0,794.191,778.741Z" transform="translate(-789.46 -755.668)" fill="#77c3f0"/>
                  <path id="Trazado_1085520" data-name="Trazado 1085520" d="M1066.634,630.263a4.731,4.731,0,1,1,2.368-8.83h0a4.734,4.734,0,0,1,1.732,6.464,4.751,4.751,0,0,1-4.1,2.367Zm.007-8.832a4.118,4.118,0,0,0-3.555,2.05,4.1,4.1,0,0,0,3.55,6.152,4.1,4.1,0,0,0,2.054-7.653h0a4.1,4.1,0,0,0-2.047-.549Z" transform="translate(-1023.037 -620.8)" fill="#77c3f0"/>
                  <path id="Trazado_1085521" data-name="Trazado 1085521" d="M885,944.856a4.733,4.733,0,1,1,2.368-8.831h0a4.737,4.737,0,0,1,1.732,6.464A4.75,4.75,0,0,1,885,944.856Zm.006-8.834a4.119,4.119,0,0,0-3.555,2.052,4.1,4.1,0,0,0,3.549,6.15,4.119,4.119,0,0,0,3.555-2.052,4.106,4.106,0,0,0-1.5-5.6h0A4.1,4.1,0,0,0,885.01,936.022Z" transform="translate(-867.319 -890.509)" fill="#77c3f0"/>
                  <path id="Trazado_1085522" data-name="Trazado 1085522" d="M885,630.263a4.731,4.731,0,1,1,4.093-7.1,4.731,4.731,0,0,1-4.094,7.1Zm-.006-8.832a4.1,4.1,0,1,0,3.557,2.052,4.1,4.1,0,0,0-3.557-2.052Z" transform="translate(-867.309 -620.8)" fill="#77c3f0"/>
                  <path id="Trazado_1085523" data-name="Trazado 1085523" d="M1066.634,944.864a4.749,4.749,0,0,1-4.1-2.367,4.733,4.733,0,0,1,4.094-7.1,4.751,4.751,0,0,1,4.1,2.367,4.733,4.733,0,0,1-4.095,7.1Zm-.006-8.834a4.1,4.1,0,1,0,3.554,2.051,4.1,4.1,0,0,0-3.554-2.051Z" transform="translate(-1023.032 -890.518)" fill="#77c3f0"/>
                </g>
              </g>
              <g id="Grupo_1215706" data-name="Grupo 1215706" transform="translate(109.749 81.068)">
                <rect id="Rectángulo_420225" data-name="Rectángulo 420225" width="78.695" height="46.964" fill="#fff"/>
                <path id="Trazado_1085524" data-name="Trazado 1085524" d="M1540.662,1042.641a10.032,10.032,0,0,0-1.082-2.228,2.976,2.976,0,0,1-4.046-3.587,10.119,10.119,0,0,0-2.341-.806,2.977,2.977,0,0,1-5.394.325,10,10,0,0,0-2.227,1.081,2.976,2.976,0,0,1-3.587,4.046,10.129,10.129,0,0,0-.806,2.341,2.977,2.977,0,0,1,.325,5.394,10.031,10.031,0,0,0,1.081,2.228,2.976,2.976,0,0,1,4.046,3.587,10.149,10.149,0,0,0,2.341.806,2.977,2.977,0,0,1,5.394-.325,9.981,9.981,0,0,0,2.227-1.081,2.976,2.976,0,0,1,3.587-4.046,10.149,10.149,0,0,0,.806-2.341,2.976,2.976,0,0,1-.325-5.394Zm-9.366,6.821a3.544,3.544,0,1,1,3.324-3.751A3.545,3.545,0,0,1,1531.3,1049.462Z" transform="translate(-1499.743 -1031.187)" fill="#85cbf5"/>
                <path id="Trazado_1085525" data-name="Trazado 1085525" d="M1433.131,1059v-.07l-1.38-.551a5.25,5.25,0,0,0-.378-1.591l.987-1.113-.033-.061a6.482,6.482,0,0,0-1-1.385l-.048-.051-1.367.588a5.242,5.242,0,0,0-1.391-.857l-.09-1.485-.067-.02a6.526,6.526,0,0,0-.835-.191,6.676,6.676,0,0,0-.853-.08h-.07l-.551,1.38a5.249,5.249,0,0,0-1.589.378l-1.113-.987-.061.033a6.613,6.613,0,0,0-.726.455,6.446,6.446,0,0,0-.659.546l-.05.049.586,1.367a5.314,5.314,0,0,0-.857,1.391l-1.484.09-.02.067a6.509,6.509,0,0,0-.191.834,6.728,6.728,0,0,0-.08.853v.07l1.38.551a5.252,5.252,0,0,0,.378,1.589l-.986,1.113.033.061a6.757,6.757,0,0,0,.455.726,6.519,6.519,0,0,0,.546.661l.049.051,1.367-.588a5.23,5.23,0,0,0,1.391.857l.089,1.484.067.02a6.506,6.506,0,0,0,.835.191,6.654,6.654,0,0,0,.853.08h.07l.551-1.38a5.258,5.258,0,0,0,1.591-.378l1.113.987.061-.033a6.527,6.527,0,0,0,1.387-1l.051-.048-.588-1.367a5.233,5.233,0,0,0,.857-1.391l1.484-.088.02-.067a6.472,6.472,0,0,0,.191-.835,6.724,6.724,0,0,0,.08-.853Zm-7.183,3.042a3.29,3.29,0,1,1,3.771-2.725A3.289,3.289,0,0,1,1425.948,1062.039Z" transform="translate(-1412.835 -1044.998)" fill="#92d0f6"/>
                <g id="Grupo_1215704" data-name="Grupo 1215704" transform="translate(6.721 21.29)">
                  <path id="Trazado_1085526" data-name="Trazado 1085526" d="M1436.69,1162.636l2.18-.807v-.11a10.214,10.214,0,0,0-.363-2.649l-.029-.105-2.317-.2a8.258,8.258,0,0,0-1.288-2.207l.97-2.113-.078-.077a10.249,10.249,0,0,0-2.128-1.618l-.094-.054-1.776,1.5a8.244,8.244,0,0,0-2.471-.651l-.809-2.18h-.11a10.278,10.278,0,0,0-1.335.094,10.793,10.793,0,0,0-1.312.267l-.106.029-.2,2.317a8.248,8.248,0,0,0-2.206,1.287l-2.113-.97-.077.078a10.2,10.2,0,0,0-.879,1.01,10.379,10.379,0,0,0-.739,1.117l-.054.094,1.5,1.778a8.244,8.244,0,0,0-.651,2.469l-2.18.809v.11a10.334,10.334,0,0,0,.094,1.337,10.44,10.44,0,0,0,.268,1.313l.028.105,2.317.2a8.263,8.263,0,0,0,1.287,2.206l-.969,2.113.077.077a10.522,10.522,0,0,0,1.01.879,10.309,10.309,0,0,0,1.117.739l.094.054,1.778-1.5a8.242,8.242,0,0,0,2.471.651l.808,2.18h.11a10.318,10.318,0,0,0,1.337-.094,10.793,10.793,0,0,0,1.313-.267l.105-.029.2-2.317a8.248,8.248,0,0,0,2.207-1.288l2.113.97.077-.078a10.268,10.268,0,0,0,1.618-2.129l.054-.094-1.5-1.776a8.238,8.238,0,0,0,.651-2.471Zm-7.546,4.249a5.142,5.142,0,1,1,4.4-5.789A5.142,5.142,0,0,1,1429.145,1166.885Z" transform="translate(-1418.03 -1151.37)" fill="#77c3f0"/>
                  <circle id="Elipse_14342" data-name="Elipse 14342" cx="3.156" cy="3.156" r="3.156" transform="matrix(0.916, -0.402, 0.402, 0.916, 6.269, 8.78)" fill="#77c3f0"/>
                </g>
                <g id="Grupo_1215705" data-name="Grupo 1215705" transform="translate(49.505 5.233)">
                  <rect id="Rectángulo_420226" data-name="Rectángulo 420226" width="22.575" height="0.628" fill="#7fc8f4"/>
                  <rect id="Rectángulo_420227" data-name="Rectángulo 420227" width="22.575" height="0.628" transform="translate(0 5.125)" fill="#7fc8f4"/>
                  <rect id="Rectángulo_420228" data-name="Rectángulo 420228" width="22.575" height="0.626" transform="translate(0 10.249)" fill="#7fc8f4"/>
                  <rect id="Rectángulo_420229" data-name="Rectángulo 420229" width="22.575" height="0.628" transform="translate(0 15.374)" fill="#7fc8f4"/>
                  <rect id="Rectángulo_420230" data-name="Rectángulo 420230" width="22.575" height="0.628" transform="translate(0 20.497)" fill="#7fc8f4"/>
                  <rect id="Rectángulo_420231" data-name="Rectángulo 420231" width="22.575" height="0.626" transform="translate(0 25.623)" fill="#7fc8f4"/>
                  <rect id="Rectángulo_420232" data-name="Rectángulo 420232" width="22.575" height="0.628" transform="translate(0 30.747)" fill="#7fc8f4"/>
                  <rect id="Rectángulo_420233" data-name="Rectángulo 420233" width="22.575" height="0.628" transform="translate(0 35.87)" fill="#7fc8f4"/>
                </g>
              </g>
              <g id="Grupo_1215710" data-name="Grupo 1215710" transform="translate(14.232 95.397)">
                <rect id="Rectángulo_420234" data-name="Rectángulo 420234" width="86.413" height="32.634" fill="#fff"/>
                <path id="Trazado_1085527" data-name="Trazado 1085527" d="M900.414,1144.17h-47.6a2.089,2.089,0,1,0,0,4.177h47.6a2.089,2.089,0,0,0,0-4.177Z" transform="translate(-829.426 -1138.237)" fill="#7fc8f4"/>
                <g id="Grupo_1215707" data-name="Grupo 1215707" transform="translate(12.225 4.219)">
                  <circle id="Elipse_14343" data-name="Elipse 14343" cx="2.689" cy="2.689" r="2.689" transform="translate(0 3.803) rotate(-45)" fill="#7fc8f4"/>
                  <path id="Trazado_1085528" data-name="Trazado 1085528" d="M803.835,1153.95l-1.1-1.1a.274.274,0,0,1,0-.388h0a.275.275,0,0,1,.388,0l.709.709,1.517-1.517a.275.275,0,0,1,.388,0h0a.275.275,0,0,1,0,.388l-1.906,1.906Z" transform="translate(-800.437 -1148.807)" fill="#fff"/>
                </g>
                <path id="Trazado_1085529" data-name="Trazado 1085529" d="M900.414,1202.32h-47.6a2.089,2.089,0,1,0,0,4.177h47.6a2.089,2.089,0,0,0,0-4.177Z" transform="translate(-829.426 -1188.091)" fill="#7fc8f4"/>
                <g id="Grupo_1215708" data-name="Grupo 1215708" transform="translate(13.338 13.629)">
                  <circle id="Elipse_14344" data-name="Elipse 14344" cx="2.689" cy="2.689" r="2.689" fill="#7fc8f4"/>
                  <path id="Trazado_1085530" data-name="Trazado 1085530" d="M803.835,1212.1l-1.1-1.1a.274.274,0,0,1,0-.388h0a.275.275,0,0,1,.388,0l.709.709,1.517-1.517a.275.275,0,0,1,.388,0h0a.275.275,0,0,1,0,.388l-1.906,1.906Z" transform="translate(-801.549 -1208.07)" fill="#fff"/>
                </g>
                <path id="Trazado_1085531" data-name="Trazado 1085531" d="M900.414,1260.47h-47.6a2.089,2.089,0,0,0,0,4.177h47.6a2.089,2.089,0,0,0,0-4.177Z" transform="translate(-829.426 -1237.945)" fill="#7fc8f4"/>
                <g id="Grupo_1215709" data-name="Grupo 1215709" transform="translate(12.224 20.81)">
                  <circle id="Elipse_14345" data-name="Elipse 14345" cx="2.689" cy="2.689" r="2.689" transform="translate(0 3.803) rotate(-45)" fill="#7fc8f4"/>
                  <path id="Trazado_1085532" data-name="Trazado 1085532" d="M806.59,1267.562l.786-.786a.274.274,0,0,0-.388-.388l-.786.786-.786-.786a.274.274,0,0,0-.388.388l.786.786-.786.786a.274.274,0,0,0,.388.388l.786-.786.786.786a.274.274,0,1,0,.388-.388Z" transform="translate(-802.399 -1263.759)" fill="#fff"/>
                </g>
              </g>
            </g>
            <g id="Grupo_1215712" data-name="Grupo 1215712" transform="translate(210.59 139.786)">
              <path id="Trazado_1085533" data-name="Trazado 1085533" d="M1822.959,1439.64l-.738,5.418-.274,2.032-1.338,12.122-.078.689-.833,6.15a1.518,1.518,0,0,1-1.5,1.312h-11.546a1.517,1.517,0,0,1-1.5-1.3l-.869-6.154-.066-.7-1.144-12.119-.282-2.023-.765-5.423,20.936,0Z" transform="translate(-1800.824 -1433.246)" fill="#c0e2fc"/>
              <path id="Trazado_1085534" data-name="Trazado 1085534" d="M1826.834,1477.62l-.274,2.032-1.338,12.122-16.4,0-1.143-12.119-.282-2.023Z" transform="translate(-1805.437 -1465.807)" fill="#7fc8f4"/>
              <path id="Trazado_1085535" data-name="Trazado 1085535" d="M1821.708,1396.565a2.565,2.565,0,0,0-2.461-1.745H1804.5a2.55,2.55,0,0,0-2.451,1.746l-.658,2.089h10.494l10.494,0-.671-2.089Z" transform="translate(-1800.285 -1394.82)" fill="#7fc8f4"/>
              <path id="Trazado_1085536" data-name="Trazado 1085536" d="M1816.948,1422.58l-23.3,0-.007-3.042h23.3Z" transform="translate(-1793.64 -1416.013)" fill="#9fd5f8"/>
            </g>
            <g id="Grupo_1215725" data-name="Grupo 1215725" transform="translate(83.173 20.542)">
              <path id="Trazado_1085537" data-name="Trazado 1085537" d="M1134.183,995.423c.553,7.844,1.322,15.595,2.214,23.407-6.306,1.354-16.486,3.353-24.176,4.829-6,1.168-10.52,2.03-10.643,2.03s-4.491-.83-10.335-1.969c-7.751-1.477-18.085-3.507-24.484-4.891.892-7.812,1.661-15.565,2.214-23.407.215-3.23.554-12.7.585-15.871.093-8.674-2.8-48.845-2.8-48.845,3.629-2.062,16.395-5.63,21.316-6.521h.061c.061,0,.093-.031.154-.031l13.288-2.214,13.288,2.214c.062,0,.093.031.154.031a2.537,2.537,0,0,1,.431.093c5.167.953,17.409,4.43,20.947,6.428,0,0-2.892,40.171-2.8,48.845.031,3.169.369,12.641.585,15.871Z" transform="translate(-1043.044 -870.159)" fill="#63b6d3"/>
              <g id="Grupo_1215714" data-name="Grupo 1215714" transform="translate(2.094 59.295)">
                <g id="Grupo_1215713" data-name="Grupo 1215713" transform="translate(0 0.366)">
                  <path id="Trazado_1085538" data-name="Trazado 1085538" d="M1039.023,994.527a12.737,12.737,0,0,1-15.806,7.5q-.34-.111-.68-.243a12.737,12.737,0,1,1,16.486-7.256Z" transform="translate(-1000.258 -977.172)" fill="#eaa196"/>
                  <circle id="Elipse_14346" data-name="Elipse 14346" cx="9.093" cy="9.093" r="9.093" transform="matrix(0.991, -0.137, 0.137, 0.991, 0, 49.965)" fill="#eaa196"/>
                  <path id="Trazado_1085539" data-name="Trazado 1085539" d="M940.911,1034.121h0c-7,17.679-8.713,27.576-13.191,46.056l-.06.247,16.95,6.59h0c6.778-17.766,10.736-26.789,19.917-43.441l.123-.223-23.741-9.23Z" transform="translate(-925.882 -1025.995)" fill="#eaa196"/>
                </g>
                <path id="Trazado_1085540" data-name="Trazado 1085540" d="M956.455,996.819c4.166-9.2,1.582-17.976-6.314-21.326-5.729-2.431-13.141.447-16.8,4.889a33.289,33.289,0,0,0-3.655,6.113c-2.167,5.63-8.209,26.857-10.917,37.364l21.744,6.62C945.892,1018.88,952.121,1006.39,956.455,996.819Z" transform="translate(-918.26 -974.607)" fill="#63b6d3"/>
              </g>
              <path id="Trazado_1085541" data-name="Trazado 1085541" d="M1151.632,937.8,1140.7,955.272l6.6,5.5-3.589,5.632,12.149,28.089,3.923-48.45Z" transform="translate(-1106.435 -883.756)" fill="#37a6bf"/>
              <g id="Grupo_1215715" data-name="Grupo 1215715" transform="translate(0 105.12)">
                <circle id="Elipse_14347" data-name="Elipse 14347" cx="9.076" cy="9.076" r="9.076" transform="matrix(0.482, -0.876, 0.876, 0.482, 0, 15.906)" fill="#eaa196"/>
                <circle id="Elipse_14348" data-name="Elipse 14348" cx="6.594" cy="6.594" r="6.594" transform="translate(29.273 25.076) rotate(-25.17)" fill="#eaa196"/>
                <path id="Trazado_1085542" data-name="Trazado 1085542" d="M943.94,1348.585c3.567,3.273,23.577,13.219,28.931,15.154l7.376-10.783c-8.449-5.874-16.907-10.967-24.045-17.756l-12.261,13.386Z" transform="translate(-937.745 -1329.582)" fill="#eaa196"/>
              </g>
              <path id="Trazado_1085543" data-name="Trazado 1085543" d="M1082.346,1200.089h-.026a.771.771,0,0,1-.743-.795l.753-22.261a.864.864,0,0,1,.795-.743.77.77,0,0,1,.743.795l-.753,22.261A.77.77,0,0,1,1082.346,1200.089Z" transform="translate(-1055.746 -1088.222)" fill="#37a6bf"/>
              <path id="Trazado_1085544" data-name="Trazado 1085544" d="M921.141,1285.56l-10.7,4.889-1.1,4.9a11.548,11.548,0,0,0,5.875,12.749l26.888,13.085,8.927-11.293-18.844-12.818-11.045-11.509Z" transform="translate(-907.839 -1181.903)" fill="#63b6d3"/>
              <g id="Grupo_1215716" data-name="Grupo 1215716" transform="translate(21.456 128.52)">
                <path id="Trazado_1085545" data-name="Trazado 1085545" d="M1085.53,1470.336a.7.7,0,0,0-.213-.282c-1.759-1.652-3.518-3.3-5.334-4.893a13.034,13.034,0,0,0-2.551-1.87,15.993,15.993,0,0,0-3.7-1.255,6.728,6.728,0,0,0-2.686-1.591,4.048,4.048,0,0,0-.451-.107,5.719,5.719,0,0,0-5.339.33,39.143,39.143,0,0,1-5.15.126,1.943,1.943,0,0,0-1.689.668,30.032,30.032,0,0,0-3.257,3.822c-.468.758-.839,1.567-1.311,2.308-.608.953-1.29,1.858-1.883,2.819-.488.79-2,2.989-.166,3.067a4.556,4.556,0,0,0,4.089-2.211,27.76,27.76,0,0,1,2.606-3.092c.539-.552,1.119-.258,1.732.03l.629.292c-.526,1.735-1.089,3.45-1.756,5.149a.791.791,0,0,0-.051.668.7.7,0,0,0,.352.26,3.536,3.536,0,0,0,3.1-.2,6.075,6.075,0,0,0,2.415-3.557c.125.056.25.113.377.163,3.056,1.211,7.565,1.4,9.631-1.653a4.882,4.882,0,0,0,.795-2.083,10.114,10.114,0,0,1,2.288,1.468,19.821,19.821,0,0,0,2.738,2.333,5.015,5.015,0,0,0,2.408.67,2.7,2.7,0,0,0,2.221-.87.594.594,0,0,0,.153-.511Z" transform="translate(-1050.914 -1459.834)" fill="#eaa196"/>
                <path id="Trazado_1085546" data-name="Trazado 1085546" d="M1168.972,1466.73a2.835,2.835,0,0,1,1.912,1.2,9.362,9.362,0,0,1,1.349,3.774c.447,2.882.885,5.712,1.6,8.536a.785.785,0,0,1-.034.669.7.7,0,0,1-.382.213,3.533,3.533,0,0,1-3.052-.591c-3.35-2.569-1.163-7.834-3.683-10.834a2.331,2.331,0,0,1-.5-.725,1.568,1.568,0,0,1,.748-1.594,3.118,3.118,0,0,1,1.6-.665,2.1,2.1,0,0,1,.444.01Z" transform="translate(-1149.693 -1465.727)" fill="#eaa196"/>
              </g>
              <path id="Trazado_1085547" data-name="Trazado 1085547" d="M1049.224,1362.1a.765.765,0,0,1-.432-.134l-18.153-12.349a13.832,13.832,0,0,0-5.557-1.972.769.769,0,0,1-.681-.849.783.783,0,0,1,.847-.681,15.184,15.184,0,0,1,6.266,2.238l18.141,12.34a.77.77,0,0,1-.432,1.405Z" transform="translate(-1006.724 -1233.812)" fill="#37a6bf"/>
              <g id="Grupo_1215718" data-name="Grupo 1215718" transform="translate(75.136 59.295)">
                <g id="Grupo_1215717" data-name="Grupo 1215717" transform="translate(0.534 0.366)">
                  <path id="Trazado_1085548" data-name="Trazado 1085548" d="M1431.791,994.527a12.737,12.737,0,0,0,15.806,7.5q.34-.111.681-.243a12.737,12.737,0,1,0-16.486-7.256Z" transform="translate(-1430.922 -977.172)" fill="#eaa196"/>
                  <circle id="Elipse_14349" data-name="Elipse 14349" cx="9.093" cy="9.093" r="9.093" transform="translate(19.008 65.322) rotate(-81.11)" fill="#eaa196"/>
                  <path id="Trazado_1085549" data-name="Trazado 1085549" d="M1460.729,1034.121h0c7,17.679,8.713,27.576,13.191,46.056l.06.247-16.95,6.59h0c-6.778-17.766-10.735-26.789-19.917-43.441l-.123-.223,23.741-9.23Z" transform="translate(-1436.124 -1025.995)" fill="#eaa196"/>
                </g>
                <path id="Trazado_1085550" data-name="Trazado 1085550" d="M1429.154,996.819c-4.166-9.2-1.582-17.976,6.314-21.326,5.729-2.431,13.141.447,16.8,4.889a33.285,33.285,0,0,1,3.655,6.113c2.167,5.63,8.209,26.857,10.917,37.364l-21.743,6.62C1439.717,1018.88,1433.488,1006.39,1429.154,996.819Z" transform="translate(-1427.182 -974.607)" fill="#63b6d3"/>
              </g>
              <path id="Trazado_1085551" data-name="Trazado 1085551" d="M1357.629,937.8l10.932,17.472-6.6,5.5,3.59,5.632L1353.4,994.495l-3.923-48.45Z" transform="translate(-1285.429 -883.756)" fill="#37a6bf"/>
              <g id="Grupo_1215719" data-name="Grupo 1215719" transform="translate(70.65 105.109)">
                <circle id="Elipse_14350" data-name="Elipse 14350" cx="9.076" cy="9.076" r="9.076" transform="translate(22.11 8.695) rotate(-28.62)" fill="#eaa196"/>
                <circle id="Elipse_14351" data-name="Elipse 14351" cx="6.594" cy="6.594" r="6.594" transform="translate(0 31.598) rotate(-66.1)" fill="#eaa196"/>
                <path id="Trazado_1085552" data-name="Trazado 1085552" d="M1461.807,1348.585c-3.567,3.273-23.577,13.219-28.931,15.154l-7.376-10.783c8.449-5.874,16.907-10.967,24.045-17.756l12.26,13.386Z" transform="translate(-1421.254 -1329.571)" fill="#eaa196"/>
              </g>
              <path id="Trazado_1085553" data-name="Trazado 1085553" d="M1527.82,1200.089h.026a.771.771,0,0,0,.743-.795l-.753-22.261a.864.864,0,0,0-.795-.743.77.77,0,0,0-.743.795l.753,22.261A.77.77,0,0,0,1527.82,1200.089Z" transform="translate(-1437.021 -1088.222)" fill="#37a6bf"/>
              <path id="Trazado_1085554" data-name="Trazado 1085554" d="M1450.558,1285.56l10.7,4.889,1.1,4.9a11.548,11.548,0,0,1-5.875,12.749l-26.888,13.085-8.927-11.293,18.845-12.818,11.045-11.509Z" transform="translate(-1346.463 -1181.903)" fill="#63b6d3"/>
              <g id="Grupo_1215720" data-name="Grupo 1215720" transform="translate(61.311 128.52)">
                <path id="Trazado_1085555" data-name="Trazado 1085555" d="M1330.294,1470.336a.7.7,0,0,1,.213-.282c1.759-1.652,3.518-3.3,5.334-4.893a13.04,13.04,0,0,1,2.551-1.87,16,16,0,0,1,3.7-1.255,6.726,6.726,0,0,1,2.686-1.591,4.031,4.031,0,0,1,.451-.107,5.719,5.719,0,0,1,5.339.33,39.145,39.145,0,0,0,5.15.126,1.943,1.943,0,0,1,1.689.668,30.011,30.011,0,0,1,3.257,3.822c.468.758.839,1.567,1.311,2.308.608.953,1.29,1.858,1.883,2.819.488.79,2,2.989.166,3.067a4.556,4.556,0,0,1-4.089-2.211,27.747,27.747,0,0,0-2.606-3.092c-.539-.552-1.119-.258-1.732.03l-.629.292c.526,1.735,1.089,3.45,1.756,5.149a.792.792,0,0,1,.052.668.7.7,0,0,1-.353.26,3.536,3.536,0,0,1-3.1-.2,6.075,6.075,0,0,1-2.415-3.557c-.125.056-.25.113-.376.163-3.056,1.211-7.566,1.4-9.631-1.653a4.885,4.885,0,0,1-.795-2.083,10.122,10.122,0,0,0-2.288,1.468,19.827,19.827,0,0,1-2.738,2.333,5.016,5.016,0,0,1-2.408.67,2.7,2.7,0,0,1-2.221-.87.594.594,0,0,1-.153-.511Z" transform="translate(-1330.279 -1459.834)" fill="#eaa196"/>
                <path id="Trazado_1085556" data-name="Trazado 1085556" d="M1408.361,1466.73a2.834,2.834,0,0,0-1.912,1.2,9.363,9.363,0,0,0-1.35,3.774c-.447,2.882-.884,5.712-1.595,8.536a.785.785,0,0,0,.034.669.694.694,0,0,0,.382.213,3.533,3.533,0,0,0,3.052-.591c3.35-2.569,1.163-7.834,3.684-10.834a2.331,2.331,0,0,0,.5-.725,1.567,1.567,0,0,0-.747-1.594,3.119,3.119,0,0,0-1.6-.665,2.1,2.1,0,0,0-.444.01Z" transform="translate(-1393.009 -1465.727)" fill="#eaa196"/>
              </g>
              <path id="Trazado_1085557" data-name="Trazado 1085557" d="M1420.895,1362.1a.769.769,0,0,1-.432-1.405l18.153-12.349a15.132,15.132,0,0,1,6.256-2.23.785.785,0,0,1,.847.681.769.769,0,0,1-.68.849,13.825,13.825,0,0,0-5.547,1.965l-18.163,12.356a.766.766,0,0,1-.432.134Z" transform="translate(-1345.997 -1233.813)" fill="#37a6bf"/>
              <path id="Trazado_1085558" data-name="Trazado 1085558" d="M1230.195,994.361l.676,42.785c-6,1.168-10.52,2.03-10.643,2.03s-4.491-.83-10.334-1.969l.708-42.848s-8.982-47.246-3.876-56.689h27.344c0,.03.031.061.031.093,5.013,9.627-3.906,56.6-3.906,56.6Z" transform="translate(-1161.694 -883.644)" fill="#fff"/>
              <path id="Trazado_1085559" data-name="Trazado 1085559" d="M1191.587,575.647a9.462,9.462,0,0,0-6.933-7.29,5.7,5.7,0,0,0-2.783-5.163,5.8,5.8,0,0,0-2.852-.729,6.105,6.105,0,0,0-3.027.792,11.434,11.434,0,0,0-19.806,3.671,8.394,8.394,0,0,0-2.076-.278,9.358,9.358,0,0,0-6.465,2.625,10.655,10.655,0,0,0-2.608,10.061,7.508,7.508,0,0,0,2.781,4.444,9.369,9.369,0,0,0-.273,7.762,7.264,7.264,0,0,0,2.534,3.635,19.174,19.174,0,0,0,2.452,1.364,6.486,6.486,0,0,0,.822,4.35,6.158,6.158,0,0,0,4.157,3.022,4.343,4.343,0,0,0,5.206,1.525,5.182,5.182,0,0,0,2.612-2.614c.6.431,1.214.828,1.915,1.27a15.034,15.034,0,0,0,4.457,2.027,9.372,9.372,0,0,0,2.2.264,7.136,7.136,0,0,0,5.7-2.477,3.824,3.824,0,0,0,.632-1.109,6.394,6.394,0,0,0,4.739-2.756,4.808,4.808,0,0,0,.26-4.487,7.569,7.569,0,0,0,4.267-3.635,6.514,6.514,0,0,0-.652-6.819,11.424,11.424,0,0,0,2.74-9.454Z" transform="translate(-1109.873 -558.98)" fill="#193368"/>
              <path id="Trazado_1085560" data-name="Trazado 1085560" d="M1260.912,788.536l-10.182,6.194-10.191-6.194,1.2-29.686h18Z" transform="translate(-1192.031 -730.336)" fill="#eaa196"/>
              <path id="Trazado_1085561" data-name="Trazado 1085561" d="M1263.207,777.241a20.069,20.069,0,0,1-1.742,2.228,14.194,14.194,0,0,1-6.428,4.314c-3.029.772-5.943-1.228-8.257-3.171a16.931,16.931,0,0,1-3.029-3.2l.029-.6.228-6.257.485-11.714h18l.458,11.714.228,5.829Z" transform="translate(-1194.783 -730.327)" fill="#cc7972"/>
              <path id="Trazado_1085562" data-name="Trazado 1085562" d="M1215.558,616.9c-10.226,0-16.023,8.3-16.038,16.983-.013,7.436,1.355,13.469,4.694,19.489a13.058,13.058,0,0,0,22.688,0c3.338-6.022,4.706-12.054,4.694-19.489C1231.579,625.2,1225.782,616.9,1215.558,616.9Z" transform="translate(-1156.863 -608.637)" fill="#eaa196"/>
              <g id="Grupo_1215722" data-name="Grupo 1215722" transform="translate(49.257 29.496)">
                <g id="Grupo_1215721" data-name="Grupo 1215721">
                  <path id="Trazado_1085563" data-name="Trazado 1085563" d="M1343.535,794.907a1.213,1.213,0,1,0,.95,1.428A1.213,1.213,0,0,0,1343.535,794.907Z" transform="translate(-1328.345 -790.725)" fill="#193368"/>
                  <path id="Trazado_1085564" data-name="Trazado 1085564" d="M1339.085,766.267c-.06-.254-.384-.4-.685-.442a11.467,11.467,0,0,0-4.176.268c-.482.108-1.793.287-1.586.936.134.421.9.725,1.382.678q1.609-.158,3.2-.4c.6-.09,2.056-.207,1.86-1.042Z" transform="translate(-1320.228 -765.735)" fill="#193368"/>
                  <path id="Trazado_1085565" data-name="Trazado 1085565" d="M1265.757,794.907a1.213,1.213,0,1,1-.95,1.428A1.213,1.213,0,0,1,1265.757,794.907Z" transform="translate(-1262.073 -790.725)" fill="#193368"/>
                  <path id="Trazado_1085566" data-name="Trazado 1085566" d="M1245.8,766.267c.06-.254.384-.4.685-.442a11.467,11.467,0,0,1,4.176.268c.482.108,1.793.287,1.586.936-.134.421-.9.725-1.382.678q-1.609-.158-3.2-.4c-.6-.09-2.056-.207-1.86-1.042Z" transform="translate(-1245.784 -765.735)" fill="#193368"/>
                </g>
                <path id="Trazado_1085567" data-name="Trazado 1085567" d="M1284.28,859.06a4.29,4.29,0,0,0,7.892,0Z" transform="translate(-1278.788 -845.746)" fill="#fff"/>
                <path id="Trazado_1085568" data-name="Trazado 1085568" d="M1304.888,811.306a2.475,2.475,0,0,1-1.938-.539,1.722,1.722,0,0,1-.3-1.414c.076-.6.28-1.965.411-2.84l.081-.546a.366.366,0,0,1,.438-.323.386.386,0,0,1,.324.437l-.084.548c-.13.867-.334,2.223-.408,2.82a1.05,1.05,0,0,0,.114.807c.217.247.81.28,1.361.28a.384.384,0,0,1,0,.769Z" transform="translate(-1294.514 -799.945)" fill="#cc7972"/>
              </g>
              <path id="Trazado_1085569" data-name="Trazado 1085569" d="M1213.826,616.746a18.059,18.059,0,0,0-5.13-.716,19.3,19.3,0,0,0-5.388.773c-7.737,2.378-11.777,9.915-11.807,17.338a44.638,44.638,0,0,0,.429,6.3h2.091V633.4a7.215,7.215,0,0,0,2.692-2.848,4.451,4.451,0,0,0,7.631-.892,6.071,6.071,0,0,0,7.217-.865,5.694,5.694,0,0,0,9.213,1.937,7.009,7.009,0,0,0,2.562,2.668v7.049h2.12a44.414,44.414,0,0,0,.431-6.3c-.029-7.508-4.154-15.1-12.063-17.4Z" transform="translate(-1149.988 -607.891)" fill="#193368"/>
              <path id="Trazado_1085570" data-name="Trazado 1085570" d="M1404.916,771.714c-.885,2.187-2.862,3.277-4.417,2.435s-2.1-3.3-1.215-5.483,2.862-3.277,4.417-2.435S1405.8,769.528,1404.916,771.714Z" transform="translate(-1327.764 -736.42)" fill="#eaa196"/>
              <path id="Trazado_1085571" data-name="Trazado 1085571" d="M1180.023,771.714c.885,2.187,2.862,3.277,4.417,2.435s2.1-3.3,1.215-5.483-2.862-3.277-4.417-2.435S1179.138,769.528,1180.023,771.714Z" transform="translate(-1139.785 -736.42)" fill="#eaa196"/>
              <path id="Trazado_1085572" data-name="Trazado 1085572" d="M1407.114,780.837a.365.365,0,0,1-.087-.01.384.384,0,0,1-.288-.461,2.93,2.93,0,0,1,2.611-2.547,1.941,1.941,0,0,1,1.7,1.2.385.385,0,0,1-.685.351,1.229,1.229,0,0,0-1.016-.777c-.842,0-1.589.785-1.859,1.953a.386.386,0,0,1-.375.3Z" transform="translate(-1334.511 -746.599)" fill="#cc7972"/>
              <path id="Trazado_1085573" data-name="Trazado 1085573" d="M1190.541,780.829a.385.385,0,0,1-.375-.3c-.274-1.168-1.021-1.954-1.859-1.954a1.23,1.23,0,0,0-1.016.777.379.379,0,0,1-.519.165.383.383,0,0,1-.166-.516,1.939,1.939,0,0,1,1.7-1.2,2.939,2.939,0,0,1,2.611,2.545.385.385,0,0,1-.288.462.358.358,0,0,1-.087.01Z" transform="translate(-1145.755 -746.591)" fill="#cc7972"/>
              <g id="Grupo_1215723" data-name="Grupo 1215723" transform="translate(45.032 52.135)">
                <path id="Trazado_1085574" data-name="Trazado 1085574" d="M1229.837,936.679l-5.488-4.652a13.336,13.336,0,0,1-4.463-7.607h0l-3.716,1.909,6.834,15.54Z" transform="translate(-1216.17 -924.42)" fill="#bbd6f2"/>
                <path id="Trazado_1085575" data-name="Trazado 1085575" d="M1311.97,936.679l5.488-4.652a13.336,13.336,0,0,0,4.463-7.607h0l3.716,1.909-6.833,15.54Z" transform="translate(-1298.303 -924.42)" fill="#bbd6f2"/>
              </g>
              <path id="Trazado_1085576" data-name="Trazado 1085576" d="M1282.3,1091.56l-3.956-66.111,3.144-2.589-5.109-5.13-5.11,5.13,3.144,2.589-3.956,66.111,5.922,4.746Z" transform="translate(-1217.683 -952.283)" fill="#193972"/>
              <g id="Grupo_1215724" data-name="Grupo 1215724" transform="translate(18.208 104.718)">
                <path id="Trazado_1085577" data-name="Trazado 1085577" d="M1104.5,1293h-71.724a4.628,4.628,0,0,0-4.584,5.264l5.309,38.245a2.9,2.9,0,0,0,2.876,2.505h64.52a2.9,2.9,0,0,0,2.876-2.505l5.309-38.245A4.628,4.628,0,0,0,1104.5,1293Z" transform="translate(-1028.148 -1293)" fill="#92d0f6"/>
                <path id="Trazado_1085578" data-name="Trazado 1085578" d="M1149.823,1615.54h-63.447c-.3,0-.536.146-.536.324v.942c0,.178.24.324.536.324h63.447c.3,0,.536-.146.536-.324v-.942C1150.36,1615.686,1150.12,1615.54,1149.823,1615.54Z" transform="translate(-1077.609 -1569.525)" fill="#60b3e5"/>
                <ellipse id="Elipse_14352" data-name="Elipse 14352" cx="5.348" cy="4.333" rx="5.348" ry="4.333" transform="translate(35.143 19.816)" fill="#fff"/>
              </g>
            </g>
            <g id="Grupo_1215732" data-name="Grupo 1215732" transform="translate(5.302 129.046)">
              <g id="Grupo_1215726" data-name="Grupo 1215726" transform="translate(10.357 13.137)">
                <path id="Trazado_1085579" data-name="Trazado 1085579" d="M445.83,1415.858l2.7.377.435-3.124a1.289,1.289,0,0,0-1.1-1.455l-.148-.02a1.29,1.29,0,0,0-1.455,1.1l-.435,3.124Z" transform="translate(-443.184 -1411.622)" fill="#70beed"/>
                <path id="Trazado_1085580" data-name="Trazado 1085580" d="M429.152,1435.6l.03,0a.266.266,0,0,0,.3-.227l.9-6.446-.21-.028a.35.35,0,0,0-.4.3l-.849,6.1A.266.266,0,0,0,429.152,1435.6Z" transform="translate(-428.688 -1426.431)" fill="#70beed"/>
                <rect id="Rectángulo_420235" data-name="Rectángulo 420235" width="0.562" height="1.387" transform="translate(1.467 3.048) rotate(-82.07)" fill="#70beed"/>
                <path id="Trazado_1085581" data-name="Trazado 1085581" d="M430.122,1430.224a.436.436,0,0,0-.494.381l-.944,8.12-.074.638-1.33,11.433,2.7.377,1.845-11.362.1-.633,1.31-8.069a.438.438,0,0,0-.37-.5l-2.748-.382Z" transform="translate(-427.28 -1427.566)" fill="#9fd5f8"/>
                <path id="Trazado_1085582" data-name="Trazado 1085582" d="M436.676,1489.84l-.076.638,3.219.448.1-.633Z" transform="translate(-435.27 -1478.681)" fill="#70beed"/>
              </g>
              <g id="Grupo_1215727" data-name="Grupo 1215727">
                <path id="Trazado_1085583" data-name="Trazado 1085583" d="M354.688,1322.141l2.711,35.94a2.4,2.4,0,0,0,2.571,2.21l.277-.021a2.4,2.4,0,0,0,2.21-2.571l-2.711-35.94a2.4,2.4,0,0,0-2.571-2.21l-.277.021A2.4,2.4,0,0,0,354.688,1322.141Zm1.706-.669a.783.783,0,1,1,.84.722A.783.783,0,0,1,356.395,1321.471Z" transform="translate(-354.681 -1319.541)" fill="#9fd5f8"/>
                <rect id="Rectángulo_420236" data-name="Rectángulo 420236" width="2.117" height="0.274" transform="translate(0.179 4.997) rotate(-4.31)" fill="#fff"/>
                <rect id="Rectángulo_420237" data-name="Rectángulo 420237" width="2.117" height="0.274" transform="translate(0.33 7.002) rotate(-4.31)" fill="#fff"/>
                <rect id="Rectángulo_420238" data-name="Rectángulo 420238" width="2.117" height="0.274" transform="translate(0.482 9.007) rotate(-4.31)" fill="#fff"/>
                <rect id="Rectángulo_420239" data-name="Rectángulo 420239" width="2.117" height="0.274" transform="translate(0.632 11.012) rotate(-4.31)" fill="#fff"/>
                <rect id="Rectángulo_420240" data-name="Rectángulo 420240" width="2.117" height="0.274" transform="translate(0.784 13.017) rotate(-4.31)" fill="#fff"/>
                <rect id="Rectángulo_420241" data-name="Rectángulo 420241" width="2.117" height="0.274" transform="translate(0.934 15.021) rotate(-4.31)" fill="#fff"/>
                <rect id="Rectángulo_420242" data-name="Rectángulo 420242" width="2.117" height="0.274" transform="translate(1.086 17.026) rotate(-4.31)" fill="#fff"/>
                <rect id="Rectángulo_420243" data-name="Rectángulo 420243" width="2.117" height="0.274" transform="translate(1.238 19.032) rotate(-4.31)" fill="#fff"/>
                <rect id="Rectángulo_420244" data-name="Rectángulo 420244" width="2.117" height="0.274" transform="translate(1.386 21.037) rotate(-4.31)" fill="#fff"/>
                <rect id="Rectángulo_420245" data-name="Rectángulo 420245" width="2.117" height="0.274" transform="translate(1.538 23.042) rotate(-4.31)" fill="#fff"/>
                <rect id="Rectángulo_420246" data-name="Rectángulo 420246" width="2.117" height="0.274" transform="translate(1.688 25.047) rotate(-4.31)" fill="#fff"/>
              </g>
              <g id="Grupo_1215729" data-name="Grupo 1215729" transform="translate(1.833 15.109)">
                <path id="Trazado_1085584" data-name="Trazado 1085584" d="M367.53,1448.934l3.445,18.415a1.389,1.389,0,1,0,2.731-.512l-3.445-18.415-1.561-.792-1.17,1.3Z" transform="translate(-367.53 -1444.466)" fill="#70beed"/>
                <rect id="Rectángulo_420247" data-name="Rectángulo 420247" width="2.779" height="0.947" transform="translate(3.177 21.364) rotate(-10.6)" fill="#e1f2ff"/>
                <g id="Grupo_1215728" data-name="Grupo 1215728" transform="translate(0.503 3.936)">
                  <rect id="Rectángulo_420248" data-name="Rectángulo 420248" width="0.526" height="16.786" transform="translate(0 0.323) rotate(-10.59)" fill="#e1f2ff"/>
                  <rect id="Rectángulo_420249" data-name="Rectángulo 420249" width="0.526" height="16.786" transform="translate(1.161 0.097) rotate(-10.6)" fill="#e1f2ff"/>
                </g>
                <path id="Trazado_1085585" data-name="Trazado 1085585" d="M367.53,1429.927l2.731-.511-1.347-2.475-.806-1.481-.217,1.672Z" transform="translate(-367.53 -1425.458)" fill="#e1f2ff"/>
                <path id="Trazado_1085586" data-name="Trazado 1085586" d="M370.06,1427.124a1.878,1.878,0,0,0,1.023-.191l-.806-1.482-.215,1.673Z" transform="translate(-369.699 -1425.45)" fill="#70beed"/>
              </g>
              <g id="Grupo_1215731" data-name="Grupo 1215731" transform="translate(6.703 11.162)">
                <path id="Trazado_1085587" data-name="Trazado 1085587" d="M404.575,1417.9l-.027-18.734a1.389,1.389,0,1,0-2.778,0l.027,18.735,1.391,1.063,1.388-1.067Z" transform="translate(-401.755 -1397.78)" fill="#70beed"/>
                <rect id="Rectángulo_420250" data-name="Rectángulo 420250" width="2.779" height="0.947" transform="translate(0 1.988) rotate(-0.08)" fill="#e1f2ff"/>
                <g id="Grupo_1215730" data-name="Grupo 1215730" transform="translate(0.554 3.458)">
                  <rect id="Rectángulo_420251" data-name="Rectángulo 420251" width="0.526" height="16.786" transform="translate(1.153 0.001) rotate(-0.08)" fill="#e1f2ff"/>
                  <rect id="Rectángulo_420252" data-name="Rectángulo 420252" width="0.526" height="16.786" transform="translate(0 0.002) rotate(-0.08)" fill="#e1f2ff"/>
                </g>
                <path id="Trazado_1085588" data-name="Trazado 1085588" d="M404.729,1538.82l-2.779,0,.873,2.679.524,1.6.516-1.6Z" transform="translate(-401.91 -1518.699)" fill="#e1f2ff"/>
                <path id="Trazado_1085589" data-name="Trazado 1085589" d="M409.11,1557.18a1.869,1.869,0,0,0-1.04,0l.522,1.6Z" transform="translate(-407.156 -1534.377)" fill="#70beed"/>
              </g>
              <path id="Trazado_1085590" data-name="Trazado 1085590" d="M359.56,1494.38l.121,1.915.03.492.053.793.03.492.782,16.222h12.806l.782-16.222.031-.492.051-.793.03-.492.121-1.915Z" transform="translate(-358.864 -1469.437)" fill="#acdafa"/>
              <path id="Trazado_1085591" data-name="Trazado 1085591" d="M360.41,1507.8l.03.492h14.535l.03-.492Z" transform="translate(-359.593 -1480.942)" fill="#e1f2ff"/>
              <path id="Trazado_1085592" data-name="Trazado 1085592" d="M360.99,1516.81l.03.492h14.369l.031-.492Z" transform="translate(-360.09 -1488.667)" fill="#e1f2ff"/>
              <path id="Trazado_1085593" data-name="Trazado 1085593" d="M366.68,1514.294c8.1-1.321,12.566-8.889,13.821-19.915l-1.017,19.915Z" transform="translate(-364.968 -1469.437)" fill="#8ccdf6"/>
            </g>
            <g id="Grupo_1215739" data-name="Grupo 1215739" transform="translate(23.618 136.711)">
              <g id="Grupo_1215734" data-name="Grupo 1215734" transform="translate(2.763)">
                <path id="Trazado_1085594" data-name="Trazado 1085594" d="M537.406,1373.46H506.285c-2.123,0-3.845,2.408-3.845,5.378h0c0,2.97,1.721,5.378,3.845,5.378h31.121v-10.755Z" transform="translate(-502.44 -1373.432)" fill="#77c3f0"/>
                <path id="Trazado_1085595" data-name="Trazado 1085595" d="M624.036,1375.7H592.915c-2.123,0-3.845,2.266-3.845,5.059h0c0,2.793,1.721,5.059,3.845,5.059h31.121a10.048,10.048,0,0,1,0-10.118Z" transform="translate(-576.711 -1375.352)" fill="#fff"/>
                <path id="Trazado_1085596" data-name="Trazado 1085596" d="M622.21,1373.926H592.846c-.544,0-1.089-.011-1.633,0a3.74,3.74,0,0,0-3.363,2.859c-.709,2.2-.137,5.591,2.33,6.468a4.8,4.8,0,0,0,1.656.161h15.753c4.785,0,9.577-.081,14.362,0,.087,0,.173,0,.26,0a.315.315,0,0,1,0,.629H592.181c-.364,0-.728.011-1.091,0-2.086-.061-3.507-1.852-3.968-3.758-.729-3.02.753-6.978,4.277-6.988,5.11-.014,10.219,0,15.329,0s10.141-.076,15.207,0h.275a.315.315,0,0,1,0,.629h0Z" transform="translate(-574.886 -1373.265)" fill="#77c3f0"/>
                <g id="Grupo_1215733" data-name="Grupo 1215733" transform="translate(14.921 1.921)">
                  <path id="Trazado_1085597" data-name="Trazado 1085597" d="M648.751,1433.975H618.958a.118.118,0,0,1,0-.235h29.793a.118.118,0,0,1,0,.235Z" transform="translate(-617.159 -1427.033)" fill="#8ccdf6"/>
                  <path id="Trazado_1085598" data-name="Trazado 1085598" d="M643.1,1422.205H612.859a.118.118,0,0,1,0-.235H643.1a.118.118,0,0,1,0,.235Z" transform="translate(-611.929 -1416.942)" fill="#8ccdf6"/>
                  <path id="Trazado_1085599" data-name="Trazado 1085599" d="M638.065,1410.465H607.138a.118.118,0,0,1,0-.235h30.927a.118.118,0,0,1,0,.235Z" transform="translate(-607.025 -1406.877)" fill="#8ccdf6"/>
                  <path id="Trazado_1085600" data-name="Trazado 1085600" d="M643.1,1398.735H612.858a.118.118,0,0,1,0-.235H643.1a.118.118,0,0,1,0,.235Z" transform="translate(-611.929 -1396.821)" fill="#8ccdf6"/>
                  <path id="Trazado_1085601" data-name="Trazado 1085601" d="M648.77,1386.965h-29.8a.118.118,0,0,1,0-.235h29.8a.118.118,0,0,1,0,.235Z" transform="translate(-617.167 -1386.73)" fill="#8ccdf6"/>
                </g>
              </g>
              <g id="Grupo_1215736" data-name="Grupo 1215736" transform="translate(0 25.294)">
                <path id="Trazado_1085602" data-name="Trazado 1085602" d="M483.07,1556.553a7.353,7.353,0,0,1,1.254-4.237,3.792,3.792,0,0,1,3.032-1.756h34.682v11.987H487.356C484.989,1562.547,483.07,1559.865,483.07,1556.553Z" transform="translate(-483.07 -1550.56)" fill="#60b3e5"/>
                <path id="Trazado_1085603" data-name="Trazado 1085603" d="M515.3,1559.411a3.966,3.966,0,0,0,3.895,3.146h3.815c-1.6-.361-3.216-2.721-3.216-5.993s1.625-5.642,3.227-5.993H519.2a3.964,3.964,0,0,0-3.895,3.144,14.429,14.429,0,0,0,0,5.7Z" transform="translate(-510.462 -1550.569)" fill="#c6e5fd"/>
                <path id="Trazado_1085604" data-name="Trazado 1085604" d="M618.6,1564.326H583.914c-2.367,0-4.284-2.524-4.284-5.638h0c0-3.113,1.917-5.638,4.284-5.638H618.6a11.2,11.2,0,0,0,0,11.275h0Z" transform="translate(-565.854 -1552.695)" fill="#fff"/>
                <path id="Trazado_1085605" data-name="Trazado 1085605" d="M616.568,1561.854H583.844c-.606,0-1.214.011-1.819,0a4.165,4.165,0,0,1-3.748-3.187c-.79-2.455-.154-6.23,2.6-7.209a5.357,5.357,0,0,1,1.845-.178h17.556c5.333,0,10.673.091,16.006,0,.1,0,.193,0,.29,0a.35.35,0,0,0,0-.7H583.1c-.405,0-.812-.011-1.216,0-2.324.068-3.909,2.063-4.421,4.187-.813,3.367.84,7.777,4.766,7.788,5.694.016,11.389,0,17.083,0s11.3.084,16.946,0c.1,0,.205,0,.308,0a.35.35,0,0,0,0-.7h0Z" transform="translate(-563.826 -1550.572)" fill="#60b3e5"/>
                <g id="Grupo_1215735" data-name="Grupo 1215735" transform="translate(16.645 2.127)">
                  <path id="Trazado_1085606" data-name="Trazado 1085606" d="M646.249,1565.47h-33.2a.131.131,0,0,0,0,.262h33.2a.131.131,0,0,0,0-.262Z" transform="translate(-611.041 -1565.47)" fill="#8ccdf6"/>
                  <path id="Trazado_1085607" data-name="Trazado 1085607" d="M639.95,1578.57h-33.7a.131.131,0,0,0,0,.263h33.7a.131.131,0,0,0,0-.263Z" transform="translate(-605.211 -1576.701)" fill="#8ccdf6"/>
                  <path id="Trazado_1085608" data-name="Trazado 1085608" d="M634.333,1591.66H599.868a.131.131,0,0,0,0,.262h34.465a.131.131,0,0,0,0-.262Z" transform="translate(-599.741 -1587.924)" fill="#8ccdf6"/>
                  <path id="Trazado_1085609" data-name="Trazado 1085609" d="M639.954,1604.74H606.248a.131.131,0,0,0,0,.263h33.706a.131.131,0,0,0,0-.263Z" transform="translate(-605.211 -1599.138)" fill="#8ccdf6"/>
                  <path id="Trazado_1085610" data-name="Trazado 1085610" d="M646.26,1617.85H613.048a.131.131,0,0,0,0,.262H646.26a.131.131,0,0,0,0-.262Z" transform="translate(-611.041 -1610.377)" fill="#8ccdf6"/>
                </g>
              </g>
              <g id="Grupo_1215738" data-name="Grupo 1215738" transform="translate(0.039 9.809)">
                <path id="Trazado_1085611" data-name="Trazado 1085611" d="M522.306,1457.5H487.624c-2.367,0-4.284-3.467-4.284-7.742h0c0-4.276,1.917-7.742,4.284-7.742h34.682v15.486Z" transform="translate(-483.34 -1442.02)" fill="#92d0f6"/>
                <path id="Trazado_1085612" data-name="Trazado 1085612" d="M618.856,1459.277H584.174c-2.367,0-4.284-3.308-4.284-7.389h0c0-4.08,1.919-7.389,4.284-7.389h34.682a18.689,18.689,0,0,0,0,14.777Z" transform="translate(-566.116 -1444.146)" fill="#fff"/>
                <path id="Trazado_1085613" data-name="Trazado 1085613" d="M616.879,1456.8H583.707c-.492,0-.989.02-1.481,0-2.288-.093-3.36-2.816-3.741-4.716-.632-3.15-.05-9.36,4.227-9.36h17.349c5.507,0,11.022.088,16.528,0,.1,0,.193,0,.29,0a.35.35,0,0,0,0-.7H583.058a5.814,5.814,0,0,0-1.715.13c-2.237.684-3.267,3.427-3.608,5.506-.529,3.233.184,9.754,4.612,9.842,5.58.111,11.172,0,16.753,0s11.636.074,17.452,0h.325a.35.35,0,0,0,0-.7h0Z" transform="translate(-564.139 -1442.021)" fill="#77c3f0"/>
                <g id="Grupo_1215737" data-name="Grupo 1215737" transform="translate(17.472 2.965)">
                  <path id="Trazado_1085614" data-name="Trazado 1085614" d="M639.587,1488.99H605.948a.131.131,0,0,0,0,.263h33.639a.131.131,0,0,0,0-.263Z" transform="translate(-605.82 -1485.254)" fill="#8ccdf6"/>
                  <path id="Trazado_1085615" data-name="Trazado 1085615" d="M651.409,1462.8h-32.3a.131.131,0,0,0,0,.262h32.3a.131.131,0,0,0,0-.262Z" transform="translate(-617.102 -1462.8)" fill="#8ccdf6"/>
                  <path id="Trazado_1085616" data-name="Trazado 1085616" d="M645.2,1475.88H612.3a.131.131,0,0,0,0,.263h32.9a.131.131,0,0,0,0-.263Z" transform="translate(-611.264 -1474.014)" fill="#8ccdf6"/>
                  <path id="Trazado_1085617" data-name="Trazado 1085617" d="M639.581,1502.07H605.938a.131.131,0,0,0,0,.262h33.643a.131.131,0,0,0,0-.262Z" transform="translate(-605.811 -1496.468)" fill="#8ccdf6"/>
                  <path id="Trazado_1085618" data-name="Trazado 1085618" d="M645.209,1515.16H612.3a.131.131,0,0,0,0,.263h32.911a.131.131,0,0,0,0-.263Z" transform="translate(-611.264 -1507.69)" fill="#8ccdf6"/>
                  <path id="Trazado_1085619" data-name="Trazado 1085619" d="M651.41,1528.27H619.1a.131.131,0,0,0,0,.263H651.41a.131.131,0,0,0,0-.263Z" transform="translate(-617.094 -1518.93)" fill="#8ccdf6"/>
                </g>
              </g>
            </g>
            <rect id="Rectángulo_420253" data-name="Rectángulo 420253" width="257.348" height="8.307" transform="translate(0 172.863)" fill="#70beed"/>
          </g>
        </g>
      </g>
    </g>
  </g>
</svg>
