<svg xmlns="http://www.w3.org/2000/svg" xmlns:xlink="http://www.w3.org/1999/xlink" width="190" height="200" viewBox="0 0 190 200">
  <defs>
    <clipPath id="clip-path">
      <rect id="Rectángulo_420404" data-name="Rectángulo 420404" width="190" height="200" transform="translate(180 454)" fill="#fff" stroke="#707070" stroke-width="1"/>
    </clipPath>
  </defs>
  <g id="Enmascarar_grupo_1211477" data-name="Enmascarar grupo 1211477" transform="translate(-180 -454)" clip-path="url(#clip-path)">
    <g id="Grupo_1221091" data-name="Grupo 1221091" transform="translate(-5.468 13)">
      <rect id="Rectángulo_420403" data-name="Rectángulo 420403" width="136" height="196" rx="18" transform="translate(210.5 479)" fill="#ff9d1c"/>
      <g id="_x33_0" transform="translate(197.141 477.847)">
        <g id="Grupo_1221082" data-name="Grupo 1221082" transform="translate(2 6.8)">
          <g id="Grupo_1221079" data-name="Grupo 1221079">
            <g id="Grupo_1221061" data-name="Grupo 1221061" transform="translate(0 4.066)">
              <g id="Grupo_1221060" data-name="Grupo 1221060">
                <g id="Grupo_1221053" data-name="Grupo 1221053">
                  <g id="Grupo_1221044" data-name="Grupo 1221044" transform="translate(0 0.107)">
                    <g id="Grupo_1221043" data-name="Grupo 1221043">
                      <path id="Trazado_1170642" data-name="Trazado 1170642" d="M68.079,140.747A66.109,66.109,0,0,1,2,74.668,79.727,79.727,0,0,1,3.525,59.927a17.261,17.261,0,0,1,.762-2.541c.254-1.779,2.8-8.641,4.829-12.453C31.735-.56,95.781-4.372,123.737,38.325,152.2,81.784,120.688,140.747,68.079,140.747Z" transform="translate(-2 -8.442)" fill="#31caff"/>
                    </g>
                  </g>
                  <g id="Grupo_1221046" data-name="Grupo 1221046" transform="translate(101.997 14.232)">
                    <g id="Grupo_1221045" data-name="Grupo 1221045">
                      <path id="Trazado_1170643" data-name="Trazado 1170643" d="M72.293,63.559c-8.641-2.8-16.774-7.624-22.365-14.486-7.37-9.149-9.149-20.586-6.862-28.211.762-2.287,2.287-4.575,3.05-6.862a17.251,17.251,0,0,0,1.525,13.724A31.626,31.626,0,0,0,57.3,38.144,32.575,32.575,0,0,0,68.735,43.99,71.963,71.963,0,0,1,72.293,63.559Z" transform="translate(-42.133 -14)"/>
                    </g>
                  </g>
                  <g id="Grupo_1221048" data-name="Grupo 1221048" transform="translate(65.588 63.032)">
                    <g id="Grupo_1221047" data-name="Grupo 1221047">
                      <path id="Trazado_1170644" data-name="Trazado 1170644" d="M93.868,45.905a66.319,66.319,0,0,1-63.029,56.675c-5.591-9.4-3.812-21.094,8.387-23.128,6.862-1.017,15.5,2.287,21.348-2.033,3.05-2.033,4.575-6.608,2.541-9.658-2.287-3.558-7.37-3.05-11.691-4.066A16.018,16.018,0,0,1,39.48,48.955c0-6.862,4.829-13.47,11.183-15.249A16.078,16.078,0,0,1,68.2,40.823c1.779,3.05,2.8,6.862,6.1,8.133,6.608,2.287,12.707-8.9,19.569-3.05Z" transform="translate(-27.807 -33.201)" fill="#32ce5a"/>
                    </g>
                  </g>
                  <g id="Grupo_1221050" data-name="Grupo 1221050" transform="translate(59.717)">
                    <g id="Grupo_1221049" data-name="Grupo 1221049">
                      <path id="Trazado_1170645" data-name="Trazado 1170645" d="M87.263,38.644a12.227,12.227,0,0,1-2.287,2.8c-2.8,2.8-6.862,4.321-10.674,3.05-3.558-1.017-5.845-4.321-8.641-6.862s-6.862-4.575-10.166-2.8c-3.3,2.033-3.558,6.608-4.829,10.166-2.033,5.845-7.624,10.166-13.724,9.912S25.251,49.064,25.505,43.218c.254-7.37,7.116-12.2,11.945-17.536,5.845-6.1,4.829-12.707-1.017-17.282A66.707,66.707,0,0,1,87.263,38.644Z" transform="translate(-25.497 -8.4)" fill="#32ce5a"/>
                    </g>
                  </g>
                  <g id="Grupo_1221052" data-name="Grupo 1221052" transform="translate(0 31.991)">
                    <g id="Grupo_1221051" data-name="Grupo 1221051">
                      <path id="Trazado_1170646" data-name="Trazado 1170646" d="M52.067,96.756c-1.525,3.3-5.845,4.321-9.4,3.558s-6.608-2.8-9.658-4.829c-3.812-2.541-14.995-6.608-16.52,1.017A64.96,64.96,0,0,1,2,55.329,64.971,64.971,0,0,1,3.525,40.843a11.433,11.433,0,0,1,.508-2.033c.254-1.525,2.033-4.321,2.033-6.608a56.517,56.517,0,0,1,2.8-6.354,3.7,3.7,0,0,0,3.05-1.271c3.05-3.3,9.149-5.337,12.707-1.525,3.3,3.3,1.525,8.9,0,13.216s-2.8,10.166.762,13.216c4.066,3.3,11.691,1.017,13.724,5.845,1.271,2.8-.762,6.1-3.05,8.133s-5.083,3.812-6.1,6.862c-1.271,4.066,2.033,8.387,5.845,10.42s8.133,3.05,11.691,5.337c3.812,2.033,6.608,6.862,4.575,10.674Z" transform="translate(-2 -20.988)" fill="#32ce5a"/>
                    </g>
                  </g>
                </g>
                <g id="Grupo_1221055" data-name="Grupo 1221055" transform="translate(6.077 30.934)">
                  <g id="Grupo_1221054" data-name="Grupo 1221054">
                    <path id="Trazado_1170647" data-name="Trazado 1170647" d="M42.79,102.48c-6.862,0-10.674-3.3-16.011-6.1-3.05-1.525-10.42-4.575-12.962.508-.254.762-1.017,1.017-1.525.508a1.458,1.458,0,0,1-.508-1.779c2.541-4.829,8.387-5.591,16.266-1.525,3.05,1.525,5.845,3.3,8.9,4.575,3.812,1.525,10.674,2.033,11.945-2.033,1.017-3.558-2.287-8.133-5.083-10.166-3.3-2.287-7.37-3.558-11.183-5.337-5.337-2.287-8.133-5.591-7.879-9.4s3.812-6.1,6.862-8.133c1.271-.762,5.083-3.558,4.066-6.608C33.9,51.9,24.238,55.716,20.425,49.617c-3.558-5.591,2.8-11.945,2.287-19.315-.254-2.8-1.525-6.1-4.321-7.116a7.441,7.441,0,0,0-6.1.508A30.156,30.156,0,0,0,6.447,27.76a1.271,1.271,0,1,1-1.525-2.033,36.367,36.367,0,0,1,6.1-4.066c7.37-3.3,13.724,1.271,14.232,8.9.508,7.879-5.337,14.232-2.8,18.045,3.05,4.575,13.216.762,15.5,7.879,1.017,3.05-.762,6.608-5.083,9.4l-.254.254c-2.541,1.779-5.083,3.558-5.337,6.1-.254,3.558,4.321,5.845,6.354,6.862,3.812,1.525,8.133,2.8,11.691,5.591,5.845,4.321,9.149,13.724,2.8,17.028a19.347,19.347,0,0,1-5.337.762Z" transform="translate(-4.391 -20.572)"/>
                  </g>
                </g>
                <g id="Grupo_1221057" data-name="Grupo 1221057" transform="translate(62.968 61.274)">
                  <g id="Grupo_1221056" data-name="Grupo 1221056">
                    <path id="Trazado_1170648" data-name="Trazado 1170648" d="M31.158,101.105a12.407,12.407,0,0,1,2.033-20.332c8.641-4.575,20.078,2.287,27.7-3.3,2.8-2.033,4.066-6.608,2.033-9.149-2.541-3.05-8.133-2.033-12.707-3.558-6.1-2.033-10.166-9.149-9.149-16.266C43.1,35.535,60.131,28.165,67.5,35.281c2.541,2.541,3.3,5.845,4.575,8.9.508,1.271,2.541,5.083,5.591,5.083,2.287,0,4.066-1.779,6.354-3.3,6.1-3.812,10.928.762,8.641,2.287a1.256,1.256,0,0,1-1.779-.254c-1.017-1.525-3.812-.762-5.591.254-2.287,1.525-4.575,3.812-7.624,3.812-.254,0-4.829.508-7.879-6.608-1.271-3.05-2.033-6.1-4.066-8.133-6.1-5.845-20.586,1.017-22.365,11.945C42.34,55.1,45.9,60.95,50.727,62.475c4.321,1.525,10.42.254,13.724,4.321,3.3,3.812,1.525,9.912-2.287,12.962-8.641,6.354-20.078-.508-27.956,3.558a9.81,9.81,0,0,0-1.779,16.011,1.565,1.565,0,0,1,.254,1.779,1.6,1.6,0,0,1-1.525,0Z" transform="translate(-26.776 -32.51)"/>
                  </g>
                </g>
                <g id="Grupo_1221059" data-name="Grupo 1221059" transform="translate(57.994 11.191)">
                  <g id="Grupo_1221058" data-name="Grupo 1221058">
                    <path id="Trazado_1170649" data-name="Trazado 1170649" d="M40.782,49.138c-10.166,0-17.282-9.149-15.757-16.774,2.033-9.149,13.216-11.437,16.52-18.807a1.252,1.252,0,1,1,2.287,1.017c-3.558,7.879-14.486,10.674-16.266,18.3-1.017,4.829,2.287,9.658,6.1,11.945,4.829,2.8,12.2,2.8,15.249-2.033A19.55,19.55,0,0,0,51.2,35.668a23.329,23.329,0,0,1,2.541-8.133c1.525-2.541,4.575-4.829,7.879-4.066,3.3.508,5.083,3.3,6.862,5.845a26.621,26.621,0,0,0,2.033,2.8,10.307,10.307,0,0,0,7.879,3.3c3.05,0,6.1-1.017,7.879-3.05a1.258,1.258,0,0,1,1.779,1.779c-2.287,2.541-6.1,3.812-9.658,3.812a12.345,12.345,0,0,1-9.658-4.321c-2.8-3.05-4.321-7.37-7.624-8.133a5.706,5.706,0,0,0-5.337,3.05,21.282,21.282,0,0,0-2.287,7.116,20.591,20.591,0,0,1-2.8,8.133c-1.779,3.812-5.845,5.337-9.912,5.337Z" transform="translate(-24.819 -12.803)"/>
                  </g>
                </g>
              </g>
            </g>
            <g id="Grupo_1221076" data-name="Grupo 1221076" transform="translate(103.947 1.271)">
              <g id="Grupo_1221063" data-name="Grupo 1221063" transform="translate(4.829 0.762)">
                <g id="Grupo_1221062" data-name="Grupo 1221062">
                  <circle id="Elipse_14436" data-name="Elipse 14436" cx="26.94" cy="26.94" r="26.94"/>
                </g>
              </g>
              <g id="Grupo_1221065" data-name="Grupo 1221065">
                <g id="Grupo_1221064" data-name="Grupo 1221064">
                  <circle id="Elipse_14437" data-name="Elipse 14437" cx="26.94" cy="26.94" r="26.94" fill="#fce67a"/>
                </g>
              </g>
              <g id="Grupo_1221067" data-name="Grupo 1221067" transform="translate(7.879 7.879)">
                <g id="Grupo_1221066" data-name="Grupo 1221066">
                  <circle id="Elipse_14438" data-name="Elipse 14438" cx="19.061" cy="19.061" r="19.061" fill="#ffdc00"/>
                </g>
              </g>
              <g id="Grupo_1221075" data-name="Grupo 1221075" transform="translate(19.03 11.945)">
                <g id="Grupo_1221070" data-name="Grupo 1221070" transform="translate(0 2.509)">
                  <g id="Grupo_1221069" data-name="Grupo 1221069">
                    <g id="Grupo_1221068" data-name="Grupo 1221068">
                      <path id="Trazado_1170650" data-name="Trazado 1170650" d="M54.993,33.606c3.3.508,6.862-.508,6.608-3.558-.254-2.033-1.525-2.8-4.575-3.812-4.066-1.017-6.354-3.05-6.608-5.845C49.91,15.053,55.756,12,61.347,13.274c.762.254,2.033.254,2.287,1.271a1.6,1.6,0,0,1-.762,2.033c-.762.254-1.525-.254-2.287-.254-3.05-.762-6.608.254-6.354,3.3.508,4.575,10.42,2.033,11.183,9.658.508,6.1-6.1,8.641-11.945,7.37-1.271-.254-2.541-.508-2.541-2.033a1.32,1.32,0,0,1,.508-1.017C52.2,32.589,53.977,33.352,54.993,33.606Z" transform="translate(-50.388 -12.987)" fill="#fff"/>
                    </g>
                  </g>
                </g>
                <g id="Grupo_1221072" data-name="Grupo 1221072" transform="translate(6.385)">
                  <g id="Grupo_1221071" data-name="Grupo 1221071">
                    <path id="Trazado_1170651" data-name="Trazado 1170651" d="M52.9,15.558V13.017c0-.762,0-1.017.762-1.017.508,0,1.271,0,1.525.254s.254.254,0,3.558" transform="translate(-52.9 -12)" fill="#fff"/>
                  </g>
                </g>
                <g id="Grupo_1221074" data-name="Grupo 1221074" transform="translate(5.368 24.652)">
                  <g id="Grupo_1221073" data-name="Grupo 1221073">
                    <path id="Trazado_1170652" data-name="Trazado 1170652" d="M52.5,21.954V24.5c0,.762,0,1.017.762,1.017.508.254,1.271.254,1.525-.254.254-.254.254-.254.254-3.558" transform="translate(-52.5 -21.7)" fill="#fff"/>
                  </g>
                </g>
              </g>
            </g>
            <g id="Grupo_1221078" data-name="Grupo 1221078" transform="translate(103.184)">
              <g id="Grupo_1221077" data-name="Grupo 1221077">
                <path id="Trazado_1170653" data-name="Trazado 1170653" d="M43.617,30.69A1.394,1.394,0,0,1,42.6,29.165,28.946,28.946,0,0,1,69.031,6.8,1.2,1.2,0,0,1,70.3,8.071a1.2,1.2,0,0,1-1.271,1.271,25.97,25.97,0,0,0-23.89,20.332A1.394,1.394,0,0,1,43.617,30.69Z" transform="translate(-42.6 -6.8)"/>
              </g>
            </g>
          </g>
          <g id="Grupo_1221081" data-name="Grupo 1221081" transform="translate(0.352 28.846)">
            <g id="Grupo_1221080" data-name="Grupo 1221080">
              <path id="Trazado_1170654" data-name="Trazado 1170654" d="M44.229,124.257A62.4,62.4,0,0,1,8.394,93c-4.829-9.912-6.862-22.111-6.1-35.581.762-16.774,5.083-29.735,13.47-38.885a1.258,1.258,0,1,1,1.779,1.779C9.665,28.951,5.344,41.4,4.836,57.416c-.508,12.962,1.525,24.652,5.845,34.31a59.809,59.809,0,0,0,34.31,29.99,68.235,68.235,0,0,0,46-1.525,1.206,1.206,0,0,1,.762,2.287,71.19,71.19,0,0,1-47.526,1.779Z" transform="translate(-2.139 -18.15)"/>
            </g>
          </g>
        </g>
        <g id="Grupo_1221084" data-name="Grupo 1221084" transform="translate(5.391 21.12)">
          <g id="Grupo_1221083" data-name="Grupo 1221083">
            <path id="Trazado_1170655" data-name="Trazado 1170655" d="M10.363,17.684a14.432,14.432,0,0,1-6.608-3.05A1.565,1.565,0,0,1,3.5,12.855,1.565,1.565,0,0,1,5.28,12.6a11.283,11.283,0,0,0,5.591,2.541,1.12,1.12,0,0,1,1.017,1.525C11.634,17.43,10.872,17.938,10.363,17.684Z" transform="translate(-3.334 -12.434)"/>
          </g>
        </g>
        <g id="Grupo_1221086" data-name="Grupo 1221086" transform="translate(13.341 11.025)">
          <g id="Grupo_1221085" data-name="Grupo 1221085">
            <path id="Trazado_1170656" data-name="Trazado 1170656" d="M12.657,18.47a18.469,18.469,0,0,1-6.1-8.387A1.066,1.066,0,0,1,7.32,8.558a1.066,1.066,0,0,1,1.525.762,14.756,14.756,0,0,0,5.337,7.116,1.256,1.256,0,0,1,.254,1.779,1.565,1.565,0,0,1-1.779.254Z" transform="translate(-6.462 -8.462)"/>
          </g>
        </g>
        <g id="Grupo_1221088" data-name="Grupo 1221088" transform="translate(23.857 7.562)">
          <g id="Grupo_1221087" data-name="Grupo 1221087">
            <path id="Trazado_1170657" data-name="Trazado 1170657" d="M11.871,16,10.6,8.625A1.394,1.394,0,0,1,11.617,7.1a1.394,1.394,0,0,1,1.525,1.017l1.271,7.37A1.394,1.394,0,0,1,13.4,17.012,1.394,1.394,0,0,1,11.871,16Z" transform="translate(-10.6 -7.1)"/>
          </g>
        </g>
      </g>
    </g>
  </g>
</svg>
