<svg xmlns="http://www.w3.org/2000/svg" xmlns:xlink="http://www.w3.org/1999/xlink" width="103" height="103" viewBox="0 0 103 103">
  <defs>
    <filter id="Trazado_982547" x="0" y="0" width="103" height="103" filterUnits="userSpaceOnUse">
      <feOffset dy="3" input="SourceAlpha"/>
      <feGaussianBlur stdDeviation="3" result="blur"/>
      <feFlood flood-opacity="0.161"/>
      <feComposite operator="in" in2="blur"/>
      <feComposite in="SourceGraphic"/>
    </filter>
  </defs>
  <g id="Grupo_1221042" data-name="Grupo 1221042" transform="translate(-158 -872)">
    <g id="Grupo_1215667" data-name="Grupo 1215667" transform="translate(167 878)">
      <g id="Grupo_1214449" data-name="Grupo 1214449">
        <g id="Grupo_1207777" data-name="Grupo 1207777">
          <g id="Grupo_1200358" data-name="Grupo 1200358">
            <g id="Grupo_1185978" data-name="Grupo 1185978">
              <g id="Grupo_1180760" data-name="Grupo 1180760">
                <g id="Grupo_1174888" data-name="Grupo 1174888">
                  <g id="Grupo_1166845" data-name="Grupo 1166845">
                    <g id="Grupo_1166720" data-name="Grupo 1166720">
                      <g id="Grupo_1164305" data-name="Grupo 1164305">
                        <g id="Grupo_1163948" data-name="Grupo 1163948">
                          <g id="Grupo_1158168" data-name="Grupo 1158168">
                            <g id="Grupo_1152576" data-name="Grupo 1152576">
                              <g id="Grupo_1148633" data-name="Grupo 1148633">
                                <g id="Grupo_1148525" data-name="Grupo 1148525">
                                  <g transform="matrix(1, 0, 0, 1, -9, -6)" filter="url(#Trazado_982547)">
                                    <g id="Trazado_982547-2" data-name="Trazado 982547" transform="translate(9 6)" fill="#e9f9fd">
                                      <path d="M 42.5 83.5 C 36.96437835693359 83.5 31.59512901306152 82.41617584228516 26.54141235351562 80.27863311767578 C 21.65934181213379 78.21369171142578 17.27447128295898 75.25723266601562 13.50862312316895 71.49137878417969 C 9.742764472961426 67.72553253173828 6.786305904388428 63.34066009521484 4.721364498138428 58.45858764648438 C 2.583823442459106 53.40486907958984 1.5 48.03562164306641 1.5 42.5 C 1.5 36.96437835693359 2.583823442459106 31.59512901306152 4.721364498138428 26.54141235351562 C 6.786305904388428 21.65934181213379 9.742764472961426 17.27448272705078 13.50862312316895 13.50862312316895 C 17.27447128295898 9.742776870727539 21.65934181213379 6.786305904388428 26.54141235351562 4.721364498138428 C 31.59512901306152 2.583823442459106 36.96437835693359 1.5 42.5 1.5 C 48.03562164306641 1.5 53.40486907958984 2.583823442459106 58.45858764648438 4.721364498138428 C 63.34066009521484 6.786305904388428 67.72553253173828 9.742776870727539 71.49137878417969 13.50862312316895 C 75.25723266601562 17.27448272705078 78.21369171142578 21.65934181213379 80.27863311767578 26.54141235351562 C 82.41617584228516 31.59512901306152 83.5 36.96437835693359 83.5 42.5 C 83.5 48.03562164306641 82.41617584228516 53.40486907958984 80.27863311767578 58.45858764648438 C 78.21369171142578 63.34066009521484 75.25723266601562 67.72553253173828 71.49137878417969 71.49137878417969 C 67.72553253173828 75.25723266601562 63.34066009521484 78.21369171142578 58.45858764648438 80.27863311767578 C 53.40486907958984 82.41617584228516 48.03562164306641 83.5 42.5 83.5 Z" stroke="none"/>
                                      <path d="M 42.5 3 C 37.16621398925781 3 31.99356079101562 4.043960571289062 27.125732421875 6.102882385253906 C 22.42246627807617 8.092185974121094 18.19785308837891 10.94070434570312 14.56928253173828 14.56928253173828 C 10.94070434570312 18.19785308837891 8.092185974121094 22.42246627807617 6.102882385253906 27.125732421875 C 4.043960571289062 31.99356079101562 3 37.16621398925781 3 42.5 C 3 47.83378601074219 4.043960571289062 53.00643920898438 6.102882385253906 57.87425231933594 C 8.092185974121094 62.57753372192383 10.94070434570312 66.80213165283203 14.56928253173828 70.43071746826172 C 18.19786834716797 74.05929565429688 22.42246627807617 76.90781402587891 27.125732421875 78.89711761474609 C 31.99356079101562 80.95603942871094 37.16621398925781 82 42.5 82 C 47.83378601074219 82 53.00642395019531 80.95603942871094 57.87425231933594 78.89711761474609 C 62.57753372192383 76.90781402587891 66.80213165283203 74.05929565429688 70.43071746826172 70.43071746826172 C 74.05929565429688 66.80213165283203 76.90781402587891 62.57753372192383 78.89711761474609 57.87425231933594 C 80.95603942871094 53.00642395019531 82 47.83378601074219 82 42.5 C 82 37.16621398925781 80.95603942871094 31.99356079101562 78.89711761474609 27.125732421875 C 76.90781402587891 22.42246627807617 74.05929565429688 18.19786834716797 70.43071746826172 14.56928253173828 C 66.80213165283203 10.94070434570312 62.57753372192383 8.092185974121094 57.87425231933594 6.102882385253906 C 53.00643920898438 4.043960571289062 47.83378601074219 3 42.5 3 M 42.5 0 C 65.97209167480469 0 85 19.02789306640625 85 42.5 C 85 65.97209167480469 65.97209167480469 85 42.5 85 C 19.02789306640625 85 0 65.97209167480469 0 42.5 C 0 19.02789306640625 19.02789306640625 0 42.5 0 Z" stroke="none" fill="#36ceef"/>
                                    </g>
                                  </g>
                                </g>
                              </g>
                            </g>
                          </g>
                        </g>
                      </g>
                    </g>
                  </g>
                </g>
              </g>
            </g>
          </g>
        </g>
      </g>
    </g>
    <g id="comercio_1_" data-name="comercio (1)" transform="translate(176.283 889.406)">
      <g id="Grupo_1221040" data-name="Grupo 1221040" transform="translate(0.973 0.973)">
        <path id="Trazado_1170627" data-name="Trazado 1170627" d="M125.2,58.851V8.019a.519.519,0,0,0-.519-.519h-44.8a.519.519,0,0,0-.519.519V58.851a.519.519,0,0,0,.519.519h44.8A.519.519,0,0,0,125.2,58.851Z" transform="translate(-70.036 -7.5)" fill="#eaf6ff"/>
        <path id="Trazado_1170628" data-name="Trazado 1170628" d="M119.359,59.309v-3.7a.259.259,0,0,1,.26-.26H154.56a.259.259,0,0,1,.26.26v3.7a.259.259,0,0,1-.26.26H119.619A.26.26,0,0,1,119.359,59.309Z" transform="translate(-104.846 -49.139)" fill="#91deb6"/>
        <path id="Trazado_1170629" data-name="Trazado 1170629" d="M127.738,59.57h-8.118a.259.259,0,0,1-.26-.26v-3.7a.259.259,0,0,1,.26-.26h8.118a.259.259,0,0,0-.26.26v3.7A.259.259,0,0,0,127.738,59.57Z" transform="translate(-104.847 -49.141)" fill="#6ed5a1"/>
        <path id="Trazado_1170630" data-name="Trazado 1170630" d="M83.124,59.37H79.88a.519.519,0,0,1-.519-.519V8.019A.519.519,0,0,1,79.88,7.5h3.244a.519.519,0,0,0-.519.519V58.851A.519.519,0,0,0,83.124,59.37Z" transform="translate(-70.038 -7.5)" fill="#d8ecfe"/>
        <path id="Trazado_1170631" data-name="Trazado 1170631" d="M73.045,53.68a6.8,6.8,0,0,0-5.9,10.221l5.677,9.833a.259.259,0,0,0,.449,0L78.946,63.9A6.814,6.814,0,0,0,73.045,53.68Zm0,8.3a1.929,1.929,0,1,1,1.929-1.929A1.93,1.93,0,0,1,73.045,61.975Z" transform="translate(-58.603 -47.688)" fill="#fd8087"/>
        <path id="Trazado_1170632" data-name="Trazado 1170632" d="M69.205,60.505a6.848,6.848,0,0,1,5.332-6.666,6.984,6.984,0,0,0-1.492-.16,6.8,6.8,0,0,0-5.9,10.221l5.677,9.833a.259.259,0,0,0,.449,0l1.268-2.2L70.128,63.9A6.762,6.762,0,0,1,69.205,60.505Z" transform="translate(-58.603 -47.688)" fill="#fe646f"/>
        <path id="Trazado_1170633" data-name="Trazado 1170633" d="M353.7,156.06H341.519a.519.519,0,0,1-.519-.519v-9.15a.519.519,0,0,1,.519-.519H353.7a.519.519,0,0,1,.519.519v9.15A.519.519,0,0,1,353.7,156.06Z" transform="translate(-297.727 -127.917)" fill="#fff0ad"/>
        <path id="Trazado_1170634" data-name="Trazado 1170634" d="M344.764,156.059H341.52a.519.519,0,0,1-.519-.519v-9.15a.519.519,0,0,1,.519-.519h3.244a.519.519,0,0,0-.519.519v9.15A.519.519,0,0,0,344.764,156.059Z" transform="translate(-297.728 -127.916)" fill="#ffe177"/>
        <path id="Trazado_1170635" data-name="Trazado 1170635" d="M381.208,145.87v3.566a.26.26,0,0,1-.26.26H377.71a.26.26,0,0,1-.26-.26V145.87Z" transform="translate(-329.447 -127.916)" fill="#918291"/>
        <path id="Trazado_1170636" data-name="Trazado 1170636" d="M39.752,256H71.734a.261.261,0,0,1,.261.262,32.245,32.245,0,0,1-64.487,0A.261.261,0,0,1,7.769,256Z" transform="translate(-7.508 -223.755)" fill="#91deb6"/>
        <path id="Trazado_1170637" data-name="Trazado 1170637" d="M41.376,288.2q-.808.039-1.622.04A32.4,32.4,0,0,1,7.511,256.262.26.26,0,0,1,7.772,256h3.244a.26.26,0,0,0-.261.262A32.415,32.415,0,0,0,41.376,288.2Z" transform="translate(-7.511 -223.755)" fill="#6ed5a1"/>
        <path id="Trazado_1170638" data-name="Trazado 1170638" d="M191.433,282.5a31.927,31.927,0,0,1-30.075,3.488c-1.03-4.077-.5-6.868.522-8.836,2.133-4.1,6.889-5.533,6.584-8.83-.252-2.731-3.641-3.153-5.041-6.392a8.438,8.438,0,0,1-.012-5.926h17.5a7.136,7.136,0,0,0-1.335,5.173c.577,2.938,3.37,3.287,4.671,6.6,1.782,4.534-1.928,7.734-.812,10.765C184.066,280.242,186.178,281.783,191.433,282.5Z" transform="translate(-140.909 -223.755)" fill="#99e6fc"/>
        <path id="Trazado_1170639" data-name="Trazado 1170639" d="M176.127,477.917q-.8.041-1.606.04a31.822,31.822,0,0,1-11.795-2.26c-.018-.074-.038-.148-.055-.221s-.029-.117-.042-.175c-.054-.232-.1-.461-.147-.684-.014-.066-.026-.132-.039-.2l-.027-.153c-.014-.079-.027-.157-.04-.235a.261.261,0,0,0-.005-.031A31.917,31.917,0,0,0,176.127,477.917Z" transform="translate(-142.276 -413.468)" fill="#62dbfb"/>
      </g>
      <g id="Grupo_1221041" data-name="Grupo 1221041" transform="translate(0 0)">
        <path id="Trazado_1170640" data-name="Trazado 1170640" d="M66.085,32.61a1.226,1.226,0,0,0-.877-.366H57.12V30.08A1.494,1.494,0,0,0,58.446,28.6v-9.15a1.494,1.494,0,0,0-1.326-1.482V1.492A1.494,1.494,0,0,0,55.628,0H18.819a.973.973,0,1,0,0,1.946H55.173V17.955H22.007l.162-.281a7.955,7.955,0,0,0,.682-1.535H50.567a.973.973,0,0,0,0-1.946H23.213a7.638,7.638,0,0,0-.119-1.817H50.7a1.234,1.234,0,0,0,1.233-1.233v-3.7A1.234,1.234,0,0,0,50.7,6.209H17.272a7.94,7.94,0,0,0-1.847-.217,7.756,7.756,0,0,0-4.146,1.182V1.946h3a.973.973,0,1,0,0-1.946H10.825A1.494,1.494,0,0,0,9.333,1.492V8.926a8.019,8.019,0,0,0-.652.96,7.708,7.708,0,0,0,0,7.787L9.333,18.8V32.245H1.244A1.234,1.234,0,0,0,.01,33.488,33.154,33.154,0,0,0,56.581,56.751a32.986,32.986,0,0,0,9.862-23.262A1.224,1.224,0,0,0,66.085,32.61ZM18.711,23.664H43.282V25.48H17.662ZM45.229,19.9h2.783v2.592a1.234,1.234,0,0,0,1.233,1.233h3.239a1.234,1.234,0,0,0,1.233-1.233V19.9H56.5v8.242H45.229Zm4.73,0H51.77V21.78H49.958Zm-6.676,0v1.817H19.834L20.883,19.9Zm6.7-11.746v2.273H22.455c-.088-.183-.182-.364-.285-.543a7.9,7.9,0,0,0-1.348-1.731H49.983ZM15.425,7.939A5.841,5.841,0,0,1,20.484,16.7l-5.059,8.762L10.367,16.7a5.841,5.841,0,0,1,5.059-8.762Zm-.617,18.592v0h0ZM1.97,34.191H22.224A8.71,8.71,0,0,0,22.6,39.53a9.469,9.469,0,0,0,3.09,3.642c1.138.917,1.786,1.483,1.875,2.453.119,1.291-.9,2.271-2.576,3.762a16.054,16.054,0,0,0-3.9,4.529,12.226,12.226,0,0,0-.981,7.671A31.376,31.376,0,0,1,1.97,34.191Zm20.293,28.3c-.694-3.055-.51-5.637.553-7.679a14.3,14.3,0,0,1,3.469-3.974c1.767-1.573,3.436-3.059,3.22-5.395-.169-1.837-1.4-2.83-2.592-3.79a7.646,7.646,0,0,1-2.525-2.9,7.058,7.058,0,0,1-.168-4.567H39.343a7.137,7.137,0,0,0-.647,4.388,6.679,6.679,0,0,0,2.449,3.77,7.768,7.768,0,0,1,2.271,3c.859,2.185.239,4.046-.36,5.846-.528,1.587-1.075,3.228-.46,4.9.729,1.979,2.806,3.345,6.318,4.146a31.092,31.092,0,0,1-26.652,2.253ZM51.3,58.7c-3.918-.576-6.291-1.708-6.871-3.281-.379-1.03.019-2.227.48-3.611.642-1.929,1.442-4.331.325-7.173a9.6,9.6,0,0,0-2.758-3.712,4.918,4.918,0,0,1-1.864-2.72,5.815,5.815,0,0,1,.927-4.013H48.3a.973.973,0,1,0,0-1.946H11.279V22.173l3.078,5.332a1.233,1.233,0,0,0,2.136,0l.045-.078H43.282V28.6a1.494,1.494,0,0,0,1.492,1.492h10.4v2.155H52.838a.973.973,0,0,0,0,1.946H64.482A31.3,31.3,0,0,1,51.3,58.7Z" transform="translate(-0.01 0)"/>
        <path id="Trazado_1170641" data-name="Trazado 1170641" d="M99.346,86.177a2.9,2.9,0,1,0-2.9-2.9,2.906,2.906,0,0,0,2.9,2.9Zm0-3.859a.956.956,0,1,1-.956.956A.958.958,0,0,1,99.346,82.318Z" transform="translate(-83.93 -69.943)"/>
      </g>
    </g>
  </g>
</svg>
