<svg xmlns="http://www.w3.org/2000/svg" xmlns:xlink="http://www.w3.org/1999/xlink" width="108" height="108" viewBox="0 0 108 108">
  <defs>
    <filter id="Trazado_904820" x="0" y="0" width="108" height="108" filterUnits="userSpaceOnUse">
      <feOffset dy="3" input="SourceAlpha"/>
      <feGaussianBlur stdDeviation="3" result="blur"/>
      <feFlood flood-opacity="0.161"/>
      <feComposite operator="in" in2="blur"/>
      <feComposite in="SourceGraphic"/>
    </filter>
  </defs>
  <g id="Grupo_1220253" data-name="Grupo 1220253" transform="translate(-197 -3910)">
    <g id="Grupo_1215626" data-name="Grupo 1215626" transform="translate(0 -122.131)">
      <g id="Grupo_1209015" data-name="Grupo 1209015" transform="translate(0 1366.077)">
        <g id="Grupo_1207774" data-name="Grupo 1207774" transform="translate(206 2670.713)">
          <g id="Grupo_1206630" data-name="Grupo 1206630" transform="translate(0 1.342)">
            <g id="Grupo_1185091" data-name="Grupo 1185091" transform="translate(0 0)">
              <g id="Grupo_1179560" data-name="Grupo 1179560">
                <g id="Grupo_1173787" data-name="Grupo 1173787" transform="translate(0)">
                  <g id="Grupo_1171910" data-name="Grupo 1171910">
                    <g id="Grupo_1167341" data-name="Grupo 1167341">
                      <g id="Grupo_1166792" data-name="Grupo 1166792">
                        <g transform="matrix(1, 0, 0, 1, -9, -6)" filter="url(#Trazado_904820)">
                          <g id="Trazado_904820-2" data-name="Trazado 904820" transform="translate(9 6)" fill="#e9f9fd">
                            <path d="M 44.99999618530273 88.50006866455078 C 39.12687301635742 88.50006866455078 33.43022155761719 87.35014343261719 28.06829643249512 85.08222961425781 C 22.88852119445801 82.89136505126953 18.23629570007324 79.75465393066406 14.24084663391113 75.75919342041016 C 10.24540901184082 71.76374053955078 7.108683586120605 67.11151885986328 4.917821407318115 61.93174362182617 C 2.649921178817749 56.56980514526367 1.499996185302734 50.87315368652344 1.499996185302734 45.00003051757812 C 1.499996185302734 39.12690734863281 2.649921178817749 33.43025588989258 4.917821407318115 28.06831741333008 C 7.108683586120605 22.88854217529297 10.24540901184082 18.23631858825684 14.24084663391113 14.24086761474609 C 18.23629570007324 10.24541759490967 22.88852119445801 7.10869312286377 28.06829643249512 4.917842864990234 C 33.43022155761719 2.649930477142334 39.12687301635742 1.500005483627319 44.99999618530273 1.500005483627319 C 50.87311935424805 1.500005483627319 56.56977081298828 2.649930477142334 61.93169784545898 4.917842864990234 C 67.11147308349609 7.10869312286377 71.76369476318359 10.24541759490967 75.75914764404297 14.24086761474609 C 79.75458526611328 18.23631858825684 82.89131164550781 22.88854217529297 85.08216857910156 28.06831741333008 C 87.35007476806641 33.43025588989258 88.5 39.12690734863281 88.5 45.00003051757812 C 88.5 50.87315368652344 87.35007476806641 56.56980514526367 85.08216857910156 61.93174362182617 C 82.89131164550781 67.11151885986328 79.75458526611328 71.76374053955078 75.75914764404297 75.75919342041016 C 71.76369476318359 79.75465393066406 67.11147308349609 82.89136505126953 61.93169784545898 85.08222961425781 C 56.56977081298828 87.35014343261719 50.87311935424805 88.50006866455078 44.99999618530273 88.50006866455078 Z" stroke="none"/>
                            <path d="M 44.99999618530273 3 C 39.32870864868164 3 33.82865142822266 4.110061645507812 28.65262603759766 6.299346923828125 C 23.65165710449219 8.414573669433594 19.15968322753906 11.44334411621094 15.301513671875 15.30152893066406 C 11.44333648681641 19.15969848632812 8.414566040039062 23.65167236328125 6.299339294433594 28.65264511108398 C 4.110054016113281 33.82868576049805 2.999992370605469 39.32874298095703 2.999992370605469 45.00003051757812 C 2.999992370605469 50.67131805419922 4.110054016113281 56.1713752746582 6.299339294433594 61.34741592407227 C 8.414566040039062 66.348388671875 11.44333648681641 70.84036254882812 15.301513671875 74.69853210449219 C 19.15968322753906 78.55671691894531 23.65165710449219 81.58548736572266 28.65262603759766 83.70071411132812 C 33.82865142822266 85.88999938964844 39.32870864868164 87.00006103515625 44.99999618530273 87.00006103515625 C 50.67128372192383 87.00006103515625 56.17134094238281 85.88999938964844 61.34736633300781 83.70071411132812 C 66.34834289550781 81.58548736572266 70.84030914306641 78.55671691894531 74.69847869873047 74.69853210449219 C 78.55665588378906 70.84036254882812 81.58542633056641 66.348388671875 83.70065307617188 61.34741592407227 C 85.88993835449219 56.1713752746582 87 50.67131805419922 87 45.00003051757812 C 87 39.32874298095703 85.88993835449219 33.82868576049805 83.70065307617188 28.65264511108398 C 81.58542633056641 23.65167236328125 78.55665588378906 19.15969848632812 74.69847869873047 15.30152893066406 C 70.84030914306641 11.44334411621094 66.34834289550781 8.414573669433594 61.34736633300781 6.299346923828125 C 56.17134094238281 4.110061645507812 50.67128372192383 3 44.99999618530273 3 M 44.99999618530273 0 C 69.85281372070312 0 90 20.14720153808594 90 45.00003051757812 C 90 69.85285949707031 69.85281372070312 90.00006103515625 44.99999618530273 90.00006103515625 C 20.14717864990234 90.00006103515625 -7.62939453125e-06 69.85285949707031 -7.62939453125e-06 45.00003051757812 C -7.62939453125e-06 20.14720153808594 20.14717864990234 0 44.99999618530273 0 Z" stroke="none" fill="#1d7083"/>
                          </g>
                        </g>
                      </g>
                    </g>
                  </g>
                </g>
              </g>
            </g>
          </g>
        </g>
      </g>
    </g>
    <g id="dolar" transform="translate(211.254 3928.508)">
      <g id="Grupo_1220251" data-name="Grupo 1220251" transform="translate(1.164 1.153)">
        <g id="Grupo_1220248" data-name="Grupo 1220248" transform="translate(0 21.734)">
          <g id="Grupo_1220247" data-name="Grupo 1220247">
            <g id="Grupo_1220245" data-name="Grupo 1220245">
              <path id="Trazado_1169009" data-name="Trazado 1169009" d="M42.667,202.853H28.494a43.115,43.115,0,0,1,0-7.73A137.516,137.516,0,0,1,7.5,176.549c.905-15.012.914-15.153.026-28.736-.009-.132-.017-.265-.026-.4,8.4,0,8.4,5.28,8.4,22.782l4.3,3.926h0c5-3.736,9.083.814,22.371,12.38A103.492,103.492,0,0,1,42.667,202.853Z" transform="translate(-7.5 -147.412)" fill="#ffe6c7"/>
              <path id="Trazado_1169010" data-name="Trazado 1169010" d="M100.693,341.218H96.4a121.626,121.626,0,0,0-.4-14.529c-8.417-9.5-13.559-12.893-19.811-12.3l2.043-1.907h0c5-3.736,9.083.814,22.371,12.38a103.5,103.5,0,0,1,.087,16.352Z" transform="translate(-65.525 -285.777)" fill="#ffd5b0"/>
              <path id="Trazado_1169011" data-name="Trazado 1169011" d="M45.553,200.7c.491-9.065,2.012-20.9-6.567-20.9H36v20.869Z" transform="translate(-31.577 -174.77)" fill="#ffe6c7"/>
              <path id="Trazado_1169012" data-name="Trazado 1169012" d="M20.208,174.121c-9.724.727-8.3-6.5-8.3-11.262,0-9.1-1-13.585-4.378-15.046-.009-.132-.017-.265-.026-.4,8.4,0,8.4,5.28,8.4,22.782Z" transform="translate(-7.5 -147.412)" fill="#ffd5b0"/>
            </g>
            <g id="Grupo_1220246" data-name="Grupo 1220246" transform="translate(41.717)">
              <path id="Trazado_1169013" data-name="Trazado 1169013" d="M276.472,202.853h14.173a43.113,43.113,0,0,0,0-7.73,137.525,137.525,0,0,0,20.994-18.573c-.905-15.012-.914-15.153-.026-28.736.009-.132.017-.265.026-.4-8.4,0-8.4,5.28-8.4,22.782l-4.3,3.926h0c-5-3.736-9.083.814-22.371,12.38A103.488,103.488,0,0,0,276.472,202.853Z" transform="translate(-276.193 -147.412)" fill="#ffe6c7"/>
              <path id="Trazado_1169014" data-name="Trazado 1169014" d="M276.472,341.218h4.3a121.634,121.634,0,0,1,.4-14.529c8.417-9.5,13.559-12.893,19.811-12.3l-2.043-1.907h0c-5-3.736-9.083.814-22.371,12.38a103.492,103.492,0,0,0-.087,16.352Z" transform="translate(-276.193 -285.777)" fill="#ffd5b0"/>
              <path id="Trazado_1169015" data-name="Trazado 1169015" d="M412.178,200.7c-.491-9.065-2.012-20.9,6.567-20.9h2.984v20.869Z" transform="translate(-390.708 -174.77)" fill="#ffe6c7"/>
              <path id="Trazado_1169016" data-name="Trazado 1169016" d="M422.647,174.121c9.724.727,8.3-6.5,8.3-11.262,0-9.1,1-13.585,4.378-15.046.009-.132.017-.265.026-.4-8.4,0-8.4,5.28-8.4,22.782Z" transform="translate(-399.909 -147.412)" fill="#ffd5b0"/>
            </g>
          </g>
        </g>
        <g id="Grupo_1220250" data-name="Grupo 1220250" transform="translate(17.258)">
          <g id="Grupo_1220249" data-name="Grupo 1220249">
            <path id="Trazado_1169017" data-name="Trazado 1169017" d="M161.454,28.822a21.4,21.4,0,0,1-21.4,21.393q-.98,0-1.941-.087a21.395,21.395,0,0,1,0-42.614q.959-.086,1.941-.087A21.4,21.4,0,0,1,161.454,28.822Z" transform="translate(-118.659 -7.427)" fill="#fff18d"/>
            <path id="Trazado_1169018" data-name="Trazado 1169018" d="M267.317,28.822a21.4,21.4,0,0,1-21.4,21.393q-.98,0-1.941-.087a21.395,21.395,0,0,0,0-42.614q.959-.086,1.941-.087A21.4,21.4,0,0,1,267.317,28.822Z" transform="translate(-224.522 -7.427)" fill="#ffd366"/>
          </g>
          <path id="Trazado_1169019" data-name="Trazado 1169019" d="M190.047,63.853A14.966,14.966,0,1,1,175.088,48.9,14.958,14.958,0,0,1,190.047,63.853Z" transform="translate(-153.69 -42.458)" fill="#ffd366"/>
          <path id="Trazado_1169020" data-name="Trazado 1169020" d="M259.189,63.853a14.966,14.966,0,0,1-17.21,14.787,14.957,14.957,0,0,0,0-29.573,14.966,14.966,0,0,1,17.21,14.787Z" transform="translate(-222.833 -42.458)" fill="#ffaf5f"/>
        </g>
      </g>
      <g id="Grupo_1220252" data-name="Grupo 1220252" transform="translate(0 0)">
        <path id="Trazado_1169021" data-name="Trazado 1169021" d="M366.579,426.733c-1.443,1.122-2.892,2.2-4.308,3.193a1.165,1.165,0,0,0-.488,1.067,41.972,41.972,0,0,1,0,7.476,1.165,1.165,0,0,0,1.028,1.286,1.2,1.2,0,0,0,.131.007,1.165,1.165,0,0,0,1.156-1.036,42.533,42.533,0,0,0,.059-7.284c1.271-.907,2.565-1.872,3.852-2.873a1.164,1.164,0,1,0-1.43-1.838Z" transform="translate(-305.608 -360.272)"/>
        <path id="Trazado_1169022" data-name="Trazado 1169022" d="M306.457,170.557a263,263,0,0,1,0-28.954,1.164,1.164,0,0,0-1.162-1.241c-4.5,0-7.013,1.521-8.274,5.06a6.809,6.809,0,0,0-4.512,2.1c-3.4,3.611-2.934,11.1-2.528,17.706q.018.3.036.588a7.015,7.015,0,0,0-3.759.583c-3.138,1.3-6.808,4.524-12.889,9.863-1.236,1.085-2.514,2.207-3.919,3.428a1.165,1.165,0,0,0-.395.761,103.4,103.4,0,0,0-.09,16.537,1.164,1.164,0,0,0,1.16,1.076q.045,0,.09,0a1.165,1.165,0,0,0,1.073-1.25,104.556,104.556,0,0,1,.044-15.672c1.271-1.106,2.44-2.132,3.573-3.128,11.346-9.961,13.915-11.987,18.048-7.966-1.615,1.435-5.233,4.608-9.334,7.932a1.164,1.164,0,0,0,1.467,1.809c5.582-4.526,10.279-8.774,10.326-8.816a1.164,1.164,0,0,0,.078-1.648q-.577-.632-1.135-1.149l3.32-3.031a1.164,1.164,0,0,0,.379-.86c0-8.583,0-14.253,1-17.6.78-2.6,2.141-3.719,5-3.947a268.133,268.133,0,0,0,.043,27.47,139.333,139.333,0,0,1-11.9,11.352,1.164,1.164,0,0,0,1.507,1.775,138.272,138.272,0,0,0,12.45-11.933A1.164,1.164,0,0,0,306.457,170.557Zm-10.732-6.789-3.246,2.964-.077-.046q-.046-.792-.1-1.6c-.378-6.136-.805-13.09,1.9-15.968a4.259,4.259,0,0,1,2.186-1.24C295.741,151.468,295.726,156.607,295.726,163.768Z" transform="translate(-226.968 -118.571)"/>
        <path id="Trazado_1169023" data-name="Trazado 1169023" d="M183.273,353.148c-1.4-1.221-2.682-2.343-3.918-3.428-1.538-1.35-2.991-2.625-4.285-3.736a1.165,1.165,0,0,0-1.516,1.768c1.285,1.1,2.666,2.314,4.265,3.718,1.133,1,2.3,2.021,3.573,3.127a104.563,104.563,0,0,1,.044,15.672,1.165,1.165,0,0,0,1.073,1.25c.03,0,.06,0,.09,0a1.165,1.165,0,0,0,1.16-1.076,103.369,103.369,0,0,0-.09-16.537A1.165,1.165,0,0,0,183.273,353.148Z" transform="translate(-146.265 -292.031)"/>
        <path id="Trazado_1169024" data-name="Trazado 1169024" d="M24.219,168.8c-3.145-2.317-5.571-3.318-7.818-2.984l.04-.652c.41-6.589.874-14.058-2.508-17.657a6.785,6.785,0,0,0-4.495-2.09c-1.261-3.538-3.771-5.06-8.274-5.06A1.164,1.164,0,0,0,0,141.526c0,.026,0,.052,0,.078.909,13.887.909,13.887,0,28.951a1.165,1.165,0,0,0,.292.844,140.37,140.37,0,0,0,20.649,18.341A42.532,42.532,0,0,0,21,197.026a1.165,1.165,0,0,0,1.156,1.036,1.194,1.194,0,0,0,.131-.007,1.164,1.164,0,0,0,1.028-1.286,42.062,42.062,0,0,1,0-7.477,1.165,1.165,0,0,0-.488-1.067A138.188,138.188,0,0,1,2.356,170.207c.861-14.253.879-14.847.054-27.469,2.853.231,4.212,1.351,4.991,3.946,1,3.345,1,9.015,1,17.6a1.165,1.165,0,0,0,.379.86l3.319,3.03q-.559.519-1.134,1.15a1.164,1.164,0,0,0,.078,1.648c.047.042,4.743,4.29,10.326,8.816a1.164,1.164,0,1,0,1.467-1.809c-4.1-3.323-7.715-6.494-9.332-7.931a5.6,5.6,0,0,1,3.7-1.956c1.419-.034,3.154.766,5.63,2.591a1.164,1.164,0,0,0,1.381-1.875Zm-10.1-3.78q-.053.851-.1,1.681l-.038.023-3.243-2.961c0-7.16-.016-12.3-.666-15.892a4.233,4.233,0,0,1,2.168,1.232C14.928,151.972,14.5,158.906,14.117,165.025Z" transform="translate(0 -118.57)"/>
        <path id="Trazado_1169025" data-name="Trazado 1169025" d="M155.892,62.544a1.164,1.164,0,1,0-2.171.843,16.121,16.121,0,1,0-1.088-5.829,1.164,1.164,0,0,0,2.329,0,13.751,13.751,0,1,1,.93,4.986Z" transform="translate(-128.936 -35.01)"/>
        <path id="Trazado_1169026" data-name="Trazado 1169026" d="M156.284,22.547A22.375,22.375,0,0,0,152.02,9.354a1.164,1.164,0,1,0-1.887,1.365,20.238,20.238,0,1,1-16.411-8.389,20.268,20.268,0,0,1,12.913,4.652,1.165,1.165,0,0,0,1.487-1.793,22.545,22.545,0,1,0,8.163,17.359Z" transform="translate(-93.901 0)"/>
        <path id="Trazado_1169027" data-name="Trazado 1169027" d="M231.218,92.664a2.316,2.316,0,0,1-2.314-2.312,1.164,1.164,0,0,0-2.329,0,4.65,4.65,0,0,0,3.479,4.493v1.59a1.164,1.164,0,0,0,2.329,0V94.846a4.641,4.641,0,0,0-1.164-9.134,2.312,2.312,0,1,1,2.314-2.312,1.164,1.164,0,0,0,2.329,0,4.65,4.65,0,0,0-3.479-4.493v-1.59a1.164,1.164,0,0,0-2.329,0v1.591a4.641,4.641,0,0,0,1.164,9.134,2.312,2.312,0,1,1,0,4.624Z" transform="translate(-191.397 -64.329)"/>
      </g>
    </g>
  </g>
</svg>
