<svg xmlns="http://www.w3.org/2000/svg" xmlns:xlink="http://www.w3.org/1999/xlink" width="190" height="156" viewBox="0 0 190 156">
  <defs>
    <clipPath id="clip-path">
      <rect id="Rectángulo_420308" data-name="Rectángulo 420308" width="190" height="156" transform="translate(180 3297)" fill="#fff" stroke="#707070" stroke-width="1"/>
    </clipPath>
    <clipPath id="clip-path-2">
      <path id="Trazado_1170068" data-name="Trazado 1170068" d="M184.89,181.49h20.923v44.518H184.89Z" transform="translate(-184.89 -181.49)"/>
    </clipPath>
  </defs>
  <g id="Enmascarar_grupo_1211473" data-name="Enmascarar grupo 1211473" transform="translate(-180 -3297)" clip-path="url(#clip-path)">
    <g id="Creative_Idea" data-name="Creative Idea" transform="translate(149.03 3265.442)">
      <path id="Trazado_1170065" data-name="Trazado 1170065" d="M308.809,254l-29.846,34.413a225.719,225.719,0,0,1-22.77-23.428c-4.365-5.2-5.761-7.357-8.844-9.95-6.812-5.727-17.261-9.732-33.826-8.622a37.7,37.7,0,0,0,2.342,21.283,36.5,36.5,0,0,0,9.355,12.543c25.07,22.917,46.269,42.314,63.681,35.611,6.548-2.514,10.474-8.827,18.35-21.446a138.44,138.44,0,0,0,15.991-36.55Z" transform="translate(-102.828 -125.484)" fill="#86ebf9"/>
      <g id="Grupo_1220867" data-name="Grupo 1220867" transform="translate(98.36 93.622)" clip-path="url(#clip-path-2)">
        <path id="Trazado_1170066" data-name="Trazado 1170066" d="M184.89,181.49h20.923v44.518H184.89Z" transform="translate(-184.89 -181.49)" fill="#955d43"/>
        <path id="Trazado_1170067" data-name="Trazado 1170067" d="M186.81,201.48c3.645,10.445,13.205,16.9,23.906,17.487V206.239Z" transform="translate(-186.006 -193.105)" fill="#834a27"/>
      </g>
      <path id="Trazado_1170069" data-name="Trazado 1170069" d="M197.874,108.706c-1.2-4.42-2.66-7-3.352-9.912-1.676-7.181-1.676-12.849-7.57-17.072a25.514,25.514,0,0,0-6.171-4.014c-8.253-4.424-20.692-2.828-28.2,4.642-8.643,8.6-6.774,21.052-6.309,24.144,2.17,14.437,13.574,22.724,18.459,25.674a37.431,37.431,0,0,0,8.727,4.68c3.456,1.257,12.715,4.608,18.363-.256,1.475-1.257,3.352-4.19,5.1-10.717C199.207,117.467,199.081,113.131,197.874,108.706Z" transform="translate(-63.806 -26.145)" fill="#955d43"/>
      <g id="Grupo_1220868" data-name="Grupo 1220868" transform="translate(102.388 67.546)">
        <path id="Trazado_1170070" data-name="Trazado 1170070" d="M236.625,158.527a.209.209,0,0,1-.126-.377c1.387-1.056,2.04-2.024,1.94-2.874-.235-1.957-4.1-1.806-6.284-8.35a.21.21,0,1,1,.4-.134c2.149,6.452,6.025,6.175,6.284,8.434.122,1.01-.587,2.095-2.095,3.255A.222.222,0,0,1,236.625,158.527Z" transform="translate(-216.374 -135.17)" fill="#2d1929"/>
        <path id="Trazado_1170071" data-name="Trazado 1170071" d="M248.889,144.094c-1.043.239-2.191-.88-2.556-2.514s.184-3.121,1.228-3.352,2.2.884,2.56,2.514S249.937,143.859,248.889,144.094Z" transform="translate(-224.553 -130.259)" fill="#2d1929"/>
        <path id="Trazado_1170072" data-name="Trazado 1170072" d="M210,152.914c-1.047.239-2.191-.88-2.56-2.514s.184-3.121,1.232-3.352,2.191.884,2.56,2.514S211.049,152.679,210,152.914Z" transform="translate(-201.954 -135.384)" fill="#2d1929"/>
        <path id="Trazado_1170073" data-name="Trazado 1170073" d="M232.644,122.647a.419.419,0,0,1-.318-.7c.038-.042,3.771-4.19,8.932-2.128a.419.419,0,1,1-.31.779,7.313,7.313,0,0,0-7.989,1.9.419.419,0,0,1-.314.142Z" transform="translate(-216.419 -119.249)" fill="#2d1929"/>
        <path id="Trazado_1170074" data-name="Trazado 1170074" d="M194.921,130.7a.419.419,0,0,1-.369-.616c2.61-4.914,8.119-4.143,8.186-4.143a.419.419,0,1,1-.122.83,7.313,7.313,0,0,0-7.327,3.716.419.419,0,0,1-.369.214Z" transform="translate(-194.503 -123.111)" fill="#2d1929"/>
      </g>
      <path id="Trazado_1170075" data-name="Trazado 1170075" d="M149.917,344.581s-12.25-70.858-6.167-84.377c6.36-14.136,44.506-20.11,57.74-4.638,12.6,14.739,4.386,89.015,4.386,89.015Z" transform="translate(-61.64 -125.604)" fill="#efbd42"/>
      <path id="Trazado_1170076" data-name="Trazado 1170076" d="M99.663,205.425q-17.516,6.284-34.941,12.631,6.523-18.568,13.042-37.14L64.471,173.84c-2.673,3.833-6.284,9.309-10.168,16.138-12.719,22.431-22.908,40.4-16.214,50.622,5.865,8.974,21.928,7.654,36.994,6.418,9.552-.788,13.352-3.092,14.592-5.97a6.653,6.653,0,0,0,.44-3.318C89.764,233.478,91.418,224.735,99.663,205.425Z" transform="translate(0 -83.423)" fill="#86ebf9"/>
      <path id="Trazado_1170077" data-name="Trazado 1170077" d="M185,245.329c1.705,9.8,9.963,14.567,14.814,12.962,4.018-1.332,7.122-7.541,6.041-14.663A21.882,21.882,0,0,0,185,245.329Z" transform="translate(-86.593 -122.883)" fill="#955d43"/>
      <path id="Trazado_1170078" data-name="Trazado 1170078" d="M153.336,251a165.007,165.007,0,0,1,9.921,35.389s2.3,14.244,1.345,60.832H134.965s-1.039-16.318-1.843-34.17c-1.073-23.826-5.337-32.817-.419-43.366C137.135,260.188,145.673,254.5,153.336,251Z" transform="translate(-54.858 -128.257)" fill="#86ebf9"/>
      <path id="Trazado_1170079" data-name="Trazado 1170079" d="M234.82,246.206s13.092,55.721,9.322,98.232h20.164s3.9-66.036-.9-80.988c-5.053-15.723-20-17.466-28.589-17.244Z" transform="translate(-115.541 -125.461)" fill="#86ebf9"/>
      <path id="Trazado_1170080" data-name="Trazado 1170080" d="M127.353,316.974a52.591,52.591,0,0,1,3.674-22.464s-6.389,6.791-7.277,22.829Z" transform="translate(-51.004 -153.538)" fill="#40c2d6"/>
      <path id="Trazado_1170081" data-name="Trazado 1170081" d="M85.25,276.126a43.265,43.265,0,0,1-13.93,12.15,38.876,38.876,0,0,0,20.361-14.5Z" transform="translate(-20.54 -141.493)" fill="#40c2d6"/>
      <path id="Trazado_1170082" data-name="Trazado 1170082" d="M300.68,306s3.6,24.89,3.389,33.072l4.014,2.912A89.547,89.547,0,0,0,300.68,306Z" transform="translate(-153.809 -160.214)" fill="#40c2d6"/>
      <path id="Trazado_1170083" data-name="Trazado 1170083" d="M173.193,234.62a6.29,6.29,0,0,0-4.089,3.72,20.64,20.64,0,0,1-4.424,5.9s5.606,15.983,7,16.423,6.4-4.19,6.4-4.19S172.879,239.011,173.193,234.62Z" transform="translate(-74.787 -118.739)" fill="#86ebf9"/>
      <path id="Trazado_1170084" data-name="Trazado 1170084" d="M240.408,238.279s-2.514-2.426-4.047-4.307-2.028-1.822-2.028-1.822-2.149,9.456,4.19,27.111Z" transform="translate(-115.054 -117.304)" fill="#86ebf9"/>
      <path id="Trazado_1170085" data-name="Trazado 1170085" d="M165.987,257a35.841,35.841,0,0,0,3.645,17.651l4.294-8.605,4.889,4.726-4.889-7.6q-2.04,3.737-4.089,7.478A72.726,72.726,0,0,1,165.987,257Z" transform="translate(-75.519 -131.743)" fill="#40c2d6"/>
      <path id="Trazado_1170086" data-name="Trazado 1170086" d="M246.467,246.78a43.223,43.223,0,0,1,3.4,14.756l-5.384-3.808-.071,7.445,1.546-4.717L252,264.137A26.964,26.964,0,0,0,246.467,246.78Z" transform="translate(-121.113 -125.805)" fill="#40c2d6"/>
      <path id="Trazado_1170087" data-name="Trazado 1170087" d="M364.2,342.33s-3.771,10.893-1.106,18.819c0,0-5.648-9.158-2.514-22.129Z" transform="translate(-188.061 -179.4)" fill="#40c2d6"/>
      <path id="Trazado_1170088" data-name="Trazado 1170088" d="M139.114,97.565l2.543-5.3c10-12.028,6.284-22.448,9.95-23.88,3.079-1.194,6.879,5.354,11.559,3.938a6.511,6.511,0,0,0,3.142-2.279s8.082-1.077,11.89,5.543c0,0,5.354-13.763,1.228-20.835s-13.972.595-19.226-.88-12.518-.591-15.811,3.092-6.749,1.475-13.566,5.761-5.932,10.306-5.342,13.825-2.933,2.644-3.98,8.618,6.7,26.545,26.566,31.66Z" transform="translate(-49.644 -12.456)" fill="#2d1929"/>
      <path id="Trazado_1170089" data-name="Trazado 1170089" d="M154.568,161.667c-3.067,1.768-7.3.184-9.452-3.544s-1.408-8.186,1.676-9.959,7.3-.184,9.452,3.544S157.639,159.895,154.568,161.667Z" transform="translate(-62.706 -68.083)" fill="#955d43"/>
      <path id="Trazado_1170090" data-name="Trazado 1170090" d="M157.911,161.181a2.807,2.807,0,0,1-2.69-2.057c-.306-1.257,1.257-2.011,1.885-2.254-.545-.838-2.627-3.683-4.91-3.243-2.149.419-1.739,2.845-1.722,2.933a.209.209,0,1,1-.411.075c0-.029-.5-2.933,2.053-3.44,2.933-.561,5.388,3.49,5.488,3.662a.209.209,0,0,1-.117.31c-.021,0-2.141.662-1.86,1.839a2.356,2.356,0,0,0,2.279,1.739.218.218,0,0,1,0,.436Z" transform="translate(-66.271 -71.397)" fill="#2d1929"/>
      <path id="Trazado_1170091" data-name="Trazado 1170091" d="M96.76,144.422l6-9.573s3.389-11.2,6.7-14.37,13.117-6.854,14.446-5.446-7.407,6.774-7.407,6.774,4.114-.142,2.778,3.247c0,0,4.453-.62,2.329,3.41,0,0,2.095.1,1.676,2.765s-3.582,12.874-8.149,13.08l-3.817,7.26a25.338,25.338,0,0,1-14.559-7.147Z" transform="translate(-35.322 -49.074)" fill="#955d43"/>
      <path id="Trazado_1170092" data-name="Trazado 1170092" d="M223.83,185.233,235,184.68a5.608,5.608,0,1,1-11.165.553Z" transform="translate(-109.155 -89.722)" fill="#efefef"/>
      <path id="Trazado_1170093" data-name="Trazado 1170093" d="M150.22,160.068a.209.209,0,0,1-.176-.323c.05-.08,5.141-8.023,3.871-11.186a1.877,1.877,0,0,0-1.4-1.148.215.215,0,1,1,.1-.419c4.4,1.039.226,9.217-2.2,12.988A.214.214,0,0,1,150.22,160.068Z" transform="translate(-66.263 -67.82)" fill="#2d1929"/>
      <circle id="Elipse_14420" data-name="Elipse 14420" cx="16.193" cy="16.193" r="16.193" transform="translate(153.403 39.247)" fill="#efbd42"/>
      <path id="Trazado_1170094" data-name="Trazado 1170094" d="M343.972,102.08l-11.442-1.973,1.181-12.577,13.369,2.308Z" transform="translate(-172.195 -24.478)" fill="#efbd42"/>
      <path id="Trazado_1170095" data-name="Trazado 1170095" d="M340.719,117.859l-5.639-.976a3.423,3.423,0,0,1-2.593-3.792l.318-3.352,11.949,2.061-.985,3.875A2.806,2.806,0,0,1,340.719,117.859Z" transform="translate(-172.28 -37.383)" fill="#287eef"/>
      <ellipse id="Elipse_14421" data-name="Elipse 14421" cx="0.859" cy="6.054" rx="0.859" ry="6.054" transform="matrix(0.17, -0.985, 0.985, 0.17, 160.335, 73.238)" fill="#d7981a"/>
      <path id="Trazado_1170096" data-name="Trazado 1170096" d="M342.8,86.683a.209.209,0,0,1-.193-.281c.482-1.307,1.99-5.312,3.582-8.8a3.3,3.3,0,0,1-1.726-1.936,3.126,3.126,0,0,1-4.043.277c.176,3.188.163,7.445.054,10.109a.209.209,0,1,1-.419,0c.092-2.3.151-6.619-.075-10.378-2.539-1.818-4.68-6.242-2.208-7.353,2.049-.918,2.472,4.872,2.618,7.122a2.892,2.892,0,0,0,3.033.419,4.78,4.78,0,0,0,.871-.612,8.993,8.993,0,0,1-.515-4.847c.2-.708.553-.909.813-.951,1.843-.306,2.514,3.62.193,5.916.3.708.838,1.63,1.575,1.843,1.412-3.058,2.845-5.635,3.7-5.484,1.982.339.628,4.328-2.66,5.786a1.781,1.781,0,0,1-.779.159c-1.165,2.564-2.455,5.731-3.62,8.873A.2.2,0,0,1,342.8,86.683Zm4.014-9.439a1.48,1.48,0,0,0,.419-.117c2.912-1.29,4.16-4.747,2.757-4.99C349.214,72.011,347.14,76.54,346.813,77.244Zm-8.869-8.563a1.4,1.4,0,0,0-.838,1.257c-.117,1.512,1.19,3.812,2.836,5.136C339.833,73.507,339.406,68.023,337.944,68.681Zm6.7,1.186c-.838.138-.788,2.983-.046,5.074,1.986-2.1,1.311-5.287.063-5.074Z" transform="translate(-174.725 -13.262)" fill="#efefef"/>
      <path id="Trazado_1170097" data-name="Trazado 1170097" d="M399.86,283.323a61.727,61.727,0,0,1,18.853-6.808c2.564-.44,6.787-.959,9.946-4.252a13.16,13.16,0,0,0,3.1-5.6c-8.044-2.045-24.873-6.318-16.8-4.278a97.2,97.2,0,0,1-15.1,20.939Z" transform="translate(-211.437 -134.558)" fill="#40c2d6"/>
      <path id="Trazado_1170098" data-name="Trazado 1170098" d="M343.286,216.935H275a2.35,2.35,0,0,1-2.338-2.543l4.328-51.242A2.346,2.346,0,0,1,279.325,161h68.164a2.35,2.35,0,0,1,2.342,2.539l-4.19,51.242A2.35,2.35,0,0,1,343.286,216.935Z" transform="translate(-137.523 -75.962)" fill="#917eec"/>
      <circle id="Elipse_14422" data-name="Elipse 14422" cx="6.544" cy="6.544" r="6.544" transform="translate(168.942 106.459)" fill="#efefef"/>
      <path id="Trazado_1170099" data-name="Trazado 1170099" d="M437.066,242.827c3.209.687,7.168-2.166,8.53-5.622.892-2.271.461-4.286-.339-7.805-.951-4.19-1.508-7.617-4.19-10.788-1.131-1.328-2.773-2.375-6.062-4.474-6.9-4.407-8.9-3.666-9.485-3.322a.657.657,0,0,0-.276.256c-.892,1.676,7.462,7.772,7.462,7.772s-7.353-4.3-8.589-2.983,5.878,6.188,5.878,6.188-4.889-2.87-6.037-2.3.762,3.247,5.308,7.42c-2.132-1.374-4.852-2.9-5.635-2.141-.31.3-.226.876-.117,1.341.838,3.528,4.219,4.608,6.984,8.53,2.3,3.276,2.66,6,5.689,7.608a3.122,3.122,0,0,0,.88.318Z" transform="translate(-225.123 -104.75)" fill="#955d43"/>
      <path id="Trazado_1170100" data-name="Trazado 1170100" d="M90.27,182.588l5.752-8.748,13.96,7.411-4.7,11.09Z" transform="translate(-31.551 -83.423)" fill="#86ebf9"/>
      <path id="Trazado_1170101" data-name="Trazado 1170101" d="M98.17,185.3a44.657,44.657,0,0,0,10.943,5.74l3.1-3.021q-.314,2.241-.624,4.5l.838.524-.352.838-1.378-.838.545-3.28-2.22,2.468A24.191,24.191,0,0,1,98.17,185.3Z" transform="translate(-36.141 -90.082)" fill="#40c2d6"/>
      <path id="Trazado_1170102" data-name="Trazado 1170102" d="M447.608,231.188a35.409,35.409,0,0,1-3.49-1.722.211.211,0,1,1,.189-.377l3.394,1.7a.209.209,0,0,1-.092.4Z" transform="translate(-237.085 -115.512)" fill="#2d1929"/>
      <path id="Trazado_1170103" data-name="Trazado 1170103" d="M441.577,239.349a45.33,45.33,0,0,1-4.043-2.241.214.214,0,0,1-.08-.285.209.209,0,0,1,.285-.08l3.942,2.212a.214.214,0,0,1-.1.394Z" transform="translate(-233.266 -119.957)" fill="#2d1929"/>
      <path id="Trazado_1170104" data-name="Trazado 1170104" d="M438.864,251.613c-.1,0,.138.163-3.352-2.514a.209.209,0,1,1,.256-.331L439,251.252a.209.209,0,0,1-.138.36Z" transform="translate(-232.099 -126.93)" fill="#2d1929"/>
    </g>
  </g>
</svg>
