<svg xmlns="http://www.w3.org/2000/svg" xmlns:xlink="http://www.w3.org/1999/xlink" width="103" height="103" viewBox="0 0 103 103">
  <defs>
    <filter id="Trazado_978624" x="0" y="0" width="103" height="103" filterUnits="userSpaceOnUse">
      <feOffset dy="3" input="SourceAlpha"/>
      <feGaussianBlur stdDeviation="3" result="blur"/>
      <feFlood flood-opacity="0.161"/>
      <feComposite operator="in" in2="blur"/>
      <feComposite in="SourceGraphic"/>
    </filter>
  </defs>
  <g id="Grupo_1220872" data-name="Grupo 1220872" transform="translate(-612 -5696)">
    <g id="Grupo_1215629" data-name="Grupo 1215629" transform="translate(0 2634)">
      <g id="Grupo_1208646" data-name="Grupo 1208646" transform="translate(621 3060)">
        <g id="Grupo_1180764" data-name="Grupo 1180764" transform="translate(0 8)">
          <g id="Grupo_1179463" data-name="Grupo 1179463">
            <g id="Grupo_1144531" data-name="Grupo 1144531">
              <g transform="matrix(1, 0, 0, 1, -9, -6)" filter="url(#Trazado_978624)">
                <g id="Trazado_978624-2" data-name="Trazado 978624" transform="translate(9 6)" fill="#f2f7e5">
                  <path d="M 42.5 83.5 C 36.96437835693359 83.5 31.59512901306152 82.41617584228516 26.54141235351562 80.27863311767578 C 21.65934181213379 78.21369171142578 17.27447128295898 75.25723266601562 13.50862312316895 71.49137878417969 C 9.742764472961426 67.72553253173828 6.786305904388428 63.34066009521484 4.721364498138428 58.45858764648438 C 2.583823442459106 53.40486907958984 1.5 48.03562164306641 1.5 42.5 C 1.5 36.96437835693359 2.583823442459106 31.59512901306152 4.721364498138428 26.54141235351562 C 6.786305904388428 21.65934181213379 9.742764472961426 17.27447128295898 13.50862312316895 13.50862312316895 C 17.27447128295898 9.742764472961426 21.65934181213379 6.786305904388428 26.54141235351562 4.721364498138428 C 31.59512901306152 2.583823442459106 36.96437835693359 1.5 42.5 1.5 C 48.03562164306641 1.5 53.40486907958984 2.583823442459106 58.45858764648438 4.721364498138428 C 63.34066009521484 6.786305904388428 67.72553253173828 9.742764472961426 71.49137878417969 13.50862312316895 C 75.25723266601562 17.27447128295898 78.21369171142578 21.65934181213379 80.27863311767578 26.54141235351562 C 82.41617584228516 31.59512901306152 83.5 36.96437835693359 83.5 42.5 C 83.5 48.03562164306641 82.41617584228516 53.40486907958984 80.27863311767578 58.45858764648438 C 78.21369171142578 63.34066009521484 75.25723266601562 67.72553253173828 71.49137878417969 71.49137878417969 C 67.72553253173828 75.25723266601562 63.34066009521484 78.21369171142578 58.45858764648438 80.27863311767578 C 53.40486907958984 82.41617584228516 48.03562164306641 83.5 42.5 83.5 Z" stroke="none"/>
                  <path d="M 42.5 3 C 37.16621398925781 3 31.99356079101562 4.043960571289062 27.125732421875 6.102882385253906 C 22.42246627807617 8.092185974121094 18.19785308837891 10.94070434570312 14.56928253173828 14.56928253173828 C 10.94070434570312 18.19785308837891 8.092185974121094 22.42246627807617 6.102882385253906 27.125732421875 C 4.043960571289062 31.99356079101562 3 37.16621398925781 3 42.5 C 3 47.83378601074219 4.043960571289062 53.00643920898438 6.102882385253906 57.87425231933594 C 8.092185974121094 62.57753372192383 10.94070434570312 66.80213165283203 14.56928253173828 70.43071746826172 C 18.19786834716797 74.05929565429688 22.42246627807617 76.90781402587891 27.125732421875 78.89711761474609 C 31.99356079101562 80.95603942871094 37.16621398925781 82 42.5 82 C 47.83378601074219 82 53.00642395019531 80.95603942871094 57.87425231933594 78.89711761474609 C 62.57753372192383 76.90781402587891 66.80213165283203 74.05929565429688 70.43071746826172 70.43071746826172 C 74.05929565429688 66.80213165283203 76.90781402587891 62.57753372192383 78.89711761474609 57.87425231933594 C 80.95603942871094 53.00642395019531 82 47.83378601074219 82 42.5 C 82 37.16621398925781 80.95603942871094 31.99356079101562 78.89711761474609 27.125732421875 C 76.90781402587891 22.42246627807617 74.05929565429688 18.19786834716797 70.43071746826172 14.56928253173828 C 66.80213165283203 10.94070434570312 62.57753372192383 8.092185974121094 57.87425231933594 6.102882385253906 C 53.00643920898438 4.043960571289062 47.83378601074219 3 42.5 3 M 42.5 0 C 65.97209167480469 0 85 19.02789306640625 85 42.5 C 85 65.97209167480469 65.97209167480469 85 42.5 85 C 19.02789306640625 85 0 65.97209167480469 0 42.5 C 0 19.02789306640625 19.02789306640625 0 42.5 0 Z" stroke="none" fill="#496406"/>
                </g>
              </g>
            </g>
          </g>
        </g>
      </g>
    </g>
    <g id="sistema-de-pago" transform="translate(624.82 5705.816)">
      <g id="Grupo_1220871" data-name="Grupo 1220871" transform="translate(14.003 13.069)">
        <g id="Grupo_1220869" data-name="Grupo 1220869" transform="translate(12.705 0)">
          <circle id="Elipse_14423" data-name="Elipse 14423" cx="12.959" cy="12.959" r="12.959" transform="translate(0 18.324) rotate(-45)" fill="#ffe177"/>
          <path id="Trazado_1170105" data-name="Trazado 1170105" d="M301.211,92.329a12.959,12.959,0,1,1,0,25.919c-.293,0-.584-.011-.873-.03a12.959,12.959,0,0,0,0-25.859c.289-.019.58-.03.873-.03Z" transform="translate(-282.88 -86.965)" fill="#ffd064" fill-rule="evenodd"/>
          <circle id="Elipse_14424" data-name="Elipse 14424" cx="9.896" cy="9.896" r="9.896" transform="translate(8.213 27.976) rotate(-88.625)" fill="#ffc338"/>
          <path id="Trazado_1170106" data-name="Trazado 1170106" d="M237.312,117.089a9.9,9.9,0,1,0,0,19.791q.4,0,.8-.032a9.9,9.9,0,0,1,0-19.727q-.395-.031-.8-.032Z" transform="translate(-218.98 -108.662)" fill="#f5b829" fill-rule="evenodd"/>
        </g>
        <g id="Grupo_1220870" data-name="Grupo 1220870" transform="translate(0 22.975)">
          <path id="Trazado_1170107" data-name="Trazado 1170107" d="M83.992,241.644l9.641-5.585c1.809-1.048,3.649-1.792,5.638-1.146a67.789,67.789,0,0,0,9.53,2.929,2.678,2.678,0,0,1,1.852,3.208,2.592,2.592,0,0,1-3.208,1.853l1.291.207a6.01,6.01,0,0,0,4.132-.72l9.269-5.4c7.205-4.2,8.263,2.259,5.868,3.734l-16.821,10.358a6.169,6.169,0,0,1-4.995.7l-12.2-3.269-4.518,2.609a1.825,1.825,0,0,1-2.488-.667l-3.654-6.329a1.825,1.825,0,0,1,.665-2.487Z" transform="translate(-79.802 -234.671)" fill="#f6dccd" fill-rule="evenodd"/>
          <path id="Trazado_1170108" data-name="Trazado 1170108" d="M235.261,274.584a2.645,2.645,0,0,1-2.988,1.275c-2-.528-3.995-1.07-5.992-1.605a1,1,0,1,1,.519-1.937Z" transform="translate(-204.629 -267.629)" fill="#f1cbbc" fill-rule="evenodd"/>
          <path id="Trazado_1170109" data-name="Trazado 1170109" d="M83.992,241.643l9.641-5.585c1.809-1.048,3.649-1.792,5.638-1.146,1.186.385,2.774,1.005,4.56,1.6L85.155,247.295l-1.828-3.165A1.825,1.825,0,0,1,83.992,241.643Z" transform="translate(-79.801 -234.67)" fill="#f1cbbc" fill-rule="evenodd"/>
          <path id="Trazado_1170110" data-name="Trazado 1170110" d="M61.7,261.54l7.646,13.51a1.369,1.369,0,0,1-.516,1.86l-2.6,1.472a1.369,1.369,0,0,1-1.86-.515l-7.646-13.51a1.369,1.369,0,0,1,.515-1.86l2.6-1.472A1.368,1.368,0,0,1,61.7,261.54Z" transform="translate(-56.55 -257.61)" fill="#d1d1d6" fill-rule="evenodd"/>
          <path id="Trazado_1170111" data-name="Trazado 1170111" d="M90.954,270.822l1.353,2.391,1.338,2.365a1.369,1.369,0,0,1-.511,1.858l.929-.526a1.369,1.369,0,0,0,.516-1.86l-1.343-2.373-2.7-4.764-2.7-4.769-.908-1.6a1.37,1.37,0,0,0-1.59-.632l1.572,2.777,2.7,4.764,1.343,2.373Z" transform="translate(-81.78 -257.61)" fill="#b1b1b5" fill-rule="evenodd"/>
        </g>
      </g>
      <path id="Trazado_1170112" data-name="Trazado 1170112" d="M17.4,42a.929.929,0,1,0,1.054.786A.926.926,0,0,0,17.4,42ZM44.05,37.654a.99.99,0,0,0,1.98,0v-.493A4.229,4.229,0,0,0,48.5,35.878a2.872,2.872,0,0,0,.676-2.288c-.21-1.732-1.549-2.811-3.972-3.21-1.974-.324-2.009-1.079-2.027-1.364-.052-1.068,1.095-1.383,1.328-1.435a2.131,2.131,0,0,1,2.528,1.188A.991.991,0,0,0,48.866,28a3.9,3.9,0,0,0-2.836-2.357V25.13a.99.99,0,0,0-1.98,0v.525a3.41,3.41,0,0,0-2.842,3.458c.058,1.2.745,2.738,3.681,3.221,1.939.318,2.26.966,2.324,1.495a.909.909,0,0,1-.2.754,2.692,2.692,0,0,1-1.864.683,2.175,2.175,0,0,1-2.318-1.45.99.99,0,0,0-1.922.479,3.916,3.916,0,0,0,3.145,2.852Zm12.783,1.569c2.58-1.5,4.548-1.681,5.27-.481a1.984,1.984,0,0,1-.419,2.518L44.865,51.618a5.2,5.2,0,0,1-4.222.591l-12.2-3.269a.983.983,0,0,0-.751.1l-1.712.986-4.42-7.814,6.767-3.919c1.514-.876,3.145-1.611,4.839-1.062.559.182,1.205.417,1.957.688a48.213,48.213,0,0,0,7.629,2.261A1.678,1.678,0,0,1,43.9,42.172a1.578,1.578,0,0,1-1.963,1.149c-1.351-.28-2.644-.648-4.013-1.038-.652-.186-1.322-.378-2.015-.564a.99.99,0,0,0-.512,1.913c.676.181,1.339.371,1.986.554,1.421.406,2.761.788,4.2,1.084l1.194.194a6.969,6.969,0,0,0,4.787-.841ZM25.938,53.973a.349.349,0,0,1,.035.285.38.38,0,0,1-.175.227l-2.6,1.472a.376.376,0,0,1-.507-.142L15.042,42.3a.377.377,0,0,1,.14-.511l2.6-1.472a.368.368,0,0,1,.181-.047.42.42,0,0,1,.1.014.376.376,0,0,1,.221.174h0Zm19.62-10.607a5.119,5.119,0,0,0,1.013-.454l2.248-1.31a10.776,10.776,0,0,1-2.924.644,3.9,3.9,0,0,1-.087.439,4.051,4.051,0,0,1-.25.682Zm-2.382-5.121a36.554,36.554,0,0,1-5.189-1.41,8.907,8.907,0,1,1,7.606,3.446,3.806,3.806,0,0,0-2.289-2,1.183,1.183,0,0,0-.128-.034Zm-10.1-6.852a11.968,11.968,0,1,1,21.955,6.592l-3.005,1.749a10.882,10.882,0,1,0-17.867-8.342,10.987,10.987,0,0,0,.932,4.41c-.472-.168-.914-.324-1.316-.454l-.035-.011a11.892,11.892,0,0,1-.664-3.944ZM58.038,36.46c3.774-1.373,5.335.547,5.765,1.265a3.961,3.961,0,0,1-1.077,5.221L45.9,53.3a7.134,7.134,0,0,1-3.78,1.086,7.675,7.675,0,0,1-1.992-.268l-11.8-3.164-1.369.789.7,1.25a2.354,2.354,0,0,1-.885,3.208l-2.6,1.472a2.36,2.36,0,0,1-3.209-.89L13.318,43.278a2.356,2.356,0,0,1,.885-3.209l2.6-1.471a2.357,2.357,0,0,1,3.209.889l.571,1,6.75-3.909a9.845,9.845,0,0,1,4.245-1.508A13.949,13.949,0,1,1,58.038,36.46Zm7.169-13.2A30.686,30.686,0,0,1,20.557,63.447l.641,2.239a.991.991,0,0,1-.681,1.224.964.964,0,0,1-.274.038.991.991,0,0,1-.949-.719l-1.5-5.267A.99.99,0,0,1,18.7,59.7l5.48-.2h.035a.99.99,0,0,1,.035,1.98l-2.877.1A28.707,28.707,0,0,0,63.5,24.257a.988.988,0,1,1,1.706-1ZM13.859,53.113a.99.99,0,0,1-1.712,1A30.687,30.687,0,0,1,56.8,13.925l-.641-2.243a.99.99,0,0,1,1.9-.543l1.5,5.268a.99.99,0,0,1-.914,1.261l-5.474.2H53.14a.989.989,0,0,1-.035-1.978l2.877-.1A28.708,28.708,0,0,0,13.859,53.113Z" fill-rule="evenodd"/>
    </g>
  </g>
</svg>
