<svg xmlns="http://www.w3.org/2000/svg" xmlns:xlink="http://www.w3.org/1999/xlink" width="108" height="108" viewBox="0 0 108 108">
  <defs>
    <filter id="Trazado_904820" x="0" y="0" width="108" height="108" filterUnits="userSpaceOnUse">
      <feOffset dy="3" input="SourceAlpha"/>
      <feGaussianBlur stdDeviation="3" result="blur"/>
      <feFlood flood-opacity="0.161"/>
      <feComposite operator="in" in2="blur"/>
      <feComposite in="SourceGraphic"/>
    </filter>
  </defs>
  <g id="Grupo_1220233" data-name="Grupo 1220233" transform="translate(-188.999 -805.744)">
    <g id="Grupo_1215597" data-name="Grupo 1215597" transform="translate(-3 -517.256)">
      <g id="Grupo_1214441" data-name="Grupo 1214441" transform="translate(200.999 1329)">
        <g id="Grupo_1207774" data-name="Grupo 1207774" transform="translate(0 0)">
          <g id="Grupo_1206630" data-name="Grupo 1206630" transform="translate(0 0)">
            <g id="Grupo_1185091" data-name="Grupo 1185091">
              <g id="Grupo_1179560" data-name="Grupo 1179560">
                <g id="Grupo_1173787" data-name="Grupo 1173787">
                  <g id="Grupo_1171910" data-name="Grupo 1171910">
                    <g id="Grupo_1167341" data-name="Grupo 1167341">
                      <g id="Grupo_1166792" data-name="Grupo 1166792">
                        <g transform="matrix(1, 0, 0, 1, -9, -6)" filter="url(#Trazado_904820)">
                          <g id="Trazado_904820-2" data-name="Trazado 904820" transform="translate(9 6)" fill="#fff4e6">
                            <path d="M 44.99999618530273 88.50005340576172 C 39.12687301635742 88.50005340576172 33.43022155761719 87.35012817382812 28.06829643249512 85.08221435546875 C 22.88852119445801 82.89136505126953 18.23629570007324 79.754638671875 14.24084663391113 75.75918579101562 C 10.24540901184082 71.76374053955078 7.108683586120605 67.11151123046875 4.917821407318115 61.93173980712891 C 2.649921178817749 56.56980133056641 1.499996185302734 50.87314987182617 1.499996185302734 45.00002670288086 C 1.499996185302734 39.12690353393555 2.649921178817749 33.43025207519531 4.917821407318115 28.06831359863281 C 7.108683586120605 22.8885383605957 10.24540901184082 18.23631477355957 14.24084663391113 14.24086380004883 C 18.23629570007324 10.2454137802124 22.88852119445801 7.108689308166504 28.06829643249512 4.917839050292969 C 33.43022155761719 2.649926662445068 39.12687301635742 1.500001668930054 44.99999618530273 1.500001668930054 C 50.87311935424805 1.500001668930054 56.56977081298828 2.649926662445068 61.93169784545898 4.917839050292969 C 67.11147308349609 7.108689308166504 71.76369476318359 10.2454137802124 75.75914764404297 14.24086380004883 C 79.75458526611328 18.23631477355957 82.89131164550781 22.8885383605957 85.08216857910156 28.06831359863281 C 87.35007476806641 33.43025207519531 88.5 39.12690353393555 88.5 45.00002670288086 C 88.5 50.87314987182617 87.35007476806641 56.56980133056641 85.08216857910156 61.93173980712891 C 82.89131164550781 67.11151123046875 79.75458526611328 71.76374053955078 75.75914764404297 75.75918579101562 C 71.76369476318359 79.754638671875 67.11147308349609 82.89136505126953 61.93169784545898 85.08221435546875 C 56.56977081298828 87.35012817382812 50.87311935424805 88.50005340576172 44.99999618530273 88.50005340576172 Z" stroke="none"/>
                            <path d="M 44.99999618530273 3 C 39.32870864868164 3 33.82865142822266 4.110054016113281 28.65262603759766 6.299339294433594 C 23.65165710449219 8.414566040039062 19.15968322753906 11.44334411621094 15.301513671875 15.30152893066406 C 11.44333648681641 19.15969848632812 8.414566040039062 23.65167236328125 6.299339294433594 28.65264129638672 C 4.110054016113281 33.82868194580078 2.999992370605469 39.32873916625977 2.999992370605469 45.00002670288086 C 2.999992370605469 50.67131423950195 4.110054016113281 56.17137145996094 6.299339294433594 61.347412109375 C 8.414566040039062 66.34838104248047 11.44333648681641 70.84035491943359 15.301513671875 74.69852447509766 C 19.15968322753906 78.55670928955078 23.65165710449219 81.58547973632812 28.65262603759766 83.70071411132812 C 33.82865142822266 85.88999938964844 39.32870864868164 87.00005340576172 44.99999618530273 87.00005340576172 C 50.67128372192383 87.00005340576172 56.17134094238281 85.88999938964844 61.34736633300781 83.70071411132812 C 66.34834289550781 81.58547973632812 70.84030914306641 78.55670928955078 74.69847869873047 74.69852447509766 C 78.55665588378906 70.84035491943359 81.58542633056641 66.34838104248047 83.70065307617188 61.347412109375 C 85.88993835449219 56.17137145996094 87 50.67131423950195 87 45.00002670288086 C 87 39.32873916625977 85.88993835449219 33.82868194580078 83.70065307617188 28.65264129638672 C 81.58542633056641 23.65167236328125 78.55665588378906 19.15969848632812 74.69847869873047 15.30152893066406 C 70.84030914306641 11.44334411621094 66.34834289550781 8.414566040039062 61.34736633300781 6.299339294433594 C 56.17134094238281 4.110054016113281 50.67128372192383 3 44.99999618530273 3 M 44.99999618530273 0 C 69.85281372070312 0 90 20.14720153808594 90 45.00002670288086 C 90 69.85285949707031 69.85281372070312 90.00005340576172 44.99999618530273 90.00005340576172 C 20.14717864990234 90.00005340576172 -7.62939453125e-06 69.85285949707031 -7.62939453125e-06 45.00002670288086 C -7.62939453125e-06 20.14720153808594 20.14717864990234 0 44.99999618530273 0 Z" stroke="none" fill="#ff9d1c"/>
                          </g>
                        </g>
                      </g>
                    </g>
                  </g>
                </g>
              </g>
            </g>
          </g>
        </g>
      </g>
    </g>
    <g id="economia-global" transform="translate(208.031 823.769)">
      <g id="Grupo_1220232" data-name="Grupo 1220232" transform="translate(1.126 1.007)">
        <g id="Grupo_1220230" data-name="Grupo 1220230" transform="translate(0)">
          <circle id="Elipse_14363" data-name="Elipse 14363" cx="31.022" cy="31.022" r="31.022" transform="translate(0 0.121)" fill="#8ac9fe"/>
          <path id="Trazado_1168990" data-name="Trazado 1168990" d="M241.75,8.051a31.216,31.216,0,0,1,0,62.328q.89.05,1.794.051a31.215,31.215,0,1,0,0-62.43Q242.641,8,241.75,8.051Z" transform="translate(-212.45 -8)" fill="#60b7ff" fill-rule="evenodd"/>
          <path id="Trazado_1168991" data-name="Trazado 1168991" d="M57.439,96.533c.69-5.58,6.178-6.687,6.682-13.327.3-3.918-10.954-7.123-12.2-7.023-5.145.409-4.371,1.29-7.243-3.315-3.6-5.775,5.556-2.338,6.283-6.061.6-3.072,2.968-3.563,4.625-4.6,1.326-.828,3.745-1.08,5.567-1.57,1.49-.4,1.468-2.1,1.66-3.447.421-2.941-.213-3.384-2.8-3.751-4.3-.613-2.86-3.6-8.648-2.381-5.73,1.206-4.1.774-9.867-.973a31.343,31.343,0,0,0-10.978,12.9c3.207,9.591,9.8,11.424,10.922,12.585.974,1,2.363,1.775,2.4,4.948.114,10.2,4.748,3.158,6.827,14.814C52.633,106.367,56.635,103.033,57.439,96.533ZM70.291,78.587c-6.974-4.573.743-7.9-.6-10.793-.211-.454,1.352-2.552,2.374-2.221a31.183,31.183,0,0,0,9.208.619c1.1-.3,2.843-4.49-.935-4.638-.807-.032-7.358.886-7.735.148-.374-.936-1.12-4.4.562-5.94,1.937-1.771,5.828-2.4,6.534-3.035a31.221,31.221,0,0,1,4.67,41.329c-2.2,2.1-6.466,1.873-5.871-.52.995-4,.342-5.119.395-7.616.2-9.484-3.962-5.632-8.6-7.333Z" transform="translate(-27.805 -44.79)" fill="#6cf5c2" fill-rule="evenodd"/>
          <path id="Trazado_1168992" data-name="Trazado 1168992" d="M401.174,72.064a31.217,31.217,0,0,1,2.61,41.665,5.33,5.33,0,0,0,4.586-1.331A31.221,31.221,0,0,0,403.7,71.07,11.177,11.177,0,0,1,401.174,72.064Z" transform="translate(-351.808 -63.132)" fill="#00e499" fill-rule="evenodd"/>
        </g>
        <g id="Grupo_1220231" data-name="Grupo 1220231" transform="translate(24.318 24.45)">
          <circle id="Elipse_14364" data-name="Elipse 14364" cx="15.733" cy="15.733" r="15.733" transform="translate(0 22.247) rotate(-45)" fill="#ffd064"/>
          <path id="Trazado_1168993" data-name="Trazado 1168993" d="M373.729,254.014a15.734,15.734,0,0,1,0,31.439q.33.014.663.014a15.733,15.733,0,0,0,0-31.467Q374.059,254,373.729,254.014Z" transform="translate(-352.135 -247.486)" fill="#ffc338" fill-rule="evenodd"/>
          <circle id="Elipse_14365" data-name="Elipse 14365" cx="12.014" cy="12.014" r="12.014" transform="translate(5.259 22.247) rotate(-45)" fill="#ffc338"/>
          <path id="Trazado_1168994" data-name="Trazado 1168994" d="M284.983,295.563a12.015,12.015,0,0,1,11.3-11.993q-.356-.021-.716-.021a12.014,12.014,0,0,0,0,24.028q.361,0,.716-.021A12.014,12.014,0,0,1,284.983,295.563Z" transform="translate(-273.307 -273.316)" fill="#f5b829" fill-rule="evenodd"/>
        </g>
      </g>
      <path id="Trazado_1168995" data-name="Trazado 1168995" d="M47.7,58.711A11.007,11.007,0,1,1,58.709,47.7,11.02,11.02,0,0,1,47.7,58.711Zm0-24.028A13.021,13.021,0,1,0,60.723,47.7,13.036,13.036,0,0,0,47.7,34.682Zm4.832,15.712c-.366-3.023-3.6-3.553-4.658-3.728-2.552-.419-2.6-1.45-2.622-1.838a1.985,1.985,0,0,1,1.76-1.942,2.782,2.782,0,0,1,3.3,1.557,1.007,1.007,0,0,0,1.857-.779,4.568,4.568,0,0,0-3.459-2.778V40.1a1.007,1.007,0,1,0-2.014,0V40.9l-.126.028a3.955,3.955,0,0,0-3.326,4c.068,1.388.869,3.163,4.307,3.727,2.482.408,2.9,1.274,2.985,1.984a1.286,1.286,0,0,1-.3,1.066,3.408,3.408,0,0,1-2.4.9,2.839,2.839,0,0,1-3.011-1.908,1.007,1.007,0,1,0-1.953.487,4.59,4.59,0,0,0,3.824,3.348v.779a1.007,1.007,0,1,0,2.014,0v-.763a5,5,0,0,0,3.052-1.522,3.3,3.3,0,0,0,.773-2.627ZM47.7,62.43A14.726,14.726,0,1,0,32.975,47.7,14.744,14.744,0,0,0,47.7,62.43Zm-15.481,0a30.381,30.381,0,0,0,6.387-.678,16.827,16.827,0,0,1-6.841-8.919.334.334,0,0,1-.007.042C31.25,57,29.627,59.7,27.626,59.757h-.064c-2.08,0-3.616-2.7-4.566-8.028-.968-5.427-2.439-6.425-3.737-7.305-1.838-1.248-3.048-2.455-3.105-7.673a4.376,4.376,0,0,0-1.635-3.795c-.158-.147-.321-.3-.48-.465a8.044,8.044,0,0,0-1.079-.685A20.376,20.376,0,0,1,3.82,21.927a30.211,30.211,0,0,0,28.4,40.5ZM15,7.415c1.094.341,1.883.624,2.533.856,2.606.934,2.882.933,7.355-.009,2.934-.617,3.559-.1,4.506.671a6.825,6.825,0,0,0,3.792,1.722,3.927,3.927,0,0,1,1.889.551c.2.242.216.935.055,2.06-.028.188-.05.383-.073.579-.163,1.378-.316,1.894-.852,2.038s-1.134.269-1.765.4a13.08,13.08,0,0,0-4.074,1.29c-.306.191-.653.369-1.021.556-1.554.8-3.489,1.785-4.059,4.7-.163.841-1.334,1.074-3.1,1.332-1.584.231-3.221.47-3.833,1.789-.574,1.24.172,2.686.783,3.667l.33.529c1.113,1.79,1.67,2.689,2.472,3.187.9.561,1.808.456,3.314.279.547-.063,1.228-.144,2.051-.209h0a26.776,26.776,0,0,1,9.45,3.693,16.667,16.667,0,0,0-3.8,10.606q0,.646.048,1.279a9.24,9.24,0,0,0-1.249,3.645c-.418,3.378-1.628,5.1-2.188,5.116h0c-.383,0-1.662-1.162-2.59-6.368-1.116-6.263-3.042-7.569-4.589-8.618-1.26-.856-2.171-1.473-2.222-6.029a6.322,6.322,0,0,0-2.272-5.241c-.147-.137-.286-.268-.41-.4a7.148,7.148,0,0,0-1.516-1.026A18.523,18.523,0,0,1,4.93,19.277,30.413,30.413,0,0,1,15,7.415ZM51.111,8.668l-.263.088a14.36,14.36,0,0,0-5.042,2.481c-2.13,1.946-1.32,5.938-.8,7.1.371.828,1.379.944,3.23.876,1.23-.047,2.667-.186,3.821-.3.655-.064,1.4-.137,1.563-.132,1.137.045,1.262.514,1.3.667a2.481,2.481,0,0,1-.639,2,31.957,31.957,0,0,1-8.585-.614,2.716,2.716,0,0,0-2.756,1.154c-.484.546-1.239,1.592-.841,2.448.236.511-.188,1.242-.914,2.386-.931,1.469-2.277,3.59-1.028,5.94a16.822,16.822,0,0,0-4.024,2.853c-3.33-2.493-9.689-4.321-10.974-4.218-.863.068-1.569.151-2.136.216-1.218.142-1.724.192-2.016.011a10.226,10.226,0,0,1-1.826-2.541l-.33-.531c-.838-1.343-.672-1.738-.664-1.753.153-.331,1.494-.526,2.3-.643,1.829-.267,4.335-.633,4.786-2.939.381-1.956,1.594-2.576,3-3.3.389-.2.792-.405,1.171-.642a11.975,11.975,0,0,1,3.416-1.026c.631-.131,1.284-.266,1.879-.425,1.949-.525,2.178-2.464,2.329-3.748.02-.18.042-.357.066-.529.221-1.544.223-2.752-.489-3.621s-1.848-1.082-3.163-1.27a4.9,4.9,0,0,1-2.8-1.285c-1.357-1.113-2.6-1.843-6.2-1.084-4.088.86-4.088.861-6.26.083-.291-.1-.627-.224-1.013-.357A30.152,30.152,0,0,1,51.111,8.668ZM62.428,32.222a30.132,30.132,0,0,0-9.576-22.043c-.35.146-.793.3-1.366.488a12.949,12.949,0,0,0-4.322,2.056c-1.07.979-.755,3.408-.439,4.459a38.383,38.383,0,0,0,5.137-.277c1.046-.1,1.561-.15,1.836-.138,1.859.072,3.075,1.047,3.254,2.609.189,1.648-.867,3.669-2.092,4.005a31.068,31.068,0,0,1-9.722-.612,2.826,2.826,0,0,0-1.095,1.113c.482,1.439-.385,2.8-1.157,4.019-1.028,1.62-1.653,2.75-.872,4.058a16.73,16.73,0,0,1,19.734,6.65A30.314,30.314,0,0,0,62.428,32.222Zm2.014,0A32.222,32.222,0,0,0,9.436,9.438,32.229,32.229,0,0,0,41.261,63.155,16.74,16.74,0,0,0,63.153,41.263,32.267,32.267,0,0,0,64.442,32.222Z" fill-rule="evenodd"/>
    </g>
  </g>
</svg>
