<svg xmlns="http://www.w3.org/2000/svg" xmlns:xlink="http://www.w3.org/1999/xlink" width="1109.07" height="418.571" viewBox="0 0 1109.07 418.571">
  <defs>
    <filter id="Elipse_14255" x="224.575" y="169.802" width="32" height="32" filterUnits="userSpaceOnUse">
      <feOffset dy="3" input="SourceAlpha"/>
      <feGaussianBlur stdDeviation="3" result="blur"/>
      <feFlood flood-opacity="0.161"/>
      <feComposite operator="in" in2="blur"/>
      <feComposite in="SourceGraphic"/>
    </filter>
    <filter id="Elipse_14255-2" x="844.495" y="160.802" width="32" height="32" filterUnits="userSpaceOnUse">
      <feOffset dy="3" input="SourceAlpha"/>
      <feGaussianBlur stdDeviation="3" result="blur-2"/>
      <feFlood flood-opacity="0.161"/>
      <feComposite operator="in" in2="blur-2"/>
      <feComposite in="SourceGraphic"/>
    </filter>
  </defs>
  <g id="Grupo_1221228" data-name="Grupo 1221228" transform="translate(-261 -1176.527)">
    <g id="_19962543_6174298" data-name="19962543_6174298" transform="translate(554.266 1136.018)">
      <g id="OBJECTS">
        <path id="Trazado_1085624" data-name="Trazado 1085624" d="M103.68,426.24C39.63,377.39,19.25,258.17,80.37,198.75c24.17-23.5,58.85-27.18,90.21-34.11,18.29-4.04,37.3-9.7,52.58-21,15.21-11.24,25.55-27.77,37.09-42.46,31.3-39.83,89.42-51.3,133.15-25.79,38.18,22.27,62.36,65.94,67.41,109.31,3.92,33.6-4.21,68.92-28.04,93.74-14.99,15.61-36.91,22.32-55.79,31.75-27.16,13.56-43.15,40.48-57.82,65.92-13.96,24.22-29.89,43.24-54.65,57.03-45.82,25.52-106.67,27.7-151.8-.64q-4.665-2.925-9.04-6.26Z" fill="#cbe3f8"/>
        <g id="Grupo_1215760" data-name="Grupo 1215760">
          <g id="Grupo_1215746" data-name="Grupo 1215746">
            <path id="Trazado_1085625" data-name="Trazado 1085625" d="M288.8,138.82c-13.4,1.09-26.75,2.27-40.16,3.36a88.531,88.531,0,0,0-25.68-23.52,91.611,91.611,0,0,0-15.89-7.69,89.576,89.576,0,0,0-51.7-3.06c16.17-9.64,35.07-20.32,53.88-19.72,32.96,1.05,64.92,21.07,79.54,50.63Z" fill="#b72727"/>
            <path id="Trazado_1085626" data-name="Trazado 1085626" d="M260.29,109.46c-12.29,3.59-24.76,6.76-37.33,9.21a91.611,91.611,0,0,0-15.89-7.69,89.624,89.624,0,0,0-31.81-5.5c3.19-5.16,12.63-9.67,17.88-12.17,12.19-5.81,20.12-4.15,32.81-1.37a76.875,76.875,0,0,1,34.35,17.52Z" fill="#661010"/>
          </g>
          <g id="Grupo_1215747" data-name="Grupo 1215747">
            <path id="Trazado_1085627" data-name="Trazado 1085627" d="M211.38,381.48c13.4-1.09,26.75-2.27,40.16-3.36a88.531,88.531,0,0,0,25.68,23.52,91.612,91.612,0,0,0,15.89,7.69,89.576,89.576,0,0,0,51.7,3.06c-16.17,9.64-35.07,20.32-53.88,19.72-32.96-1.05-64.92-21.07-79.54-50.63Z" fill="#ea3d3d"/>
            <path id="Trazado_1085628" data-name="Trazado 1085628" d="M239.89,410.85c12.29-3.59,24.76-6.76,37.33-9.21a91.612,91.612,0,0,0,15.89,7.69,89.624,89.624,0,0,0,31.81,5.5c-3.19,5.16-12.63,9.67-17.88,12.17-12.19,5.81-20.12,4.15-32.81,1.37a76.875,76.875,0,0,1-34.35-17.52Z" fill="#b72727"/>
          </g>
          <g id="Grupo_1215748" data-name="Grupo 1215748">
            <path id="Trazado_1085629" data-name="Trazado 1085629" d="M128.76,221.44c1.09,13.4,2.27,26.75,3.36,40.16a88.531,88.531,0,0,0-23.52,25.68,91.61,91.61,0,0,0-7.69,15.89,89.576,89.576,0,0,0-3.06,51.7c-9.64-16.17-20.32-35.07-19.72-53.88,1.05-32.96,21.07-64.92,50.63-79.54Z" fill="#fda635"/>
            <path id="Trazado_1085630" data-name="Trazado 1085630" d="M99.39,249.95c3.59,12.29,6.76,24.76,9.21,37.33a91.61,91.61,0,0,0-7.69,15.89,89.624,89.624,0,0,0-5.5,31.81c-5.16-3.19-9.67-12.63-12.17-17.88-5.81-12.19-4.15-20.12-1.37-32.81a76.875,76.875,0,0,1,17.52-34.35Z" fill="#ef701b"/>
          </g>
          <g id="Grupo_1215749" data-name="Grupo 1215749">
            <path id="Trazado_1085631" data-name="Trazado 1085631" d="M371.42,298.86c-1.09-13.4-2.27-26.75-3.36-40.16a88.531,88.531,0,0,0,23.52-25.68,91.613,91.613,0,0,0,7.69-15.89,89.576,89.576,0,0,0,3.06-51.7c9.64,16.17,20.32,35.07,19.72,53.88-1.05,32.96-21.07,64.92-50.63,79.54Z" fill="#583d71"/>
            <path id="Trazado_1085632" data-name="Trazado 1085632" d="M400.79,270.35c-3.59-12.29-6.76-24.76-9.21-37.33a91.613,91.613,0,0,0,7.69-15.89,89.624,89.624,0,0,0,5.5-31.81c5.16,3.2,9.67,12.63,12.17,17.88,5.81,12.19,4.15,20.12,1.37,32.81a76.875,76.875,0,0,1-17.52,34.35Z" fill="#47315d"/>
          </g>
          <g id="Grupo_1215752" data-name="Grupo 1215752">
            <g id="Grupo_1215750" data-name="Grupo 1215750">
              <path id="Trazado_1085633" data-name="Trazado 1085633" d="M403.42,287.42a155.567,155.567,0,0,1-17.95,49.81c-1.25,2.18-2.55,4.34-3.9,6.45q-3.12,4.92-6.6,9.56a155.8,155.8,0,0,1-228.04,23.6c-1.5-1.34-2.98-2.69-4.42-4.07A155.723,155.723,0,1,1,399.98,217.71c.21.72.41,1.46.6,2.2a152.361,152.361,0,0,1,4.16,21.48,155.166,155.166,0,0,1-1.31,46.03Z" fill="#a1c5eb"/>
              <path id="Trazado_1085634" data-name="Trazado 1085634" d="M145.05,252.02a5.275,5.275,0,0,1-.22-1.46A10.079,10.079,0,0,1,145.05,252.02Zm47.06,58.44c.33-4.91-3.23-8.85-6.5-12.1q-7.7-7.575-15.38-15.18c-3.53-3.48-7.18-7.05-11.68-8.84s-10.73-1.74-14.28,1.98c-1.67-1.47-3.33-2.95-5-4.42-.86-3.85-2.1-8.93-2.96-12.77-.33-1.46-.94-3.22-2.32-3.35-1.36-.13-2.36,1.42-3.63,2.01a3.5,3.5,0,0,1-4.35-1.72,7.361,7.361,0,0,1-.41-5.34c1.23-4.87,5.89-8.54,10.47-8.24,4.13.27,7.78,3.74,8.75,8.06-.05-2.8,1.96-5.57,4.24-7.19,2.69-1.92,5.86-2.94,8.35-5.15,1.52-1.34,2.74-3.08,4.26-4.43,2.97-2.64,6.86-3.63,10.23-5.6,9.6-5.62,13.8-20.21,8.74-30.37a11.206,11.206,0,0,0-5.05-5.47,5.7,5.7,0,0,0-6.79,1.53c-2.02,2.62-1.43,6.91-3.73,9.24-2.48,2.52-6.56.99-8.92-1.51a15.4,15.4,0,0,1-4.19-11.49c.32-4.3,2.9-8.5,6.61-10.08,3.48-1.48,7.35-.61,11.01-1.35s7.5-4.71,6-8.34c-1.96-4.72-9.45-2.04-12.69-5.81-2.9-3.38-.37-8.97-.78-13.63-.28-3.18-2.18-6.16-4.94-7.21a6.647,6.647,0,0,0-7.85,2.79c-1.65,2.71-1.09,6.77,1.36,8.48a36.888,36.888,0,0,1-13.21-2.39,154.841,154.841,0,0,0-26.61,37.7,37.591,37.591,0,0,1-.36,7.93c-1.16,7.58-4.55,14.62-6.09,22.13s-.71,16.43,4.88,20.85c.37-2.56,1.92-5.29,2.29-7.87,2.04,11.57,4.34,23.76,11.65,32.29,5.83,6.82,13.3,12.08,19.07,18.97-3.52.54-6.12,4.38-6.55,8.22s.89,7.6,2.55,10.94,3.72,6.47,4.98,10.02c2.48,6.96,1.73,14.88.26,22.31s-3.62,14.78-3.86,22.34a30.45,30.45,0,0,0,2.8,14.39c1.44,1.39,2.92,2.74,4.42,4.07a61.985,61.985,0,0,1,1.01-14.01c1.12-5.12,3.55-10.14,7.54-13.18,3.39-2.61,7.79-3.73,10.42-7.23,2.6-3.45,2.77-8.37,5.01-12.11,2.64-4.43,7.55-6.38,11.91-8.67s8.94-5.98,9.3-11.17ZM388.9,220.21q5.52-1.26,11.06-2.5a155.661,155.661,0,0,0-13.99-33.64,20.537,20.537,0,0,1-7.83-.84c-4.48-1.49-8.74-5.05-13.37-3.89-2.36.59-4.5,2.39-6.9,2.39-3.06.02-5.32-2.79-7.95-4.4-4.11-2.51-10.34-1.89-14.1,1.44a11.291,11.291,0,0,0-3.61-10.35,9.411,9.411,0,0,0-10.18-1.11c-3.87,1.97-6.23,6.25-8.74,10.05s-5.94,7.6-10.17,7.62c-2.82.02-5.99-1.57-8.21.41-2.8,2.5-.88,8.02-3.41,10.84-3.55,3.94-9.93-2.37-14.31.39-1.89,1.2-2.68,3.7-4.07,5.56s-4.49,2.79-5.42.7c-.69-1.56.46-3.36.82-5.09.66-3.25-1.85-6.36-4.77-7.18s-6.03.09-8.92,1.21c-5.04,1.96-10.06,4.74-13.35,9.36-3.31,4.62-4.42,11.45-1.47,16.15,2.02,3.21,6.81,4.72,9.25,1.72,1.49-1.83,1.51-4.49,1.86-6.89s1.56-5.15,3.77-5.41a32.551,32.551,0,0,1,1.38,10.14c-.25,3.44-1.77,7.02-4.57,8.72-2.68,1.61-6.02,1.21-8.7-.23s-4.81-3.78-6.91-6.09c.23,3.92-3.3,6.8-6.27,9.11s-6.16,6.02-4.92,9.67c-3.17-2.25-8.29.74-8.44,4.92s4.77,7.24,8.09,5.04c3-1.99,4.47-7.02,7.94-7.1,5.31-.13,5.79,11.41,11.08,10.59,1.46-.83,1.37-3.21.57-4.75s-2.07-2.83-2.32-4.58,1.53-3.9,2.86-2.92a3.145,3.145,0,0,1,.9,1.54q2.325,6.57,4.65,13.11,2.04-3.09,4.06-6.18c.43,1.47,2.5,1.45,3.6.4,1.09-1.03,1.57-2.62,2.36-3.94,1.81-3.04,5.81-4.62,8.55-2.77s2.7,7.27-.34,8.69c-3.13,1.47-7.14-1.55-9.85.72-1.91,1.59-1.69,4.99-.17,6.94s3.88,2.8,6.13,3.57a33.34,33.34,0,0,1-19.65-1.09c-8.28-3.08-16.1-9.6-24.85-7.96-7.9,1.48-13.68,9.33-16.93,17.37-2.23,5.55-3.56,12.29-.6,17.23,4.59,7.66,15.95,6.04,22.09,12.26,4.35,4.4,5.02,11.74,4.09,18.26-.91,6.52-3.13,12.86-3.53,19.42s1.52,13.86,6.77,16.91c7.04,4.07,16.06-1.58,20.81-8.86,4.68-7.19,6.97-15.79,9.95-23.94,2.97-8.17,7.05-16.43,13.92-21.09,1.45-.99,3.29-2.54,2.63-4.21-.64-1.67-2.88-1.23-4.56-.99a9.141,9.141,0,0,1-9.08-4.6,11.384,11.384,0,0,1,.18-11.04c.17,3.73,3.25,7.41,6.35,8.89a14.346,14.346,0,0,0,10.07.44,10.243,10.243,0,0,0,5.69-3.55c1.38-1.91,1.7-4.88.22-6.6-.85-1.01-2.13-1.44-3.19-2.2s-1.96-2.15-1.48-3.45a92.054,92.054,0,0,0,22.25,8.28q.69,8.85,1.4,17.72c.19,2.45.7,5.37,2.81,6.2,2.05.81,4.31-1.01,5.42-3.13s1.53-4.58,2.72-6.63a8.814,8.814,0,0,1,7.52-4.49,8.3,8.3,0,0,1,7.13,4.72c1.81,3.73,1.02,8.31,1.16,12.57s2.16,9.23,6.07,9.43c-1.62-2.43-3.33-5.18-2.94-8.21s4.23-5.45,6.07-3.23c1.15,1.39,1.11,3.99,2.75,4.57,1.99.71,3.35-2.56,2.87-4.79s-1.72-4.53-.84-6.67c.74-1.8,2.73-2.59,4.52-2.73s3.61.17,5.36-.31c3.01-.83,5.23-3.95,5.95-7.24a21.105,21.105,0,0,0-.65-9.92c-.65-2.44-1.5-4.89-1.33-7.45s1.72-5.29,4.05-5.67c3.19-.52,5.29,3.25,6.51,6.45.67-2.84,1.4-6.63,2.07-9.48,6.64-3.8,10.51-12.75,8.88-20.57-.65-3.13-2.05-6-2.79-9.1s-.65-6.77,1.35-9.23c1.76-2.17,4.53-2.87,7.12-3.46Zm11.66-.3c-1.81,3.59-3.35,7.35-3.37,11.35-.04,4.87,3.11,10.02,7.53,10.12a152.361,152.361,0,0,0-4.16-21.48ZM208.97,163.64a16.712,16.712,0,0,1-1.38,12.04c-3.26,6.13-8.47,19.65,1.54,22.02,2.82.67,5.72-.72,8.38-2.09,4.61-2.39,9.46-5.12,12.02-9.94,3.79-7.15,1.37-16.78,5.71-23.56,1.38-2.15,3.32-3.8,4.95-5.73s3.01-4.4,2.81-6.97a7.355,7.355,0,0,0-4.41-5.89,16.193,16.193,0,0,0-7.29-1.01,74.032,74.032,0,0,0-21.06,3.77c-2.44.81-5.18,2.11-5.93,4.77-1.26,4.46,3.67,8.61,4.68,12.61Zm-23.78,11.2c-.47,4.88-5.44,13.7,1.74,15.91a5.756,5.756,0,0,0,5.27-1.37,12.409,12.409,0,0,0,3.27-4.96,21.848,21.848,0,0,0,.13-15.54,18.457,18.457,0,0,0-10.16-10.55,8.1,8.1,0,0,0-5.86-.4,5.006,5.006,0,0,0-3.22,5c.74,5.68,9.49,5.01,8.83,11.91Zm.99-30.18c-1.45,1.02-3.85,1.03-4.29,3.35-.61,3.24,3.06,3.61,5.24,3.48,8.35-.5,18.1-9.72,24.43-15.21a7.108,7.108,0,0,0,2.58-3.47,4.614,4.614,0,0,0-1.72-4.52,8.9,8.9,0,0,0-4.48-1.6,18.869,18.869,0,0,0-11.42,1.84,14.434,14.434,0,0,0-7.29,9.59c-.58,2.87-.62,4.84-3.04,6.53ZM372.37,350.33c-.68-1.99-.9-4.39-2.46-5.62-1.42-1.12-3.47-.78-5.06.15a37.083,37.083,0,0,0-4.3,3.56c-3.5,2.87-7.83,4.14-11.89,5.87s-8.22,4.25-10.2,8.5c-3.29,7.07.45,13.99,7.26,13.47a42.206,42.206,0,0,1,8.18-.02,155.084,155.084,0,0,0,21.08-23.01,4.808,4.808,0,0,1-2.6-2.92Zm-19.84-19.8a27.132,27.132,0,0,0,2.14-3.9c.49-.85,1.1-1.63,1.55-2.51a4.086,4.086,0,0,0,.44-2.87,3.429,3.429,0,0,0-2.61-2.17,6.941,6.941,0,0,0-7.72,4.02c-1.81,4.06,2.05,12.48,6.21,7.43Zm25.69,1.48c-2.15-1.38-5.17-1.97-5.83,1.61-.4,2.14.93,3.22,2.35,4.35,2.34,1.88,4.51,3.92,6.84,5.71,1.35-2.12,2.64-4.27,3.9-6.45a60.475,60.475,0,0,0-7.25-5.22Zm-32.35,1.97c-.6,2.75,5.71,5.2,7.19,5.65a3.385,3.385,0,0,0,1.72.18,1.572,1.572,0,0,0,1.22-1.24,2.214,2.214,0,0,0-1.23-1.94c-1.14-.79-8.41-4.9-8.9-2.66Zm-10.29-5.42c.74.73,2.23,2.49,3.36,2.16,1.28-.37,1.45-2.76,1.16-3.81a8.241,8.241,0,0,0-2.74-3.71,10.531,10.531,0,0,1-2.99-3.51c-.28-.66-.44-1.4-.78-2.03a1.729,1.729,0,0,0-1.65-1.04,1.776,1.776,0,0,0-1.26,1.46,4.687,4.687,0,0,0,.17,2.07,18.226,18.226,0,0,0,4.74,8.4Z" fill="#6ea4d6"/>
            </g>
            <path id="Trazado_1085635" data-name="Trazado 1085635" d="M403.42,287.42a155.567,155.567,0,0,1-17.95,49.81c-1.25,2.18-2.55,4.34-3.9,6.45q-3.12,4.92-6.6,9.56a155.8,155.8,0,0,1-228.04,23.6c-1.5-1.34-2.98-2.69-4.42-4.07a156.571,156.571,0,0,1-33.29-46.22c1.08,1.1,2.18,2.18,3.3,3.26,1.44,1.39,2.92,2.74,4.42,4.07a155.868,155.868,0,0,0,228.04-23.6q3.48-4.635,6.6-9.56c1.35-2.12,2.64-4.27,3.9-6.45a156.515,156.515,0,0,0,19.27-95.84,152.361,152.361,0,0,0-4.16-21.48c-.19-.74-.4-1.47-.6-2.2a153.84,153.84,0,0,0-9.01-23.97,156.429,156.429,0,0,1,39,66.93c.21.72.41,1.46.6,2.2a152.361,152.361,0,0,1,4.16,21.48,155.165,155.165,0,0,1-1.31,46.03Z" fill="#d5e4ef"/>
            <g id="Grupo_1215751" data-name="Grupo 1215751">
              <ellipse id="Elipse_14353" data-name="Elipse 14353" cx="51.07" cy="24.9" rx="51.07" ry="24.9" transform="translate(123.99 171.754) rotate(-37.47)" fill="#fff" opacity="0.5"/>
              <path id="Trazado_1085636" data-name="Trazado 1085636" d="M141.92,239.18c-5.05,18.55-16.48,31.58-25.52,29.12s-12.28-19.49-7.23-38.04,16.48-31.58,25.52-29.12,12.28,19.49,7.23,38.04Z" fill="#fff" opacity="0.5"/>
            </g>
          </g>
          <g id="Grupo_1215753" data-name="Grupo 1215753">
            <path id="Trazado_1085637" data-name="Trazado 1085637" d="M182.48,208.66h-.02a1.685,1.685,0,0,0-.59-.08l-6.63-.92-1.73,6.1c-.45.26-.91.52-1.35.77-17.43-74.35,6.5-119.96,37.11-126.33-90.53,4.06-90.63,113.18-83.9,140.25a100.407,100.407,0,0,1-10.11-.56,1.673,1.673,0,0,0-1.4,2.81,503.882,503.882,0,0,0,44.16,41.41l-.56,6.87,11.17,1.39h0a1.687,1.687,0,0,0,1.95-1.47c2.58-22.56,7.9-46.14,13-68.27a1.659,1.659,0,0,0-1.11-1.96Z" fill="#b72727"/>
            <path id="Trazado_1085638" data-name="Trazado 1085638" d="M159.27,277.57c3.92-22.52,10.63-45.91,17.05-67.85a1.684,1.684,0,0,0-2.55-1.88,84.9,84.9,0,0,1-9.09,5.14c-12.97-75.71,12.99-122.14,44.58-124.79-90.63-1.15-97.24,108.49-92.13,136.07-3.37-.22-6.73-.59-10.06-1.14a1.687,1.687,0,0,0-1.56,2.75,489.828,489.828,0,0,0,50.98,52.69,1.694,1.694,0,0,0,2.78-.99Z" fill="#ea3d3d"/>
          </g>
          <g id="Grupo_1215754" data-name="Grupo 1215754">
            <path id="Trazado_1085639" data-name="Trazado 1085639" d="M317.71,311.65h.02a1.684,1.684,0,0,0,.59.08l6.63.92,1.73-6.1c.45-.26.91-.52,1.35-.77,17.43,74.35-6.5,119.96-37.11,126.33,90.53-4.06,90.63-113.18,83.9-140.25a100.407,100.407,0,0,1,10.11.56,1.673,1.673,0,0,0,1.4-2.81,503.88,503.88,0,0,0-44.16-41.41l.56-6.87-11.17-1.39h0a1.687,1.687,0,0,0-1.95,1.47c-2.58,22.56-7.9,46.14-13,68.27a1.659,1.659,0,0,0,1.11,1.96Z" fill="#ea3d3d"/>
            <path id="Trazado_1085640" data-name="Trazado 1085640" d="M340.91,242.74c-3.92,22.52-10.63,45.91-17.05,67.85a1.684,1.684,0,0,0,2.55,1.88,84.9,84.9,0,0,1,9.09-5.14c12.97,75.71-12.99,122.14-44.58,124.79,90.63,1.15,97.24-108.49,92.13-136.07,3.37.22,6.73.59,10.06,1.14a1.687,1.687,0,0,0,1.56-2.75,489.829,489.829,0,0,0-50.98-52.69,1.694,1.694,0,0,0-2.78.99Z" fill="#fc7070"/>
          </g>
          <g id="Grupo_1215755" data-name="Grupo 1215755">
            <path id="Trazado_1085641" data-name="Trazado 1085641" d="M198.6,327.77h0v.01a1.685,1.685,0,0,0-.08.59L197.6,335l6.1,1.73c.26.45.52.91.77,1.35-74.35,17.43-119.96-6.5-126.33-37.11,4.06,90.53,113.18,90.63,140.25,83.9a100.407,100.407,0,0,1-.56,10.11,1.673,1.673,0,0,0,2.81,1.4,503.882,503.882,0,0,0,41.41-44.16l6.87.56,1.39-11.17h0a1.68,1.68,0,0,0-1.46-1.95c-22.56-2.58-46.14-7.9-68.27-13a1.659,1.659,0,0,0-1.96,1.11Z" fill="#fda635"/>
            <path id="Trazado_1085642" data-name="Trazado 1085642" d="M267.51,350.97c-22.52-3.92-45.91-10.63-67.85-17.05a1.684,1.684,0,0,0-1.88,2.55,84.9,84.9,0,0,1,5.14,9.09c-75.71,12.97-122.14-12.99-124.79-44.58-1.15,90.63,108.49,97.24,136.07,92.13-.22,3.37-.59,6.73-1.14,10.06a1.687,1.687,0,0,0,2.75,1.56,489.827,489.827,0,0,0,52.69-50.98,1.694,1.694,0,0,0-.99-2.78Z" fill="#ffbe3d"/>
          </g>
          <g id="Grupo_1215756" data-name="Grupo 1215756">
            <path id="Trazado_1085643" data-name="Trazado 1085643" d="M301.59,192.54h0v-.01a1.684,1.684,0,0,0,.08-.59l.92-6.63-6.1-1.73c-.26-.45-.52-.91-.77-1.35,74.35-17.43,119.96,6.51,126.33,37.11-4.06-90.53-113.18-90.63-140.25-83.9a100.408,100.408,0,0,1,.56-10.11,1.673,1.673,0,0,0-2.81-1.4,503.881,503.881,0,0,0-41.41,44.16l-6.87-.56-1.39,11.17h0a1.68,1.68,0,0,0,1.46,1.95c22.56,2.58,46.14,7.9,68.27,13a1.659,1.659,0,0,0,1.96-1.11Z" fill="#583d71"/>
            <path id="Trazado_1085644" data-name="Trazado 1085644" d="M232.67,169.34c22.52,3.92,45.91,10.63,67.85,17.05a1.684,1.684,0,0,0,1.88-2.55,84.9,84.9,0,0,1-5.14-9.09c75.71-12.97,122.14,12.99,124.79,44.58,1.15-90.63-108.49-97.24-136.07-92.13.22-3.37.59-6.73,1.14-10.06a1.687,1.687,0,0,0-2.75-1.56,489.828,489.828,0,0,0-52.69,50.98,1.694,1.694,0,0,0,.99,2.78Z" fill="#684d84"/>
          </g>
          <g id="Grupo_1215759" data-name="Grupo 1215759">
            <g id="Grupo_1215757" data-name="Grupo 1215757">
              <path id="Trazado_1085645" data-name="Trazado 1085645" d="M401.39,223.11c31.62,9,50.83,20.84,50.83,33.81,0,28.16-90.49,50.98-202.12,50.98S47.98,285.07,47.98,256.92c0-12.97,19.2-24.81,50.82-33.81" fill="none" stroke="#fff" stroke-linecap="round" stroke-linejoin="round" stroke-width="1.5" stroke-dasharray="5 7"/>
              <path id="Trazado_1085646" data-name="Trazado 1085646" d="M129.39,291.76c1.21,2.25,2.76,4.84,3.79,6.9a55.822,55.822,0,0,0-7.61,4.73.511.511,0,0,0,.36.92c7.18-.87,14.25-1.74,21.37-3a.516.516,0,0,0,.18-.95c-5.57-3.22-11.65-6.44-17.42-9.3a.513.513,0,0,0-.68.7Z" fill="#47315d"/>
            </g>
            <g id="Grupo_1215758" data-name="Grupo 1215758">
              <path id="Trazado_1085647" data-name="Trazado 1085647" d="M252.16,104.42c16.8-30.11,33.47-46.93,46.42-43.73,27.33,6.75,27.79,100.08,1.01,208.45s-70.65,190.74-97.98,183.99c-12.08-2.98-18.91-22.88-20.46-53.5" fill="none" stroke="#fff" stroke-linecap="round" stroke-linejoin="round" stroke-width="1.5" stroke-dasharray="5 7"/>
              <path id="Trazado_1085648" data-name="Trazado 1085648" d="M316.29,218.05c-2.25,1.21-4.84,2.76-6.9,3.79a55.821,55.821,0,0,0-4.73-7.61.509.509,0,0,0-.92.36c.87,7.18,1.74,14.25,3,21.37a.516.516,0,0,0,.95.18c3.22-5.57,6.44-11.65,9.3-17.42a.513.513,0,0,0-.7-.68Z" fill="#47315d"/>
            </g>
          </g>
        </g>
        <g id="Grupo_1215766" data-name="Grupo 1215766">
          <g id="Grupo_1215761" data-name="Grupo 1215761">
            <path id="Trazado_1085649" data-name="Trazado 1085649" d="M106.16,100.01l25.57,16.76a2.472,2.472,0,0,1,.77,3.32l-23.99,40.54a2.474,2.474,0,0,1-3.16.99l-21.21-9.78,22.02-51.83Z" fill="#ef701b"/>
            <path id="Trazado_1085650" data-name="Trazado 1085650" d="M57.5,87.22,46.23,132.38a3.906,3.906,0,0,0,2.28,4.55l34.8,14.65a3.909,3.909,0,0,0,5.1-2.04l19.42-44.59a3.9,3.9,0,0,0-2.28-5.24L62.6,84.48a3.913,3.913,0,0,0-5.1,2.74Z" fill="#ffbe3d"/>
            <path id="Trazado_1085651" data-name="Trazado 1085651" d="M80.54,90.85,73,113.88l2.39-.94,1.02,1.6,2.91-3.1-.19,4.13,2.05-2.7,1.24,2.24L90.25,94.3Z" fill="#ffe08a"/>
          </g>
          <g id="Grupo_1215765" data-name="Grupo 1215765">
            <g id="Grupo_1215762" data-name="Grupo 1215762">
              <path id="Trazado_1085652" data-name="Trazado 1085652" d="M401.25,344.72l28.32-6.85a3.112,3.112,0,0,1,3.7,2.6l12.37,67.1a3.223,3.223,0,0,1-1.76,3.56l-19.02,8.42-23.61-74.84Z" fill="#47315d"/>
              <path id="Trazado_1085653" data-name="Trazado 1085653" d="M364.03,362.37l27.75,68.39a3.3,3.3,0,0,0,4.4,1.92l28.68-13.12a3.567,3.567,0,0,0,1.79-4.33l-21.12-68.2a3.336,3.336,0,0,0-4.28-2.31l-35.31,12.93a3.571,3.571,0,0,0-1.91,4.72Z" fill="#684d84"/>
            </g>
            <path id="Trazado_1085654" data-name="Trazado 1085654" d="M380.29,352.39l8.11-2.97,5.25,15.56-2.12-.99-.86,2.98-2.77-2.2-1.5,2.85Z" fill="#fff5df"/>
            <g id="Grupo_1215764" data-name="Grupo 1215764">
              <path id="Trazado_1085655" data-name="Trazado 1085655" d="M406.99,420.08l-2.58-6.21a.887.887,0,0,1,.5-1.17l14.37-5.61a.884.884,0,0,1,1.17.56l1.95,6.23a.884.884,0,0,1-.51,1.09l-13.74,5.59a.9.9,0,0,1-1.16-.48Z" fill="#e1f1ff"/>
              <g id="Grupo_1215763" data-name="Grupo 1215763">
                <path id="Trazado_1085656" data-name="Trazado 1085656" d="M414.27,410.33c-2.61,1.08-5.22,2.17-7.83,3.25-.48.2-.15.93.33.73,2.61-1.08,5.22-2.17,7.83-3.25C415.08,410.86,414.75,410.13,414.27,410.33Z" fill="#a1c5eb"/>
                <path id="Trazado_1085657" data-name="Trazado 1085657" d="M417.97,410.89q-5.25,2.19-10.51,4.38c-.48.2-.15.93.33.73q5.25-2.19,10.51-4.38C418.78,411.42,418.45,410.69,417.97,410.89Z" fill="#a1c5eb"/>
                <path id="Trazado_1085658" data-name="Trazado 1085658" d="M413.22,416.42c-1.46.57-2.92,1.13-4.38,1.7-.48.19-.15.92.33.73,1.46-.57,2.92-1.13,4.38-1.7C414.03,416.96,413.7,416.23,413.22,416.42Z" fill="#a1c5eb"/>
              </g>
            </g>
            <path id="Trazado_1085659" data-name="Trazado 1085659" d="M414.7,341.47l5.93-1.44,4.23,14.99-1.64-1.65-.15,2.05-1.75-2.23-.37,3.78-1.83-3.54-.49,1.96Z" fill="#fff5df"/>
          </g>
        </g>
        <g id="Grupo_1215792" data-name="Grupo 1215792">
          <g id="Grupo_1215771" data-name="Grupo 1215771">
            <path id="Trazado_1085660" data-name="Trazado 1085660" d="M203.57,449.49c-3.09-5.31-10.13-12.11-19.28-18.12s-18.18-9.77-24.28-10.51l-3.21-4.45-3.81,6.22c-3,4.57,6.15,15.88,20.44,25.27s28.3,13.3,31.3,8.74l3.98-6.51-5.13-.63Z" fill="#fda635"/>
            <path id="Trazado_1085661" data-name="Trazado 1085661" d="M208.7,450.12c-3,4.57-17.01.65-31.3-8.74s-23.44-20.7-20.44-25.27,17.01-.65,31.3,8.74S211.7,445.55,208.7,450.12Z" fill="#ffbe3d"/>
            <path id="Trazado_1085662" data-name="Trazado 1085662" d="M205.4,448.73a2.578,2.578,0,0,1-.33.41c1.82-4.31-6.15-13.91-18.36-21.93s-24.18-11.53-27.41-8.15a2.55,2.55,0,0,1,.25-.46c2.66-4.05,15.08-.58,27.74,7.74s20.77,18.35,18.11,22.39Z" fill="#fda635"/>
            <g id="Grupo_1215769" data-name="Grupo 1215769">
              <path id="Trazado_1085663" data-name="Trazado 1085663" d="M174.25,446.17c-.19-.13-.28-.33-.19-.46l1.91-2.9c.09-.13.31-.13.5,0s.28.33.19.46l-1.91,2.9C174.66,446.3,174.44,446.3,174.25,446.17Z" fill="#ef701b"/>
              <g id="Grupo_1215767" data-name="Grupo 1215767">
                <path id="Trazado_1085664" data-name="Trazado 1085664" d="M171.24,443.98c-.19-.13-.28-.33-.19-.46l1.91-2.9c.09-.13.31-.13.5,0s.28.33.19.46l-1.91,2.9C171.65,444.11,171.43,444.11,171.24,443.98Z" fill="#ef701b"/>
                <path id="Trazado_1085665" data-name="Trazado 1085665" d="M168.12,441.6c-.19-.13-.28-.33-.19-.46l1.91-2.9c.09-.13.31-.13.5,0s.28.33.19.46l-1.91,2.9C168.53,441.73,168.31,441.73,168.12,441.6Z" fill="#ef701b"/>
                <path id="Trazado_1085666" data-name="Trazado 1085666" d="M165.23,439.16c-.19-.13-.28-.33-.19-.46l1.91-2.9c.09-.13.31-.13.5,0s.28.33.19.46l-1.91,2.9C165.64,439.29,165.42,439.29,165.23,439.16Z" fill="#ef701b"/>
                <path id="Trazado_1085667" data-name="Trazado 1085667" d="M162.31,436.56c-.19-.13-.28-.33-.19-.46l1.9-2.9c.09-.13.31-.13.5,0s.28.33.19.46l-1.9,2.9C162.72,436.69,162.5,436.69,162.31,436.56Z" fill="#ef701b"/>
                <path id="Trazado_1085668" data-name="Trazado 1085668" d="M159.5,433.87c-.19-.13-.28-.33-.19-.46l1.91-2.9c.09-.13.31-.13.5,0s.28.33.19.46l-1.91,2.9C159.91,434,159.69,434,159.5,433.87Z" fill="#ef701b"/>
                <path id="Trazado_1085669" data-name="Trazado 1085669" d="M157.13,431.08c-.19-.13-.28-.33-.19-.46l1.9-2.9c.09-.13.31-.13.5,0s.28.33.19.46l-1.9,2.9C157.54,431.21,157.32,431.21,157.13,431.08Z" fill="#ef701b"/>
                <path id="Trazado_1085670" data-name="Trazado 1085670" d="M155.22,428.17c-.19-.13-.28-.33-.19-.46l1.91-2.9c.09-.13.31-.13.5,0s.28.33.19.46l-1.91,2.9C155.63,428.3,155.41,428.3,155.22,428.17Z" fill="#ef701b"/>
                <path id="Trazado_1085671" data-name="Trazado 1085671" d="M153.68,425.08c-.19-.13-.28-.33-.19-.46l1.91-2.9c.09-.13.31-.13.5,0s.28.33.19.46l-1.91,2.9C154.09,425.21,153.87,425.21,153.68,425.08Z" fill="#ef701b"/>
              </g>
              <g id="Grupo_1215768" data-name="Grupo 1215768">
                <path id="Trazado_1085672" data-name="Trazado 1085672" d="M177.46,448.07c-.19-.13-.28-.33-.19-.46l1.91-2.9c.09-.13.31-.13.5,0s.28.33.19.46l-1.91,2.9C177.87,448.2,177.65,448.2,177.46,448.07Z" fill="#ef701b"/>
                <path id="Trazado_1085673" data-name="Trazado 1085673" d="M180.88,449.99c-.19-.13-.28-.33-.19-.46l1.91-2.9c.09-.13.31-.13.5,0s.28.33.19.46l-1.91,2.9C181.29,450.12,181.07,450.12,180.88,449.99Z" fill="#ef701b"/>
                <path id="Trazado_1085674" data-name="Trazado 1085674" d="M184.27,451.67c-.19-.13-.28-.33-.19-.46l1.91-2.9c.09-.13.31-.13.5,0s.28.33.19.46l-1.91,2.9C184.68,451.8,184.46,451.8,184.27,451.67Z" fill="#ef701b"/>
                <path id="Trazado_1085675" data-name="Trazado 1085675" d="M187.82,453.32c-.19-.13-.28-.33-.19-.46l1.9-2.9c.09-.13.31-.13.5,0s.28.33.19.46l-1.9,2.9C188.23,453.45,188.01,453.45,187.82,453.32Z" fill="#ef701b"/>
                <path id="Trazado_1085676" data-name="Trazado 1085676" d="M191.4,454.83c-.19-.13-.28-.33-.19-.46l1.91-2.9c.09-.13.31-.13.5,0s.28.33.19.46l-1.91,2.9C191.81,454.96,191.59,454.96,191.4,454.83Z" fill="#ef701b"/>
                <path id="Trazado_1085677" data-name="Trazado 1085677" d="M194.9,455.9c-.19-.13-.28-.33-.19-.46l1.9-2.9c.09-.13.31-.13.5,0s.28.33.19.46l-1.9,2.9C195.31,456.03,195.09,456.03,194.9,455.9Z" fill="#ef701b"/>
                <path id="Trazado_1085678" data-name="Trazado 1085678" d="M198.33,456.5c-.19-.13-.28-.33-.19-.46l1.91-2.9c.09-.13.31-.13.5,0s.28.33.19.46l-1.91,2.9C198.74,456.63,198.52,456.63,198.33,456.5Z" fill="#ef701b"/>
                <path id="Trazado_1085679" data-name="Trazado 1085679" d="M201.78,456.69c-.19-.13-.28-.33-.19-.46l1.91-2.9c.09-.13.31-.13.5,0s.28.33.19.46l-1.91,2.9C202.19,456.82,201.97,456.82,201.78,456.69Z" fill="#ef701b"/>
              </g>
            </g>
            <g id="Grupo_1215770" data-name="Grupo 1215770">
              <path id="Trazado_1085680" data-name="Trazado 1085680" d="M188.87,438.74a11.931,11.931,0,0,0-3.58-3.7c-.54-.4-1.1-.77-1.66-1.14.42-.63.86-1.25,1.3-1.87,1,.68,1.99,1.4,2.93,2.09,1.18.86,2.56,1.06,2.84.64.33-.51-.52-1.49-1.71-2.35-.93-.68-1.91-1.37-2.9-2.04.2-.28.38-.56.58-.83.46-.64-2.27-2.44-2.73-1.79-.21.29-.4.59-.61.88a23.679,23.679,0,0,0-4.41-2.09c-3.15-1.02-5.56-.77-4.81,1.42.6,1.74,3.09,4.02,5.69,5.86-.29.44-.57.89-.86,1.33-.83-.59-1.66-1.21-2.42-1.8-1.15-.88-2.54-1.49-3.19-1.24-.58.22-.26,1.21.9,2.1s2.37,1.79,3.61,2.66c-.09.14-.19.28-.27.43-.42.67,2.31,2.47,2.73,1.79.09-.15.19-.3.29-.45a21.752,21.752,0,0,0,3.98,1.89c3.14,1.08,5.52.6,4.32-1.77Zm-9.13-7.6a7.791,7.791,0,0,1-.89-.96c-.36-.52-.28-.8.23-.82a4.392,4.392,0,0,1,1.44.23,11.988,11.988,0,0,1,1.62.73c-.41.59-.82,1.17-1.22,1.76-.11-.08-.21-.16-.32-.24-.3-.23-.58-.47-.86-.71Zm4.62,6.43-.06.03c-.07.02-.13.04-.19.06h-.22a3.448,3.448,0,0,1-.71-.15,9.592,9.592,0,0,1-1.46-.64l.81-1.26.09.06a10.439,10.439,0,0,1,1.58,1.16c-.1-.09.11.13.18.21a.575.575,0,0,1,.08.12c.01.06.01.12.02.18v.04a.992.992,0,0,1-.11.17l-.02.02Z" fill="#fda635"/>
              <path id="Trazado_1085681" data-name="Trazado 1085681" d="M189.27,438.13a11.931,11.931,0,0,0-3.58-3.7c-.54-.4-1.1-.77-1.66-1.14.42-.63.86-1.25,1.3-1.87,1,.68,1.99,1.4,2.93,2.09,1.18.86,2.56,1.06,2.84.64.33-.51-.52-1.49-1.71-2.35-.93-.68-1.91-1.37-2.9-2.04.2-.28.38-.56.58-.83.46-.64-2.27-2.44-2.73-1.79-.21.29-.4.59-.61.88a23.679,23.679,0,0,0-4.41-2.09c-3.14-1.02-5.56-.77-4.81,1.42.6,1.74,3.09,4.02,5.69,5.86-.29.44-.57.89-.86,1.33-.83-.59-1.66-1.21-2.42-1.8-1.15-.88-2.54-1.49-3.19-1.24-.58.22-.26,1.21.9,2.1s2.37,1.79,3.61,2.66c-.09.14-.19.28-.27.43-.42.67,2.31,2.47,2.73,1.79.09-.15.19-.3.29-.45a21.752,21.752,0,0,0,3.98,1.89c3.14,1.08,5.52.6,4.32-1.77Zm-9.13-7.6a7.791,7.791,0,0,1-.89-.96c-.36-.52-.28-.8.23-.82a4.392,4.392,0,0,1,1.44.23,11.988,11.988,0,0,1,1.62.73c-.41.59-.82,1.17-1.22,1.76-.11-.08-.21-.16-.32-.24-.3-.23-.58-.47-.86-.71Zm4.62,6.42-.06.03c-.07.02-.13.04-.19.06h-.22a3.448,3.448,0,0,1-.71-.15,9.592,9.592,0,0,1-1.46-.64l.81-1.26.09.06a10.439,10.439,0,0,1,1.58,1.16c-.1-.09.11.13.18.21a.575.575,0,0,1,.08.12c.01.06.01.12.02.18v.04a.992.992,0,0,1-.11.17l-.02.02Z" fill="#ffe08a"/>
            </g>
          </g>
          <g id="Grupo_1215776" data-name="Grupo 1215776">
            <path id="Trazado_1085682" data-name="Trazado 1085682" d="M408.21,118.89c-2.8-.52-7.32-.11-12.19,1.29s-8.93,3.43-11.03,5.35l-2.53-.22,1.03,3.22c.7,2.43,7.43,2.64,15.05.47s13.23-5.91,12.53-8.35l-1.08-3.37-1.77,1.61Z" fill="#fda635"/>
            <path id="Trazado_1085683" data-name="Trazado 1085683" d="M409.99,117.28c.7,2.43-4.92,6.17-12.53,8.35s-14.36,1.97-15.05-.47,4.92-6.17,12.53-8.35S409.3,114.84,409.99,117.28Z" fill="#ffbe3d"/>
            <path id="Trazado_1085684" data-name="Trazado 1085684" d="M408.5,118.02a1,1,0,0,1,.04.24c-.96-1.94-6.74-2.05-13.25-.19s-11.36,5-11.15,7.16a.916.916,0,0,1-.09-.23c-.62-2.16,4.36-5.47,11.11-7.4s12.72-1.75,13.34.41Z" fill="#fda635"/>
            <g id="Grupo_1215774" data-name="Grupo 1215774">
              <path id="Trazado_1085685" data-name="Trazado 1085685" d="M398.18,128.18c-.1.03-.2,0-.22-.07l-.44-1.55c-.02-.07.05-.15.15-.18s.2,0,.22.07l.44,1.55c.02.07-.05.15-.15.18Z" fill="#ef701b"/>
              <g id="Grupo_1215772" data-name="Grupo 1215772">
                <path id="Trazado_1085686" data-name="Trazado 1085686" d="M396.5,128.58c-.1.03-.2,0-.22-.07l-.44-1.55c-.02-.07.05-.15.15-.18s.2,0,.22.07l.44,1.55c.02.07-.05.15-.15.18Z" fill="#ef701b"/>
                <path id="Trazado_1085687" data-name="Trazado 1085687" d="M394.72,128.95c-.1.03-.2,0-.22-.07l-.44-1.55c-.02-.07.05-.15.15-.18s.2,0,.22.07l.44,1.55c.02.07-.05.15-.15.18Z" fill="#ef701b"/>
                <path id="Trazado_1085688" data-name="Trazado 1085688" d="M392.99,129.23c-.1.03-.2,0-.22-.07l-.44-1.55c-.02-.07.05-.15.15-.18s.2,0,.22.07l.44,1.55c.02.07-.05.15-.15.18Z" fill="#ef701b"/>
                <path id="Trazado_1085689" data-name="Trazado 1085689" d="M391.19,129.47c-.1.03-.2,0-.22-.07l-.44-1.55c-.02-.07.05-.15.15-.18s.2,0,.22.07l.44,1.55c.02.07-.05.15-.15.18Z" fill="#ef701b"/>
                <path id="Trazado_1085690" data-name="Trazado 1085690" d="M389.4,129.64c-.1.03-.2,0-.22-.07l-.44-1.55c-.02-.07.05-.15.15-.18s.2,0,.22.07l.44,1.55c.02.07-.05.15-.15.18Z" fill="#ef701b"/>
                <path id="Trazado_1085691" data-name="Trazado 1085691" d="M387.71,129.63c-.1.03-.2,0-.22-.07l-.44-1.55c-.02-.07.05-.15.15-.18s.2,0,.22.07l.44,1.55c.02.07-.05.15-.15.18Z" fill="#ef701b"/>
                <path id="Trazado_1085692" data-name="Trazado 1085692" d="M386.11,129.42c-.1.03-.2,0-.22-.07l-.44-1.55c-.02-.07.05-.15.15-.18s.2,0,.22.07l.44,1.55c.02.07-.05.15-.15.18Z" fill="#ef701b"/>
                <path id="Trazado_1085693" data-name="Trazado 1085693" d="M384.56,129.03c-.1.03-.2,0-.22-.07l-.44-1.55c-.02-.07.05-.15.15-.18s.2,0,.22.07l.44,1.55c.02.07-.05.15-.15.18Z" fill="#ef701b"/>
              </g>
              <g id="Grupo_1215773" data-name="Grupo 1215773">
                <path id="Trazado_1085694" data-name="Trazado 1085694" d="M399.82,127.63c-.1.03-.2,0-.22-.07l-.44-1.55c-.02-.07.05-.15.15-.18s.2,0,.22.07l.44,1.55C399.99,127.52,399.92,127.6,399.82,127.63Z" fill="#ef701b"/>
                <path id="Trazado_1085695" data-name="Trazado 1085695" d="M401.53,127.01c-.1.03-.2,0-.22-.07l-.44-1.55c-.02-.07.05-.15.15-.18s.2,0,.22.07l.44,1.55C401.7,126.9,401.63,126.98,401.53,127.01Z" fill="#ef701b"/>
                <path id="Trazado_1085696" data-name="Trazado 1085696" d="M403.14,126.33c-.1.03-.2,0-.22-.07l-.44-1.55c-.02-.07.05-.15.15-.18s.2,0,.22.07l.44,1.55C403.31,126.22,403.24,126.3,403.14,126.33Z" fill="#ef701b"/>
                <path id="Trazado_1085697" data-name="Trazado 1085697" d="M404.8,125.58c-.1.03-.2,0-.22-.07l-.44-1.55c-.02-.07.05-.15.15-.18s.2,0,.22.07l.44,1.55C404.97,125.47,404.9,125.55,404.8,125.58Z" fill="#ef701b"/>
                <path id="Trazado_1085698" data-name="Trazado 1085698" d="M406.41,124.78c-.1.03-.2,0-.22-.07l-.44-1.55c-.02-.07.05-.15.15-.18s.2,0,.22.07l.44,1.55C406.58,124.67,406.51,124.75,406.41,124.78Z" fill="#ef701b"/>
                <path id="Trazado_1085699" data-name="Trazado 1085699" d="M407.84,123.87c-.1.03-.2,0-.22-.07l-.44-1.55c-.02-.07.05-.15.15-.18s.2,0,.22.07l.44,1.55C408.01,123.76,407.94,123.84,407.84,123.87Z" fill="#ef701b"/>
                <path id="Trazado_1085700" data-name="Trazado 1085700" d="M409.09,122.85c-.1.03-.2,0-.22-.07l-.44-1.55c-.02-.07.05-.15.15-.18s.2,0,.22.07l.44,1.55C409.26,122.74,409.19,122.82,409.09,122.85Z" fill="#ef701b"/>
                <path id="Trazado_1085701" data-name="Trazado 1085701" d="M410.2,121.7c-.1.03-.2,0-.22-.07l-.44-1.55c-.02-.07.05-.15.15-.18s.2,0,.22.07l.44,1.55C410.37,121.59,410.3,121.67,410.2,121.7Z" fill="#ef701b"/>
              </g>
            </g>
            <g id="Grupo_1215775" data-name="Grupo 1215775">
              <path id="Trazado_1085702" data-name="Trazado 1085702" d="M399.99,120.8a5.409,5.409,0,0,0-2.38.14q-.45.1-.9.24l-.27-1.02c.54-.15,1.09-.27,1.62-.4.66-.16,1.15-.58,1.08-.8-.08-.27-.68-.27-1.34-.11-.52.12-1.06.26-1.59.4l-.12-.45c-.09-.36-1.54.06-1.45.42l.12.48a10.955,10.955,0,0,0-2.07.92c-1.31.79-1.95,1.72-.95,2.12a7.46,7.46,0,0,0,3.78-.23c.07.23.14.47.21.7-.46.11-.93.22-1.36.31-.66.14-1.29.44-1.4.74-.1.27.35.46,1.01.32s1.35-.29,2.03-.46a1.864,1.864,0,0,0,.07.22c.11.35,1.56-.07,1.45-.42-.02-.08-.05-.16-.07-.24a10.277,10.277,0,0,0,1.87-.83c1.33-.78,1.88-1.76.68-2.05Zm-5.43.91a3.163,3.163,0,0,1-.61.02c-.29-.03-.37-.15-.22-.33a1.978,1.978,0,0,1,.52-.43,5.973,5.973,0,0,1,.75-.35c.08.32.16.64.25.96-.06.01-.12.03-.18.04l-.51.09Zm3.66.32v.03s-.03.06-.05.09c-.01.01-.05.06-.07.08a2.351,2.351,0,0,1-.27.21,4.256,4.256,0,0,1-.67.32c-.07-.22-.13-.44-.2-.67a.09.09,0,0,0,.05-.01,4.661,4.661,0,0,1,.89-.2h.2a.18.18,0,0,1,.07.05.031.031,0,0,1,.02.01l.03.09v.01Z" fill="#fda635"/>
              <path id="Trazado_1085703" data-name="Trazado 1085703" d="M399.9,120.48a5.409,5.409,0,0,0-2.38.14q-.45.1-.9.24l-.27-1.02c.54-.15,1.09-.27,1.62-.4.66-.16,1.15-.58,1.08-.8-.08-.27-.68-.27-1.34-.11-.52.12-1.06.26-1.59.4l-.12-.45c-.09-.36-1.54.06-1.45.42l.12.48a10.955,10.955,0,0,0-2.07.92c-1.31.79-1.95,1.72-.95,2.12a7.46,7.46,0,0,0,3.78-.23c.07.23.14.47.21.7-.46.11-.93.22-1.36.31-.66.14-1.29.44-1.4.74-.1.27.35.46,1.01.32s1.35-.29,2.03-.46c.02.07.04.15.07.23.11.35,1.56-.07,1.45-.42-.02-.08-.05-.16-.07-.24a10.277,10.277,0,0,0,1.87-.83c1.33-.78,1.88-1.76.68-2.05Zm-5.43.9a3.163,3.163,0,0,1-.61.02c-.29-.03-.37-.15-.22-.33a1.978,1.978,0,0,1,.52-.43,4.831,4.831,0,0,1,.75-.35c.08.32.16.64.25.96-.06.01-.12.03-.18.04l-.51.09Zm3.65.32v.03a.355.355,0,0,1-.04.09c-.01.01-.05.06-.07.08a2.351,2.351,0,0,1-.27.21,4.256,4.256,0,0,1-.67.32c-.07-.22-.13-.44-.2-.67a.09.09,0,0,0,.05-.01,4.661,4.661,0,0,1,.89-.2h.2a.18.18,0,0,1,.07.05.031.031,0,0,1,.02.01l.03.09v.01Z" fill="#ffe08a"/>
            </g>
          </g>
          <g id="Grupo_1215781" data-name="Grupo 1215781">
            <path id="Trazado_1085704" data-name="Trazado 1085704" d="M80.7,212.28c-4.51,1.67-9.8,6.28-14.03,12.72s-6.36,13.12-6.11,17.92l-1.89,2.88,4.63,3.05c4.75,3.12,13.95-2.5,20.55-12.55s8.11-20.73,3.37-23.85l-4.63-3.05-1.89,2.88Z" fill="#fda635"/>
            <path id="Trazado_1085705" data-name="Trazado 1085705" d="M82.59,209.4c4.75,3.12,3.24,13.8-3.37,23.85S63.41,248.92,58.67,245.8s-3.24-13.8,3.37-23.85S77.85,206.28,82.59,209.4Z" fill="#ffbe3d"/>
            <path id="Trazado_1085706" data-name="Trazado 1085706" d="M81.8,211.85a3.5,3.5,0,0,1,.43.33c-4.32-2.13-12.1,2.81-17.74,11.39s-7.09,17.68-3.42,20.81a4.391,4.391,0,0,1-.47-.27c-4.21-2.77-2.87-12.23,2.98-21.13s14.01-13.89,18.21-11.12Z" fill="#fda635"/>
            <g id="Grupo_1215779" data-name="Grupo 1215779">
              <path id="Trazado_1085707" data-name="Trazado 1085707" d="M83.45,236.03a.29.29,0,0,1-.4.08l-3.01-1.98a.288.288,0,1,1,.32-.48l3.01,1.98A.29.29,0,0,1,83.45,236.03Z" fill="#ef701b"/>
              <g id="Grupo_1215777" data-name="Grupo 1215777">
                <path id="Trazado_1085708" data-name="Trazado 1085708" d="M81.86,238.12a.29.29,0,0,1-.4.08l-3.01-1.98a.288.288,0,1,1,.32-.48l3.01,1.98A.29.29,0,0,1,81.86,238.12Z" fill="#ef701b"/>
                <path id="Trazado_1085709" data-name="Trazado 1085709" d="M80.11,240.27a.29.29,0,0,1-.4.08l-3.01-1.98a.288.288,0,1,1,.32-.48l3.01,1.98A.29.29,0,0,1,80.11,240.27Z" fill="#ef701b"/>
                <path id="Trazado_1085710" data-name="Trazado 1085710" d="M78.26,242.21a.29.29,0,0,1-.4.08l-3.01-1.98a.288.288,0,1,1,.32-.48l3.01,1.98A.29.29,0,0,1,78.26,242.21Z" fill="#ef701b"/>
                <path id="Trazado_1085711" data-name="Trazado 1085711" d="M76.27,244.17a.29.29,0,0,1-.4.08l-3.01-1.98a.288.288,0,1,1,.32-.48l3.01,1.98A.29.29,0,0,1,76.27,244.17Z" fill="#ef701b"/>
                <path id="Trazado_1085712" data-name="Trazado 1085712" d="M74.18,246.01a.29.29,0,0,1-.4.08l-3.01-1.98a.288.288,0,1,1,.32-.48l3.01,1.98A.29.29,0,0,1,74.18,246.01Z" fill="#ef701b"/>
                <path id="Trazado_1085713" data-name="Trazado 1085713" d="M71.93,247.49a.29.29,0,0,1-.4.08l-3.01-1.98a.288.288,0,1,1,.32-.48l3.01,1.98A.29.29,0,0,1,71.93,247.49Z" fill="#ef701b"/>
                <path id="Trazado_1085714" data-name="Trazado 1085714" d="M69.5,248.57a.29.29,0,0,1-.4.08l-3.01-1.98a.288.288,0,1,1,.32-.48l3.01,1.98A.29.29,0,0,1,69.5,248.57Z" fill="#ef701b"/>
                <path id="Trazado_1085715" data-name="Trazado 1085715" d="M66.84,249.34a.29.29,0,0,1-.4.08l-3.01-1.98a.288.288,0,1,1,.32-.48l3.01,1.98A.29.29,0,0,1,66.84,249.34Z" fill="#ef701b"/>
              </g>
              <g id="Grupo_1215778" data-name="Grupo 1215778">
                <path id="Trazado_1085716" data-name="Trazado 1085716" d="M84.73,233.74a.29.29,0,0,1-.4.08l-3.01-1.98a.288.288,0,1,1,.32-.48l3.01,1.98A.29.29,0,0,1,84.73,233.74Z" fill="#ef701b"/>
                <path id="Trazado_1085717" data-name="Trazado 1085717" d="M86.01,231.29a.29.29,0,0,1-.4.08l-3.01-1.98a.288.288,0,1,1,.32-.48l3.01,1.98A.29.29,0,0,1,86.01,231.29Z" fill="#ef701b"/>
                <path id="Trazado_1085718" data-name="Trazado 1085718" d="M87.06,228.82a.29.29,0,0,1-.4.08l-3.01-1.98a.288.288,0,1,1,.32-.48l3.01,1.98A.29.29,0,0,1,87.06,228.82Z" fill="#ef701b"/>
                <path id="Trazado_1085719" data-name="Trazado 1085719" d="M88.07,226.22a.29.29,0,0,1-.4.08l-3.01-1.98a.288.288,0,1,1,.32-.48l3.01,1.98A.29.29,0,0,1,88.07,226.22Z" fill="#ef701b"/>
                <path id="Trazado_1085720" data-name="Trazado 1085720" d="M88.93,223.57a.29.29,0,0,1-.4.08l-3.01-1.98a.288.288,0,1,1,.32-.48l3.01,1.98A.29.29,0,0,1,88.93,223.57Z" fill="#ef701b"/>
                <path id="Trazado_1085721" data-name="Trazado 1085721" d="M89.4,220.92a.29.29,0,0,1-.4.08l-3.01-1.98a.288.288,0,1,1,.32-.48l3.01,1.98A.29.29,0,0,1,89.4,220.92Z" fill="#ef701b"/>
                <path id="Trazado_1085722" data-name="Trazado 1085722" d="M89.43,218.25a.29.29,0,0,1-.4.08l-3.01-1.98a.288.288,0,1,1,.32-.48l3.01,1.98A.29.29,0,0,1,89.43,218.25Z" fill="#ef701b"/>
                <path id="Trazado_1085723" data-name="Trazado 1085723" d="M89.08,215.5a.29.29,0,0,1-.4.08l-3.01-1.98a.288.288,0,1,1,.32-.48L89,215.1A.29.29,0,0,1,89.08,215.5Z" fill="#ef701b"/>
              </g>
            </g>
            <g id="Grupo_1215780" data-name="Grupo 1215780">
              <path id="Trazado_1085724" data-name="Trazado 1085724" d="M74.97,223.61a6.3,6.3,0,0,0-2.92,2.31c-.29.37-.55.76-.81,1.16-.66-.44-1.3-.89-1.96-1.33.49-.7,1.01-1.38,1.51-2.04.62-.82.6-1.9.16-2.18-.53-.35-1.32.19-1.94,1.02-.49.64-.99,1.32-1.47,2.02-.29-.2-.58-.39-.87-.59-.67-.47-1.94,1.45-1.26,1.92.3.21.61.41.91.62a11.511,11.511,0,0,0-1.28,3.23c-.48,2.37.14,4.36,2.08,4.09,1.54-.21,3.3-1.86,4.62-3.68l1.38.9c-.42.57-.88,1.15-1.31,1.67-.65.79-1,1.81-.67,2.38.29.5,1.18.4,1.83-.4s1.32-1.63,1.94-2.5c.15.09.29.19.44.29.69.44,1.96-1.48,1.26-1.92-.16-.1-.31-.2-.46-.3a10.728,10.728,0,0,0,1.16-2.91c.53-2.36-.29-4.35-2.32-3.75Zm-5.72,6.18a3.971,3.971,0,0,1-.76.57c-.43.21-.71.1-.8-.31a2.63,2.63,0,0,1,0-1.12,5.306,5.306,0,0,1,.44-1.19c.61.42,1.22.84,1.84,1.25-.06.07-.12.15-.18.22-.17.2-.35.4-.53.58Zm5.32-2.73a.592.592,0,0,1,.04.06c.03.06.06.11.09.16,0,.03.03.13.03.17a4.366,4.366,0,0,1-.03.55,5.777,5.777,0,0,1-.37,1.08c-.44-.28-.87-.56-1.31-.85.01-.02.03-.04.04-.06a4.645,4.645,0,0,1,.85-1.1c-.07.07.1-.07.17-.11a.882.882,0,0,1,.1-.05.809.809,0,0,1,.16.01h.04a1.74,1.74,0,0,1,.18.11.031.031,0,0,1,.02.01Z" fill="#fda635"/>
              <path id="Trazado_1085725" data-name="Trazado 1085725" d="M74.33,223.19a6.3,6.3,0,0,0-2.92,2.31c-.29.37-.55.76-.81,1.16-.66-.44-1.3-.89-1.96-1.33.49-.7,1.01-1.38,1.51-2.04.62-.82.6-1.9.16-2.18-.53-.35-1.32.19-1.94,1.02-.49.64-.99,1.32-1.47,2.02-.29-.2-.58-.39-.87-.59-.67-.47-1.94,1.45-1.26,1.92.3.21.61.41.91.62a11.511,11.511,0,0,0-1.28,3.23c-.48,2.37.14,4.36,2.08,4.09,1.54-.21,3.3-1.86,4.62-3.68l1.38.9c-.42.57-.88,1.15-1.31,1.67-.65.79-1,1.81-.67,2.38.29.5,1.18.4,1.83-.4s1.32-1.63,1.94-2.5c.15.09.29.19.44.29.69.44,1.96-1.48,1.26-1.92-.16-.1-.31-.2-.46-.3a10.728,10.728,0,0,0,1.16-2.91c.53-2.36-.29-4.35-2.32-3.75Zm-5.72,6.18a3.971,3.971,0,0,1-.76.57c-.43.21-.71.1-.8-.31a2.632,2.632,0,0,1,0-1.12,5.306,5.306,0,0,1,.44-1.19c.61.42,1.22.84,1.84,1.25-.06.07-.12.15-.18.22-.17.2-.35.4-.53.58Zm5.32-2.72a.592.592,0,0,1,.04.06c.03.06.06.11.09.16,0,.03.03.13.03.17a4.366,4.366,0,0,1-.03.55,5.777,5.777,0,0,1-.37,1.08c-.44-.28-.87-.56-1.31-.85.01-.02.03-.04.04-.06a4.645,4.645,0,0,1,.85-1.1c-.07.07.1-.07.17-.11a.882.882,0,0,1,.1-.05.809.809,0,0,1,.16.01h.04a1.74,1.74,0,0,1,.18.11.035.035,0,0,0,.02.01Z" fill="#ffe08a"/>
            </g>
          </g>
          <g id="Grupo_1215786" data-name="Grupo 1215786">
            <path id="Trazado_1085726" data-name="Trazado 1085726" d="M439.78,302.93c.92-4.77-.55-11.07-4.35-16.84s-9.02-9.6-13.77-10.63l-1.7-2.58-5.51,3.63c-5.64,3.72-5.4,14.04.54,23.05s15.34,13.3,20.98,9.57l5.51-3.63-1.7-2.58Z" fill="#fda635"/>
            <path id="Trazado_1085727" data-name="Trazado 1085727" d="M441.48,305.5c-5.64,3.72-15.04-.56-20.98-9.57s-6.18-19.33-.54-23.05,15.04.56,20.98,9.57S447.12,301.78,441.48,305.5Z" fill="#ffbe3d"/>
            <path id="Trazado_1085728" data-name="Trazado 1085728" d="M439.57,304.1a6.311,6.311,0,0,1-.56.33c4.46-3.58,4.07-12.35-1-20.05s-12.99-11.5-18.03-8.82a6.274,6.274,0,0,1,.52-.38c5-3.3,13.32.5,18.59,8.49s5.48,17.13.48,20.43Z" fill="#fda635"/>
            <g id="Grupo_1215784" data-name="Grupo 1215784">
              <path id="Trazado_1085729" data-name="Trazado 1085729" d="M415.47,299.25c-.08-.12-.01-.3.15-.41l3.58-2.36a.305.305,0,0,1,.43.03c.08.12.01.3-.15.41l-3.58,2.36A.305.305,0,0,1,415.47,299.25Z" fill="#ef701b"/>
              <g id="Grupo_1215782" data-name="Grupo 1215782">
                <path id="Trazado_1085730" data-name="Trazado 1085730" d="M414.36,297.17c-.08-.12-.01-.3.15-.41l3.58-2.36a.305.305,0,0,1,.43.03c.08.12.01.3-.15.41l-3.58,2.36A.305.305,0,0,1,414.36,297.17Z" fill="#ef701b"/>
                <path id="Trazado_1085731" data-name="Trazado 1085731" d="M413.27,294.92c-.08-.12-.01-.3.15-.41l3.58-2.36a.305.305,0,0,1,.43.03c.08.12.01.3-.15.41l-3.58,2.36A.305.305,0,0,1,413.27,294.92Z" fill="#ef701b"/>
                <path id="Trazado_1085732" data-name="Trazado 1085732" d="M412.44,292.63c-.08-.12-.01-.3.15-.41l3.58-2.36a.305.305,0,0,1,.43.03c.08.12.01.3-.15.41l-3.58,2.36A.305.305,0,0,1,412.44,292.63Z" fill="#ef701b"/>
                <path id="Trazado_1085733" data-name="Trazado 1085733" d="M411.68,290.2c-.08-.12-.01-.3.15-.41l3.58-2.36a.305.305,0,0,1,.43.03c.08.12.01.3-.15.41l-3.58,2.36A.305.305,0,0,1,411.68,290.2Z" fill="#ef701b"/>
                <path id="Trazado_1085734" data-name="Trazado 1085734" d="M411.08,287.7c-.08-.12-.01-.3.15-.41l3.58-2.36a.305.305,0,0,1,.43.03c.08.12.01.3-.15.41l-3.58,2.36A.305.305,0,0,1,411.08,287.7Z" fill="#ef701b"/>
                <path id="Trazado_1085735" data-name="Trazado 1085735" d="M410.92,285.15c-.08-.12-.01-.3.15-.41l3.58-2.36a.305.305,0,0,1,.43.03c.08.12.01.3-.15.41l-3.58,2.36A.305.305,0,0,1,410.92,285.15Z" fill="#ef701b"/>
                <path id="Trazado_1085736" data-name="Trazado 1085736" d="M411.24,282.53c-.08-.12-.01-.3.15-.41l3.58-2.36a.305.305,0,0,1,.43.03c.08.12.01.3-.15.41l-3.58,2.36A.305.305,0,0,1,411.24,282.53Z" fill="#ef701b"/>
                <path id="Trazado_1085737" data-name="Trazado 1085737" d="M412,279.77c-.08-.12-.01-.3.15-.41l3.58-2.36a.305.305,0,0,1,.43.03c.08.12.01.3-.15.41l-3.58,2.36A.305.305,0,0,1,412,279.77Z" fill="#ef701b"/>
              </g>
              <g id="Grupo_1215783" data-name="Grupo 1215783">
                <path id="Trazado_1085738" data-name="Trazado 1085738" d="M416.94,301.09c-.08-.12-.01-.3.15-.41l3.58-2.36a.305.305,0,0,1,.43.03c.08.12.01.3-.15.41l-3.58,2.36A.305.305,0,0,1,416.94,301.09Z" fill="#ef701b"/>
                <path id="Trazado_1085739" data-name="Trazado 1085739" d="M418.58,302.97c-.08-.12-.01-.3.15-.41l3.58-2.36a.305.305,0,0,1,.43.03c.08.12.01.3-.15.41L419.01,303A.305.305,0,0,1,418.58,302.97Z" fill="#ef701b"/>
                <path id="Trazado_1085740" data-name="Trazado 1085740" d="M420.36,304.63c-.08-.12-.01-.3.15-.41l3.58-2.36a.305.305,0,0,1,.43.03c.08.12.01.3-.15.41l-3.58,2.36A.305.305,0,0,1,420.36,304.63Z" fill="#ef701b"/>
                <path id="Trazado_1085741" data-name="Trazado 1085741" d="M422.29,306.29c-.08-.12-.01-.3.15-.41l3.58-2.36a.305.305,0,0,1,.43.03c.08.12.01.3-.15.41l-3.58,2.36A.305.305,0,0,1,422.29,306.29Z" fill="#ef701b"/>
                <path id="Trazado_1085742" data-name="Trazado 1085742" d="M424.35,307.82c-.08-.12-.01-.3.15-.41l3.58-2.36a.305.305,0,0,1,.43.03c.08.12.01.3-.15.41l-3.58,2.36A.305.305,0,0,1,424.35,307.82Z" fill="#ef701b"/>
                <path id="Trazado_1085743" data-name="Trazado 1085743" d="M426.63,308.97c-.08-.12-.01-.3.15-.41l3.58-2.36a.305.305,0,0,1,.43.03c.08.12.01.3-.15.41L427.06,309A.305.305,0,0,1,426.63,308.97Z" fill="#ef701b"/>
                <path id="Trazado_1085744" data-name="Trazado 1085744" d="M429.17,309.71c-.08-.12-.01-.3.15-.41l3.58-2.36a.305.305,0,0,1,.43.03c.08.12.01.3-.15.41l-3.58,2.36A.305.305,0,0,1,429.17,309.71Z" fill="#ef701b"/>
                <path id="Trazado_1085745" data-name="Trazado 1085745" d="M432,310.11c-.08-.12-.01-.3.15-.41l3.58-2.36a.305.305,0,0,1,.43.03c.08.12.01.3-.15.41l-3.58,2.36A.305.305,0,0,1,432,310.11Z" fill="#ef701b"/>
              </g>
            </g>
            <g id="Grupo_1215785" data-name="Grupo 1215785">
              <path id="Trazado_1085746" data-name="Trazado 1085746" d="M432.11,294.42a4.853,4.853,0,0,0-.58-3.42,12.153,12.153,0,0,0-.66-1.09c.79-.51,1.58-1.01,2.37-1.52.4.65.76,1.34,1.11,1.99a1.555,1.555,0,0,0,2,.74c.63-.42.55-1.31.11-2.13-.34-.64-.71-1.3-1.11-1.95.35-.22.7-.45,1.05-.68.83-.52-.31-2.24-1.13-1.72-.37.23-.74.48-1.11.71a8.268,8.268,0,0,0-2.38-2.09c-2.01-1.09-4.25-1.03-5.08.9-.66,1.53-.06,3.66.95,5.41-.54.36-1.09.72-1.63,1.09-.31-.56-.61-1.15-.87-1.7a1.925,1.925,0,0,0-1.9-1.28,1.284,1.284,0,0,0-.64,1.86c.4.83.82,1.7,1.31,2.52-.17.12-.35.23-.52.35-.81.55.32,2.27,1.13,1.72.18-.12.37-.24.55-.37a7.709,7.709,0,0,0,2.14,1.89c1.97,1.13,4.33.88,4.89-1.23Zm-2.72-7.13a2.672,2.672,0,0,1-.12-.88.662.662,0,0,1,.75-.69,2.518,2.518,0,0,1,1.08.3,4.192,4.192,0,0,1,.9.74c-.74.48-1.49.95-2.23,1.43-.04-.08-.07-.15-.11-.23a5.457,5.457,0,0,1-.26-.67Zm-.36,5.82a.291.291,0,0,1-.08.02c-.07.01-.14.03-.21.04a.554.554,0,0,1-.18-.02,1.961,1.961,0,0,1-.51-.18,3.874,3.874,0,0,1-.83-.65c.52-.34,1.03-.69,1.55-1.03.01.02.03.04.04.06a3.448,3.448,0,0,1,.58,1.1c-.02-.08,0,.12.01.2a.311.311,0,0,1-.01.11,1.434,1.434,0,0,1-.11.15c-.01.02-.02.03-.02.04-.07.05-.13.09-.2.14-.01,0-.02,0-.02.01Z" fill="#fda635"/>
              <path id="Trazado_1085747" data-name="Trazado 1085747" d="M432.87,293.92a4.853,4.853,0,0,0-.58-3.42,12.153,12.153,0,0,0-.66-1.09c.79-.51,1.58-1.01,2.37-1.52.4.65.76,1.34,1.11,1.99a1.555,1.555,0,0,0,2,.74c.63-.42.55-1.31.11-2.13-.34-.64-.71-1.3-1.11-1.95.35-.22.7-.45,1.05-.68.83-.52-.31-2.24-1.13-1.72-.37.23-.74.48-1.11.71a8.268,8.268,0,0,0-2.38-2.09c-2.01-1.09-4.25-1.03-5.08.9-.66,1.53-.06,3.66.95,5.41-.54.36-1.09.72-1.63,1.09-.31-.56-.61-1.15-.87-1.71a1.925,1.925,0,0,0-1.9-1.28,1.284,1.284,0,0,0-.64,1.86c.4.83.82,1.7,1.31,2.52-.17.12-.35.23-.52.35-.81.55.32,2.27,1.13,1.72.18-.12.37-.24.55-.37a7.709,7.709,0,0,0,2.14,1.89c1.97,1.13,4.33.88,4.89-1.23Zm-2.72-7.13a2.964,2.964,0,0,1-.12-.88.662.662,0,0,1,.75-.69,2.441,2.441,0,0,1,1.07.3,4.192,4.192,0,0,1,.9.74c-.74.48-1.49.95-2.23,1.43-.04-.08-.07-.15-.11-.23a5.457,5.457,0,0,1-.26-.67Zm-.36,5.82a.291.291,0,0,1-.08.02c-.07.01-.14.03-.21.04a.554.554,0,0,1-.18-.02,1.961,1.961,0,0,1-.51-.18,3.874,3.874,0,0,1-.83-.65c.52-.34,1.03-.69,1.55-1.03.01.02.03.04.04.06a3.448,3.448,0,0,1,.58,1.1c-.02-.08,0,.12.01.2a.311.311,0,0,1-.01.11,1.434,1.434,0,0,1-.11.15c-.01.02-.02.03-.02.04-.06.05-.13.09-.2.14-.01,0-.02,0-.02.01Z" fill="#ffe08a"/>
            </g>
          </g>
          <g id="Grupo_1215791" data-name="Grupo 1215791">
            <path id="Trazado_1085748" data-name="Trazado 1085748" d="M259.99,73.84c1.55-4.56.98-10.99-1.95-17.25s-7.49-10.83-11.98-12.56l-1.31-2.8-5.87,2.74c-6.01,2.81-7.18,13.01-2.61,22.79s13.15,15.43,19.16,12.62l5.87-2.74Z" fill="#fda635"/>
            <path id="Trazado_1085749" data-name="Trazado 1085749" d="M261.3,76.64c-6.01,2.81-14.59-2.84-19.16-12.62s-3.4-19.98,2.61-22.79,14.59,2.84,19.16,12.62S267.31,73.83,261.3,76.64Z" fill="#ffbe3d"/>
            <path id="Trazado_1085750" data-name="Trazado 1085750" d="M259.63,74.97a6.073,6.073,0,0,1-.59.24c4.84-2.85,5.66-11.55,1.75-19.9S249.69,42,244.4,43.89a6.022,6.022,0,0,1,.56-.3c5.33-2.49,12.93,2.52,16.98,11.18S264.95,72.48,259.63,74.97Z" fill="#fda635"/>
            <g id="Grupo_1215789" data-name="Grupo 1215789">
              <path id="Trazado_1085751" data-name="Trazado 1085751" d="M236.78,66.53a.311.311,0,0,1,.2-.38l3.82-1.78a.269.269,0,1,1,.22.47l-3.82,1.78A.31.31,0,0,1,236.78,66.53Z" fill="#ef701b"/>
              <g id="Grupo_1215787" data-name="Grupo 1215787">
                <path id="Trazado_1085752" data-name="Trazado 1085752" d="M235.98,64.31a.311.311,0,0,1,.2-.38L240,62.15a.269.269,0,1,1,.22.47L236.4,64.4a.31.31,0,0,1-.42-.09Z" fill="#ef701b"/>
                <path id="Trazado_1085753" data-name="Trazado 1085753" d="M235.23,61.93a.311.311,0,0,1,.2-.38l3.82-1.78a.269.269,0,1,1,.22.47l-3.82,1.78A.31.31,0,0,1,235.23,61.93Z" fill="#ef701b"/>
                <path id="Trazado_1085754" data-name="Trazado 1085754" d="M234.73,59.55a.311.311,0,0,1,.2-.38l3.82-1.78a.269.269,0,1,1,.22.47l-3.82,1.78A.31.31,0,0,1,234.73,59.55Z" fill="#ef701b"/>
                <path id="Trazado_1085755" data-name="Trazado 1085755" d="M234.32,57.04a.311.311,0,0,1,.2-.38l3.82-1.78a.269.269,0,1,1,.22.47l-3.82,1.78A.31.31,0,0,1,234.32,57.04Z" fill="#ef701b"/>
                <path id="Trazado_1085756" data-name="Trazado 1085756" d="M234.08,54.49a.311.311,0,0,1,.2-.38l3.82-1.78a.269.269,0,1,1,.22.47l-3.82,1.78A.31.31,0,0,1,234.08,54.49Z" fill="#ef701b"/>
                <path id="Trazado_1085757" data-name="Trazado 1085757" d="M234.27,51.95a.311.311,0,0,1,.2-.38l3.82-1.78a.269.269,0,1,1,.22.47l-3.82,1.78A.31.31,0,0,1,234.27,51.95Z" fill="#ef701b"/>
                <path id="Trazado_1085758" data-name="Trazado 1085758" d="M234.94,49.41a.311.311,0,0,1,.2-.38l3.82-1.78a.269.269,0,1,1,.22.47l-3.82,1.78A.31.31,0,0,1,234.94,49.41Z" fill="#ef701b"/>
                <path id="Trazado_1085759" data-name="Trazado 1085759" d="M236.05,46.81a.311.311,0,0,1,.2-.38l3.82-1.78a.269.269,0,1,1,.22.47l-3.82,1.78A.31.31,0,0,1,236.05,46.81Z" fill="#ef701b"/>
              </g>
              <g id="Grupo_1215788" data-name="Grupo 1215788">
                <path id="Trazado_1085760" data-name="Trazado 1085760" d="M237.97,68.56a.311.311,0,0,1,.2-.38l3.82-1.78a.269.269,0,1,1,.22.47l-3.82,1.78A.31.31,0,0,1,237.97,68.56Z" fill="#ef701b"/>
                <path id="Trazado_1085761" data-name="Trazado 1085761" d="M239.31,70.66a.311.311,0,0,1,.2-.38l3.82-1.78a.269.269,0,1,1,.22.47l-3.82,1.78A.31.31,0,0,1,239.31,70.66Z" fill="#ef701b"/>
                <path id="Trazado_1085762" data-name="Trazado 1085762" d="M240.82,72.57a.311.311,0,0,1,.2-.38l3.82-1.78a.269.269,0,1,1,.22.47l-3.82,1.78A.31.31,0,0,1,240.82,72.57Z" fill="#ef701b"/>
                <path id="Trazado_1085763" data-name="Trazado 1085763" d="M242.48,74.5a.311.311,0,0,1,.2-.38l3.82-1.78a.269.269,0,1,1,.22.47l-3.82,1.78A.31.31,0,0,1,242.48,74.5Z" fill="#ef701b"/>
                <path id="Trazado_1085764" data-name="Trazado 1085764" d="M244.28,76.32a.311.311,0,0,1,.2-.38l3.82-1.78a.269.269,0,1,1,.22.47l-3.82,1.78A.31.31,0,0,1,244.28,76.32Z" fill="#ef701b"/>
                <path id="Trazado_1085765" data-name="Trazado 1085765" d="M246.35,77.8a.311.311,0,0,1,.2-.38l3.82-1.78a.269.269,0,1,1,.22.47l-3.82,1.78A.31.31,0,0,1,246.35,77.8Z" fill="#ef701b"/>
                <path id="Trazado_1085766" data-name="Trazado 1085766" d="M248.72,78.92a.311.311,0,0,1,.2-.38l3.82-1.78a.269.269,0,1,1,.22.47l-3.82,1.78A.31.31,0,0,1,248.72,78.92Z" fill="#ef701b"/>
                <path id="Trazado_1085767" data-name="Trazado 1085767" d="M251.43,79.73a.311.311,0,0,1,.2-.38l3.82-1.78a.269.269,0,1,1,.22.47l-3.82,1.78A.31.31,0,0,1,251.43,79.73Z" fill="#ef701b"/>
              </g>
            </g>
            <g id="Grupo_1215790" data-name="Grupo 1215790">
              <path id="Trazado_1085768" data-name="Trazado 1085768" d="M253.67,64.3a4.855,4.855,0,0,0-.1-3.45,12.026,12.026,0,0,0-.49-1.17c.84-.39,1.68-.76,2.52-1.14.3.7.56,1.43.81,2.13a1.55,1.55,0,0,0,1.85,1.03c.67-.31.72-1.21.4-2.08-.25-.68-.52-1.39-.82-2.09.37-.17.75-.34,1.12-.51.88-.39,0-2.26-.87-1.87-.39.17-.78.36-1.18.53a8.3,8.3,0,0,0-2.04-2.42c-1.81-1.38-4.01-1.66-5.08.12-.85,1.41-.55,3.59.19,5.47-.58.27-1.16.55-1.74.82-.23-.6-.43-1.23-.62-1.81-.27-.88-.95-1.6-1.68-1.55a1.264,1.264,0,0,0-.88,1.73c.27.88.57,1.8.93,2.68-.18.09-.37.17-.56.26-.86.42,0,2.29.87,1.87.19-.09.39-.18.58-.28a7.733,7.733,0,0,0,1.83,2.18c1.77,1.42,4.1,1.52,4.94-.47Zm-1.68-7.44a2.95,2.95,0,0,1,0-.89.633.633,0,0,1,.82-.56,2.446,2.446,0,0,1,1.01.45,4.405,4.405,0,0,1,.78.86c-.79.36-1.58.71-2.37,1.07a2.173,2.173,0,0,1-.07-.24,5.467,5.467,0,0,1-.16-.7Zm-1.14,5.68a.322.322,0,0,0-.08.01h-.21a1.49,1.49,0,0,1-.18-.04,2,2,0,0,1-.47-.25,4.107,4.107,0,0,1-.72-.76l1.65-.78c0,.02.02.04.03.06a3.353,3.353,0,0,1,.41,1.17c-.01-.09,0,.12-.01.2a.243.243,0,0,1-.03.11,1.538,1.538,0,0,1-.12.13l-.03.03c-.07.04-.14.07-.22.11h-.03Z" fill="#fda635"/>
              <path id="Trazado_1085769" data-name="Trazado 1085769" d="M254.48,63.92a4.855,4.855,0,0,0-.1-3.45,12.026,12.026,0,0,0-.49-1.17c.84-.39,1.68-.76,2.52-1.14.3.7.56,1.43.81,2.13a1.55,1.55,0,0,0,1.85,1.03c.67-.31.72-1.21.4-2.08-.25-.68-.52-1.39-.82-2.09.37-.17.75-.34,1.12-.51.88-.39,0-2.26-.87-1.87-.39.17-.78.36-1.18.53a8.294,8.294,0,0,0-2.04-2.42c-1.81-1.38-4.01-1.66-5.08.12-.85,1.41-.55,3.59.19,5.47-.58.27-1.16.55-1.74.82-.23-.6-.43-1.23-.62-1.81-.27-.88-.95-1.6-1.68-1.55a1.264,1.264,0,0,0-.88,1.73c.27.88.57,1.8.93,2.68-.18.09-.37.17-.56.26-.86.42,0,2.29.87,1.87.19-.09.39-.18.58-.28a7.733,7.733,0,0,0,1.83,2.18c1.77,1.42,4.1,1.52,4.94-.47Zm-1.68-7.44a2.95,2.95,0,0,1,0-.89.633.633,0,0,1,.82-.56,2.446,2.446,0,0,1,1.01.45,4.405,4.405,0,0,1,.78.86c-.79.36-1.58.71-2.37,1.07a2.173,2.173,0,0,1-.07-.24,5.467,5.467,0,0,1-.16-.7Zm-1.15,5.69a.322.322,0,0,0-.08.01h-.21a1.49,1.49,0,0,1-.18-.04,2,2,0,0,1-.47-.25,4.107,4.107,0,0,1-.72-.76l1.65-.78c0,.02.02.04.03.06a3.353,3.353,0,0,1,.41,1.17c-.01-.09,0,.12-.01.2a.243.243,0,0,1-.03.11,1.538,1.538,0,0,1-.12.13c-.01.02-.02.02-.03.03-.07.04-.14.07-.22.11h-.03Z" fill="#ffe08a"/>
            </g>
          </g>
        </g>
        <g id="Grupo_1215795" data-name="Grupo 1215795">
          <g id="Grupo_1215793" data-name="Grupo 1215793">
            <path id="Trazado_1085770" data-name="Trazado 1085770" d="M95.21,381.17a15.173,15.173,0,1,0-25.33,16.7,15.6,15.6,0,0,0,7.42,5.99h.01c.36.15.72.27,1.08.38l14.06,4.83.78,1.47c.5.64.55.28,2.01-.65h0a1.573,1.573,0,0,0,.7-1.19l1.78-17.33c.03-.3.05-.59.07-.89v-.15h0a15.629,15.629,0,0,0-2.59-9.18Zm-9.2,13.61a6.292,6.292,0,1,1,1.68-8.64A6.234,6.234,0,0,1,86.01,394.78Z" fill="#b72727"/>
            <path id="Trazado_1085771" data-name="Trazado 1085771" d="M93.36,382.39a15.173,15.173,0,1,0-25.33,16.7,15.6,15.6,0,0,0,7.42,5.99h.01c.36.15.72.27,1.08.38l15.99,5.49a1.565,1.565,0,0,0,2.07-1.37l1.26-16.99c.03-.3.05-.59.07-.89v-.15h0a15.629,15.629,0,0,0-2.59-9.18Zm-9.2,13.6a6.292,6.292,0,1,1,1.68-8.64A6.234,6.234,0,0,1,84.16,395.99Z" fill="#ea3d3d"/>
          </g>
          <g id="Grupo_1215794" data-name="Grupo 1215794">
            <path id="Trazado_1085772" data-name="Trazado 1085772" d="M377.87,95.69a21.777,21.777,0,1,0-40.75-15.35,22.434,22.434,0,0,0-.71,13.68v.02c.14.53.3,1.05.48,1.57l6.24,20.41-1.06,2.14c-.32,1.12.14.87,2.44,1.79h0a2.237,2.237,0,0,0,1.98-.19l21.64-12.54c.37-.22.73-.44,1.09-.67l.18-.11h-.02A22.43,22.43,0,0,0,377.87,95.69Zm-23.56.78a9.03,9.03,0,1,1,11.46-5.33A8.95,8.95,0,0,1,354.31,96.47Z" fill="#b72727"/>
            <path id="Trazado_1085773" data-name="Trazado 1085773" d="M374.91,94.57a21.777,21.777,0,1,0-40.75-15.35,22.434,22.434,0,0,0-.71,13.68v.02c.14.53.3,1.05.48,1.57l7.1,23.21a2.258,2.258,0,0,0,3.34,1.26l20.81-12.85c.37-.22.73-.44,1.09-.67l.18-.11h-.02a22.43,22.43,0,0,0,8.49-10.75Zm-23.57.78a9.03,9.03,0,1,1,11.46-5.33A8.95,8.95,0,0,1,351.34,95.35Z" fill="#ea3d3d"/>
          </g>
        </g>
        <g id="Grupo_1215800" data-name="Grupo 1215800">
          <path id="Trazado_1085774" data-name="Trazado 1085774" d="M435.78,154.06c-2.5,2.56-5.21,5.22-7.71,7.78-1.72-.43-3.43-.9-5.14-1.33-.61.52-1.26,1.08-1.87,1.6l5.55,5.88a2.882,2.882,0,0,0,1.54,1.04c1.06.17,2.06-1.21,2.88-1.89,2.27-1.86,5.2-3.9,7.47-5.76a104.592,104.592,0,0,0,2.41,13.06c.89-.61,1.76-1.23,2.65-1.84,1.01-5.42,2.16-11.91,3.17-17.33q4.77-5.115,9.54-10.24c1.03-1.11,2.13-2.66,1.42-3.99a2.385,2.385,0,0,0-1.93-1.14,5.462,5.462,0,0,0-2.28.42c-4.15,1.5-7.66,4.42-10.86,7.46a129.4,129.4,0,0,0-18.03-1.2l-3.02,2.9,14.23,4.59Z" fill="none" stroke="#fff" stroke-linecap="round" stroke-linejoin="round" stroke-width="1"/>
          <g id="Grupo_1215796" data-name="Grupo 1215796">
            <path id="Trazado_1085775" data-name="Trazado 1085775" d="M93.62,458.58a208.233,208.233,0,0,0-1.82-28.34c9.45-.36,18.74-.79,28.19-1.16a175.326,175.326,0,0,0-.42,28.53c-8.22.1-17.73.86-25.95.97Z" fill="none" stroke="#fff" stroke-linecap="round" stroke-linejoin="round" stroke-width="1"/>
            <path id="Trazado_1085776" data-name="Trazado 1085776" d="M119.98,429.09,135,421.26l-1.54,30.67-13.89,5.68" fill="none" stroke="#fff" stroke-linecap="round" stroke-linejoin="round" stroke-width="1"/>
            <path id="Trazado_1085777" data-name="Trazado 1085777" d="M91.79,430.24l15.45-7.44L135,421.26" fill="none" stroke="#fff" stroke-linecap="round" stroke-linejoin="round" stroke-width="1"/>
            <path id="Trazado_1085778" data-name="Trazado 1085778" d="M123.24,421.91l-14.33,7.63v9.9h-5.4l-.57-9.65,11.5-7.39" fill="none" stroke="#fff" stroke-linecap="round" stroke-linejoin="round" stroke-width="1"/>
          </g>
          <g id="Grupo_1215797" data-name="Grupo 1215797">
            <path id="Trazado_1085779" data-name="Trazado 1085779" d="M444.01,340.97l-5.32-17.44c-1.48-7.62,5.05-14.72,12.68-13.29.32.06.63.13.95.22h0c.32.09.63.18.93.29,7.3,2.64,9.32,12.08,4.19,17.89Z" fill="none" stroke="#fff" stroke-linecap="round" stroke-linejoin="round" stroke-width="1"/>
            <path id="Trazado_1085780" data-name="Trazado 1085780" d="M453.59,321.81a4.213,4.213,0,1,1-2.96-5.17A4.211,4.211,0,0,1,453.59,321.81Z" fill="none" stroke="#fff" stroke-linecap="round" stroke-linejoin="round" stroke-width="1"/>
          </g>
          <g id="Grupo_1215798" data-name="Grupo 1215798">
            <path id="Trazado_1085781" data-name="Trazado 1085781" d="M46.25,315.55,32.67,303.38c-5.21-5.75-3.3-15.21,3.96-17.94.3-.11.61-.22.92-.3h0c.31-.09.63-.17.95-.23,7.61-1.52,14.23,5.5,12.84,13.14l-5.1,17.5Z" fill="none" stroke="#fff" stroke-linecap="round" stroke-linejoin="round" stroke-width="1"/>
            <path id="Trazado_1085782" data-name="Trazado 1085782" d="M44.53,294.2a4.213,4.213,0,1,1-5.21-2.89A4.217,4.217,0,0,1,44.53,294.2Z" fill="none" stroke="#fff" stroke-linecap="round" stroke-linejoin="round" stroke-width="1"/>
          </g>
          <g id="Grupo_1215799" data-name="Grupo 1215799">
            <path id="Trazado_1085783" data-name="Trazado 1085783" d="M154.16,78.05a15.352,15.352,0,0,0-5.35-8.52,11.8,11.8,0,0,0-9.65-2.31,9.609,9.609,0,0,0-7.14,6.64,8.131,8.131,0,0,0,3.48,8.89c2,1.18,4.42,1.33,6.71,1.69s4.74,1.08,6.1,2.96a5.77,5.77,0,0,1,.31,5.97,7.31,7.31,0,0,1-4.92,3.6,10.041,10.041,0,0,1-6.15-.75c-3.36-1.49-6.08-4.88-5.84-8.55" fill="none" stroke="#fff" stroke-linecap="round" stroke-linejoin="round" stroke-width="1"/>
            <path id="Trazado_1085784" data-name="Trazado 1085784" d="M142.99,63.38a193.735,193.735,0,0,0-8.34,36.45" fill="none" stroke="#fff" stroke-linecap="round" stroke-linejoin="round" stroke-width="1"/>
            <path id="Trazado_1085785" data-name="Trazado 1085785" d="M148.16,64.59a270.5,270.5,0,0,0-6.77,37.47" fill="none" stroke="#fff" stroke-linecap="round" stroke-linejoin="round" stroke-width="1"/>
          </g>
        </g>
        <g id="Grupo_1215801" data-name="Grupo 1215801">
          <path id="Trazado_1085786" data-name="Trazado 1085786" d="M137.11,186.62H60.86c-.26-2.06,1.42-3.7,3.19-4.79a5.546,5.546,0,0,1,5.88.15,19.258,19.258,0,0,1,7.73-16.21,19.324,19.324,0,0,1,30.38,10.28,4.222,4.222,0,0,1,2.23-2.32,8.676,8.676,0,0,1,12.36,6.2,15.45,15.45,0,0,1,6.3-2.02,8.88,8.88,0,0,1,6.24,1.93,7.552,7.552,0,0,1,1.94,6.77Z" fill="#fff"/>
          <path id="Trazado_1085787" data-name="Trazado 1085787" d="M373.34,238.96h64.93c.22-1.75-1.21-3.15-2.71-4.07a4.719,4.719,0,0,0-5.01.13,16.358,16.358,0,0,0-6.58-13.8,16.455,16.455,0,0,0-25.87,8.76,3.593,3.593,0,0,0-1.9-1.97,7.377,7.377,0,0,0-10.52,5.28,13.087,13.087,0,0,0-5.37-1.72,7.561,7.561,0,0,0-5.32,1.64,6.433,6.433,0,0,0-1.66,5.76Z" fill="#fff"/>
          <path id="Trazado_1085788" data-name="Trazado 1085788" d="M342.67,404.3H291.39c.01-5.56,1.94-11.23,6.48-14.45a17.544,17.544,0,0,1,26.98,9.4,15.38,15.38,0,0,1,7.04-3.37,9.86,9.86,0,0,1,7.29,1.53,8.41,8.41,0,0,1,3.49,6.89Z" fill="#fff"/>
          <path id="Trazado_1085789" data-name="Trazado 1085789" d="M214.19,147.74H108.57c-.54-2,1.06-4.29,3.03-4.93a8.145,8.145,0,0,1,5.99.83c-1.43-5.04,1.11-10.65,5.19-13.94a16.9,16.9,0,0,1,14.87-2.81,21.972,21.972,0,0,1,12.27,9.26c.4-6.84,5.57-13.01,11.93-15.55a20.343,20.343,0,0,1,19.44,2.82,22.518,22.518,0,0,1,8.59,17.86,5.612,5.612,0,0,1,5.38-3.09,5.1,5.1,0,0,1,4.29,4.03,8.855,8.855,0,0,1,9.53-2.75c3.27,1.1,5.13,4.81,5.11,8.26Z" fill="#fff"/>
        </g>
      </g>
    </g>
    <g id="Grupo_1220196" data-name="Grupo 1220196" transform="translate(494.575 1352.329)">
      <path id="Trazado_1047731" data-name="Trazado 1047731" d="M2966.17,2302.422h60.171l74.467,76.045" transform="translate(-2954.243 -2295)" fill="none" stroke="#496406" stroke-linecap="round" stroke-width="3" stroke-dasharray="5 8"/>
      <g transform="matrix(1, 0, 0, 1, -233.58, -175.8)" filter="url(#Elipse_14255)">
        <ellipse id="Elipse_14255-3" data-name="Elipse 14255" cx="7" cy="7" rx="7" ry="7" transform="translate(233.58 175.8)" fill="#496406"/>
      </g>
    </g>
    <g id="Grupo_1220198" data-name="Grupo 1220198" transform="translate(-83.099 -5953.846)">
      <g id="Rectángulo_418623" data-name="Rectángulo 418623" transform="translate(344.099 7298)" fill="#fff" stroke="#496406" stroke-width="1">
        <rect width="202" height="32" rx="16" stroke="none"/>
        <rect x="0.5" y="0.5" width="201" height="31" rx="15.5" fill="none"/>
      </g>
      <path id="Trazado_1172555" data-name="Trazado 1172555" d="M7.953,0H1.281V-11.2H3.8v9.156H7.953Zm7.922,0H13.539V-1.148h-.031A2.607,2.607,0,0,1,11.125.2a2.492,2.492,0,0,1-1.832-.66,2.366,2.366,0,0,1-.668-1.762q0-2.328,2.758-2.687L13.555-5.2q0-1.312-1.422-1.312a4.853,4.853,0,0,0-2.719.852V-7.523a6.116,6.116,0,0,1,1.41-.469,7.413,7.413,0,0,1,1.629-.2q3.422,0,3.422,3.414Zm-2.32-3.25v-.539L12.1-3.6q-1.2.156-1.2,1.086a.9.9,0,0,0,.293.691,1.126,1.126,0,0,0,.793.27,1.462,1.462,0,0,0,1.133-.48A1.735,1.735,0,0,0,13.555-3.25ZM17.3-.211v-2a5.256,5.256,0,0,0,1.215.547,4.028,4.028,0,0,0,1.145.18,2.455,2.455,0,0,0,1.035-.18.581.581,0,0,0,.379-.547.506.506,0,0,0-.172-.391,1.6,1.6,0,0,0-.441-.273,5.009,5.009,0,0,0-.59-.211q-.32-.094-.617-.211a5.913,5.913,0,0,1-.84-.387,2.427,2.427,0,0,1-.609-.48,1.889,1.889,0,0,1-.375-.633,2.525,2.525,0,0,1-.129-.852A2.192,2.192,0,0,1,17.6-6.8a2.393,2.393,0,0,1,.781-.793A3.57,3.57,0,0,1,19.5-8.051,5.825,5.825,0,0,1,20.8-8.2a7.261,7.261,0,0,1,1.078.082,8.047,8.047,0,0,1,1.078.238v1.906a3.9,3.9,0,0,0-1-.41,4.235,4.235,0,0,0-1.051-.137,2.328,2.328,0,0,0-.457.043,1.505,1.505,0,0,0-.379.125.7.7,0,0,0-.258.211.486.486,0,0,0-.094.293.541.541,0,0,0,.141.375,1.221,1.221,0,0,0,.367.27,3.625,3.625,0,0,0,.5.2q.277.09.551.184a7.161,7.161,0,0,1,.891.375,2.848,2.848,0,0,1,.684.477,1.871,1.871,0,0,1,.438.641,2.277,2.277,0,0,1,.152.875,2.282,2.282,0,0,1-.309,1.215,2.471,2.471,0,0,1-.82.82,3.72,3.72,0,0,1-1.18.461A6.54,6.54,0,0,1,19.75.2,7.149,7.149,0,0,1,17.3-.211Zm16.813.117A3.649,3.649,0,0,1,32.469.2q-2.609,0-2.609-2.711V-6.18h-1.3V-8h1.3V-9.727l2.461-.7V-8h1.8v1.82h-1.8v3.234q0,1.25.992,1.25a1.673,1.673,0,0,0,.8-.227Zm8.516-3.2H37.414q.125,1.742,2.2,1.742a4.286,4.286,0,0,0,2.32-.625V-.4A6.1,6.1,0,0,1,39.047.2,4.058,4.058,0,0,1,36.039-.879a4.058,4.058,0,0,1-1.07-3,4.281,4.281,0,0,1,1.156-3.156A3.852,3.852,0,0,1,38.969-8.2a3.5,3.5,0,0,1,2.707,1.039,4,4,0,0,1,.957,2.82ZM40.344-4.812q0-1.719-1.391-1.719a1.328,1.328,0,0,0-1.027.492A2.234,2.234,0,0,0,37.4-4.812ZM47.914.2A4.3,4.3,0,0,1,44.77-.926a4.064,4.064,0,0,1-1.145-3.043,4.065,4.065,0,0,1,1.188-3.105A4.487,4.487,0,0,1,48.023-8.2a4.249,4.249,0,0,1,3.125,1.121,3.985,3.985,0,0,1,1.133,2.965A4.23,4.23,0,0,1,51.113-.961,4.348,4.348,0,0,1,47.914.2Zm.063-6.5a1.647,1.647,0,0,0-1.359.6A2.653,2.653,0,0,0,46.133-4q0,2.3,1.859,2.3,1.773,0,1.773-2.367Q49.766-6.3,47.977-6.3ZM59.1-5.773a2.142,2.142,0,0,0-1.039-.242,1.5,1.5,0,0,0-1.258.59,2.573,2.573,0,0,0-.453,1.605V0H53.883V-8h2.469v1.484h.031a2.136,2.136,0,0,1,2.109-1.625,1.59,1.59,0,0,1,.609.094ZM62.719,0H60.25V-8h2.469Zm1.273-11.789L61.547-9.266H59.766L61.8-11.789ZM71.453,0H69.117V-1.148h-.031A2.607,2.607,0,0,1,66.7.2a2.492,2.492,0,0,1-1.832-.66A2.366,2.366,0,0,1,64.2-2.227q0-2.328,2.758-2.687L69.133-5.2q0-1.312-1.422-1.312a4.853,4.853,0,0,0-2.719.852V-7.523a6.116,6.116,0,0,1,1.41-.469,7.413,7.413,0,0,1,1.629-.2q3.422,0,3.422,3.414Zm-2.32-3.25v-.539L67.68-3.6q-1.2.156-1.2,1.086a.9.9,0,0,0,.293.691,1.126,1.126,0,0,0,.793.27,1.462,1.462,0,0,0,1.133-.48A1.735,1.735,0,0,0,69.133-3.25Zm3.75,3.039v-2a5.256,5.256,0,0,0,1.215.547,4.028,4.028,0,0,0,1.145.18,2.455,2.455,0,0,0,1.035-.18.581.581,0,0,0,.379-.547.506.506,0,0,0-.172-.391,1.6,1.6,0,0,0-.441-.273,5.009,5.009,0,0,0-.59-.211q-.32-.094-.617-.211A5.913,5.913,0,0,1,74-3.684a2.427,2.427,0,0,1-.609-.48,1.889,1.889,0,0,1-.375-.633,2.525,2.525,0,0,1-.129-.852A2.192,2.192,0,0,1,73.176-6.8a2.393,2.393,0,0,1,.781-.793,3.57,3.57,0,0,1,1.117-.453A5.825,5.825,0,0,1,76.383-8.2a7.261,7.261,0,0,1,1.078.082,8.047,8.047,0,0,1,1.078.238v1.906a3.9,3.9,0,0,0-1-.41,4.235,4.235,0,0,0-1.051-.137,2.328,2.328,0,0,0-.457.043,1.505,1.505,0,0,0-.379.125.7.7,0,0,0-.258.211.486.486,0,0,0-.094.293.541.541,0,0,0,.141.375,1.221,1.221,0,0,0,.367.27,3.625,3.625,0,0,0,.5.2q.277.09.551.184a7.161,7.161,0,0,1,.891.375,2.848,2.848,0,0,1,.684.477,1.872,1.872,0,0,1,.438.641,2.277,2.277,0,0,1,.152.875,2.282,2.282,0,0,1-.309,1.215,2.471,2.471,0,0,1-.82.82,3.72,3.72,0,0,1-1.18.461A6.54,6.54,0,0,1,75.328.2,7.149,7.149,0,0,1,72.883-.211ZM90.922-.289A4.881,4.881,0,0,1,88.508.2,4.083,4.083,0,0,1,85.523-.922,3.859,3.859,0,0,1,84.383-3.8,4.251,4.251,0,0,1,85.605-7.02,4.518,4.518,0,0,1,88.875-8.2a4.2,4.2,0,0,1,2.047.375v2.094A2.814,2.814,0,0,0,89.2-6.3a2.275,2.275,0,0,0-1.684.621,2.317,2.317,0,0,0-.621,1.715A2.28,2.28,0,0,0,87.484-2.3a2.182,2.182,0,0,0,1.633.605,3.258,3.258,0,0,0,1.8-.578ZM95.008,0H92.539V-11.844h2.469Zm8.734,0h-2.336V-1.148h-.031A2.607,2.607,0,0,1,98.992.2a2.492,2.492,0,0,1-1.832-.66,2.366,2.366,0,0,1-.668-1.762q0-2.328,2.758-2.687l2.172-.289q0-1.312-1.422-1.312a4.853,4.853,0,0,0-2.719.852V-7.523a6.116,6.116,0,0,1,1.41-.469,7.413,7.413,0,0,1,1.629-.2q3.422,0,3.422,3.414Zm-2.32-3.25v-.539L99.969-3.6q-1.2.156-1.2,1.086a.9.9,0,0,0,.293.691,1.126,1.126,0,0,0,.793.27,1.462,1.462,0,0,0,1.133-.48A1.735,1.735,0,0,0,101.422-3.25Zm1.586-8.539-2.445,2.523H98.781l2.031-2.523ZM105.172-.211v-2a5.256,5.256,0,0,0,1.215.547,4.028,4.028,0,0,0,1.145.18,2.455,2.455,0,0,0,1.035-.18.581.581,0,0,0,.379-.547.506.506,0,0,0-.172-.391,1.6,1.6,0,0,0-.441-.273,5.009,5.009,0,0,0-.59-.211q-.32-.094-.617-.211a5.913,5.913,0,0,1-.84-.387,2.427,2.427,0,0,1-.609-.48A1.889,1.889,0,0,1,105.3-4.8a2.525,2.525,0,0,1-.129-.852,2.192,2.192,0,0,1,.293-1.156,2.393,2.393,0,0,1,.781-.793,3.57,3.57,0,0,1,1.117-.453,5.825,5.825,0,0,1,1.309-.145,7.261,7.261,0,0,1,1.078.082,8.047,8.047,0,0,1,1.078.238v1.906a3.9,3.9,0,0,0-1-.41,4.235,4.235,0,0,0-1.051-.137,2.328,2.328,0,0,0-.457.043,1.505,1.505,0,0,0-.379.125.7.7,0,0,0-.258.211.486.486,0,0,0-.094.293.541.541,0,0,0,.141.375,1.221,1.221,0,0,0,.367.27,3.625,3.625,0,0,0,.5.2q.277.09.551.184a7.161,7.161,0,0,1,.891.375,2.848,2.848,0,0,1,.684.477,1.872,1.872,0,0,1,.438.641,2.277,2.277,0,0,1,.152.875A2.282,2.282,0,0,1,111-1.23a2.471,2.471,0,0,1-.82.82A3.72,3.72,0,0,1,109,.051,6.54,6.54,0,0,1,107.617.2,7.149,7.149,0,0,1,105.172-.211Zm8.813-9.055a1.442,1.442,0,0,1-1.023-.371,1.2,1.2,0,0,1-.4-.91,1.153,1.153,0,0,1,.4-.906,1.49,1.49,0,0,1,1.023-.352,1.486,1.486,0,0,1,1.027.352,1.158,1.158,0,0,1,.395.906,1.191,1.191,0,0,1-.395.922A1.466,1.466,0,0,1,113.984-9.266ZM115.2,0h-2.469V-8H115.2Zm8.141-.289A4.881,4.881,0,0,1,120.93.2a4.083,4.083,0,0,1-2.984-1.117A3.859,3.859,0,0,1,116.8-3.8a4.251,4.251,0,0,1,1.223-3.215A4.518,4.518,0,0,1,121.3-8.2a4.2,4.2,0,0,1,2.047.375v2.094a2.814,2.814,0,0,0-1.727-.578,2.275,2.275,0,0,0-1.684.621,2.317,2.317,0,0,0-.621,1.715,2.28,2.28,0,0,0,.594,1.668,2.182,2.182,0,0,0,1.633.605,3.258,3.258,0,0,0,1.8-.578ZM131.617,0h-2.336V-1.148h-.031A2.607,2.607,0,0,1,126.867.2a2.492,2.492,0,0,1-1.832-.66,2.366,2.366,0,0,1-.668-1.762q0-2.328,2.758-2.687L129.3-5.2q0-1.312-1.422-1.312a4.853,4.853,0,0,0-2.719.852V-7.523a6.116,6.116,0,0,1,1.41-.469,7.413,7.413,0,0,1,1.629-.2q3.422,0,3.422,3.414ZM129.3-3.25v-.539l-1.453.188q-1.2.156-1.2,1.086a.9.9,0,0,0,.293.691,1.126,1.126,0,0,0,.793.27,1.462,1.462,0,0,0,1.133-.48A1.735,1.735,0,0,0,129.3-3.25Zm3.75,3.039v-2a5.256,5.256,0,0,0,1.215.547,4.028,4.028,0,0,0,1.145.18,2.455,2.455,0,0,0,1.035-.18.581.581,0,0,0,.379-.547.506.506,0,0,0-.172-.391,1.6,1.6,0,0,0-.441-.273,5.009,5.009,0,0,0-.59-.211Q135.3-3.18,135-3.3a5.914,5.914,0,0,1-.84-.387,2.427,2.427,0,0,1-.609-.48,1.889,1.889,0,0,1-.375-.633,2.525,2.525,0,0,1-.129-.852A2.192,2.192,0,0,1,133.34-6.8a2.393,2.393,0,0,1,.781-.793,3.57,3.57,0,0,1,1.117-.453,5.825,5.825,0,0,1,1.309-.145,7.261,7.261,0,0,1,1.078.082,8.047,8.047,0,0,1,1.078.238v1.906a3.9,3.9,0,0,0-1-.41,4.235,4.235,0,0,0-1.051-.137,2.328,2.328,0,0,0-.457.043,1.505,1.505,0,0,0-.379.125.7.7,0,0,0-.258.211.486.486,0,0,0-.094.293.541.541,0,0,0,.141.375,1.221,1.221,0,0,0,.367.27,3.625,3.625,0,0,0,.5.2q.277.09.551.184a7.161,7.161,0,0,1,.891.375,2.848,2.848,0,0,1,.684.477,1.871,1.871,0,0,1,.438.641,2.277,2.277,0,0,1,.152.875,2.282,2.282,0,0,1-.309,1.215,2.471,2.471,0,0,1-.82.82,3.72,3.72,0,0,1-1.18.461A6.54,6.54,0,0,1,135.492.2,7.149,7.149,0,0,1,133.047-.211Z" transform="translate(361.674 7320)" fill="#212429"/>
      <g id="Trazado_1168897" data-name="Trazado 1168897" transform="translate(524.674 7289.174)" fill="#fff">
        <path d="M 24 47.5 C 20.82729911804199 47.5 17.74976921081543 46.87873077392578 14.85289001464844 45.65346145629883 C 12.05459022521973 44.46987915039062 9.541350364685059 42.77537155151367 7.382989883422852 40.61700820922852 C 5.224629878997803 38.45864868164062 3.530119895935059 35.94541168212891 2.346539974212646 33.14710998535156 C 1.121269941329956 30.25023078918457 0.5 27.17270088195801 0.5 24 C 0.5 20.82729911804199 1.121269941329956 17.74976921081543 2.346539974212646 14.85289001464844 C 3.530119895935059 12.05459022521973 5.224629878997803 9.541350364685059 7.382989883422852 7.382989883422852 C 9.541350364685059 5.224629878997803 12.05459022521973 3.530119895935059 14.85289001464844 2.346539974212646 C 17.74976921081543 1.121269941329956 20.82729911804199 0.5 24 0.5 C 27.17270088195801 0.5 30.25023078918457 1.121269941329956 33.14710998535156 2.346539974212646 C 35.94541168212891 3.530119895935059 38.45864868164062 5.224629878997803 40.61700820922852 7.382989883422852 C 42.77537155151367 9.541350364685059 44.46987915039062 12.05459022521973 45.65346145629883 14.85289001464844 C 46.87873077392578 17.74976921081543 47.5 20.82729911804199 47.5 24 C 47.5 27.17270088195801 46.87873077392578 30.25023078918457 45.65346145629883 33.14710998535156 C 44.46987915039062 35.94541168212891 42.77537155151367 38.45864868164062 40.61700820922852 40.61700820922852 C 38.45864868164062 42.77537155151367 35.94541168212891 44.46987915039062 33.14710998535156 45.65346145629883 C 30.25023078918457 46.87873077392578 27.17270088195801 47.5 24 47.5 Z" stroke="none"/>
        <path d="M 24 1 C 20.89458084106445 1 17.8825798034668 1.607978820800781 15.04766845703125 2.807041168212891 C 12.3089714050293 3.965419769287109 9.849151611328125 5.623939514160156 7.736549377441406 7.736549377441406 C 5.623939514160156 9.849151611328125 3.965419769287109 12.3089714050293 2.807041168212891 15.04766845703125 C 1.607978820800781 17.8825798034668 1 20.89458084106445 1 24 C 1 27.10541915893555 1.607978820800781 30.1174201965332 2.807041168212891 32.95233154296875 C 3.965419769287109 35.6910285949707 5.623939514160156 38.15084838867188 7.736549377441406 40.26345062255859 C 9.849151611328125 42.37606048583984 12.3089714050293 44.03458023071289 15.04766845703125 45.19295883178711 C 17.8825798034668 46.39202117919922 20.89458084106445 47 24 47 C 27.10541915893555 47 30.1174201965332 46.39202117919922 32.95233154296875 45.19295883178711 C 35.6910285949707 44.03458023071289 38.15084838867188 42.37606048583984 40.26345062255859 40.26345062255859 C 42.37606048583984 38.15084838867188 44.03458023071289 35.6910285949707 45.19295883178711 32.95233154296875 C 46.39202117919922 30.1174201965332 47 27.10541915893555 47 24 C 47 20.89458084106445 46.39202117919922 17.8825798034668 45.19295883178711 15.04766845703125 C 44.03458023071289 12.3089714050293 42.37606048583984 9.849151611328125 40.26345062255859 7.736549377441406 C 38.15084838867188 5.623939514160156 35.6910285949707 3.965419769287109 32.95233154296875 2.807041168212891 C 30.1174201965332 1.607978820800781 27.10541915893555 1 24 1 M 24 0 C 37.25482940673828 0 48 10.74517059326172 48 24 C 48 37.25482940673828 37.25482940673828 48 24 48 C 10.74517059326172 48 0 37.25482940673828 0 24 C 0 10.74517059326172 10.74517059326172 0 24 0 Z" stroke="none" fill="#496406"/>
      </g>
    </g>
    <g id="Grupo_1220202" data-name="Grupo 1220202" transform="translate(981.93 1343.329)">
      <path id="Trazado_1047731-2" data-name="Trazado 1047731" d="M3100.808,2302.422h-60.171l-74.468,76.045" transform="translate(-2966.17 -2295)" fill="none" stroke="#496406" stroke-linecap="round" stroke-width="3" stroke-dasharray="5 8"/>
      <g transform="matrix(1, 0, 0, 1, -720.93, -166.8)" filter="url(#Elipse_14255-2)">
        <ellipse id="Elipse_14255-4" data-name="Elipse 14255" cx="7" cy="7" rx="7" ry="7" transform="translate(853.49 166.8)" fill="#496406"/>
      </g>
    </g>
    <g id="Grupo_1220203" data-name="Grupo 1220203" transform="translate(1133.495 1326.329)">
      <g id="Rectángulo_418623-2" data-name="Rectángulo 418623" transform="translate(26.575 8.826)" fill="#fff" stroke="#496406" stroke-width="1">
        <rect width="210" height="32" rx="16" stroke="none"/>
        <rect x="0.5" y="0.5" width="209" height="31" rx="15.5" fill="none"/>
      </g>
      <path id="Trazado_1172556" data-name="Trazado 1172556" d="M7.953,0H1.281V-11.2H3.8v9.156H7.953Zm7.922,0H13.539V-1.148h-.031A2.607,2.607,0,0,1,11.125.2a2.492,2.492,0,0,1-1.832-.66,2.366,2.366,0,0,1-.668-1.762q0-2.328,2.758-2.687L13.555-5.2q0-1.312-1.422-1.312a4.853,4.853,0,0,0-2.719.852V-7.523a6.116,6.116,0,0,1,1.41-.469,7.413,7.413,0,0,1,1.629-.2q3.422,0,3.422,3.414Zm-2.32-3.25v-.539L12.1-3.6q-1.2.156-1.2,1.086a.9.9,0,0,0,.293.691,1.126,1.126,0,0,0,.793.27,1.462,1.462,0,0,0,1.133-.48A1.735,1.735,0,0,0,13.555-3.25ZM17.3-.211v-2a5.256,5.256,0,0,0,1.215.547,4.028,4.028,0,0,0,1.145.18,2.455,2.455,0,0,0,1.035-.18.581.581,0,0,0,.379-.547.506.506,0,0,0-.172-.391,1.6,1.6,0,0,0-.441-.273,5.009,5.009,0,0,0-.59-.211q-.32-.094-.617-.211a5.913,5.913,0,0,1-.84-.387,2.427,2.427,0,0,1-.609-.48,1.889,1.889,0,0,1-.375-.633,2.525,2.525,0,0,1-.129-.852A2.192,2.192,0,0,1,17.6-6.8a2.393,2.393,0,0,1,.781-.793A3.57,3.57,0,0,1,19.5-8.051,5.825,5.825,0,0,1,20.8-8.2a7.261,7.261,0,0,1,1.078.082,8.047,8.047,0,0,1,1.078.238v1.906a3.9,3.9,0,0,0-1-.41,4.235,4.235,0,0,0-1.051-.137,2.328,2.328,0,0,0-.457.043,1.505,1.505,0,0,0-.379.125.7.7,0,0,0-.258.211.486.486,0,0,0-.094.293.541.541,0,0,0,.141.375,1.221,1.221,0,0,0,.367.27,3.625,3.625,0,0,0,.5.2q.277.09.551.184a7.161,7.161,0,0,1,.891.375,2.848,2.848,0,0,1,.684.477,1.871,1.871,0,0,1,.438.641,2.277,2.277,0,0,1,.152.875,2.282,2.282,0,0,1-.309,1.215,2.471,2.471,0,0,1-.82.82,3.72,3.72,0,0,1-1.18.461A6.54,6.54,0,0,1,19.75.2,7.149,7.149,0,0,1,17.3-.211Zm16.813.117A3.649,3.649,0,0,1,32.469.2q-2.609,0-2.609-2.711V-6.18h-1.3V-8h1.3V-9.727l2.461-.7V-8h1.8v1.82h-1.8v3.234q0,1.25.992,1.25a1.673,1.673,0,0,0,.8-.227Zm8.516-3.2H37.414q.125,1.742,2.2,1.742a4.286,4.286,0,0,0,2.32-.625V-.4A6.1,6.1,0,0,1,39.047.2,4.058,4.058,0,0,1,36.039-.879a4.058,4.058,0,0,1-1.07-3,4.281,4.281,0,0,1,1.156-3.156A3.852,3.852,0,0,1,38.969-8.2a3.5,3.5,0,0,1,2.707,1.039,4,4,0,0,1,.957,2.82ZM40.344-4.812q0-1.719-1.391-1.719a1.328,1.328,0,0,0-1.027.492A2.234,2.234,0,0,0,37.4-4.812ZM47.914.2A4.3,4.3,0,0,1,44.77-.926a4.064,4.064,0,0,1-1.145-3.043,4.065,4.065,0,0,1,1.188-3.105A4.487,4.487,0,0,1,48.023-8.2a4.249,4.249,0,0,1,3.125,1.121,3.985,3.985,0,0,1,1.133,2.965A4.23,4.23,0,0,1,51.113-.961,4.348,4.348,0,0,1,47.914.2Zm.063-6.5a1.647,1.647,0,0,0-1.359.6A2.653,2.653,0,0,0,46.133-4q0,2.3,1.859,2.3,1.773,0,1.773-2.367Q49.766-6.3,47.977-6.3ZM59.1-5.773a2.142,2.142,0,0,0-1.039-.242,1.5,1.5,0,0,0-1.258.59,2.573,2.573,0,0,0-.453,1.605V0H53.883V-8h2.469v1.484h.031a2.136,2.136,0,0,1,2.109-1.625,1.59,1.59,0,0,1,.609.094ZM62.719,0H60.25V-8h2.469Zm1.273-11.789L61.547-9.266H59.766L61.8-11.789ZM71.453,0H69.117V-1.148h-.031A2.607,2.607,0,0,1,66.7.2a2.492,2.492,0,0,1-1.832-.66A2.366,2.366,0,0,1,64.2-2.227q0-2.328,2.758-2.687L69.133-5.2q0-1.312-1.422-1.312a4.853,4.853,0,0,0-2.719.852V-7.523a6.116,6.116,0,0,1,1.41-.469,7.413,7.413,0,0,1,1.629-.2q3.422,0,3.422,3.414Zm-2.32-3.25v-.539L67.68-3.6q-1.2.156-1.2,1.086a.9.9,0,0,0,.293.691,1.126,1.126,0,0,0,.793.27,1.462,1.462,0,0,0,1.133-.48A1.735,1.735,0,0,0,69.133-3.25Zm3.75,3.039v-2a5.256,5.256,0,0,0,1.215.547,4.028,4.028,0,0,0,1.145.18,2.455,2.455,0,0,0,1.035-.18.581.581,0,0,0,.379-.547.506.506,0,0,0-.172-.391,1.6,1.6,0,0,0-.441-.273,5.009,5.009,0,0,0-.59-.211q-.32-.094-.617-.211A5.913,5.913,0,0,1,74-3.684a2.427,2.427,0,0,1-.609-.48,1.889,1.889,0,0,1-.375-.633,2.525,2.525,0,0,1-.129-.852A2.192,2.192,0,0,1,73.176-6.8a2.393,2.393,0,0,1,.781-.793,3.57,3.57,0,0,1,1.117-.453A5.825,5.825,0,0,1,76.383-8.2a7.261,7.261,0,0,1,1.078.082,8.047,8.047,0,0,1,1.078.238v1.906a3.9,3.9,0,0,0-1-.41,4.235,4.235,0,0,0-1.051-.137,2.328,2.328,0,0,0-.457.043,1.505,1.505,0,0,0-.379.125.7.7,0,0,0-.258.211.486.486,0,0,0-.094.293.541.541,0,0,0,.141.375,1.221,1.221,0,0,0,.367.27,3.625,3.625,0,0,0,.5.2q.277.09.551.184a7.161,7.161,0,0,1,.891.375,2.848,2.848,0,0,1,.684.477,1.872,1.872,0,0,1,.438.641,2.277,2.277,0,0,1,.152.875,2.282,2.282,0,0,1-.309,1.215,2.471,2.471,0,0,1-.82.82,3.72,3.72,0,0,1-1.18.461A6.54,6.54,0,0,1,75.328.2,7.149,7.149,0,0,1,72.883-.211ZM97.563,0H95.1V-4.562Q95.1-6.3,93.82-6.3a1.177,1.177,0,0,0-.992.523,2.151,2.151,0,0,0-.383,1.3V0H89.977V-4.609q0-1.7-1.258-1.7a1.206,1.206,0,0,0-1.012.5,2.2,2.2,0,0,0-.379,1.359V0H84.859V-8h2.469v1.25h.031a2.952,2.952,0,0,1,1.074-1.043,2.952,2.952,0,0,1,1.512-.4A2.3,2.3,0,0,1,92.266-6.7,2.959,2.959,0,0,1,94.953-8.2q2.609,0,2.609,3.219Zm5.766.2a4.3,4.3,0,0,1-3.145-1.121,4.064,4.064,0,0,1-1.145-3.043,4.065,4.065,0,0,1,1.188-3.105A4.487,4.487,0,0,1,103.438-8.2a4.249,4.249,0,0,1,3.125,1.121A3.985,3.985,0,0,1,107.7-4.109a4.23,4.23,0,0,1-1.168,3.148A4.348,4.348,0,0,1,103.328.2Zm.063-6.5a1.647,1.647,0,0,0-1.359.6,2.653,2.653,0,0,0-.484,1.7q0,2.3,1.859,2.3,1.773,0,1.773-2.367Q105.18-6.3,103.391-6.3ZM117.125,0h-2.469V-1.1h-.031A2.768,2.768,0,0,1,112.148.2a3.033,3.033,0,0,1-2.414-1.059,4.382,4.382,0,0,1-.914-2.957A4.77,4.77,0,0,1,109.828-7a3.287,3.287,0,0,1,2.641-1.2,2.246,2.246,0,0,1,2.156,1.109h.031v-4.758h2.469ZM114.7-3.891v-.6a1.893,1.893,0,0,0-.453-1.3,1.5,1.5,0,0,0-1.18-.516,1.487,1.487,0,0,0-1.281.645,2.993,2.993,0,0,0-.461,1.77,2.59,2.59,0,0,0,.445,1.625,1.479,1.479,0,0,0,1.234.57,1.485,1.485,0,0,0,1.223-.6A2.507,2.507,0,0,0,114.7-3.891Zm11.688.594h-5.219q.125,1.742,2.2,1.742a4.286,4.286,0,0,0,2.32-.625V-.4A6.1,6.1,0,0,1,122.8.2,4.058,4.058,0,0,1,119.8-.879a4.058,4.058,0,0,1-1.07-3,4.281,4.281,0,0,1,1.156-3.156A3.852,3.852,0,0,1,122.727-8.2a3.5,3.5,0,0,1,2.707,1.039,4,4,0,0,1,.957,2.82ZM124.1-4.812q0-1.719-1.391-1.719a1.328,1.328,0,0,0-1.027.492,2.234,2.234,0,0,0-.527,1.227Zm8.977-.961a2.142,2.142,0,0,0-1.039-.242,1.5,1.5,0,0,0-1.258.59,2.573,2.573,0,0,0-.453,1.605V0h-2.469V-8h2.469v1.484h.031a2.136,2.136,0,0,1,2.109-1.625,1.59,1.59,0,0,1,.609.094ZM142,0h-2.461V-4.445q0-1.859-1.328-1.859a1.318,1.318,0,0,0-1.055.492,1.875,1.875,0,0,0-.414,1.25V0h-2.469V-8h2.469v1.266h.031a2.829,2.829,0,0,1,2.57-1.461Q142-8.2,142-4.9Zm8.609,0h-2.336V-1.148h-.031A2.607,2.607,0,0,1,145.859.2a2.492,2.492,0,0,1-1.832-.66,2.366,2.366,0,0,1-.668-1.762q0-2.328,2.758-2.687l2.172-.289q0-1.312-1.422-1.312a4.853,4.853,0,0,0-2.719.852V-7.523a6.116,6.116,0,0,1,1.41-.469,7.413,7.413,0,0,1,1.629-.2q3.422,0,3.422,3.414Zm-2.32-3.25v-.539l-1.453.188q-1.2.156-1.2,1.086a.9.9,0,0,0,.293.691,1.126,1.126,0,0,0,.793.27,1.462,1.462,0,0,0,1.133-.48A1.735,1.735,0,0,0,148.289-3.25Zm3.75,3.039v-2a5.256,5.256,0,0,0,1.215.547,4.028,4.028,0,0,0,1.145.18,2.455,2.455,0,0,0,1.035-.18.581.581,0,0,0,.379-.547.506.506,0,0,0-.172-.391,1.6,1.6,0,0,0-.441-.273,5.009,5.009,0,0,0-.59-.211q-.32-.094-.617-.211a5.914,5.914,0,0,1-.84-.387,2.427,2.427,0,0,1-.609-.48,1.889,1.889,0,0,1-.375-.633,2.525,2.525,0,0,1-.129-.852,2.192,2.192,0,0,1,.293-1.156,2.393,2.393,0,0,1,.781-.793,3.57,3.57,0,0,1,1.117-.453,5.825,5.825,0,0,1,1.309-.145,7.261,7.261,0,0,1,1.078.082,8.047,8.047,0,0,1,1.078.238v1.906a3.9,3.9,0,0,0-1-.41,4.235,4.235,0,0,0-1.051-.137,2.328,2.328,0,0,0-.457.043,1.505,1.505,0,0,0-.379.125.7.7,0,0,0-.258.211.486.486,0,0,0-.094.293.541.541,0,0,0,.141.375,1.221,1.221,0,0,0,.367.27,3.625,3.625,0,0,0,.5.2q.277.09.551.184a7.161,7.161,0,0,1,.891.375,2.848,2.848,0,0,1,.684.477,1.871,1.871,0,0,1,.438.641,2.277,2.277,0,0,1,.152.875,2.282,2.282,0,0,1-.309,1.215,2.471,2.471,0,0,1-.82.82,3.72,3.72,0,0,1-1.18.461A6.54,6.54,0,0,1,154.484.2,7.149,7.149,0,0,1,152.039-.211Z" transform="translate(57 30.826)" fill="#212429"/>
      <g id="Trazado_1168897-2" data-name="Trazado 1168897" transform="translate(0)" fill="#fff">
        <path d="M 24.00000762939453 47.5 C 20.82730674743652 47.5 17.74977684020996 46.87873077392578 14.85289764404297 45.65346145629883 C 12.05458736419678 44.46987915039062 9.541347503662109 42.77537155151367 7.382987499237061 40.61700820922852 C 5.224627494812012 38.45864868164062 3.53012752532959 35.94541168212891 2.346537590026855 33.14710998535156 C 1.121267676353455 30.25023078918457 0.499997615814209 27.17270088195801 0.499997615814209 24 C 0.499997615814209 20.82729911804199 1.121267676353455 17.74976921081543 2.346537590026855 14.85289001464844 C 3.53012752532959 12.05459022521973 5.224627494812012 9.541350364685059 7.382987499237061 7.382989883422852 C 9.541347503662109 5.224629878997803 12.05458736419678 3.530119895935059 14.85289764404297 2.346539974212646 C 17.74977684020996 1.121269941329956 20.82730674743652 0.5 24.00000762939453 0.5 C 27.17270851135254 0.5 30.2502384185791 1.121269941329956 33.14711761474609 2.346539974212646 C 35.94542694091797 3.530119895935059 38.45866775512695 5.224629878997803 40.61702728271484 7.382989883422852 C 42.77538681030273 9.541350364685059 44.46988677978516 12.05459022521973 45.65347671508789 14.85289001464844 C 46.87874603271484 17.74976921081543 47.50001907348633 20.82729911804199 47.50001907348633 24 C 47.50001907348633 27.17270088195801 46.87874603271484 30.25023078918457 45.65347671508789 33.14710998535156 C 44.46988677978516 35.94541168212891 42.77538681030273 38.45864868164062 40.61702728271484 40.61700820922852 C 38.45866775512695 42.77537155151367 35.94542694091797 44.46987915039062 33.14711761474609 45.65346145629883 C 30.2502384185791 46.87873077392578 27.17270851135254 47.5 24.00000762939453 47.5 Z" stroke="none"/>
        <path d="M 24.00000762939453 1 C 20.89458847045898 1 17.88258743286133 1.607978820800781 15.04766845703125 2.807041168212891 C 12.30896759033203 3.965419769287109 9.849147796630859 5.623939514160156 7.736549377441406 7.736549377441406 C 5.623939514160156 9.849151611328125 3.965415954589844 12.3089714050293 2.807037353515625 15.04766845703125 C 1.607978820800781 17.8825798034668 0.9999961853027344 20.89458084106445 0.9999961853027344 24 C 0.9999961853027344 27.10541915893555 1.607978820800781 30.1174201965332 2.807037353515625 32.95233154296875 C 3.965415954589844 35.6910285949707 5.623939514160156 38.15084838867188 7.736549377441406 40.26345062255859 C 9.849147796630859 42.37606048583984 12.30896759033203 44.03458023071289 15.04766845703125 45.19295883178711 C 17.88258743286133 46.39202117919922 20.89458847045898 47 24.00000762939453 47 C 27.10542678833008 47 30.11742782592773 46.39202117919922 32.95234680175781 45.19295883178711 C 35.69104766845703 44.03458023071289 38.1508674621582 42.37606048583984 40.26346588134766 40.26345062255859 C 42.37607574462891 38.15084838867188 44.03459930419922 35.6910285949707 45.19297790527344 32.95233154296875 C 46.39203643798828 30.1174201965332 47.00001907348633 27.10541915893555 47.00001907348633 24 C 47.00001907348633 20.89458084106445 46.39203643798828 17.8825798034668 45.19297790527344 15.04766845703125 C 44.03459930419922 12.3089714050293 42.37607574462891 9.849151611328125 40.26346588134766 7.736549377441406 C 38.1508674621582 5.623939514160156 35.69104766845703 3.965419769287109 32.95234680175781 2.807041168212891 C 30.11742782592773 1.607978820800781 27.10542678833008 1 24.00000762939453 1 M 24.00000762939453 0 C 37.25484848022461 0 48.00001907348633 10.74517059326172 48.00001907348633 24 C 48.00001907348633 37.25482940673828 37.25484848022461 48 24.00000762939453 48 C 10.74516677856445 48 -3.814697265625e-06 37.25482940673828 -3.814697265625e-06 24 C -3.814697265625e-06 10.74517059326172 10.74516677856445 0 24.00000762939453 0 Z" stroke="none" fill="#496406"/>
      </g>
    </g>
  </g>
</svg>
