<svg xmlns="http://www.w3.org/2000/svg" xmlns:xlink="http://www.w3.org/1999/xlink" width="100" height="100" viewBox="0 0 100 100">
  <defs>
    <filter id="Trazado_982547" x="0" y="0" width="100" height="100" filterUnits="userSpaceOnUse">
      <feOffset dy="3" input="SourceAlpha"/>
      <feGaussianBlur stdDeviation="3" result="blur"/>
      <feFlood flood-opacity="0.161"/>
      <feComposite operator="in" in2="blur"/>
      <feComposite in="SourceGraphic"/>
    </filter>
  </defs>
  <g id="Grupo_1220244" data-name="Grupo 1220244" transform="translate(-158 -1647)">
    <g id="Grupo_1215600" data-name="Grupo 1215600" transform="translate(167 1653)">
      <g id="Grupo_1214449" data-name="Grupo 1214449" transform="translate(0 0)">
        <g id="Grupo_1207777" data-name="Grupo 1207777" transform="translate(0 0)">
          <g id="Grupo_1200358" data-name="Grupo 1200358">
            <g id="Grupo_1185978" data-name="Grupo 1185978">
              <g id="Grupo_1180760" data-name="Grupo 1180760">
                <g id="Grupo_1174888" data-name="Grupo 1174888">
                  <g id="Grupo_1166845" data-name="Grupo 1166845">
                    <g id="Grupo_1166720" data-name="Grupo 1166720">
                      <g id="Grupo_1164305" data-name="Grupo 1164305">
                        <g id="Grupo_1163948" data-name="Grupo 1163948">
                          <g id="Grupo_1158168" data-name="Grupo 1158168">
                            <g id="Grupo_1152576" data-name="Grupo 1152576">
                              <g id="Grupo_1148633" data-name="Grupo 1148633">
                                <g id="Grupo_1148525" data-name="Grupo 1148525">
                                  <g transform="matrix(1, 0, 0, 1, -9, -6)" filter="url(#Trazado_982547)">
                                    <g id="Trazado_982547-2" data-name="Trazado 982547" transform="translate(9 6)" fill="#e9f9fd">
                                      <path d="M 40.999755859375 80.49951171875 C 35.66666030883789 80.49951171875 30.4938850402832 79.45535278320312 25.62513160705566 77.39604187011719 C 20.92170906066895 75.40666198730469 16.69728469848633 72.55836486816406 13.06921482086182 68.9302978515625 C 9.441143989562988 65.30222320556641 6.592850208282471 61.07780456542969 4.603473663330078 56.3743782043457 C 2.544155836105347 51.5056266784668 1.500002861022949 46.33285140991211 1.500002861022949 40.999755859375 C 1.500002861022949 35.66666030883789 2.544155836105347 30.4938850402832 4.603473663330078 25.62513160705566 C 6.592850208282471 20.92170906066895 9.441143989562988 16.69728469848633 13.06921482086182 13.06921482086182 C 16.69728469848633 9.441143989562988 20.92170906066895 6.592850208282471 25.62513160705566 4.603473663330078 C 30.4938850402832 2.544155836105347 35.66666030883789 1.500002861022949 40.999755859375 1.500002861022949 C 46.33285140991211 1.500002861022949 51.5056266784668 2.544155836105347 56.3743782043457 4.603473663330078 C 61.07780456542969 6.592850208282471 65.30222320556641 9.441143989562988 68.9302978515625 13.06921482086182 C 72.55836486816406 16.69728469848633 75.40666198730469 20.92170906066895 77.39604187011719 25.62513160705566 C 79.45535278320312 30.4938850402832 80.49951171875 35.66666030883789 80.49951171875 40.999755859375 C 80.49951171875 46.33285140991211 79.45535278320312 51.5056266784668 77.39604187011719 56.3743782043457 C 75.40666198730469 61.07780456542969 72.55836486816406 65.30222320556641 68.9302978515625 68.9302978515625 C 65.30222320556641 72.55836486816406 61.07780456542969 75.40666198730469 56.3743782043457 77.39604187011719 C 51.5056266784668 79.45535278320312 46.33285140991211 80.49951171875 40.999755859375 80.49951171875 Z" stroke="none"/>
                                      <path d="M 40.999755859375 2.999992370605469 C 35.86850357055664 2.999992370605469 30.89231491088867 4.004287719726562 26.20944976806641 5.984970092773438 C 21.68482208251953 7.898727416992188 17.62065887451172 10.63906097412109 14.12985992431641 14.12985992431641 C 10.63906097412109 17.62065887451172 7.898727416992188 21.68482208251953 5.984970092773438 26.20944976806641 C 4.004287719726562 30.89231491088867 2.999992370605469 35.86850357055664 2.999992370605469 40.999755859375 C 2.999992370605469 46.13100814819336 4.004287719726562 51.10718536376953 5.984970092773438 55.79004669189453 C 7.898727416992188 60.31467437744141 10.63906097412109 64.37883758544922 14.12985992431641 67.86963653564453 C 17.62065887451172 71.36043548583984 21.68482208251953 74.10078430175781 26.20944976806641 76.01454162597656 C 30.89231491088867 77.99522399902344 35.86850357055664 78.99951934814453 40.999755859375 78.99951934814453 C 46.13100814819336 78.99951934814453 51.10718536376953 77.99522399902344 55.79004669189453 76.01454162597656 C 60.31467437744141 74.10078430175781 64.37883758544922 71.36043548583984 67.86963653564453 67.86963653564453 C 71.36043548583984 64.37883758544922 74.10078430175781 60.31467437744141 76.01454162597656 55.79004669189453 C 77.99522399902344 51.10718536376953 78.99951934814453 46.13100814819336 78.99951934814453 40.999755859375 C 78.99951934814453 35.86850357055664 77.99522399902344 30.89231491088867 76.01454162597656 26.20944976806641 C 74.10078430175781 21.68482208251953 71.36043548583984 17.62065887451172 67.86963653564453 14.12985992431641 C 64.37883758544922 10.63906097412109 60.31467437744141 7.898727416992188 55.79004669189453 5.984970092773438 C 51.10718536376953 4.004287719726562 46.13100814819336 2.999992370605469 40.999755859375 2.999992370605469 M 40.999755859375 -7.62939453125e-06 C 63.64328765869141 -7.62939453125e-06 81.99951934814453 18.35620880126953 81.99951934814453 40.999755859375 C 81.99951934814453 63.64328765869141 63.64328765869141 81.99951934814453 40.999755859375 81.99951934814453 C 18.35620880126953 81.99951934814453 -7.62939453125e-06 63.64328765869141 -7.62939453125e-06 40.999755859375 C -7.62939453125e-06 18.35620880126953 18.35620880126953 -7.62939453125e-06 40.999755859375 -7.62939453125e-06 Z" stroke="none" fill="#36ceef"/>
                                    </g>
                                  </g>
                                </g>
                              </g>
                            </g>
                          </g>
                        </g>
                      </g>
                    </g>
                  </g>
                </g>
              </g>
            </g>
          </g>
        </g>
      </g>
    </g>
    <g id="economia-global_1_" data-name="economia-global (1)" transform="translate(181.149 1661.072)">
      <g id="Grupo_1220242" data-name="Grupo 1220242" transform="translate(0.818 0.818)">
        <g id="Grupo_1220241" data-name="Grupo 1220241" transform="translate(0 0)">
          <g id="Grupo_1220238" data-name="Grupo 1220238" transform="translate(4.088)">
            <g id="Grupo_1220237" data-name="Grupo 1220237">
              <path id="Trazado_1168996" data-name="Trazado 1168996" d="M85.267,74.656h6.2v19h-6.2Z" transform="translate(-75.844 -58.786)" fill="#ff6252"/>
              <path id="Trazado_1168997" data-name="Trazado 1168997" d="M116.947,93h6.2v13.547h-6.2Z" transform="translate(-98.102 -71.672)" fill="#63c558"/>
              <g id="Grupo_1220234" data-name="Grupo 1220234" transform="translate(0 9.918)">
                <path id="Trazado_1168998" data-name="Trazado 1168998" d="M53.587,110.5h6.2v8.339h-6.2Z" transform="translate(-53.587 -93.89)" fill="#63c558"/>
                <circle id="Elipse_14366" data-name="Elipse 14366" cx="2.356" cy="2.356" r="2.356" transform="translate(0.744)" fill="#63c558"/>
              </g>
              <g id="Grupo_1220235" data-name="Grupo 1220235" transform="translate(28.268 15.188)">
                <path id="Trazado_1168999" data-name="Trazado 1168999" d="M148.627,110.5h6.2v8.339h-6.2Z" transform="translate(-148.627 -99.16)" fill="#ff6252"/>
                <circle id="Elipse_14367" data-name="Elipse 14367" cx="2.356" cy="2.356" r="2.356" transform="translate(0.744)" fill="#ff6252"/>
              </g>
              <circle id="Elipse_14368" data-name="Elipse 14368" cx="2.356" cy="2.356" r="2.356" transform="translate(9.423)" fill="#ff6252"/>
              <g id="Grupo_1220236" data-name="Grupo 1220236" transform="translate(37.691 5.872)">
                <path id="Trazado_1169000" data-name="Trazado 1169000" d="M180.307,74.656h6.2v19h-6.2Z" transform="translate(-180.307 -64.658)" fill="#63c558"/>
                <circle id="Elipse_14369" data-name="Elipse 14369" cx="2.356" cy="2.356" r="2.356" transform="translate(0.744)" fill="#63c558"/>
              </g>
            </g>
          </g>
          <g id="Grupo_1220240" data-name="Grupo 1220240" transform="translate(0 38.186)">
            <g id="Grupo_1220239" data-name="Grupo 1220239">
              <path id="Trazado_1169001" data-name="Trazado 1169001" d="M91.908,149.687a26.033,26.033,0,0,1-52.066,0Z" transform="translate(-39.842 -149.687)" fill="#63affa"/>
            </g>
          </g>
        </g>
      </g>
      <g id="Grupo_1220243" data-name="Grupo 1220243" transform="translate(0 0)">
        <path id="Trazado_1169002" data-name="Trazado 1169002" d="M83.335,71.906a.818.818,0,0,0-.818.818v19a.818.818,0,0,0,.818.818h6.2a.818.818,0,0,0,.818-.818v-19a.818.818,0,0,0-.818-.818Zm5.381,19H84.153V73.541h4.563V90.908Z" transform="translate(-69.006 -56.036)"/>
        <path id="Trazado_1169003" data-name="Trazado 1169003" d="M115.015,90.247a.818.818,0,0,0-.818.818v13.547a.818.818,0,0,0,.818.818h6.2a.818.818,0,0,0,.818-.818V91.065a.818.818,0,0,0-.818-.818Zm5.381,13.547h-4.563V91.883H120.4Z" transform="translate(-91.263 -68.922)"/>
        <path id="Trazado_1169004" data-name="Trazado 1169004" d="M51.655,117.73h6.2a.818.818,0,0,0,.818-.818v-8.34a.818.818,0,0,0-.818-.818h-6.2a.818.818,0,0,0-.818.818v8.34A.818.818,0,0,0,51.655,117.73Zm.818-8.34h4.563v6.7H52.472Z" transform="translate(-46.749 -81.222)"/>
        <path id="Trazado_1169005" data-name="Trazado 1169005" d="M56.511,34.816a3.172,3.172,0,0,0,2.634-4.942l4.644-5.307a3.145,3.145,0,0,0,3.319-.321L81.855,35.679a3.175,3.175,0,1,0,5.678-.34L92.6,30.33a3.18,3.18,0,1,0-1.151-1.163l-5.067,5.009a3.148,3.148,0,0,0-3.521.212L68.115,22.956a3.174,3.174,0,1,0-5.558.536L57.912,28.8a3.172,3.172,0,1,0-1.4,6.017ZM94.2,26.058A1.538,1.538,0,1,1,92.664,27.6,1.539,1.539,0,0,1,94.2,26.058Zm-9.423,9.316a1.538,1.538,0,1,1-1.538,1.538A1.539,1.539,0,0,1,84.779,35.374ZM65.19,20.186a1.538,1.538,0,1,1-1.538,1.538A1.539,1.539,0,0,1,65.19,20.186ZM56.511,30.1a1.538,1.538,0,1,1-1.538,1.538A1.539,1.539,0,0,1,56.511,30.1Z" transform="translate(-48.506 -18.55)"/>
        <path id="Trazado_1169006" data-name="Trazado 1169006" d="M146.695,107.754a.818.818,0,0,0-.818.818v8.34a.818.818,0,0,0,.818.818h6.2a.818.818,0,0,0,.818-.818v-8.34a.818.818,0,0,0-.818-.818Zm5.381,8.34h-4.563v-6.7h4.563Z" transform="translate(-113.521 -81.222)"/>
        <path id="Trazado_1169007" data-name="Trazado 1169007" d="M178.375,71.906a.818.818,0,0,0-.818.818v19a.818.818,0,0,0,.818.818h6.2a.818.818,0,0,0,.818-.818v-19a.818.818,0,0,0-.818-.818Zm5.381,19h-4.563V73.541h4.563Z" transform="translate(-135.778 -56.036)"/>
        <path id="Trazado_1169008" data-name="Trazado 1169008" d="M89.976,146.937H37.91a.818.818,0,0,0-.818.818,26.851,26.851,0,0,0,53.7,0,.818.818,0,0,0-.818-.818ZM44.158,163.368a25.085,25.085,0,0,1-5.417-14.8h9.335a41.741,41.741,0,0,0,2.081,12.563,40.591,40.591,0,0,0-6,2.232Zm1.095,1.294a39.641,39.641,0,0,1,5.469-1.984,29.085,29.085,0,0,0,1.867,3.895,19.323,19.323,0,0,0,4.508,5.452A25.257,25.257,0,0,1,45.253,164.662Zm17.872,8.265c-3.415-.347-6.628-2.862-9.121-7.173a27.36,27.36,0,0,1-1.691-3.5A49.016,49.016,0,0,1,63.125,160.9v12.024Zm0-13.66a50.559,50.559,0,0,0-11.385,1.446,40,40,0,0,1-2.027-12.139H63.125Zm1.636-10.693H78.174a40,40,0,0,1-2.027,12.139,50.557,50.557,0,0,0-11.385-1.446V148.573Zm0,12.329a49.013,49.013,0,0,1,10.812,1.355,27.356,27.356,0,0,1-1.691,3.5c-2.493,4.311-5.706,6.826-9.121,7.173V160.9Zm6.029,11.122a19.322,19.322,0,0,0,4.508-5.452,29.078,29.078,0,0,0,1.867-3.895,39.64,39.64,0,0,1,5.469,1.984A25.257,25.257,0,0,1,70.79,172.024Zm12.938-8.656a40.6,40.6,0,0,0-6-2.232,41.741,41.741,0,0,0,2.081-12.563h9.335A25.084,25.084,0,0,1,83.728,163.368Z" transform="translate(-37.092 -108.751)"/>
      </g>
    </g>
  </g>
</svg>
