<svg xmlns="http://www.w3.org/2000/svg" xmlns:xlink="http://www.w3.org/1999/xlink" width="103" height="103" viewBox="0 0 103 103">
  <defs>
    <filter id="Trazado_982547" x="0" y="0" width="103" height="103" filterUnits="userSpaceOnUse">
      <feOffset dy="3" input="SourceAlpha"/>
      <feGaussianBlur stdDeviation="3" result="blur"/>
      <feFlood flood-opacity="0.161"/>
      <feComposite operator="in" in2="blur"/>
      <feComposite in="SourceGraphic"/>
    </filter>
  </defs>
  <g id="Grupo_1220229" data-name="Grupo 1220229" transform="translate(-154 -3882)">
    <g id="Grupo_1220225" data-name="Grupo 1220225" transform="translate(163 3888)">
      <g id="Grupo_1214449" data-name="Grupo 1214449" transform="translate(0)">
        <g id="Grupo_1207777" data-name="Grupo 1207777">
          <g id="Grupo_1200358" data-name="Grupo 1200358">
            <g id="Grupo_1185978" data-name="Grupo 1185978">
              <g id="Grupo_1180760" data-name="Grupo 1180760">
                <g id="Grupo_1174888" data-name="Grupo 1174888">
                  <g id="Grupo_1166845" data-name="Grupo 1166845">
                    <g id="Grupo_1166720" data-name="Grupo 1166720">
                      <g id="Grupo_1164305" data-name="Grupo 1164305">
                        <g id="Grupo_1163948" data-name="Grupo 1163948">
                          <g id="Grupo_1158168" data-name="Grupo 1158168">
                            <g id="Grupo_1152576" data-name="Grupo 1152576">
                              <g id="Grupo_1148633" data-name="Grupo 1148633">
                                <g id="Grupo_1148525" data-name="Grupo 1148525">
                                  <g transform="matrix(1, 0, 0, 1, -9, -6)" filter="url(#Trazado_982547)">
                                    <g id="Trazado_982547-2" data-name="Trazado 982547" transform="translate(9 6)" fill="#e9f9fd">
                                      <path d="M 42.499755859375 83.49951171875 C 36.96416854858398 83.49951171875 31.59495544433594 82.41568756103516 26.54126167297363 80.27815246582031 C 21.65921401977539 78.21322631835938 17.27437973022461 75.25679016113281 13.50855541229248 71.49095916748047 C 9.742720603942871 67.72513580322266 6.786285400390625 63.34029769897461 4.72135591506958 58.45824813842773 C 2.583826541900635 53.40455627441406 1.500002861022949 48.03534317016602 1.500002861022949 42.499755859375 C 1.500002861022949 36.96416854858398 2.583826541900635 31.59495544433594 4.72135591506958 26.54126167297363 C 6.786285400390625 21.65921401977539 9.742720603942871 17.27437973022461 13.50855541229248 13.50855541229248 C 17.27437973022461 9.742720603942871 21.65921401977539 6.786285400390625 26.54126167297363 4.72135591506958 C 31.59495544433594 2.583826541900635 36.96416854858398 1.500002861022949 42.499755859375 1.500002861022949 C 48.03534317016602 1.500002861022949 53.40455627441406 2.583826541900635 58.45824813842773 4.72135591506958 C 63.34029769897461 6.786285400390625 67.72513580322266 9.742720603942871 71.49095916748047 13.50855541229248 C 75.25679016113281 17.27437973022461 78.21322631835938 21.65921401977539 80.27815246582031 26.54126167297363 C 82.41568756103516 31.59495544433594 83.49951171875 36.96416854858398 83.49951171875 42.499755859375 C 83.49951171875 48.03534317016602 82.41568756103516 53.40455627441406 80.27815246582031 58.45824813842773 C 78.21322631835938 63.34029769897461 75.25679016113281 67.72513580322266 71.49095916748047 71.49095916748047 C 67.72513580322266 75.25679016113281 63.34029769897461 78.21322631835938 58.45824813842773 80.27815246582031 C 53.40455627441406 82.41568756103516 48.03534317016602 83.49951171875 42.499755859375 83.49951171875 Z" stroke="none"/>
                                      <path d="M 42.499755859375 2.999992370605469 C 37.16599655151367 2.999992370605469 31.99338150024414 4.0439453125 27.12558364868164 6.102851867675781 C 22.42234420776367 8.092155456542969 18.19776916503906 10.94065093994141 14.56920623779297 14.56920623779297 C 10.94065093994141 18.19776916503906 8.092155456542969 22.42234420776367 6.102851867675781 27.12559509277344 C 4.0439453125 31.99338150024414 2.999992370605469 37.16599655151367 2.999992370605469 42.499755859375 C 2.999992370605469 47.83351516723633 4.0439453125 53.00612640380859 6.102851867675781 57.87393188476562 C 8.092155456542969 62.57717132568359 10.94065093994141 66.80174255371094 14.56920623779297 70.43030548095703 C 18.19776916503906 74.05886077880859 22.42234420776367 76.90735626220703 27.12558364868164 78.89665985107422 C 31.99338150024414 80.95556640625 37.16599655151367 81.99951934814453 42.499755859375 81.99951934814453 C 47.83351516723633 81.99951934814453 53.00612640380859 80.95556640625 57.87393188476562 78.89665985107422 C 62.57717132568359 76.90735626220703 66.80174255371094 74.05886077880859 70.43030548095703 70.43030548095703 C 74.05886077880859 66.80174255371094 76.90735626220703 62.57717132568359 78.89665985107422 57.87393188476562 C 80.95556640625 53.00612640380859 81.99951934814453 47.83351516723633 81.99951934814453 42.499755859375 C 81.99951934814453 37.16599655151367 80.95556640625 31.99338150024414 78.89665985107422 27.12559509277344 C 76.90735626220703 22.42234420776367 74.05886077880859 18.19776916503906 70.43030548095703 14.56920623779297 C 66.80174255371094 10.94065093994141 62.57717132568359 8.092155456542969 57.87393188476562 6.102851867675781 C 53.00612640380859 4.0439453125 47.83351516723633 2.999992370605469 42.499755859375 2.999992370605469 M 42.499755859375 -7.62939453125e-06 C 65.97172546386719 -7.62939453125e-06 84.99951934814453 19.02779388427734 84.99951934814453 42.499755859375 C 84.99951934814453 65.97172546386719 65.97172546386719 84.99951934814453 42.499755859375 84.99951934814453 C 19.02778625488281 84.99951934814453 -7.62939453125e-06 65.97172546386719 -7.62939453125e-06 42.499755859375 C -7.62939453125e-06 19.02779388427734 19.02778625488281 -7.62939453125e-06 42.499755859375 -7.62939453125e-06 Z" stroke="none" fill="#36ceef"/>
                                    </g>
                                  </g>
                                </g>
                              </g>
                            </g>
                          </g>
                        </g>
                      </g>
                    </g>
                  </g>
                </g>
              </g>
            </g>
          </g>
        </g>
      </g>
    </g>
    <g id="ingeniero-de-software" transform="translate(173.304 3898.303)">
      <g id="Grupo_1220226" data-name="Grupo 1220226" transform="translate(1.26 1.261)">
        <path id="Trazado_1168983" data-name="Trazado 1168983" d="M71.724,31.32,69.9,26.749a2.338,2.338,0,0,0-3.039-1.3L61.644,27.53a24.521,24.521,0,0,0-6.739-6.908l2.215-5.163a2.338,2.338,0,0,0-1.227-3.07l-4.524-1.94a2.338,2.338,0,0,0-3.07,1.227l-2.215,5.163a24.524,24.524,0,0,0-9.649-.122L34.351,11.5a2.338,2.338,0,0,0-3.039-1.3l-4.571,1.827a2.338,2.338,0,0,0-1.3,3.039l2.084,5.215a24.523,24.523,0,0,0-6.908,6.739L15.451,24.8a2.338,2.338,0,0,0-3.07,1.227L10.44,30.552a2.338,2.338,0,0,0,1.227,3.07l5.163,2.215a24.524,24.524,0,0,0-.122,9.649l-5.215,2.084a2.338,2.338,0,0,0-1.3,3.039l1.827,4.571a2.338,2.338,0,0,0,3.039,1.3L20.27,54.4a24.523,24.523,0,0,0,6.739,6.908L24.794,66.47a2.338,2.338,0,0,0,1.227,3.07l4.524,1.94a2.338,2.338,0,0,0,3.07-1.227l2.215-5.163a24.524,24.524,0,0,0,9.649.122l2.084,5.215a2.338,2.338,0,0,0,3.039,1.3l4.571-1.827a2.338,2.338,0,0,0,1.3-3.039l-2.084-5.215A24.523,24.523,0,0,0,61.3,54.913l5.163,2.215a2.338,2.338,0,0,0,3.07-1.227l1.94-4.524a2.338,2.338,0,0,0-1.227-3.07l-5.163-2.215a24.524,24.524,0,0,0,.122-9.649l5.215-2.084a2.338,2.338,0,0,0,1.3-3.038Z" transform="translate(-10.022 -10.03)" fill="#a7bdcd"/>
        <circle id="Elipse_14360" data-name="Elipse 14360" cx="18.901" cy="18.901" r="18.901" transform="translate(12.034 12.034)" fill="#fff"/>
        <circle id="Elipse_14361" data-name="Elipse 14361" cx="6.752" cy="6.752" r="6.752" transform="translate(24.183 19.422)" fill="#ffdcd5"/>
        <path id="Trazado_1168984" data-name="Trazado 1168984" d="M174.7,271.83h-7.243a8.594,8.594,0,0,0-8.594,8.594v3.786a18.235,18.235,0,0,0,24.43.044v-3.83A8.594,8.594,0,0,0,174.7,271.83Z" transform="translate(-140.148 -238.904)" fill="#a0e5a5"/>
      </g>
      <g id="Grupo_1220228" data-name="Grupo 1220228" transform="translate(0 0)">
        <path id="Trazado_1168985" data-name="Trazado 1168985" d="M132.508,104.709A1.26,1.26,0,0,0,130.345,106a17.908,17.908,0,0,1,1.35,2.78,17.616,17.616,0,0,1-.366,13.567,17.8,17.8,0,0,1-2.718,4.312v-.953a9.87,9.87,0,0,0-7.849-9.648,8.012,8.012,0,1,0-11.252,0,9.87,9.87,0,0,0-7.849,9.648v.956a17.738,17.738,0,0,1,20.947-27.622,1.26,1.26,0,1,0,1.062-2.286,20.253,20.253,0,1,0,10.38,11.124,20.423,20.423,0,0,0-1.54-3.172Zm-17.373.162a5.492,5.492,0,1,1-5.492,5.492,5.5,5.5,0,0,1,5.492-5.492Zm6.341,26.813a17.617,17.617,0,0,1-13.567-.366,17.844,17.844,0,0,1-3.73-2.241v-3.368a7.342,7.342,0,0,1,7.333-7.334h7.243a7.342,7.342,0,0,1,7.334,7.334v3.369A17.791,17.791,0,0,1,121.476,131.683Z" transform="translate(-82.941 -82.927)"/>
        <path id="Trazado_1168986" data-name="Trazado 1168986" d="M61.988,38.38l-4.23-1.815a25.619,25.619,0,0,0,.1-8.1l4.273-1.708a3.6,3.6,0,0,0,2.006-4.676l-1.827-4.571a3.6,3.6,0,0,0-4.676-2.006l-4.273,1.708a25.621,25.621,0,0,0-5.655-5.8l1.815-4.231a3.6,3.6,0,0,0-1.888-4.725L43.111.522A3.6,3.6,0,0,0,38.386,2.41l-1.815,4.23a25.616,25.616,0,0,0-8.1-.1L26.765,2.265A3.6,3.6,0,0,0,22.089.259L17.518,2.085a3.6,3.6,0,0,0-2.006,4.676l1.708,4.273a25.628,25.628,0,0,0-5.8,5.655l-4.23-1.815a3.6,3.6,0,0,0-4.725,1.888L.527,21.288a3.6,3.6,0,0,0,1.888,4.725l4.23,1.815a25.623,25.623,0,0,0-.1,8.1L2.27,37.633A3.6,3.6,0,0,0,.264,42.309L2.091,46.88a3.6,3.6,0,0,0,4.676,2.006l4.273-1.708a25.624,25.624,0,0,0,5.655,5.8l-1.815,4.23a3.6,3.6,0,0,0,1.888,4.725l4.524,1.94a3.6,3.6,0,0,0,4.725-1.888l1.815-4.23a25.608,25.608,0,0,0,8.1.1l1.708,4.273a3.591,3.591,0,0,0,4.676,2.006l4.571-1.827a3.6,3.6,0,0,0,2.006-4.676l-1.708-4.273a25.627,25.627,0,0,0,5.8-5.656l4.231,1.815a3.6,3.6,0,0,0,4.725-1.888l1.94-4.524a3.6,3.6,0,0,0-1.888-4.725Zm-.428,3.732-1.94,4.524A1.078,1.078,0,0,1,58.2,47.2l-5.163-2.215a1.261,1.261,0,0,0-1.537.446,23.167,23.167,0,0,1-6.553,6.393,1.26,1.26,0,0,0-.485,1.525l2.084,5.215a1.079,1.079,0,0,1-.6,1.4l-4.571,1.827a1.079,1.079,0,0,1-1.4-.6l-2.084-5.215a1.259,1.259,0,0,0-1.4-.771,23.166,23.166,0,0,1-9.154-.116,1.259,1.259,0,0,0-1.421.735L23.7,60.989a1.078,1.078,0,0,1-1.416.566l-4.524-1.94A1.078,1.078,0,0,1,17.2,58.2l2.215-5.163a1.26,1.26,0,0,0-.446-1.537,23.165,23.165,0,0,1-6.393-6.553,1.26,1.26,0,0,0-1.525-.485L5.832,46.545a1.079,1.079,0,0,1-1.4-.6L2.6,41.374a1.079,1.079,0,0,1,.6-1.4L8.42,37.889a1.26,1.26,0,0,0,.771-1.4,23.166,23.166,0,0,1,.116-9.154,1.26,1.26,0,0,0-.736-1.421L3.409,23.7a1.079,1.079,0,0,1-.566-1.416l1.94-4.524A1.079,1.079,0,0,1,6.2,17.192l5.163,2.215A1.261,1.261,0,0,0,12.9,18.96a23.169,23.169,0,0,1,6.553-6.393,1.26,1.26,0,0,0,.485-1.525L17.852,5.827a1.078,1.078,0,0,1,.6-1.4L23.024,2.6a1.078,1.078,0,0,1,1.4.6l2.084,5.215a1.26,1.26,0,0,0,1.4.771,23.169,23.169,0,0,1,9.154.116,1.261,1.261,0,0,0,1.421-.735L40.7,3.4a1.078,1.078,0,0,1,1.416-.566l4.524,1.94a1.078,1.078,0,0,1,.566,1.415l-2.215,5.163a1.26,1.26,0,0,0,.446,1.537,23.165,23.165,0,0,1,6.393,6.553,1.26,1.26,0,0,0,1.525.485l5.215-2.084a1.079,1.079,0,0,1,1.4.6L61.8,23.019a1.079,1.079,0,0,1-.6,1.4L55.983,26.5a1.26,1.26,0,0,0-.771,1.4,23.164,23.164,0,0,1-.116,9.154,1.26,1.26,0,0,0,.735,1.421L60.994,40.7a1.078,1.078,0,0,1,.566,1.415Z" transform="translate(-0.007 0)"/>
        <circle id="Elipse_14362" data-name="Elipse 14362" cx="1.26" cy="1.26" r="1.26" transform="translate(43.641 16.82)"/>
        <g id="Grupo_1220227" data-name="Grupo 1220227" transform="translate(24.086 39.511)">
          <path id="Trazado_1168987" data-name="Trazado 1168987" d="M241.926,314.3a1.257,1.257,0,0,0-1.7.537l-1.986,3.828a1.258,1.258,0,1,0,2.233,1.158l1.986-3.828A1.258,1.258,0,0,0,241.926,314.3Z" transform="translate(-232.244 -314.156)"/>
          <path id="Trazado_1168988" data-name="Trazado 1168988" d="M194.547,317.329l1.02-1.028a1.258,1.258,0,1,0-1.786-1.771l-1.9,1.914a1.258,1.258,0,0,0,0,1.771l1.9,1.914a1.258,1.258,0,1,0,1.786-1.771Z" transform="translate(-191.518 -314.158)"/>
          <path id="Trazado_1168989" data-name="Trazado 1168989" d="M289.439,316.444l-1.9-1.914a1.258,1.258,0,1,0-1.786,1.771l1.02,1.028-1.02,1.028a1.258,1.258,0,1,0,1.786,1.771l1.9-1.914A1.258,1.258,0,0,0,289.439,316.444Z" transform="translate(-273.585 -314.158)"/>
        </g>
      </g>
    </g>
  </g>
</svg>
