<svg xmlns="http://www.w3.org/2000/svg" xmlns:xlink="http://www.w3.org/1999/xlink" width="113" height="113" viewBox="0 0 113 113">
  <defs>
    <filter id="Trazado_982547" x="0" y="0" width="113" height="113" filterUnits="userSpaceOnUse">
      <feOffset dy="3" input="SourceAlpha"/>
      <feGaussianBlur stdDeviation="3" result="blur"/>
      <feFlood flood-opacity="0.161"/>
      <feComposite operator="in" in2="blur"/>
      <feComposite in="SourceGraphic"/>
    </filter>
  </defs>
  <g id="Grupo_1220280" data-name="Grupo 1220280" transform="translate(-429 -4368.042)">
    <g id="Grupo_1215627" data-name="Grupo 1215627" transform="translate(0 3169.096)">
      <g id="Grupo_1214345" data-name="Grupo 1214345" transform="translate(0 -2968)">
        <g id="Grupo_1210956" data-name="Grupo 1210956" transform="translate(438 4172.946)">
          <g id="Grupo_1209935" data-name="Grupo 1209935">
            <g id="Grupo_1208705" data-name="Grupo 1208705">
              <g id="Grupo_1148633" data-name="Grupo 1148633">
                <g id="Grupo_1148525" data-name="Grupo 1148525">
                  <g transform="matrix(1, 0, 0, 1, -9, -6)" filter="url(#Trazado_982547)">
                    <g id="Trazado_982547-2" data-name="Trazado 982547" transform="translate(9 6)" fill="#ffe1b9">
                      <path d="M 47.5 93.5 C 41.28937149047852 93.5 35.26533508300781 92.28397369384766 29.59518623352051 89.88570404052734 C 24.11771965026855 87.56893157958984 19.19813346862793 84.25196075439453 14.97309303283691 80.02691650390625 C 10.74804019927979 75.80186462402344 7.431066513061523 70.88229370117188 5.114293098449707 65.40481567382812 C 2.716026782989502 59.73468017578125 1.5 53.71062850952148 1.5 47.5 C 1.5 41.28937149047852 2.716026782989502 35.26533508300781 5.114293098449707 29.59518623352051 C 7.431066513061523 24.11771965026855 10.74804019927979 19.19813346862793 14.97309303283691 14.97309303283691 C 19.19813346862793 10.74804019927979 24.11771965026855 7.431066513061523 29.59518623352051 5.114293098449707 C 35.26533508300781 2.716026782989502 41.28937149047852 1.5 47.5 1.5 C 53.71062850952148 1.5 59.73468017578125 2.716026782989502 65.40481567382812 5.114293098449707 C 70.88229370117188 7.431066513061523 75.80186462402344 10.74804019927979 80.02691650390625 14.97309303283691 C 84.25196075439453 19.19813346862793 87.56893157958984 24.11771965026855 89.88570404052734 29.59518623352051 C 92.28397369384766 35.26533508300781 93.5 41.28937149047852 93.5 47.5 C 93.5 53.71062850952148 92.28397369384766 59.73468017578125 89.88570404052734 65.40481567382812 C 87.56893157958984 70.88229370117188 84.25196075439453 75.80186462402344 80.02691650390625 80.02691650390625 C 75.80186462402344 84.25196075439453 70.88229370117188 87.56893157958984 65.40481567382812 89.88570404052734 C 59.73468017578125 92.28397369384766 53.71062850952148 93.5 47.5 93.5 Z" stroke="none"/>
                      <path d="M 47.5 3 C 41.49121475219727 3 35.66376876831055 4.176155090332031 30.17950439453125 6.495796203613281 C 24.88084411621094 8.736953735351562 20.12152099609375 11.94598388671875 16.03375244140625 16.03375244140625 C 11.94598388671875 20.12152099609375 8.736953735351562 24.88084411621094 6.495796203613281 30.17950439453125 C 4.176155090332031 35.66376876831055 3 41.49121475219727 3 47.5 C 3 53.50878524780273 4.176155090332031 59.33623123168945 6.495796203613281 64.82049560546875 C 8.736953735351562 70.11915588378906 11.94598388671875 74.87847900390625 16.03375244140625 78.96624755859375 C 20.12152099609375 83.05401611328125 24.88084411621094 86.26304626464844 30.17950439453125 88.50419616699219 C 35.66376876831055 90.82384490966797 41.49121475219727 92 47.5 92 C 53.50878524780273 92 59.33623123168945 90.82384490966797 64.82049560546875 88.50419616699219 C 70.11915588378906 86.26304626464844 74.87847900390625 83.05401611328125 78.96624755859375 78.96624755859375 C 83.05401611328125 74.87847900390625 86.26304626464844 70.11915588378906 88.50419616699219 64.82049560546875 C 90.82384490966797 59.33623123168945 92 53.50878524780273 92 47.5 C 92 41.49121475219727 90.82384490966797 35.66376876831055 88.50419616699219 30.17950439453125 C 86.26304626464844 24.88084411621094 83.05401611328125 20.12152099609375 78.96624755859375 16.03375244140625 C 74.87847900390625 11.94598388671875 70.11915588378906 8.736953735351562 64.82049560546875 6.495796203613281 C 59.33623123168945 4.176155090332031 53.50878524780273 3 47.5 3 M 47.5 0 C 73.7335205078125 0 95 21.2664794921875 95 47.5 C 95 73.7335205078125 73.7335205078125 95 47.5 95 C 21.2664794921875 95 0 73.7335205078125 0 47.5 C 0 21.2664794921875 21.2664794921875 0 47.5 0 Z" stroke="none" fill="#ff9d1c"/>
                    </g>
                  </g>
                </g>
              </g>
            </g>
          </g>
        </g>
      </g>
    </g>
    <g id="economia-global_2_" data-name="economia-global (2)" transform="translate(446.245 4378.997)">
      <g id="Grupo_1220265" data-name="Grupo 1220265" transform="translate(2.158 3.176)">
        <g id="Grupo_1220254" data-name="Grupo 1220254" transform="translate(0.062 7.404)">
          <circle id="Elipse_14370" data-name="Elipse 14370" cx="33.318" cy="33.318" r="33.318" fill="#7cb5e8"/>
        </g>
        <g id="Grupo_1220255" data-name="Grupo 1220255" transform="translate(13.697 7.404)" opacity="0.3">
          <path id="Trazado_1169028" data-name="Trazado 1169028" d="M32.762,9a33.163,33.163,0,0,0-15.734,3.949,33.318,33.318,0,0,0,45.1,45.1A33.318,33.318,0,0,0,32.762,9Z" transform="translate(-13.08 -9)" fill="#fff"/>
        </g>
        <g id="Grupo_1220256" data-name="Grupo 1220256" transform="translate(46.954 44.424)">
          <circle id="Elipse_14371" data-name="Elipse 14371" cx="14.808" cy="14.808" r="14.808" fill="#ffab03"/>
        </g>
        <g id="Grupo_1220257" data-name="Grupo 1220257" transform="translate(53.951 44.424)" opacity="0.3">
          <path id="Trazado_1169029" data-name="Trazado 1169029" d="M53.511,39a14.609,14.609,0,0,0-6.355,1.456A14.649,14.649,0,0,0,45.7,46.811,14.8,14.8,0,0,0,60.508,61.619a14.609,14.609,0,0,0,6.355-1.456,14.649,14.649,0,0,0,1.456-6.355A14.812,14.812,0,0,0,53.511,39Z" transform="translate(-45.7 -39)" fill="#fff"/>
        </g>
        <g id="Grupo_1220258" data-name="Grupo 1220258">
          <path id="Trazado_1169030" data-name="Trazado 1169030" d="M13.148,3A11.165,11.165,0,0,0,1.98,14.168c0,6.17,11.168,20.916,11.168,20.916S24.315,20.338,24.315,14.168A11.165,11.165,0,0,0,13.148,3Zm0,17.128a5.96,5.96,0,1,1,5.96-5.96A5.956,5.956,0,0,1,13.148,20.128Z" transform="translate(-1.98 -3)" fill="#4e6575"/>
        </g>
        <g id="Grupo_1220259" data-name="Grupo 1220259" transform="translate(59.989 44.424)" opacity="0.3">
          <path id="Trazado_1169031" data-name="Trazado 1169031" d="M65.286,46.824A15.018,15.018,0,0,0,59.005,40.7,14.1,14.1,0,0,0,52.391,39c-2.345,0-2.419,3.665-.086,3.7h.062A11.123,11.123,0,0,1,63.472,53.808v.173c.025,2.394,3.653,2.48,3.7.074A14.211,14.211,0,0,0,65.286,46.824Z" transform="translate(-50.593 -39)" fill="#fff"/>
        </g>
        <g id="Grupo_1220260" data-name="Grupo 1220260" transform="translate(31.394 7.404)" opacity="0.3">
          <path id="Trazado_1169032" data-name="Trazado 1169032" d="M29.407,9h-.16c-2.221.012-2.517,3.381-.321,3.665a3.16,3.16,0,0,0,.481.037A29.655,29.655,0,0,1,59.023,42.318a3.161,3.161,0,0,0,.037.481c.284,2.2,3.653,1.888,3.665-.321v-.16A33.321,33.321,0,0,0,29.407,9Z" transform="translate(-27.421 -9)" fill="#fff"/>
        </g>
        <g id="Grupo_1220261" data-name="Grupo 1220261" transform="translate(51.557 11.106)">
          <path id="Trazado_1169033" data-name="Trazado 1169033" d="M51.5,12a7.742,7.742,0,0,0-7.737,7.737c0,4.27,7.737,14.475,7.737,14.475s7.737-10.205,7.737-14.475A7.75,7.75,0,0,0,51.5,12Zm0,10.205a2.468,2.468,0,1,1,2.468-2.468A2.475,2.475,0,0,1,51.5,22.205Z" transform="translate(-43.76 -12)" fill="#ef4a51"/>
        </g>
        <g id="Grupo_1220262" data-name="Grupo 1220262" transform="translate(4.381 0)" opacity="0.3">
          <path id="Trazado_1169034" data-name="Trazado 1169034" d="M12.317,3A11.071,11.071,0,0,0,5.592,5.271,9.543,9.543,0,0,0,5.53,6.307,12.665,12.665,0,0,0,6.813,11.86a5.961,5.961,0,0,1,11.452,2.32,5.9,5.9,0,0,1-2.283,4.652,12.669,12.669,0,0,0,2.283.21,12.511,12.511,0,0,0,4.208-.728,12.137,12.137,0,0,0,1-4.146A11.146,11.146,0,0,0,12.317,3Z" transform="translate(-5.53 -3)" fill="#e2e2e2"/>
        </g>
        <g id="Grupo_1220263" data-name="Grupo 1220263" transform="translate(55.53 11.106)" opacity="0.3">
          <path id="Trazado_1169035" data-name="Trazado 1169035" d="M50.744,12A7.661,7.661,0,0,0,47,12.963c-.012.148-.025.3-.025.432a9.6,9.6,0,0,0,1.555,5.257,2.463,2.463,0,0,1,4.677,1.086,2.43,2.43,0,0,1-1.259,2.135,9.566,9.566,0,0,0,4.726,1.234,7.215,7.215,0,0,0,.9-.049,9.208,9.208,0,0,0,.888-3.332A7.729,7.729,0,0,0,50.744,12Z" transform="translate(-46.98 -12)" fill="#e2e2e2"/>
        </g>
        <g id="Grupo_1220264" data-name="Grupo 1220264" transform="translate(9.357)" opacity="0.3">
          <path id="Trazado_1169036" data-name="Trazado 1169036" d="M11.373,3h-.037C9,3.012,8.955,6.64,11.287,6.7h.086a7.476,7.476,0,0,1,7.466,7.466v.086c.049,2.32,3.677,2.283,3.7-.025V14.18A11.168,11.168,0,0,0,11.373,3Z" transform="translate(-9.562 -3)" fill="#e2e2e2"/>
        </g>
      </g>
      <g id="Grupo_1220279" data-name="Grupo 1220279" transform="translate(1.22 2.25)">
        <g id="Grupo_1220266" data-name="Grupo 1220266">
          <path id="Trazado_1169037" data-name="Trazado 1169037" d="M13.326,36.185a.929.929,0,0,1-.74-.37C12.116,35.2,1.22,20.748,1.22,14.343a12.093,12.093,0,0,1,24.186,0c0,6.4-10.9,20.855-11.365,21.472A.867.867,0,0,1,13.326,36.185Zm0-32.084A10.249,10.249,0,0,0,3.083,14.343c0,4.455,6.824,14.685,10.242,19.362C16.756,29.028,23.568,18.8,23.568,14.343A10.249,10.249,0,0,0,13.326,4.1Zm0,17.128a6.886,6.886,0,1,1,6.886-6.886,6.889,6.889,0,0,1-6.886,6.886Zm0-11.92a5.035,5.035,0,1,0,5.035,5.035A5.04,5.04,0,0,0,13.326,9.309Z" transform="translate(-1.22 -2.25)"/>
        </g>
        <g id="Grupo_1220267" data-name="Grupo 1220267" transform="translate(22.619 7.404)">
          <path id="Trazado_1169038" data-name="Trazado 1169038" d="M31.248,76.737c-7.318,0-11.7-17.412-11.7-34.244S23.918,8.25,31.248,8.25,42.934,25.662,42.934,42.494,38.566,76.737,31.248,76.737Zm0-66.636C26.5,10.1,21.4,23.12,21.4,42.494s5.1,32.393,9.847,32.393,9.835-13.019,9.835-32.393S36,10.1,31.248,10.1Z" transform="translate(-19.55 -8.25)"/>
        </g>
        <g id="Grupo_1220268" data-name="Grupo 1220268" transform="translate(46.966 44.424)">
          <path id="Trazado_1169039" data-name="Trazado 1169039" d="M55.014,69.717A15.734,15.734,0,1,1,70.747,53.984,15.752,15.752,0,0,1,55.014,69.717Zm0-29.616A13.883,13.883,0,1,0,68.9,53.984,13.9,13.9,0,0,0,55.014,40.1Z" transform="translate(-39.28 -38.25)"/>
        </g>
        <g id="Grupo_1220269" data-name="Grupo 1220269" transform="translate(51.902 49.36)">
          <path id="Trazado_1169040" data-name="Trazado 1169040" d="M54.078,63.845a10.791,10.791,0,1,1,4.208-.851.924.924,0,0,1-.716-1.7,8.959,8.959,0,1,0-3.492.7.926.926,0,1,1,0,1.851Z" transform="translate(-43.28 -42.25)"/>
        </g>
        <g id="Grupo_1220273" data-name="Grupo 1220273" transform="translate(59.676 53.593)">
          <g id="Grupo_1220270" data-name="Grupo 1220270" transform="translate(0 1.444)">
            <path id="Trazado_1169041" data-name="Trazado 1169041" d="M52.6,57.092a3.028,3.028,0,0,1-3.023-3.023.926.926,0,0,1,1.851,0A1.172,1.172,0,1,0,52.6,52.9a3.023,3.023,0,1,1,3.023-3.023.926.926,0,1,1-1.851,0A1.172,1.172,0,1,0,52.6,51.046a3.023,3.023,0,0,1,0,6.047Z" transform="translate(-49.58 -46.85)"/>
          </g>
          <g id="Grupo_1220271" data-name="Grupo 1220271" transform="translate(2.098)">
            <path id="Trazado_1169042" data-name="Trazado 1169042" d="M52.206,48.975a.932.932,0,0,1-.926-.925V46.606a.926.926,0,1,1,1.851,0v1.444A.924.924,0,0,1,52.206,48.975Z" transform="translate(-51.28 -45.68)"/>
          </g>
          <g id="Grupo_1220272" data-name="Grupo 1220272" transform="translate(2.098 9.835)">
            <path id="Trazado_1169043" data-name="Trazado 1169043" d="M52.206,56.945a.932.932,0,0,1-.926-.925V54.576a.926.926,0,0,1,1.851,0v1.444A.924.924,0,0,1,52.206,56.945Z" transform="translate(-51.28 -53.65)"/>
          </g>
        </g>
        <g id="Grupo_1220274" data-name="Grupo 1220274" transform="translate(51.569 11.094)">
          <path id="Trazado_1169044" data-name="Trazado 1169044" d="M51.673,35.315a.929.929,0,0,1-.74-.37C50.118,33.872,43.01,24.357,43.01,19.9a8.663,8.663,0,1,1,17.325,0c0,4.455-7.108,13.969-7.922,15.043a.947.947,0,0,1-.74.37Zm0-22.212a6.825,6.825,0,0,0-6.812,6.812c0,2.912,4.393,9.588,6.812,12.92,2.419-3.332,6.812-10.008,6.812-12.92A6.833,6.833,0,0,0,51.673,13.1Zm0,10.205a3.394,3.394,0,1,1,3.394-3.394A3.392,3.392,0,0,1,51.673,23.309Zm0-4.936a1.543,1.543,0,1,0,1.543,1.543A1.543,1.543,0,0,0,51.673,18.373Z" transform="translate(-43.01 -11.24)"/>
        </g>
        <g id="Grupo_1220275" data-name="Grupo 1220275" transform="translate(0.074 29.949)">
          <path id="Trazado_1169045" data-name="Trazado 1169045" d="M35.524,49.917c-16.832,0-34.244-4.368-34.244-11.7s17.412-11.7,34.244-11.7,34.244,4.381,34.244,11.7a.926.926,0,1,1-1.851,0c0-4.751-13.019-9.847-32.393-9.847s-32.393,5.1-32.393,9.847,13.019,9.847,32.393,9.847a96.615,96.615,0,0,0,11.822-.7A.927.927,0,1,1,47.58,49.2a100.641,100.641,0,0,1-12.056.716Z" transform="translate(-1.28 -26.52)"/>
        </g>
        <g id="Grupo_1220276" data-name="Grupo 1220276" transform="translate(0.074 23.232)">
          <path id="Trazado_1169046" data-name="Trazado 1169046" d="M35.524,73.736A34.248,34.248,0,0,1,6.376,21.513a.923.923,0,0,1,1.567.975,32.4,32.4,0,0,0,27.58,49.4,32.022,32.022,0,0,0,13.66-3.023.929.929,0,0,1,1.234.444.94.94,0,0,1-.444,1.234A33.995,33.995,0,0,1,35.524,73.736Z" transform="translate(-1.28 -21.076)"/>
        </g>
        <g id="Grupo_1220277" data-name="Grupo 1220277" transform="translate(22.194 7.404)">
          <path id="Trazado_1169047" data-name="Trazado 1169047" d="M51.221,16.691a.938.938,0,0,1-.555-.185,32.435,32.435,0,0,0-30.221-4.529.925.925,0,0,1-.629-1.74,34.282,34.282,0,0,1,31.961,4.788.926.926,0,0,1,.185,1.3.966.966,0,0,1-.74.37Z" transform="translate(-19.205 -8.25)"/>
        </g>
        <g id="Grupo_1220278" data-name="Grupo 1220278" transform="translate(63.69 26.855)">
          <path id="Trazado_1169048" data-name="Trazado 1169048" d="M56.778,39.731a.932.932,0,0,1-.926-.926,32.056,32.056,0,0,0-2.937-13.488.922.922,0,0,1,1.678-.765A33.976,33.976,0,0,1,57.7,38.818a.93.93,0,0,1-.926.913Z" transform="translate(-52.832 -24.012)"/>
        </g>
      </g>
    </g>
  </g>
</svg>
