<svg xmlns="http://www.w3.org/2000/svg" xmlns:xlink="http://www.w3.org/1999/xlink" width="113" height="113" viewBox="0 0 113 113">
  <defs>
    <filter id="Trazado_982547" x="0" y="0" width="113" height="113" filterUnits="userSpaceOnUse">
      <feOffset dy="3" input="SourceAlpha"/>
      <feGaussianBlur stdDeviation="3" result="blur"/>
      <feFlood flood-opacity="0.161"/>
      <feComposite operator="in" in2="blur"/>
      <feComposite in="SourceGraphic"/>
    </filter>
  </defs>
  <g id="Grupo_1220281" data-name="Grupo 1220281" transform="translate(-1059 -4368.042)">
    <g id="Grupo_1215628" data-name="Grupo 1215628" transform="translate(0 3169.096)">
      <g id="Grupo_1214349" data-name="Grupo 1214349" transform="translate(0 -2968)">
        <g id="Grupo_1212851" data-name="Grupo 1212851" transform="translate(1068 4172.946)">
          <g id="Grupo_1209935" data-name="Grupo 1209935">
            <g id="Grupo_1208705" data-name="Grupo 1208705">
              <g id="Grupo_1148633" data-name="Grupo 1148633">
                <g id="Grupo_1148525" data-name="Grupo 1148525">
                  <g transform="matrix(1, 0, 0, 1, -9, -6)" filter="url(#Trazado_982547)">
                    <g id="Trazado_982547-2" data-name="Trazado 982547" transform="translate(9 6)" fill="#ffe1b9">
                      <path d="M 47.5 93.5 C 41.28937149047852 93.5 35.26533508300781 92.28397369384766 29.59518623352051 89.88570404052734 C 24.11771965026855 87.56893157958984 19.19813346862793 84.25196075439453 14.97309303283691 80.02691650390625 C 10.74804019927979 75.80186462402344 7.431066513061523 70.88229370117188 5.114293098449707 65.40481567382812 C 2.716026782989502 59.73468017578125 1.5 53.71062850952148 1.5 47.5 C 1.5 41.28937149047852 2.716026782989502 35.26533508300781 5.114293098449707 29.59518623352051 C 7.431066513061523 24.11771965026855 10.74804019927979 19.19813346862793 14.97309303283691 14.97309303283691 C 19.19813346862793 10.74804019927979 24.11771965026855 7.431066513061523 29.59518623352051 5.114293098449707 C 35.26533508300781 2.716026782989502 41.28937149047852 1.5 47.5 1.5 C 53.71062850952148 1.5 59.73468017578125 2.716026782989502 65.40481567382812 5.114293098449707 C 70.88229370117188 7.431066513061523 75.80186462402344 10.74804019927979 80.02691650390625 14.97309303283691 C 84.25196075439453 19.19813346862793 87.56893157958984 24.11771965026855 89.88570404052734 29.59518623352051 C 92.28397369384766 35.26533508300781 93.5 41.28937149047852 93.5 47.5 C 93.5 53.71062850952148 92.28397369384766 59.73468017578125 89.88570404052734 65.40481567382812 C 87.56893157958984 70.88229370117188 84.25196075439453 75.80186462402344 80.02691650390625 80.02691650390625 C 75.80186462402344 84.25196075439453 70.88229370117188 87.56893157958984 65.40481567382812 89.88570404052734 C 59.73468017578125 92.28397369384766 53.71062850952148 93.5 47.5 93.5 Z" stroke="none"/>
                      <path d="M 47.5 3 C 41.49121475219727 3 35.66376876831055 4.176155090332031 30.17950439453125 6.495796203613281 C 24.88084411621094 8.736953735351562 20.12152099609375 11.94598388671875 16.03375244140625 16.03375244140625 C 11.94598388671875 20.12152099609375 8.736953735351562 24.88084411621094 6.495796203613281 30.17950439453125 C 4.176155090332031 35.66376876831055 3 41.49121475219727 3 47.5 C 3 53.50878524780273 4.176155090332031 59.33623123168945 6.495796203613281 64.82049560546875 C 8.736953735351562 70.11915588378906 11.94598388671875 74.87847900390625 16.03375244140625 78.96624755859375 C 20.12152099609375 83.05401611328125 24.88084411621094 86.26304626464844 30.17950439453125 88.50419616699219 C 35.66376876831055 90.82384490966797 41.49121475219727 92 47.5 92 C 53.50878524780273 92 59.33623123168945 90.82384490966797 64.82049560546875 88.50419616699219 C 70.11915588378906 86.26304626464844 74.87847900390625 83.05401611328125 78.96624755859375 78.96624755859375 C 83.05401611328125 74.87847900390625 86.26304626464844 70.11915588378906 88.50419616699219 64.82049560546875 C 90.82384490966797 59.33623123168945 92 53.50878524780273 92 47.5 C 92 41.49121475219727 90.82384490966797 35.66376876831055 88.50419616699219 30.17950439453125 C 86.26304626464844 24.88084411621094 83.05401611328125 20.12152099609375 78.96624755859375 16.03375244140625 C 74.87847900390625 11.94598388671875 70.11915588378906 8.736953735351562 64.82049560546875 6.495796203613281 C 59.33623123168945 4.176155090332031 53.50878524780273 3 47.5 3 M 47.5 0 C 73.7335205078125 0 95 21.2664794921875 95 47.5 C 95 73.7335205078125 73.7335205078125 95 47.5 95 C 21.2664794921875 95 0 73.7335205078125 0 47.5 C 0 21.2664794921875 21.2664794921875 0 47.5 0 Z" stroke="none" fill="#ff9d1c"/>
                    </g>
                  </g>
                </g>
              </g>
            </g>
          </g>
        </g>
      </g>
    </g>
    <g id="International-Global-Worldwide-Economy-Business" transform="translate(1074.616 4380.396)">
      <circle id="Elipse_14372" data-name="Elipse 14372" cx="29.934" cy="29.934" r="29.934" transform="translate(11.199 11.199)" fill="#5aaae7"/>
      <path id="Trazado_1169049" data-name="Trazado 1169049" d="M39.407,37.738a1.3,1.3,0,0,1,1.262,1.614l-.729,2.928a1.3,1.3,0,0,1-.859.924l-2.252.742a1.313,1.313,0,0,0-.9,1.236l-.013,2.173A1.29,1.29,0,0,1,35.2,48.5l-3.774,1.887a1.3,1.3,0,0,0-.716,1.171v3.878a1.292,1.292,0,0,1-1.7,1.236l-1.588-.521a1.287,1.287,0,0,1-.82-.82l-2.33-6.963a1.543,1.543,0,0,1-.065-.416v-4.2a1.3,1.3,0,0,0-.716-1.171L21.8,41.734a1.3,1.3,0,0,1-.338-.234l-2.082-2.082A1.313,1.313,0,0,1,19,38.506V34.589a1.321,1.321,0,0,1,.625-1.119l5-3.045a1.318,1.318,0,0,1,1.614.2l2.8,2.824a1.278,1.278,0,0,0,.924.39h3.956a1.318,1.318,0,0,1,1.093.586l1.8,2.733a1.3,1.3,0,0,0,1.08.586Z" transform="translate(5.214 8.601)" fill="#00ccb3"/>
      <path id="Trazado_1169050" data-name="Trazado 1169050" d="M9.82,30.831a1.422,1.422,0,0,1,.065-.221A30.056,30.056,0,0,1,24.4,12.441,29.153,29.153,0,0,1,31.75,9.63l1.432,2.538a1.247,1.247,0,0,0,.911.651l5.206.872a1.3,1.3,0,0,1,.872,2L38.96,17.5a1.216,1.216,0,0,1-.768.534L33.923,19.1a1.309,1.309,0,0,0-.716.482L29.758,24.18a1.2,1.2,0,0,1-.456.39l-4.776,2.382a1.385,1.385,0,0,1-.325.117l-5.3,1.054A1.3,1.3,0,0,0,17.863,29.4v2.134a1.318,1.318,0,0,0,.586,1.093l2.733,1.822a1.318,1.318,0,0,1,.586,1.093v2.395a1.443,1.443,0,0,1-.1.534,1.3,1.3,0,0,1-1.783.638l-5.661-2.837a1.33,1.33,0,0,1-.442-.364Z" transform="translate(2.446 2.389)" fill="#00ccb3"/>
      <path id="Trazado_1169051" data-name="Trazado 1169051" d="M58.441,22.911a29.9,29.9,0,0,1-3.2,29.765l-2.967-2.967A1.313,1.313,0,0,1,51.9,48.8V44.554a1.339,1.339,0,0,0-.26-.781l-3.384-4.5a1.339,1.339,0,0,1-.26-.781v-4.2a1.344,1.344,0,0,0-.377-.924l-1.666-1.653a1.3,1.3,0,0,0-1.314-.325l-2.8.911a1.222,1.222,0,0,1-.716.026l-4.074-.989a1.321,1.321,0,0,1-.963-.95l-.963-3.917a1.338,1.338,0,0,1,.169-1.041l1.9-2.837A1.318,1.318,0,0,1,38.282,22h4.113a1.29,1.29,0,0,1,.716.221l3.371,2.239a1.42,1.42,0,0,0,.456.2l5.779,1.158a1.383,1.383,0,0,0,.911-.156Z" transform="translate(10.061 6.118)" fill="#00ccb3"/>
      <path id="Trazado_1169052" data-name="Trazado 1169052" d="M53.777,19.187l-1.952,1.3a1.3,1.3,0,0,1-1.3.078l-4.1-2.043a1.265,1.265,0,0,0-.9-.1l-4.178,1.041a1.291,1.291,0,0,1-1.041-.182l-2.343-1.562a1.3,1.3,0,0,1-.364-1.8l1.5-2.239a1.318,1.318,0,0,1,1.093-.586H45.6a1.29,1.29,0,0,0,.716-.221l.286-.2a29.23,29.23,0,0,1,7.171,6.507Z" transform="translate(10.756 3.309)" fill="#00ccb3"/>
      <path id="Trazado_1169053" data-name="Trazado 1169053" d="M71.661,47.728a31.115,31.115,0,0,0,0-13.188C80.641,20.661,83,9.384,77.946,4.317,73.474-.142,64.089,1.157,52.2,7.883l1.281,2.265c10.641-6.017,19.1-7.511,22.63-3.99,3.786,3.8,1.654,13.455-5.383,24.988A31.21,31.21,0,0,0,34.542,10.6C20.662,1.63,9.377-.734,4.317,4.32-.159,8.807,1.163,18.227,7.945,30.176L10.21,28.89C4.139,18.2,2.625,9.7,6.157,6.16c3.8-3.787,13.458-1.653,24.988,5.383a31.225,31.225,0,0,0,0,59.18C19.6,77.76,9.946,79.893,6.157,76.109c-3.514-3.53-2.03-11.985,3.982-22.621L7.875,52.207C1.156,64.095-.142,73.476,4.319,77.949A10.056,10.056,0,0,0,11.7,80.568c5.834,0,13.785-3.052,22.837-8.906A31.209,31.209,0,0,0,70.723,51.115c7.037,11.539,9.169,21.2,5.385,24.988-3.618,3.61-12.33,1.976-23.3-4.37l-1.3,2.252c7.526,4.361,14.071,6.583,19.059,6.583a10.056,10.056,0,0,0,7.379-2.62C83,72.889,80.639,61.607,71.661,47.728Zm-8.924,1.383L61.68,47.706q1.92-2.212,3.686-4.445,1.866,2.494,3.514,4.964a28.482,28.482,0,0,1-3.774,8.536l-1.848-1.845V50.673a2.645,2.645,0,0,0-.521-1.562Zm-3.384-4.5V40.4a2.656,2.656,0,0,0-.763-1.847l-1.646-1.633a2.611,2.611,0,0,0-2.654-.66l-2.8.911-4.081-.988-.975-3.924,1.912-2.844h4.113L55,31.112c3.139,3.264,6.08,6.637,8.739,10.021q-1.752,2.228-3.658,4.441Zm4.888-20.354a28.666,28.666,0,0,1,2.574,4.24l-3.785,2.16-5.769-1.161-.593-.39c-.573-.592-1.145-1.187-1.731-1.771-1.1-1.1-2.228-2.18-3.359-3.239a2.473,2.473,0,0,0,.841-.057l4.18-1.041,4.1,2.043a2.6,2.6,0,0,0,2.6-.159Zm3.623,6.637a28.384,28.384,0,0,1,1.01,3.151q-1.639,2.466-3.514,4.962c-1.679-2.114-3.459-4.219-5.33-6.3l2.526.506a2.681,2.681,0,0,0,1.769-.308Zm-.849,10.241c.875-1.153,1.727-2.306,2.533-3.454a27.73,27.73,0,0,1,0,6.909C68.743,43.439,67.891,42.286,67.016,41.133ZM62.607,22.219l-.741.493-4.075-2.032a2.547,2.547,0,0,0-1.822-.216l-4.18,1.041-2.343-1.551,1.5-2.248H56.36a2.573,2.573,0,0,0,.929-.2,28.908,28.908,0,0,1,5.318,4.709ZM53.039,15.1H50.946a2.621,2.621,0,0,0-2.175,1.165l-1.506,2.25a2.6,2.6,0,0,0-.415,1.339q-1.359-1.16-2.725-2.265a2.6,2.6,0,0,0-2.166-2.8l-1.822-.308q-1.229-.911-2.453-1.771a28.819,28.819,0,0,1,3.449-.216A28.462,28.462,0,0,1,53.039,15.1ZM33.552,13.528l.921,1.632a2.53,2.53,0,0,0,1.851,1.331l2.746.459c.6.453,1.209.911,1.813,1.381l-.56.833-4.295,1.074a2.576,2.576,0,0,0-1.416.957l-3.444,4.6-4.775,2.387L21.1,29.235a2.6,2.6,0,0,0-2.093,2.553v2.134A2.624,2.624,0,0,0,20.179,36.1l2.733,1.832v2.4L17.252,37.5,13.7,32.942A28.739,28.739,0,0,1,33.552,13.528ZM12.5,41.133a28.718,28.718,0,0,1,.435-4.938l2.246,2.88a2.616,2.616,0,0,0,.9.747l5.668,2.844a2.645,2.645,0,0,0,1.161.272h.035a2.421,2.421,0,0,0-.034.26v3.915a2.622,2.622,0,0,0,.763,1.829l2.072,2.072a2.6,2.6,0,0,0,.677.488l1.692.847v4.206a2.547,2.547,0,0,0,.13.823l2.323,6.965a2.619,2.619,0,0,0,1.657,1.648l1.583.521a2.6,2.6,0,0,0,3.42-2.473V60.158l3.766-1.886a2.586,2.586,0,0,0,1.439-2.31l.014-2.173,2.265-.752a2.593,2.593,0,0,0,1.7-1.84l.729-2.926a2.6,2.6,0,0,0-2.525-3.233H43.1L41.3,42.3a2.594,2.594,0,0,0-2.175-1.171H35.168L32.37,38.3a2.6,2.6,0,0,0-3.206-.39l-3.649,2.226V37.925a2.624,2.624,0,0,0-1.171-2.176l-2.733-1.826V31.789l5.336-1.061a2.655,2.655,0,0,0,.616-.221l4.772-2.388a2.425,2.425,0,0,0,.911-.773l3.44-4.594,4.256-1.065a2.479,2.479,0,0,0,1.547-1.076l.435-.651c2.621,2.138,5.225,4.425,7.766,6.851H48.347a2.624,2.624,0,0,0-2.175,1.164l-1.925,2.878a2.625,2.625,0,0,0-.329,2.041l.963,3.928A2.622,2.622,0,0,0,46.8,38.715l4.028.977a2.511,2.511,0,0,0,1.471-.042l2.794-.9L56.75,40.4v4.2a2.645,2.645,0,0,0,.521,1.562l1.052,1.4C56.645,49.44,54.9,51.291,53.1,53.1A126.445,126.445,0,0,1,34.041,68.875,28.68,28.68,0,0,1,12.5,41.133Zm16.789,8.888L27.6,49.174,25.515,47.1V43.187l5.005-3.053,2.8,2.829a2.617,2.617,0,0,0,1.844.773H39.13l1.8,2.733A2.6,2.6,0,0,0,43.1,47.64h1.516l-.729,2.927-2.262.75a2.6,2.6,0,0,0-1.784,2.453l-.014,2.173L36.065,57.83a2.586,2.586,0,0,0-1.439,2.328v3.881l-1.581-.521-2.323-6.963V52.349a2.587,2.587,0,0,0-1.432-2.328ZM41.133,69.765a28.838,28.838,0,0,1-3.455-.216,132.092,132.092,0,0,0,17.26-14.612c1.717-1.715,3.377-3.471,4.979-5.246l.738.981v4.243a2.611,2.611,0,0,0,.759,1.835l2.15,2.15A28.589,28.589,0,0,1,41.133,69.765Z" transform="translate(0 0)"/>
    </g>
  </g>
</svg>
