<svg xmlns="http://www.w3.org/2000/svg" xmlns:xlink="http://www.w3.org/1999/xlink" width="113" height="113" viewBox="0 0 113 113">
  <defs>
    <filter id="Trazado_982547" x="0" y="0" width="113" height="113" filterUnits="userSpaceOnUse">
      <feOffset dy="3" input="SourceAlpha"/>
      <feGaussianBlur stdDeviation="3" result="blur"/>
      <feFlood flood-opacity="0.161"/>
      <feComposite operator="in" in2="blur"/>
      <feComposite in="SourceGraphic"/>
    </filter>
  </defs>
  <g id="Grupo_1215694" data-name="Grupo 1215694" transform="translate(-615 -500)">
    <g id="Grupo_1215521" data-name="Grupo 1215521" transform="translate(624 506)">
      <g id="Grupo_1214144" data-name="Grupo 1214144">
        <g id="Grupo_1200897" data-name="Grupo 1200897">
          <g id="Grupo_1200342" data-name="Grupo 1200342">
            <g id="Grupo_1185978" data-name="Grupo 1185978">
              <g id="Grupo_1180760" data-name="Grupo 1180760">
                <g id="Grupo_1174888" data-name="Grupo 1174888">
                  <g id="Grupo_1166845" data-name="Grupo 1166845">
                    <g id="Grupo_1166720" data-name="Grupo 1166720">
                      <g id="Grupo_1164305" data-name="Grupo 1164305">
                        <g id="Grupo_1163948" data-name="Grupo 1163948">
                          <g id="Grupo_1158168" data-name="Grupo 1158168">
                            <g id="Grupo_1152576" data-name="Grupo 1152576">
                              <g id="Grupo_1148633" data-name="Grupo 1148633">
                                <g id="Grupo_1148525" data-name="Grupo 1148525">
                                  <g transform="matrix(1, 0, 0, 1, -9, -6)" filter="url(#Trazado_982547)">
                                    <g id="Trazado_982547-2" data-name="Trazado 982547" transform="translate(9 6)" fill="#e9f9fd">
                                      <path d="M 47.5 93.5 C 41.28937149047852 93.5 35.26533508300781 92.28397369384766 29.59518623352051 89.88570404052734 C 24.11771965026855 87.56893157958984 19.19813346862793 84.25196075439453 14.97309303283691 80.02691650390625 C 10.74804019927979 75.80186462402344 7.431066513061523 70.88229370117188 5.114293098449707 65.40481567382812 C 2.716026782989502 59.73468017578125 1.5 53.71062850952148 1.5 47.5 C 1.5 41.28937149047852 2.716026782989502 35.26533508300781 5.114293098449707 29.59518623352051 C 7.431066513061523 24.11771965026855 10.74804019927979 19.19813346862793 14.97309303283691 14.97309303283691 C 19.19813346862793 10.74804019927979 24.11771965026855 7.431066513061523 29.59518623352051 5.114293098449707 C 35.26533508300781 2.716026782989502 41.28937149047852 1.5 47.5 1.5 C 53.71062850952148 1.5 59.73468017578125 2.716026782989502 65.40481567382812 5.114293098449707 C 70.88229370117188 7.431066513061523 75.80186462402344 10.74804019927979 80.02691650390625 14.97309303283691 C 84.25196075439453 19.19813346862793 87.56893157958984 24.11771965026855 89.88570404052734 29.59518623352051 C 92.28397369384766 35.26533508300781 93.5 41.28937149047852 93.5 47.5 C 93.5 53.71062850952148 92.28397369384766 59.73468017578125 89.88570404052734 65.40481567382812 C 87.56893157958984 70.88229370117188 84.25196075439453 75.80186462402344 80.02691650390625 80.02691650390625 C 75.80186462402344 84.25196075439453 70.88229370117188 87.56893157958984 65.40481567382812 89.88570404052734 C 59.73468017578125 92.28397369384766 53.71062850952148 93.5 47.5 93.5 Z" stroke="none"/>
                                      <path d="M 47.5 3 C 41.49121475219727 3 35.66376876831055 4.176155090332031 30.17950439453125 6.495796203613281 C 24.88084411621094 8.736953735351562 20.12152099609375 11.94598388671875 16.03375244140625 16.03375244140625 C 11.94598388671875 20.12152099609375 8.736953735351562 24.88084411621094 6.495796203613281 30.17950439453125 C 4.176155090332031 35.66376876831055 3 41.49121475219727 3 47.5 C 3 53.50878524780273 4.176155090332031 59.33623123168945 6.495796203613281 64.82049560546875 C 8.736953735351562 70.11915588378906 11.94598388671875 74.87847900390625 16.03375244140625 78.96624755859375 C 20.12152099609375 83.05401611328125 24.88084411621094 86.26304626464844 30.17950439453125 88.50419616699219 C 35.66376876831055 90.82384490966797 41.49121475219727 92 47.5 92 C 53.50878524780273 92 59.33623123168945 90.82384490966797 64.82049560546875 88.50419616699219 C 70.11915588378906 86.26304626464844 74.87847900390625 83.05401611328125 78.96624755859375 78.96624755859375 C 83.05401611328125 74.87847900390625 86.26304626464844 70.11915588378906 88.50419616699219 64.82049560546875 C 90.82384490966797 59.33623123168945 92 53.50878524780273 92 47.5 C 92 41.49121475219727 90.82384490966797 35.66376876831055 88.50419616699219 30.17950439453125 C 86.26304626464844 24.88084411621094 83.05401611328125 20.12152099609375 78.96624755859375 16.03375244140625 C 74.87847900390625 11.94598388671875 70.11915588378906 8.736953735351562 64.82049560546875 6.495796203613281 C 59.33623123168945 4.176155090332031 53.50878524780273 3 47.5 3 M 47.5 0 C 73.7335205078125 0 95 21.2664794921875 95 47.5 C 95 73.7335205078125 73.7335205078125 95 47.5 95 C 21.2664794921875 95 0 73.7335205078125 0 47.5 C 0 21.2664794921875 21.2664794921875 0 47.5 0 Z" stroke="none" fill="#1d7083"/>
                                    </g>
                                  </g>
                                </g>
                              </g>
                            </g>
                          </g>
                        </g>
                      </g>
                    </g>
                  </g>
                </g>
              </g>
            </g>
          </g>
        </g>
      </g>
    </g>
    <g id="administrador" transform="translate(632.957 519.939)">
      <path id="Trazado_1085467" data-name="Trazado 1085467" d="M54.993,70.242c-.018,0-7.437-2.57-7.454-2.576a9.368,9.368,0,0,1-6.307-8.859A17.132,17.132,0,0,0,51.794,43v-.541a4.33,4.33,0,0,0,4.333-4.321V21.794A13.76,13.76,0,0,0,42.38,8.022h-11.7A13.758,13.758,0,0,0,17.9,16.659a4.674,4.674,0,0,0-4.678,4.667V38.186a4.262,4.262,0,0,0,4.316,4.249v.54A17.126,17.126,0,0,0,28.085,58.8a9.363,9.363,0,0,1-6.319,8.852c-2.064.721-7.442,2.55-7.459,2.567A9.366,9.366,0,0,0,8,79.063v7.823a1.4,1.4,0,0,0,1.38,1.4H59.9a1.373,1.373,0,0,0,1.388-1.367V79.1A9.363,9.363,0,0,0,54.993,70.242Z" transform="translate(-6.619 -6.619)" fill="#ffebd2"/>
      <path id="Trazado_1085468" data-name="Trazado 1085468" d="M77.969,174.289a1.762,1.762,0,0,1-1,3.362,17.129,17.129,0,0,1-13.816-16.817v-8.746a1.383,1.383,0,0,1,1.186-1.368q.425-.058.84-.146A1.76,1.76,0,0,1,67.3,152.3v6.116A17.124,17.124,0,0,0,77.969,174.289Z" transform="translate(-52.225 -124.478)" fill="#fff3e4"/>
      <path id="Trazado_1085469" data-name="Trazado 1085469" d="M135.608,304.787a19.954,19.954,0,0,1-11.526-.009,1.382,1.382,0,0,1-.959-1.561,11.245,11.245,0,0,0,.149-1.665,17.159,17.159,0,0,0,13.147.009,9.384,9.384,0,0,0,.145,1.645A1.39,1.39,0,0,1,135.608,304.787Z" transform="translate(-101.807 -249.371)" fill="#ffd9ad"/>
      <path id="Trazado_1085470" data-name="Trazado 1085470" d="M67.354,8.021A13.76,13.76,0,0,1,81.1,21.793v16.34a4.33,4.33,0,0,1-4.333,4.321V35.111A1.378,1.378,0,0,0,75.2,33.741c-7.992,1.131-16.513.045-21.283-5.976a1.385,1.385,0,0,0-2.231.114,11.48,11.48,0,0,1-7.983,4.98,1.382,1.382,0,0,0-1.186,1.368v8.207A4.262,4.262,0,0,1,38.2,38.185V21.326a4.674,4.674,0,0,1,4.678-4.667A13.758,13.758,0,0,1,55.651,8.021h11.7Z" transform="translate(-31.592 -6.618)" fill="#585966"/>
      <path id="Trazado_1085471" data-name="Trazado 1085471" d="M67.774,8.032a1.739,1.739,0,0,1-.06,3.476c-1.812.02-4.037,0-6.866-.03a13.665,13.665,0,0,0-12.4,7.778,1.742,1.742,0,0,1-1.255.944,4.674,4.674,0,0,0-3.8,4.586v8.156a1.389,1.389,0,0,0-.876,1.285c-.013,8.839.019,8.207-.035,8.207A4.263,4.263,0,0,1,38.2,38.186V21.327a4.674,4.674,0,0,1,4.678-4.667A13.758,13.758,0,0,1,55.65,8.022S67.634,8.028,67.774,8.032Z" transform="translate(-31.591 -6.619)" fill="#6e6f80"/>
      <path id="Trazado_1085472" data-name="Trazado 1085472" d="M54.993,337.243c-.018,0-7.437-2.57-7.454-2.576a9.342,9.342,0,0,1-4.814-3.782l-5.21,5.821h-5.7c-5.478-6.121-5.209-5.824-5.226-5.835a9.353,9.353,0,0,1-4.825,3.78c-2.064.721-7.442,2.55-7.459,2.567A9.366,9.366,0,0,0,8,346.064v7.823a1.4,1.4,0,0,0,1.38,1.4H59.9a1.373,1.373,0,0,0,1.388-1.367V346.1A9.363,9.363,0,0,0,54.993,337.243Z" transform="translate(-6.619 -273.619)" fill="#cbe3fa"/>
      <path id="Trazado_1085473" data-name="Trazado 1085473" d="M24.306,349.557a1.384,1.384,0,0,1-.9,1.607c-3.054,1.051-4.066,1.387-4.083,1.4a9.366,9.366,0,0,0-6.3,8.845v5.923a1.4,1.4,0,0,1-1.387,1.4H9.382a1.4,1.4,0,0,1-1.38-1.4V359.51a9.366,9.366,0,0,1,6.3-8.845.008.008,0,0,1,.005,0c8.039-2.765,8.209-2.734,9.456-3.532C23.777,347.148,23.731,346.954,24.306,349.557Z" transform="translate(-6.618 -287.066)" fill="#eef7ff"/>
      <path id="Trazado_1085474" data-name="Trazado 1085474" d="M107.178,336.708l-3.991,4.93a1.384,1.384,0,0,1-2.427-.574c-1.7-7.717-1.619-7.361-1.631-7.378a9.336,9.336,0,0,0,2.823-2.813C101.97,330.883,101.7,330.588,107.178,336.708Z" transform="translate(-81.981 -273.62)" fill="#fff"/>
      <path id="Trazado_1085475" data-name="Trazado 1085475" d="M113.356,357.829l-3.991,4.93a1.384,1.384,0,0,1-2.427-.574l-.314-1.426a1.042,1.042,0,0,1,.88-1.252,4.3,4.3,0,0,0,3.2-2.523,1.034,1.034,0,0,1,1.7-.225Z" transform="translate(-88.158 -294.742)" fill="#eef7ff"/>
      <path id="Trazado_1085476" data-name="Trazado 1085476" d="M186.638,333.774l-1.621,7.356a1.384,1.384,0,0,1-2.427.574l-3.991-4.93,5.21-5.821A9.364,9.364,0,0,0,186.638,333.774Z" transform="translate(-147.704 -273.686)" fill="#fff"/>
      <path id="Trazado_1085477" data-name="Trazado 1085477" d="M194.3,367.435a.691.691,0,0,1,1.04.737l-.669,3.038a1.384,1.384,0,0,1-2.427.574l-1.816-2.242a.69.69,0,0,1,.527-1.127A6.174,6.174,0,0,0,194.3,367.435Z" transform="translate(-157.361 -303.766)" fill="#eef7ff"/>
      <path id="Trazado_1085478" data-name="Trazado 1085478" d="M136.479,364.6l3.114,18.581H127.669l3.112-18.581Z" transform="translate(-105.584 -301.514)" fill="#80aaff"/>
      <path id="Trazado_1085479" data-name="Trazado 1085479" d="M127.669,383.183l3.112-18.581h1.1a1.384,1.384,0,0,1,1.38,1.486L132.089,381.9a1.386,1.386,0,0,1-1.381,1.283Z" transform="translate(-105.584 -301.514)" fill="#9cbcff"/>
      <path id="Trazado_1085480" data-name="Trazado 1085480" d="M297.629,274.245v2.14a2.788,2.788,0,0,1-2.38,2.757l-1.481.218a14.934,14.934,0,0,1-3.693,6.392l.554,1.394a2.786,2.786,0,0,1-1.2,3.439l-1.854,1.071a2.788,2.788,0,0,1-3.577-.683l-.925-1.171a15.032,15.032,0,0,1-7.39,0l-.926,1.171a2.788,2.788,0,0,1-3.577.683l-1.854-1.071a2.786,2.786,0,0,1-1.2-3.439l.554-1.394a14.933,14.933,0,0,1-3.693-6.392l-1.481-.218a2.788,2.788,0,0,1-2.38-2.757v-2.14a2.785,2.785,0,0,1,2.38-2.756l1.481-.218a14.939,14.939,0,0,1,3.693-6.394l-.554-1.393a2.785,2.785,0,0,1,1.2-3.439l1.854-1.071a2.786,2.786,0,0,1,3.577.683l.926,1.169a15.051,15.051,0,0,1,7.39,0l.925-1.169a2.786,2.786,0,0,1,3.577-.683l1.854,1.071a2.785,2.785,0,0,1,1.2,3.439l-.554,1.393a14.94,14.94,0,0,1,3.693,6.394l1.481.218A2.785,2.785,0,0,1,297.629,274.245Z" transform="translate(-215.957 -213.851)" fill="#585966"/>
      <g id="Grupo_1215692" data-name="Grupo 1215692" transform="translate(45.134 44.785)">
        <path id="Trazado_1085481" data-name="Trazado 1085481" d="M293.314,396.177a.694.694,0,0,1-1.035.663,2.787,2.787,0,0,1-1.2-3.439l.554-1.394a14.964,14.964,0,0,1-2.664-3.737.83.83,0,1,1,1.535-.621,14.932,14.932,0,0,0,3.259,5.607.686.686,0,0,1,.129.718A4.645,4.645,0,0,0,293.314,396.177Z" transform="translate(-284.043 -364.891)" fill="#6e6f80"/>
        <path id="Trazado_1085482" data-name="Trazado 1085482" d="M272.331,262.092c-.24.144-.508.287-.8.447a2.755,2.755,0,0,0-1.2,3.439l.27.68a1.223,1.223,0,0,1-.226,1.261,14.936,14.936,0,0,0-2.964,5.131,1.222,1.222,0,0,1-.978.826l-.723.106a2.764,2.764,0,0,0-2.38,2.756c0,.246.011.472.011.68a1.216,1.216,0,0,1-2.428.094c-.007-.139-.005,0-.005-2.331a2.785,2.785,0,0,1,2.38-2.756l1.481-.218a14.939,14.939,0,0,1,3.693-6.394l-.554-1.393a2.785,2.785,0,0,1,1.2-3.439l1.854-1.071A1.288,1.288,0,1,1,272.331,262.092Z" transform="translate(-260.909 -259.534)" fill="#6e6f80"/>
        <path id="Trazado_1085483" data-name="Trazado 1085483" d="M365.761,259.208a.752.752,0,0,1-.113,1.342,4.284,4.284,0,0,0-1.658,1.575.924.924,0,0,1-.918.331,15.061,15.061,0,0,0-6.289,0,.94.94,0,1,1-.27-1.857,15.032,15.032,0,0,1,4.69.428l.925-1.169A2.774,2.774,0,0,1,365.761,259.208Z" transform="translate(-339.259 -258.799)" fill="#6e6f80"/>
      </g>
      <circle id="Elipse_14340" data-name="Elipse 14340" cx="11.364" cy="11.364" r="11.364" transform="translate(52.059 50.101)" fill="#fff0a6"/>
      <path id="Trazado_1085484" data-name="Trazado 1085484" d="M305.12,306.619a1.117,1.117,0,0,1-1.95,1.041,11.365,11.365,0,0,1,9.067-18.128,1.117,1.117,0,0,1,.333,2.184A11.372,11.372,0,0,0,305.12,306.619Z" transform="translate(-248.88 -239.431)" fill="#fff8d6"/>
      <g id="Grupo_1215693" data-name="Grupo 1215693" transform="translate(0 0.019)">
        <path id="Trazado_1085485" data-name="Trazado 1085485" d="M50.892,31.515V15.176A15.134,15.134,0,0,0,35.763.019h-11.7A15.064,15.064,0,0,0,10.348,8.728a6.058,6.058,0,0,0-5.124,5.98V31.568a1.384,1.384,0,0,0,2.768,0V14.709a3.29,3.29,0,0,1,3.295-3.285,1.384,1.384,0,0,0,1.285-.869A12.314,12.314,0,0,1,24.059,2.787h11.7A12.368,12.368,0,0,1,48.124,15.175v16.34a2.942,2.942,0,0,1-1.562,2.593V26.87a1.384,1.384,0,0,0-1.627-1.362c-5.071.906-17.425,2.055-22.614-6.815a1.385,1.385,0,0,0-2.46.139,10.178,10.178,0,0,1-8.984,6.128,1.384,1.384,0,0,0-1.334,1.383V36.355A18.533,18.533,0,0,0,33.4,54.093a10.677,10.677,0,0,0,3.989,6.595l-1.423,6.458-3.25-4.014,1.258-1.406a1.384,1.384,0,0,0-2.063-1.845L30.277,61.7H25.815c-5.172-5.781-4.875-5.494-5.162-5.654a1.383,1.383,0,0,0-1.844.453A8.015,8.015,0,0,1,14.7,59.724L7.238,62.29A10.756,10.756,0,0,0,0,72.444v9.208a1.384,1.384,0,1,0,2.768,0V72.445A7.987,7.987,0,0,1,8.156,64.9s7.837-2.706,8.031-2.786l1.858,8.433a1.384,1.384,0,1,0,2.7-.6l-2.048-9.3a10.817,10.817,0,0,0,1.349-1.247l3.672,4.1L20.716,81.456a1.384,1.384,0,0,0,2.73.457l2.922-17.443h3.357l2.922,17.443a1.384,1.384,0,1,0,2.73-.457L33.13,68.046l2.49,3.076a1.385,1.385,0,0,0,2.427-.573l2.242-10.175a1.383,1.383,0,0,0-.724-1.53A7.942,7.942,0,0,1,36,52.2a1.385,1.385,0,0,0-1.925-1.284A15.751,15.751,0,0,1,12.31,36.356V27.611a12.874,12.874,0,0,0,8.94-5.588c5.168,6.526,14.268,7.639,22.544,6.47,0,7.605.005-8.943,0,7.884a15.715,15.715,0,0,1-3.973,10.441,1.384,1.384,0,0,0,2.069,1.838,18.482,18.482,0,0,0,4.655-11.6,5.719,5.719,0,0,0,4.346-5.539Z" transform="translate(0 -0.019)"/>
        <path id="Trazado_1085486" data-name="Trazado 1085486" d="M131.9,170.818V168.4a1.384,1.384,0,0,0-2.768,0v2.422a1.384,1.384,0,1,0,2.768,0Z" transform="translate(-106.791 -138.124)"/>
        <path id="Trazado_1085487" data-name="Trazado 1085487" d="M181.9,170.818V168.4a1.384,1.384,0,0,0-2.768,0v2.422a1.384,1.384,0,1,0,2.768,0Z" transform="translate(-148.142 -138.124)"/>
        <path id="Trazado_1085488" data-name="Trazado 1085488" d="M144,235.465a1.384,1.384,0,0,0-1.957-1.957,3.285,3.285,0,0,1-4.648,0,1.384,1.384,0,0,0-1.957,1.957A6.051,6.051,0,0,0,144,235.465Z" transform="translate(-111.677 -192.782)"/>
        <path id="Trazado_1085489" data-name="Trazado 1085489" d="M288.836,263.535l-.619-.091A16.376,16.376,0,0,0,285.068,258l.232-.585a4.193,4.193,0,0,0-1.791-5.148l-1.854-1.07a4.193,4.193,0,0,0-5.354,1.023l-.387.489a16.443,16.443,0,0,0-6.3,0l-.387-.489a4.194,4.194,0,0,0-5.354-1.023l-1.854,1.07a4.193,4.193,0,0,0-1.791,5.148l.232.585a16.376,16.376,0,0,0-3.149,5.449l-.619.091a4.193,4.193,0,0,0-3.563,4.125v2.14a4.194,4.194,0,0,0,3.563,4.125l.619.091a16.377,16.377,0,0,0,3.149,5.449l-.232.585a4.193,4.193,0,0,0,1.791,5.148l.6.346v3.405a1.384,1.384,0,1,0,2.768,0v-2.167a4.192,4.192,0,0,0,3.84-1.538l.926-1.17a1.384,1.384,0,0,0-2.17-1.718l-.926,1.17a1.41,1.41,0,0,1-1.8.344l-1.854-1.07a1.41,1.41,0,0,1-.6-1.731l.553-1.393a1.384,1.384,0,0,0-.3-1.477,13.584,13.584,0,0,1-3.351-5.8,1.384,1.384,0,0,0-1.131-1l-1.48-.218a1.41,1.41,0,0,1-1.2-1.387v-2.14a1.41,1.41,0,0,1,1.2-1.387l1.48-.218a1.384,1.384,0,0,0,1.131-1,13.582,13.582,0,0,1,3.351-5.8,1.384,1.384,0,0,0,.3-1.477l-.553-1.393a1.41,1.41,0,0,1,.6-1.731l1.854-1.07a1.41,1.41,0,0,1,1.8.344l.926,1.17a1.384,1.384,0,0,0,1.426.482,13.648,13.648,0,0,1,6.708,0,1.384,1.384,0,0,0,1.426-.482l.926-1.17a1.41,1.41,0,0,1,1.8-.344l1.854,1.07a1.41,1.41,0,0,1,.6,1.731l-.553,1.393a1.384,1.384,0,0,0,.3,1.477,13.582,13.582,0,0,1,3.351,5.8,1.384,1.384,0,0,0,1.131,1l1.48.218a1.41,1.41,0,0,1,1.2,1.387v2.14a1.41,1.41,0,0,1-1.2,1.387l-1.48.218a1.384,1.384,0,0,0-1.131,1,13.584,13.584,0,0,1-3.351,5.8,1.384,1.384,0,0,0-.3,1.477l.553,1.393a1.41,1.41,0,0,1-.6,1.731l-1.854,1.07a1.41,1.41,0,0,1-1.8-.344l-.926-1.17a1.384,1.384,0,1,0-2.17,1.718l.926,1.17a4.194,4.194,0,0,0,5.354,1.023l1.854-1.07a4.193,4.193,0,0,0,1.791-5.148l-.232-.585a16.377,16.377,0,0,0,3.149-5.449l.619-.091A4.194,4.194,0,0,0,292.4,269.8v-2.14a4.193,4.193,0,0,0-3.563-4.125Z" transform="translate(-209.342 -207.285)"/>
        <path id="Trazado_1085490" data-name="Trazado 1085490" d="M347,315.12c0-3.227-2.883-3.817-4.79-4.208-2.257-.462-2.578-.734-2.578-1.5,0-.695.945-1.469,2.3-1.469a2.654,2.654,0,0,1,2.076.862,1.384,1.384,0,1,0,2.2-1.673,5.041,5.041,0,0,0-2.9-1.8V304.4a1.384,1.384,0,0,0-2.768,0v.944a4.436,4.436,0,0,0-3.684,4.074c0,3.227,2.883,3.818,4.79,4.208,2.257.462,2.578.734,2.578,1.5,0,.695-.945,1.469-2.3,1.469a2.654,2.654,0,0,1-2.076-.862,1.384,1.384,0,0,0-2.2,1.673,5.041,5.041,0,0,0,2.9,1.8v.942a1.384,1.384,0,1,0,2.768,0v-.944A4.437,4.437,0,0,0,347,315.12Z" transform="translate(-278.591 -250.599)"/>
      </g>
    </g>
  </g>
</svg>
