<svg xmlns="http://www.w3.org/2000/svg" xmlns:xlink="http://www.w3.org/1999/xlink" width="304" height="191" viewBox="0 0 304 191">
  <defs>
    <clipPath id="clip-path">
      <rect id="Rectángulo_420400" data-name="Rectángulo 420400" width="304" height="191" transform="translate(312 7532)" fill="#fff" stroke="#707070" stroke-width="1" opacity="0.83"/>
    </clipPath>
  </defs>
  <g id="Enmascarar_grupo_1211475" data-name="Enmascarar grupo 1211475" transform="translate(-312 -7532)" clip-path="url(#clip-path)">
    <g id="Grupo_1220971" data-name="Grupo 1220971" transform="translate(-1324.889 65.293)">
      <path id="Trazado_1170308" data-name="Trazado 1170308" d="M120.693,163.552l61.242,61.323a44.6,44.6,0,0,0,49.341,9.386l97.872-42.549a44.6,44.6,0,0,0,18.242-67.2L328.824,99.08A44.6,44.6,0,0,0,271.1,86.409L244.86,101.022a44.6,44.6,0,0,1-36.17,3.221l-41.967-14.4a44.6,44.6,0,0,0-43.242,8.107h0A44.6,44.6,0,0,0,120.693,163.552Z" transform="translate(1557.722 7415.115)" fill="#97dfef"/>
      <g id="OBJECTS" transform="translate(1639.984 7490.783)">
        <g id="Grupo_1220970" data-name="Grupo 1220970" transform="translate(0 0)">
          <g id="Grupo_1220894" data-name="Grupo 1220894" transform="translate(0 112.065)">
            <g id="Grupo_1220891" data-name="Grupo 1220891" transform="translate(252.958)">
              <g id="Grupo_1220890" data-name="Grupo 1220890">
                <path id="Trazado_1170309" data-name="Trazado 1170309" d="M621.747,311.079a42.005,42.005,0,0,0-20.073,55.91h0a42,42,0,0,0,20.073-55.91Z" transform="translate(-597.651 -311.079)" fill="#709632"/>
              </g>
              <path id="Trazado_1170310" data-name="Trazado 1170310" d="M648.577,342.661a42,42,0,0,0-42,42h0a42.005,42.005,0,0,0,42-42Z" transform="translate(-602.429 -327.993)" fill="#9dc11e"/>
            </g>
            <g id="Grupo_1220893" data-name="Grupo 1220893">
              <g id="Grupo_1220892" data-name="Grupo 1220892" transform="translate(18.028)">
                <path id="Trazado_1170311" data-name="Trazado 1170311" d="M95.825,311.079a42.005,42.005,0,0,1,20.073,55.91h0a42,42,0,0,1-20.073-55.91Z" transform="translate(-91.802 -311.079)" fill="#709632"/>
              </g>
              <path id="Trazado_1170312" data-name="Trazado 1170312" d="M52.984,342.661a42,42,0,0,1,42,42h0a42,42,0,0,1-42-42Z" transform="translate(-52.984 -327.993)" fill="#9dc11e"/>
            </g>
          </g>
          <g id="Grupo_1220903" data-name="Grupo 1220903" transform="translate(201.118 121.289)">
            <g id="Grupo_1220895" data-name="Grupo 1220895" transform="translate(34.924 37.779)">
              <path id="Trazado_1170314" data-name="Trazado 1170314" d="M599.441,419.842h-23.2a1.473,1.473,0,0,1-1.473-1.473V413.76a1.473,1.473,0,0,1,1.473-1.473h23.2a1.473,1.473,0,0,1,1.473,1.473v4.609A1.473,1.473,0,0,1,599.441,419.842Z" transform="translate(-568.481 -412.287)" fill="#ff8b0d"/>
              <path id="Trazado_1170315" data-name="Trazado 1170315" d="M585.9,419.842H562.7a1.473,1.473,0,0,1-1.473-1.473V413.76a1.473,1.473,0,0,1,1.473-1.473h23.2a1.473,1.473,0,0,1,1.473,1.473v4.609A1.473,1.473,0,0,1,585.9,419.842Z" transform="translate(-561.227 -412.287)" fill="#ecb220"/>
              <path id="Trazado_1170316" data-name="Trazado 1170316" d="M573.316,419.842v-7.556H562.7a1.473,1.473,0,0,0-1.473,1.474v4.609a1.473,1.473,0,0,0,1.473,1.473Z" transform="translate(-561.227 -412.286)" fill="#ecb220"/>
              <rect id="Rectángulo_420310" data-name="Rectángulo 420310" width="2.682" height="7.556" transform="translate(13.544 0)" fill="#ffeea4"/>
              <rect id="Rectángulo_420311" data-name="Rectángulo 420311" width="1.417" height="7.556" transform="translate(17.643 0)" fill="#ffeea4"/>
            </g>
            <g id="Grupo_1220896" data-name="Grupo 1220896" transform="translate(0 37.779)">
              <path id="Trazado_1170317" data-name="Trazado 1170317" d="M524.243,419.842h-23.2a1.473,1.473,0,0,1-1.473-1.473V413.76a1.473,1.473,0,0,1,1.473-1.473h23.2a1.473,1.473,0,0,1,1.473,1.473v4.609A1.473,1.473,0,0,1,524.243,419.842Z" transform="translate(-493.283 -412.287)" fill="#ff8b0d"/>
              <path id="Trazado_1170318" data-name="Trazado 1170318" d="M510.7,419.842H487.5a1.473,1.473,0,0,1-1.474-1.473V413.76a1.473,1.473,0,0,1,1.474-1.473h23.2a1.473,1.473,0,0,1,1.473,1.473v4.609A1.473,1.473,0,0,1,510.7,419.842Z" transform="translate(-486.029 -412.287)" fill="#ecb220"/>
              <path id="Trazado_1170319" data-name="Trazado 1170319" d="M498.119,419.842v-7.556H487.5a1.474,1.474,0,0,0-1.474,1.474v4.609a1.473,1.473,0,0,0,1.474,1.473Z" transform="translate(-486.029 -412.286)" fill="#ecb220"/>
              <rect id="Rectángulo_420312" data-name="Rectángulo 420312" width="2.682" height="7.556" transform="translate(13.544 0)" fill="#ffeea4"/>
              <rect id="Rectángulo_420313" data-name="Rectángulo 420313" width="1.417" height="7.556" transform="translate(17.643 0)" fill="#ffeea4"/>
            </g>
            <g id="Grupo_1220897" data-name="Grupo 1220897" transform="translate(39.004 30.223)">
              <path id="Trazado_1170320" data-name="Trazado 1170320" d="M608.224,403.573h-23.2a1.473,1.473,0,0,1-1.473-1.473v-4.609a1.473,1.473,0,0,1,1.473-1.473h23.2a1.473,1.473,0,0,1,1.473,1.473V402.1A1.473,1.473,0,0,1,608.224,403.573Z" transform="translate(-577.265 -396.018)" fill="#ff8b0d"/>
              <path id="Trazado_1170321" data-name="Trazado 1170321" d="M594.681,403.573h-23.2a1.473,1.473,0,0,1-1.473-1.473v-4.609a1.473,1.473,0,0,1,1.473-1.473h23.2a1.473,1.473,0,0,1,1.473,1.473V402.1A1.473,1.473,0,0,1,594.681,403.573Z" transform="translate(-570.011 -396.018)" fill="#ecb220"/>
              <path id="Trazado_1170322" data-name="Trazado 1170322" d="M582.1,403.573v-7.556H571.484a1.473,1.473,0,0,0-1.473,1.473V402.1a1.473,1.473,0,0,0,1.473,1.473H582.1Z" transform="translate(-570.011 -396.017)" fill="#ecb220"/>
              <rect id="Rectángulo_420314" data-name="Rectángulo 420314" width="2.682" height="7.556" transform="translate(13.544)" fill="#ffeea4"/>
              <rect id="Rectángulo_420315" data-name="Rectángulo 420315" width="1.417" height="7.556" transform="translate(17.643)" fill="#ffeea4"/>
            </g>
            <g id="Grupo_1220898" data-name="Grupo 1220898" transform="translate(8.934 30.223)">
              <path id="Trazado_1170323" data-name="Trazado 1170323" d="M543.479,403.573h-23.2a1.473,1.473,0,0,1-1.473-1.473v-4.609a1.473,1.473,0,0,1,1.473-1.473h23.2a1.473,1.473,0,0,1,1.473,1.473V402.1A1.473,1.473,0,0,1,543.479,403.573Z" transform="translate(-512.52 -396.018)" fill="#ff8b0d"/>
              <path id="Trazado_1170324" data-name="Trazado 1170324" d="M529.935,403.573h-23.2a1.473,1.473,0,0,1-1.473-1.473v-4.609a1.473,1.473,0,0,1,1.473-1.473h23.2a1.473,1.473,0,0,1,1.473,1.473V402.1A1.473,1.473,0,0,1,529.935,403.573Z" transform="translate(-505.266 -396.018)" fill="#ecb220"/>
              <path id="Trazado_1170325" data-name="Trazado 1170325" d="M517.355,403.573v-7.556H506.739a1.473,1.473,0,0,0-1.473,1.473V402.1a1.473,1.473,0,0,0,1.473,1.473h10.616Z" transform="translate(-505.266 -396.017)" fill="#ecb220"/>
              <rect id="Rectángulo_420316" data-name="Rectángulo 420316" width="2.682" height="7.556" transform="translate(13.544)" fill="#ffeea4"/>
              <rect id="Rectángulo_420317" data-name="Rectángulo 420317" width="1.417" height="7.556" transform="translate(17.643)" fill="#ffeea4"/>
            </g>
            <g id="Grupo_1220899" data-name="Grupo 1220899" transform="translate(34.924 22.667)">
              <path id="Trazado_1170326" data-name="Trazado 1170326" d="M599.441,387.3h-23.2a1.473,1.473,0,0,1-1.473-1.474v-4.609a1.473,1.473,0,0,1,1.473-1.473h23.2a1.473,1.473,0,0,1,1.473,1.473v4.609A1.473,1.473,0,0,1,599.441,387.3Z" transform="translate(-568.481 -379.748)" fill="#ff8b0d"/>
              <path id="Trazado_1170327" data-name="Trazado 1170327" d="M585.9,387.3H562.7a1.473,1.473,0,0,1-1.473-1.474v-4.609a1.473,1.473,0,0,1,1.473-1.473h23.2a1.473,1.473,0,0,1,1.473,1.473v4.609A1.473,1.473,0,0,1,585.9,387.3Z" transform="translate(-561.227 -379.748)" fill="#ecb220"/>
              <path id="Trazado_1170328" data-name="Trazado 1170328" d="M573.316,387.3v-7.556H562.7a1.473,1.473,0,0,0-1.473,1.473v4.609A1.473,1.473,0,0,0,562.7,387.3Z" transform="translate(-561.227 -379.748)" fill="#ecb220"/>
              <rect id="Rectángulo_420318" data-name="Rectángulo 420318" width="2.682" height="7.556" transform="translate(13.544)" fill="#ffeea4"/>
              <rect id="Rectángulo_420319" data-name="Rectángulo 420319" width="1.417" height="7.556" transform="translate(17.643)" fill="#ffeea4"/>
            </g>
            <g id="Grupo_1220900" data-name="Grupo 1220900" transform="translate(39.004 15.112)">
              <path id="Trazado_1170329" data-name="Trazado 1170329" d="M608.224,371.035h-23.2a1.473,1.473,0,0,1-1.473-1.473v-4.609a1.473,1.473,0,0,1,1.473-1.473h23.2a1.473,1.473,0,0,1,1.473,1.473v4.609A1.473,1.473,0,0,1,608.224,371.035Z" transform="translate(-577.265 -363.48)" fill="#ff8b0d"/>
              <path id="Trazado_1170330" data-name="Trazado 1170330" d="M594.681,371.035h-23.2a1.473,1.473,0,0,1-1.473-1.473v-4.609a1.473,1.473,0,0,1,1.473-1.473h23.2a1.473,1.473,0,0,1,1.473,1.473v4.609A1.473,1.473,0,0,1,594.681,371.035Z" transform="translate(-570.011 -363.48)" fill="#ecb220"/>
              <path id="Trazado_1170331" data-name="Trazado 1170331" d="M582.1,371.035v-7.556H571.484a1.473,1.473,0,0,0-1.473,1.474v4.609a1.473,1.473,0,0,0,1.473,1.473Z" transform="translate(-570.011 -363.479)" fill="#ecb220"/>
              <rect id="Rectángulo_420320" data-name="Rectángulo 420320" width="2.682" height="7.556" transform="translate(13.544 0)" fill="#ffeea4"/>
              <rect id="Rectángulo_420321" data-name="Rectángulo 420321" width="1.417" height="7.556" transform="translate(17.643 0)" fill="#ffeea4"/>
            </g>
            <g id="Grupo_1220901" data-name="Grupo 1220901" transform="translate(34.924 7.556)">
              <path id="Trazado_1170332" data-name="Trazado 1170332" d="M599.441,354.766h-23.2a1.473,1.473,0,0,1-1.473-1.473v-4.609a1.473,1.473,0,0,1,1.473-1.473h23.2a1.473,1.473,0,0,1,1.473,1.473v4.609A1.473,1.473,0,0,1,599.441,354.766Z" transform="translate(-568.481 -347.211)" fill="#ff8b0d"/>
              <path id="Trazado_1170333" data-name="Trazado 1170333" d="M585.9,354.766H562.7a1.473,1.473,0,0,1-1.473-1.473v-4.609a1.473,1.473,0,0,1,1.473-1.473h23.2a1.473,1.473,0,0,1,1.473,1.473v4.609A1.473,1.473,0,0,1,585.9,354.766Z" transform="translate(-561.227 -347.211)" fill="#ecb220"/>
              <path id="Trazado_1170334" data-name="Trazado 1170334" d="M573.316,354.766V347.21H562.7a1.473,1.473,0,0,0-1.473,1.473v4.609a1.473,1.473,0,0,0,1.473,1.473h10.616Z" transform="translate(-561.227 -347.21)" fill="#ecb220"/>
              <rect id="Rectángulo_420322" data-name="Rectángulo 420322" width="2.682" height="7.556" transform="translate(13.544)" fill="#ffeea4"/>
              <rect id="Rectángulo_420323" data-name="Rectángulo 420323" width="1.417" height="7.556" transform="translate(17.643)" fill="#ffeea4"/>
            </g>
            <g id="Grupo_1220902" data-name="Grupo 1220902" transform="translate(39.004)">
              <path id="Trazado_1170335" data-name="Trazado 1170335" d="M608.224,338.5h-23.2a1.473,1.473,0,0,1-1.473-1.473v-4.609a1.473,1.473,0,0,1,1.473-1.473h23.2a1.473,1.473,0,0,1,1.473,1.473v4.609A1.473,1.473,0,0,1,608.224,338.5Z" transform="translate(-577.265 -330.942)" fill="#ff8b0d"/>
              <path id="Trazado_1170336" data-name="Trazado 1170336" d="M594.681,338.5h-23.2a1.473,1.473,0,0,1-1.473-1.473v-4.609a1.473,1.473,0,0,1,1.473-1.473h23.2a1.473,1.473,0,0,1,1.473,1.473v4.609A1.473,1.473,0,0,1,594.681,338.5Z" transform="translate(-570.011 -330.942)" fill="#ecb220"/>
              <path id="Trazado_1170337" data-name="Trazado 1170337" d="M582.1,338.5v-7.556H571.484a1.473,1.473,0,0,0-1.473,1.474v4.609a1.473,1.473,0,0,0,1.473,1.473Z" transform="translate(-570.011 -330.941)" fill="#ecb220"/>
              <rect id="Rectángulo_420324" data-name="Rectángulo 420324" width="2.682" height="7.556" transform="translate(13.544 0)" fill="#ffeea4"/>
              <rect id="Rectángulo_420325" data-name="Rectángulo 420325" width="1.417" height="7.556" transform="translate(17.643 0)" fill="#ffeea4"/>
            </g>
          </g>
          <g id="Grupo_1220912" data-name="Grupo 1220912" transform="translate(65.505 2.958)">
            <path id="Trazado_1170338" data-name="Trazado 1170338" d="M208.678,210.927c-14.986-26.46-17.664-46.483-11.7-58.76" transform="translate(-194.028 -116.864)" fill="none" stroke="#ecb220" stroke-miterlimit="10" stroke-width="11"/>
            <g id="Grupo_1220910" data-name="Grupo 1220910" transform="translate(3.24)">
              <circle id="Elipse_14425" data-name="Elipse 14425" cx="80.74" cy="80.74" r="80.74" transform="translate(0.068)" fill="#0e5ea0"/>
              <ellipse id="Elipse_14426" data-name="Elipse 14426" cx="65.856" cy="53.866" rx="65.856" ry="53.866" transform="translate(14.952 3.089)" fill="#1c77b5"/>
              <path id="Trazado_1170339" data-name="Trazado 1170339" d="M478.544,243.911c-12.725-11.846-17.211-5.634-19.6-2.331-2.945,4.079,4.7,14.959-10.131,8.236s-36.023,13.752-30.243,35.071c5.194,19.16,18.833,18.026,23.341,25.774A80.665,80.665,0,0,0,478.544,243.911Z" transform="translate(-317.008 -162.285)" fill="#98d3e5"/>
              <path id="Trazado_1170340" data-name="Trazado 1170340" d="M203.361,145.7c16.257,30.554,16.45,5.611,15.943-.154-.511-5.806,2.459-14.481,17.762-9.593s46.953-12.566,43.375-37.415c-1.534-10.653-6.968-16.286-12.676-19.249A80.807,80.807,0,0,0,203.361,145.7Z" transform="translate(-202.267 -77.83)" fill="#98d3e5"/>
              <g id="Grupo_1220906" data-name="Grupo 1220906" transform="translate(9.645 0)">
                <line id="Línea_646" data-name="Línea 646" y2="161.48" transform="translate(71.163)" fill="none" stroke="#c0f3ff" stroke-miterlimit="10" stroke-width="1"/>
                <g id="Grupo_1220904" data-name="Grupo 1220904" transform="translate(0 3.956)">
                  <path id="Trazado_1170341" data-name="Trazado 1170341" d="M301.446,84.671a232.843,232.843,0,0,0,0,153.44" transform="translate(-257.48 -84.671)" fill="none" stroke="#c0f3ff" stroke-miterlimit="10" stroke-width="1"/>
                  <path id="Trazado_1170342" data-name="Trazado 1170342" d="M236.556,125.573a119.3,119.3,0,0,0,0,115.044" transform="translate(-221.773 -106.577)" fill="none" stroke="#c0f3ff" stroke-miterlimit="10" stroke-width="1"/>
                </g>
                <g id="Grupo_1220905" data-name="Grupo 1220905" transform="translate(98.224 3.956)">
                  <path id="Trazado_1170343" data-name="Trazado 1170343" d="M433.267,84.671a232.844,232.844,0,0,1,0,153.44" transform="translate(-433.267 -84.671)" fill="none" stroke="#c0f3ff" stroke-miterlimit="10" stroke-width="1"/>
                  <path id="Trazado_1170344" data-name="Trazado 1170344" d="M496.1,125.573a119.3,119.3,0,0,1,0,115.044" transform="translate(-466.92 -106.577)" fill="none" stroke="#c0f3ff" stroke-miterlimit="10" stroke-width="1"/>
                </g>
              </g>
              <g id="Grupo_1220909" data-name="Grupo 1220909" transform="translate(0 11.993)">
                <line id="Línea_647" data-name="Línea 647" x1="161.48" transform="translate(0 68.815)" fill="none" stroke="#c0f3ff" stroke-miterlimit="10" stroke-width="1"/>
                <g id="Grupo_1220907" data-name="Grupo 1220907" transform="translate(4.083)">
                  <path id="Trazado_1170345" data-name="Trazado 1170345" d="M363.237,176.592a232.843,232.843,0,0,0-153.44,0" transform="translate(-209.797 -134.974)" fill="none" stroke="#c0f3ff" stroke-miterlimit="10" stroke-width="1"/>
                  <path id="Trazado_1170346" data-name="Trazado 1170346" d="M366.09,117.636a126.379,126.379,0,0,0-121.872,0" transform="translate(-228.232 -101.975)" fill="none" stroke="#c0f3ff" stroke-miterlimit="10" stroke-width="1"/>
                </g>
                <g id="Grupo_1220908" data-name="Grupo 1220908" transform="translate(4.083 95.876)">
                  <path id="Trazado_1170347" data-name="Trazado 1170347" d="M363.237,308.414a232.844,232.844,0,0,1-153.44,0" transform="translate(-209.797 -308.414)" fill="none" stroke="#c0f3ff" stroke-miterlimit="10" stroke-width="1"/>
                  <path id="Trazado_1170348" data-name="Trazado 1170348" d="M366.073,364.275a126.6,126.6,0,0,1-122.079,0" transform="translate(-228.112 -338.332)" fill="none" stroke="#c0f3ff" stroke-miterlimit="10" stroke-width="1"/>
                </g>
              </g>
            </g>
            <path id="Trazado_1170349" data-name="Trazado 1170349" d="M200.386,136.019c13.337-27.445,69.868-16.187,128.65,48.381" transform="translate(-197.433 -100.715)" fill="none" stroke="#ecb220" stroke-miterlimit="10" stroke-width="11"/>
            <path id="Trazado_1170350" data-name="Trazado 1170350" d="M468.183,248.544l-20.917-4.4,16.513-16.513Z" transform="translate(-329.655 -157.278)" fill="#ecb220"/>
            <g id="Grupo_1220911" data-name="Grupo 1220911" transform="translate(139.348 88.509)">
              <path id="Trazado_1170351" data-name="Trazado 1170351" d="M508.239,273.812a7.084,7.084,0,1,0-14.169,0c0,3.912,7.084,13.621,7.084,13.621h2.5v-3.682C505.7,280.58,508.239,276.156,508.239,273.812Zm-10.882.5a3.83,3.83,0,1,1,3.3,3.3A3.832,3.832,0,0,1,497.357,274.31Z" transform="translate(-494.07 -266.728)" fill="#ad1e58"/>
              <path id="Trazado_1170352" data-name="Trazado 1170352" d="M513.628,273.812a7.084,7.084,0,1,0-14.169,0c0,3.912,7.084,13.621,7.084,13.621S513.628,277.725,513.628,273.812Zm-10.882.5a3.83,3.83,0,1,1,3.3,3.3A3.832,3.832,0,0,1,502.746,274.31Z" transform="translate(-496.956 -266.728)" fill="#e71c2e"/>
            </g>
            <circle id="Elipse_14427" data-name="Elipse 14427" cx="1.892" cy="1.892" r="1.892" transform="translate(145.791 111.534)" fill="#1c77b5"/>
          </g>
          <g id="Grupo_1220925" data-name="Grupo 1220925" transform="translate(72.271 107.406)">
            <g id="Grupo_1220916" data-name="Grupo 1220916" transform="translate(0 29.609)">
              <g id="Grupo_1220915" data-name="Grupo 1220915">
                <rect id="Rectángulo_420326" data-name="Rectángulo 420326" width="42.118" height="29.609" transform="translate(2.735)" fill="#e8a060"/>
                <rect id="Rectángulo_420327" data-name="Rectángulo 420327" width="16.035" height="29.609" fill="#ad7b55"/>
                <rect id="Rectángulo_420328" data-name="Rectángulo 420328" width="0.369" height="29.609" transform="translate(7.318)" fill="#936b50"/>
                <rect id="Rectángulo_420329" data-name="Rectángulo 420329" width="5.058" height="11.505" transform="translate(4.973)" fill="#edc09f"/>
                <g id="Grupo_1220914" data-name="Grupo 1220914" transform="translate(31.829 1.821)">
                  <rect id="Rectángulo_420330" data-name="Rectángulo 420330" width="10.986" height="4.829" fill="#fff"/>
                  <g id="Grupo_1220913" data-name="Grupo 1220913" transform="translate(0.73 0.535)">
                    <rect id="Rectángulo_420331" data-name="Rectángulo 420331" width="0.233" height="3.758" fill="#626d7f"/>
                    <rect id="Rectángulo_420332" data-name="Rectángulo 420332" width="0.233" height="3.758" transform="translate(1.821)" fill="#626d7f"/>
                    <rect id="Rectángulo_420333" data-name="Rectángulo 420333" width="0.42" height="3.758" transform="translate(2.361)" fill="#626d7f"/>
                    <rect id="Rectángulo_420334" data-name="Rectángulo 420334" width="0.098" height="3.758" transform="translate(0.434)" fill="#626d7f"/>
                    <rect id="Rectángulo_420335" data-name="Rectángulo 420335" width="0.098" height="3.758" transform="translate(0.658)" fill="#626d7f"/>
                    <rect id="Rectángulo_420336" data-name="Rectángulo 420336" width="0.098" height="3.758" transform="translate(0.882)" fill="#626d7f"/>
                    <rect id="Rectángulo_420337" data-name="Rectángulo 420337" width="0.098" height="3.758" transform="translate(1.106)" fill="#626d7f"/>
                    <rect id="Rectángulo_420338" data-name="Rectángulo 420338" width="0.098" height="3.758" transform="translate(1.33)" fill="#626d7f"/>
                    <rect id="Rectángulo_420339" data-name="Rectángulo 420339" width="0.234" height="3.758" transform="translate(3.063)" fill="#626d7f"/>
                    <rect id="Rectángulo_420340" data-name="Rectángulo 420340" width="0.098" height="3.758" transform="translate(3.497)" fill="#626d7f"/>
                    <rect id="Rectángulo_420341" data-name="Rectángulo 420341" width="0.098" height="3.758" transform="translate(3.721)" fill="#626d7f"/>
                    <rect id="Rectángulo_420342" data-name="Rectángulo 420342" width="0.098" height="3.758" transform="translate(3.944)" fill="#626d7f"/>
                    <rect id="Rectángulo_420343" data-name="Rectángulo 420343" width="0.098" height="3.758" transform="translate(4.168)" fill="#626d7f"/>
                    <rect id="Rectángulo_420344" data-name="Rectángulo 420344" width="0.098" height="3.758" transform="translate(4.392)" fill="#626d7f"/>
                  </g>
                  <rect id="Rectángulo_420345" data-name="Rectángulo 420345" width="4.233" height="1.289" transform="translate(6.335 0.54)" fill="#626d7f"/>
                  <rect id="Rectángulo_420346" data-name="Rectángulo 420346" width="3.772" height="0.624" transform="translate(6.335 2.069)" fill="#626d7f"/>
                  <rect id="Rectángulo_420347" data-name="Rectángulo 420347" width="3.772" height="0.326" transform="translate(6.335 2.856)" fill="#626d7f"/>
                  <rect id="Rectángulo_420348" data-name="Rectángulo 420348" width="3.772" height="0.326" transform="translate(6.335 3.357)" fill="#626d7f"/>
                  <rect id="Rectángulo_420349" data-name="Rectángulo 420349" width="3.772" height="0.326" transform="translate(6.335 3.85)" fill="#626d7f"/>
                </g>
              </g>
            </g>
            <g id="Grupo_1220920" data-name="Grupo 1220920" transform="translate(24.783 29.609)">
              <g id="Grupo_1220919" data-name="Grupo 1220919">
                <rect id="Rectángulo_420350" data-name="Rectángulo 420350" width="42.118" height="29.609" transform="translate(2.735)" fill="#e8a060"/>
                <rect id="Rectángulo_420351" data-name="Rectángulo 420351" width="16.035" height="29.609" fill="#ad7b55"/>
                <rect id="Rectángulo_420352" data-name="Rectángulo 420352" width="0.369" height="29.609" transform="translate(7.318)" fill="#936b50"/>
                <rect id="Rectángulo_420353" data-name="Rectángulo 420353" width="5.058" height="11.505" transform="translate(4.974)" fill="#edc09f"/>
                <g id="Grupo_1220918" data-name="Grupo 1220918" transform="translate(31.829 1.821)">
                  <rect id="Rectángulo_420354" data-name="Rectángulo 420354" width="10.986" height="4.829" fill="#fff"/>
                  <g id="Grupo_1220917" data-name="Grupo 1220917" transform="translate(0.73 0.535)">
                    <rect id="Rectángulo_420355" data-name="Rectángulo 420355" width="0.233" height="3.758" fill="#626d7f"/>
                    <rect id="Rectángulo_420356" data-name="Rectángulo 420356" width="0.233" height="3.758" transform="translate(1.821)" fill="#626d7f"/>
                    <rect id="Rectángulo_420357" data-name="Rectángulo 420357" width="0.42" height="3.758" transform="translate(2.36)" fill="#626d7f"/>
                    <rect id="Rectángulo_420358" data-name="Rectángulo 420358" width="0.098" height="3.758" transform="translate(0.434)" fill="#626d7f"/>
                    <rect id="Rectángulo_420359" data-name="Rectángulo 420359" width="0.098" height="3.758" transform="translate(0.658)" fill="#626d7f"/>
                    <rect id="Rectángulo_420360" data-name="Rectángulo 420360" width="0.098" height="3.758" transform="translate(0.881)" fill="#626d7f"/>
                    <rect id="Rectángulo_420361" data-name="Rectángulo 420361" width="0.098" height="3.758" transform="translate(1.105)" fill="#626d7f"/>
                    <rect id="Rectángulo_420362" data-name="Rectángulo 420362" width="0.098" height="3.758" transform="translate(1.329)" fill="#626d7f"/>
                    <rect id="Rectángulo_420363" data-name="Rectángulo 420363" width="0.234" height="3.758" transform="translate(3.062)" fill="#626d7f"/>
                    <rect id="Rectángulo_420364" data-name="Rectángulo 420364" width="0.098" height="3.758" transform="translate(3.497)" fill="#626d7f"/>
                    <rect id="Rectángulo_420365" data-name="Rectángulo 420365" width="0.098" height="3.758" transform="translate(3.721)" fill="#626d7f"/>
                    <rect id="Rectángulo_420366" data-name="Rectángulo 420366" width="0.098" height="3.758" transform="translate(3.944)" fill="#626d7f"/>
                    <rect id="Rectángulo_420367" data-name="Rectángulo 420367" width="0.098" height="3.758" transform="translate(4.168)" fill="#626d7f"/>
                    <rect id="Rectángulo_420368" data-name="Rectángulo 420368" width="0.098" height="3.758" transform="translate(4.392)" fill="#626d7f"/>
                  </g>
                  <rect id="Rectángulo_420369" data-name="Rectángulo 420369" width="4.233" height="1.289" transform="translate(6.335 0.54)" fill="#626d7f"/>
                  <rect id="Rectángulo_420370" data-name="Rectángulo 420370" width="3.772" height="0.624" transform="translate(6.335 2.069)" fill="#626d7f"/>
                  <rect id="Rectángulo_420371" data-name="Rectángulo 420371" width="3.772" height="0.326" transform="translate(6.335 2.856)" fill="#626d7f"/>
                  <rect id="Rectángulo_420372" data-name="Rectángulo 420372" width="3.772" height="0.326" transform="translate(6.335 3.357)" fill="#626d7f"/>
                  <rect id="Rectángulo_420373" data-name="Rectángulo 420373" width="3.772" height="0.326" transform="translate(6.335 3.85)" fill="#626d7f"/>
                </g>
              </g>
            </g>
            <g id="Grupo_1220924" data-name="Grupo 1220924" transform="translate(2.357)">
              <g id="Grupo_1220923" data-name="Grupo 1220923">
                <rect id="Rectángulo_420374" data-name="Rectángulo 420374" width="42.118" height="29.609" transform="translate(2.735)" fill="#e8a060"/>
                <rect id="Rectángulo_420375" data-name="Rectángulo 420375" width="16.035" height="29.609" fill="#ad7b55"/>
                <rect id="Rectángulo_420376" data-name="Rectángulo 420376" width="0.369" height="29.609" transform="translate(7.318)" fill="#936b50"/>
                <rect id="Rectángulo_420377" data-name="Rectángulo 420377" width="5.058" height="11.505" transform="translate(4.974)" fill="#edc09f"/>
                <g id="Grupo_1220922" data-name="Grupo 1220922" transform="translate(31.829 1.821)">
                  <rect id="Rectángulo_420378" data-name="Rectángulo 420378" width="10.986" height="4.829" fill="#fff"/>
                  <g id="Grupo_1220921" data-name="Grupo 1220921" transform="translate(0.73 0.535)">
                    <rect id="Rectángulo_420379" data-name="Rectángulo 420379" width="0.233" height="3.758" fill="#626d7f"/>
                    <rect id="Rectángulo_420380" data-name="Rectángulo 420380" width="0.233" height="3.758" transform="translate(1.821)" fill="#626d7f"/>
                    <rect id="Rectángulo_420381" data-name="Rectángulo 420381" width="0.42" height="3.758" transform="translate(2.361)" fill="#626d7f"/>
                    <rect id="Rectángulo_420382" data-name="Rectángulo 420382" width="0.098" height="3.758" transform="translate(0.434)" fill="#626d7f"/>
                    <rect id="Rectángulo_420383" data-name="Rectángulo 420383" width="0.098" height="3.758" transform="translate(0.658)" fill="#626d7f"/>
                    <rect id="Rectángulo_420384" data-name="Rectángulo 420384" width="0.098" height="3.758" transform="translate(0.882)" fill="#626d7f"/>
                    <rect id="Rectángulo_420385" data-name="Rectángulo 420385" width="0.098" height="3.758" transform="translate(1.106)" fill="#626d7f"/>
                    <rect id="Rectángulo_420386" data-name="Rectángulo 420386" width="0.098" height="3.758" transform="translate(1.33)" fill="#626d7f"/>
                    <rect id="Rectángulo_420387" data-name="Rectángulo 420387" width="0.234" height="3.758" transform="translate(3.063)" fill="#626d7f"/>
                    <rect id="Rectángulo_420388" data-name="Rectángulo 420388" width="0.098" height="3.758" transform="translate(3.497)" fill="#626d7f"/>
                    <rect id="Rectángulo_420389" data-name="Rectángulo 420389" width="0.098" height="3.758" transform="translate(3.721)" fill="#626d7f"/>
                    <rect id="Rectángulo_420390" data-name="Rectángulo 420390" width="0.098" height="3.758" transform="translate(3.944)" fill="#626d7f"/>
                    <rect id="Rectángulo_420391" data-name="Rectángulo 420391" width="0.098" height="3.758" transform="translate(4.168)" fill="#626d7f"/>
                    <rect id="Rectángulo_420392" data-name="Rectángulo 420392" width="0.098" height="3.758" transform="translate(4.392)" fill="#626d7f"/>
                  </g>
                  <rect id="Rectángulo_420393" data-name="Rectángulo 420393" width="4.233" height="1.289" transform="translate(6.335 0.54)" fill="#626d7f"/>
                  <rect id="Rectángulo_420394" data-name="Rectángulo 420394" width="3.772" height="0.624" transform="translate(6.335 2.069)" fill="#626d7f"/>
                  <rect id="Rectángulo_420395" data-name="Rectángulo 420395" width="3.772" height="0.326" transform="translate(6.335 2.856)" fill="#626d7f"/>
                  <rect id="Rectángulo_420396" data-name="Rectángulo 420396" width="3.772" height="0.326" transform="translate(6.335 3.357)" fill="#626d7f"/>
                  <rect id="Rectángulo_420397" data-name="Rectángulo 420397" width="3.772" height="0.326" transform="translate(6.335 3.85)" fill="#626d7f"/>
                </g>
              </g>
            </g>
          </g>
          <g id="Grupo_1220950" data-name="Grupo 1220950" transform="translate(186.103)">
            <path id="Trazado_1170353" data-name="Trazado 1170353" d="M526.608,156.923c-11.48,12.247-26.257,11.516-40.548-6.905" transform="translate(-471.03 -112.755)" fill="none" stroke="#841849" stroke-linecap="round" stroke-miterlimit="10" stroke-width="13"/>
            <g id="Grupo_1220927" data-name="Grupo 1220927" transform="translate(4.826 28.594)">
              <path id="Trazado_1170354" data-name="Trazado 1170354" d="M476.9,141.561c3.438-1.817-.061-6.26-.061-6.26v-3.95s-3.518.153-2.751,3.6c0,0-3.739-3.293-5.888-3.074-1.009.1-3.593,3.075-4.09,5.131a.793.793,0,0,0,.606.963,7.363,7.363,0,0,1,4.413,2.7C470.956,143.2,474.745,145.545,476.9,141.561Z" transform="translate(-464.09 -131.351)" fill="#a56f62"/>
              <path id="Trazado_1170355" data-name="Trazado 1170355" d="M484.447,139.1a4.043,4.043,0,0,0-.341,4.949s-1.055-2.818.509-4.8Z" transform="translate(-474.446 -135.501)" fill="#8c5c53"/>
              <path id="Trazado_1170356" data-name="Trazado 1170356" d="M478.048,144.41a9.777,9.777,0,0,1,2.231-3.944S477.8,140.975,478.048,144.41Z" transform="translate(-471.556 -136.233)" fill="#8c5c53"/>
              <g id="Grupo_1220926" data-name="Grupo 1220926" transform="translate(0.097 1.601)">
                <path id="Trazado_1170357" data-name="Trazado 1170357" d="M470.94,144.652l.028-.189s-3.317-2.2-6.608-1.927c-.022.063-.043.125-.062.186A12.852,12.852,0,0,1,470.94,144.652Z" transform="translate(-464.298 -138.93)" fill="#8c5c53"/>
                <path id="Trazado_1170358" data-name="Trazado 1170358" d="M473.106,138.112l.242-.192s-2.514-3.085-5.519-3.121a12.449,12.449,0,0,0-1.528,1.914,9.606,9.606,0,0,1,6.058,2.551l.147-.186s-2.518-3.113-5.9-2.7l1-1.351A8.015,8.015,0,0,1,473.106,138.112Z" transform="translate(-465.371 -134.799)" fill="#8c5c53"/>
              </g>
            </g>
            <g id="Grupo_1220932" data-name="Grupo 1220932" transform="translate(43.529 73.864)">
              <g id="Grupo_1220929" data-name="Grupo 1220929" transform="translate(0 13.382)">
                <line id="Línea_648" data-name="Línea 648" y2="79.282" transform="translate(12.805)" fill="none" stroke="#252538" stroke-miterlimit="10" stroke-width="15"/>
                <g id="Grupo_1220928" data-name="Grupo 1220928" transform="translate(0 66.893)">
                  <path id="Trazado_1170359" data-name="Trazado 1170359" d="M555.369,401.755l.045,5.129s-6.4.091-7.99,7.274l17.6-.015-.281-12.47Z" transform="translate(-547.424 -401.673)" fill="#841849"/>
                  <path id="Trazado_1170360" data-name="Trazado 1170360" d="M574.581,411.207a1.612,1.612,0,1,0,1.6-1.985A1.832,1.832,0,0,0,574.581,411.207Z" transform="translate(-561.969 -405.716)" fill="#fff"/>
                </g>
              </g>
              <path id="Trazado_1170361" data-name="Trazado 1170361" d="M569.75,228.825H576.4a8.943,8.943,0,0,1,8.917,8.917h0a8.943,8.943,0,0,1-8.917,8.917H569.75a8.943,8.943,0,0,1-8.917-8.917h0A8.943,8.943,0,0,1,569.75,228.825Z" transform="translate(-554.606 -228.825)" fill="#252538"/>
              <g id="Grupo_1220931" data-name="Grupo 1220931" transform="translate(10.887 13.382)">
                <line id="Línea_649" data-name="Línea 649" y2="79.282" transform="translate(12.805)" fill="none" stroke="#252538" stroke-miterlimit="10" stroke-width="15"/>
                <g id="Grupo_1220930" data-name="Grupo 1220930" transform="translate(0 66.893)">
                  <path id="Trazado_1170362" data-name="Trazado 1170362" d="M578.81,401.755l.045,5.129s-6.4.091-7.99,7.274l17.6-.015-.281-12.47Z" transform="translate(-570.865 -401.673)" fill="#e71c2e"/>
                  <path id="Trazado_1170363" data-name="Trazado 1170363" d="M598.023,411.207a1.612,1.612,0,1,0,1.6-1.985A1.832,1.832,0,0,0,598.023,411.207Z" transform="translate(-585.41 -405.716)" fill="#fff"/>
                </g>
              </g>
            </g>
            <g id="Grupo_1220943" data-name="Grupo 1220943" transform="translate(43.257)">
              <g id="Grupo_1220934" data-name="Grupo 1220934" transform="translate(6.482 39.7)">
                <g id="Grupo_1220933" data-name="Grupo 1220933">
                  <path id="Trazado_1170364" data-name="Trazado 1170364" d="M560.8,195.757h24.146V162.186a6.922,6.922,0,0,0-6.922-6.922h-8.3a8.924,8.924,0,0,0-8.924,8.924v31.569Z" transform="translate(-560.795 -155.264)" fill="#e71c2e"/>
                </g>
                <path id="Trazado_1170365" data-name="Trazado 1170365" d="M566.48,219.264h18.344L583.152,206h-15Z" transform="translate(-563.84 -182.439)" fill="#841849"/>
                <path id="Trazado_1170366" data-name="Trazado 1170366" d="M583.866,159.2c.35,1.986-2.058,4.07-5.379,4.655s-6.295-.552-6.645-2.538,2.058-4.07,5.379-4.655S583.517,157.215,583.866,159.2Z" transform="translate(-566.694 -155.931)" fill="#a56f62"/>
              </g>
              <g id="Grupo_1220942" data-name="Grupo 1220942">
                <g id="Grupo_1220935" data-name="Grupo 1220935">
                  <path id="Trazado_1170367" data-name="Trazado 1170367" d="M565.127,69.783c.87,0,1.66.986,2.5,1.105.858.122,1.892-.6,2.706-.362s1.308,1.412,2.083,1.766,1.98-.042,2.7.42.853,1.722,1.5,2.282,1.91.514,2.471,1.161.334,1.888.8,2.611,1.687,1.025,2.045,1.808-.213,1.9.03,2.73,1.327,1.456,1.449,2.314c.119.837-.743,1.758-.743,2.628s.862,1.791.743,2.628c-.122.858-1.21,1.5-1.449,2.314s.324,1.956-.03,2.73-1.583,1.09-2.046,1.808-.239,1.965-.8,2.611-1.824.6-2.471,1.161-.777,1.817-1.5,2.282-1.915.062-2.7.42-1.254,1.523-2.082,1.766-1.848-.484-2.706-.362c-.837.119-1.627,1.105-2.5,1.105s-1.66-.986-2.5-1.105c-.858-.122-1.892.6-2.706.362s-1.308-1.412-2.083-1.766-1.98.042-2.7-.42-.853-1.722-1.5-2.282-1.91-.513-2.471-1.161-.334-1.888-.8-2.611-1.687-1.025-2.045-1.808.213-1.9-.03-2.73-1.327-1.456-1.449-2.314c-.12-.837.743-1.758.743-2.628s-.863-1.791-.743-2.628c.122-.858,1.21-1.5,1.449-2.314s-.324-1.956.03-2.73,1.583-1.091,2.046-1.808.239-1.965.8-2.611,1.824-.6,2.471-1.161.777-1.817,1.5-2.282,1.915-.062,2.7-.42,1.254-1.523,2.082-1.766,1.848.484,2.706.362C563.467,70.769,564.257,69.783,565.127,69.783Z" transform="translate(-546.839 -69.783)" fill="#252538"/>
                </g>
                <g id="Grupo_1220941" data-name="Grupo 1220941" transform="translate(5.411 10.694)">
                  <path id="Trazado_1170368" data-name="Trazado 1170368" d="M562.859,105.8h21.007v-2.558A10.107,10.107,0,0,0,573.76,93.138h-.794a10.107,10.107,0,0,0-10.107,10.107Z" transform="translate(-560.83 -92.985)" fill="#252538"/>
                  <path id="Trazado_1170369" data-name="Trazado 1170369" d="M578.556,104.373h.48a5.576,5.576,0,0,1,5.576,5.576V131.9H572.98V109.949A5.576,5.576,0,0,1,578.556,104.373Z" transform="translate(-566.25 -99.002)" fill="#a56f62"/>
                  <path id="Trazado_1170370" data-name="Trazado 1170370" d="M578.556,104.373h.48a5.576,5.576,0,0,1,5.576,5.576v16.132A5.816,5.816,0,0,1,578.8,131.9h0a5.816,5.816,0,0,1-5.816-5.816V109.949A5.576,5.576,0,0,1,578.556,104.373Z" transform="translate(-566.25 -99.002)" fill="#8c5c53"/>
                  <path id="Trazado_1170371" data-name="Trazado 1170371" d="M560.207,121.537h21.678a1.717,1.717,0,0,0,1.717-1.717h0a1.717,1.717,0,0,0-1.717-1.717H560.207a1.718,1.718,0,0,0-1.717,1.717h0A1.718,1.718,0,0,0,560.207,121.537Z" transform="translate(-558.489 -106.355)" fill="#8c5c53"/>
                  <path id="Trazado_1170372" data-name="Trazado 1170372" d="M583.74,120.856h0a.818.818,0,0,0-.818-.818H561.243a.818.818,0,0,0-.818.818h0a.818.818,0,0,0,.818.818h21.678A.818.818,0,0,0,583.74,120.856Z" transform="translate(-559.526 -107.392)" fill="#aa635f"/>
                  <path id="Trazado_1170373" data-name="Trazado 1170373" d="M574.472,121.324h0a9.586,9.586,0,0,0,9.586-9.586v-9.1a9.19,9.19,0,0,0-9.19-9.19h-.791a9.19,9.19,0,0,0-9.19,9.19v9.1A9.586,9.586,0,0,0,574.472,121.324Z" transform="translate(-561.915 -93.152)" fill="#a56f62"/>
                  <g id="Grupo_1220936" data-name="Grupo 1220936" transform="translate(9.22 17.377)">
                    <path id="Trazado_1170374" data-name="Trazado 1170374" d="M579.214,131.464a19.487,19.487,0,0,0,3.8-1.16c.882-.386,1.716.719,1.286,1.722a3.542,3.542,0,0,1-2.86,2.293,3.287,3.287,0,0,1-2.654-.581A1.35,1.35,0,0,1,579.214,131.464Z" transform="translate(-578.342 -130.225)" fill="#252538"/>
                    <path id="Trazado_1170375" data-name="Trazado 1170375" d="M582.878,135.643a3.543,3.543,0,0,0,2.86-2.293,1.413,1.413,0,0,0,.109-.452,3.6,3.6,0,0,0-2.294-.032,3.5,3.5,0,0,0-2.529,2.633.031.031,0,0,1,0,.007A3.95,3.95,0,0,0,582.878,135.643Z" transform="translate(-579.777 -131.55)" fill="#ff9292"/>
                    <path id="Trazado_1170376" data-name="Trazado 1170376" d="M583.234,134.752c.166.257.755.187,1.317-.156s.882-.829.716-1.086-.755-.187-1.317.156S583.068,134.495,583.234,134.752Z" transform="translate(-580.938 -131.902)" fill="#ffabab"/>
                    <path id="Trazado_1170377" data-name="Trazado 1170377" d="M579.214,131.464a19.485,19.485,0,0,0,3.8-1.16.979.979,0,0,1,1.287.608,7.193,7.193,0,0,1-3.383,1.709,8.06,8.06,0,0,1-2.577.181A1.24,1.24,0,0,1,579.214,131.464Z" transform="translate(-578.342 -130.226)" fill="#fff"/>
                  </g>
                  <path id="Trazado_1170378" data-name="Trazado 1170378" d="M572.127,92.809h2.47a9.269,9.269,0,0,1,9.269,9.269v.7q0,.111-.009.219a1.11,1.11,0,0,1-2.212-.133v-.338a4.457,4.457,0,0,0-4.457-4.457h-7.653a4.457,4.457,0,0,0-4.457,4.457v.338a1.11,1.11,0,0,1-2.211.133c-.006-.072-.009-.145-.009-.219v-.7A9.269,9.269,0,0,1,572.127,92.809Z" transform="translate(-560.829 -92.809)" fill="#252538"/>
                  <g id="Grupo_1220937" data-name="Grupo 1220937" transform="translate(4.765 11.417)">
                    <path id="Trazado_1170379" data-name="Trazado 1170379" d="M590.117,117.392h2.118a.873.873,0,0,1,0,1.746h-2.118a.873.873,0,1,1,0-1.746Z" transform="translate(-579.725 -117.392)" fill="#8c5c53"/>
                    <path id="Trazado_1170380" data-name="Trazado 1170380" d="M569.621,117.392h2.118a.873.873,0,0,1,0,1.746h-2.118a.873.873,0,1,1,0-1.746Z" transform="translate(-568.748 -117.392)" fill="#8c5c53"/>
                  </g>
                  <g id="Grupo_1220938" data-name="Grupo 1220938" transform="translate(6.107 11.168)">
                    <path id="Trazado_1170381" data-name="Trazado 1170381" d="M591.064,116.856a1.122,1.122,0,1,1-1.122,1.122A1.122,1.122,0,0,1,591.064,116.856Z" transform="translate(-581.442 -116.856)" fill="#252538"/>
                    <path id="Trazado_1170382" data-name="Trazado 1170382" d="M572.761,116.856a1.122,1.122,0,1,1-1.122,1.122A1.122,1.122,0,0,1,572.761,116.856Z" transform="translate(-571.639 -116.856)" fill="#252538"/>
                  </g>
                  <g id="Grupo_1220939" data-name="Grupo 1220939" transform="translate(5.188 8.456)">
                    <path id="Trazado_1170383" data-name="Trazado 1170383" d="M570.226,111.666l1.945-.613a.809.809,0,0,1,.486,1.543l-1.945.613a.809.809,0,1,1-.486-1.543Z" transform="translate(-569.66 -111.016)" fill="#252538"/>
                    <path id="Trazado_1170384" data-name="Trazado 1170384" d="M591.855,111.054l1.945.613a.809.809,0,0,1-.486,1.543l-1.945-.613a.809.809,0,0,1,.486-1.543Z" transform="translate(-580.984 -111.016)" fill="#252538"/>
                  </g>
                  <path id="Trazado_1170385" data-name="Trazado 1170385" d="M581,141.665c.156.484,1.219.575,2.375.2s1.968-1.064,1.813-1.549-1.219-.575-2.376-.2S580.84,141.181,581,141.665Z" transform="translate(-570.532 -118.023)" fill="#8c5c53"/>
                  <g id="Grupo_1220940" data-name="Grupo 1220940" transform="translate(9.69 11.168)">
                    <path id="Trazado_1170386" data-name="Trazado 1170386" d="M580.95,122.638h0a1.6,1.6,0,0,0,1.6-1.6v-2.589a1.6,1.6,0,0,0-1.6-1.6h0a1.6,1.6,0,0,0-1.6,1.6v2.589A1.6,1.6,0,0,0,580.95,122.638Z" transform="translate(-579.353 -116.856)" fill="#d88d87"/>
                    <path id="Trazado_1170387" data-name="Trazado 1170387" d="M580.479,122.925h0a.422.422,0,0,0,.422-.422v-3a.421.421,0,0,0-.422-.422h0a.422.422,0,0,0-.422.422v3A.422.422,0,0,0,580.479,122.925Z" transform="translate(-579.73 -118.05)" fill="#f79c97"/>
                  </g>
                </g>
              </g>
              <path id="Trazado_1170388" data-name="Trazado 1170388" d="M590.8,175.9s4.363,6.177.175,15.27" transform="translate(-570.385 -126.616)" fill="none" stroke="#fff" stroke-miterlimit="10" stroke-width="1"/>
              <path id="Trazado_1170389" data-name="Trazado 1170389" d="M578.189,175.9s-4.363,6.177-.175,15.27" transform="translate(-562.562 -126.616)" fill="none" stroke="#fff" stroke-miterlimit="10" stroke-width="1"/>
            </g>
            <g id="Grupo_1220946" data-name="Grupo 1220946" transform="translate(0 25.236)">
              <path id="Trazado_1170390" data-name="Trazado 1170390" d="M483.135,145.242a14.725,14.725,0,0,0-11-14.244v-.474h-3.717a14.719,14.719,0,0,0,0,29.437h3.717v-.474A14.725,14.725,0,0,0,483.135,145.242Z" transform="translate(-453.698 -127.55)" fill="#ff8b0d"/>
              <circle id="Elipse_14428" data-name="Elipse 14428" cx="14.719" cy="14.719" r="14.719" transform="translate(0.736 28.648) rotate(-76.714)" fill="#ecb220"/>
              <circle id="Elipse_14429" data-name="Elipse 14429" cx="10.901" cy="10.901" r="10.901" transform="translate(7.535 6.791)" fill="#edcb3a"/>
              <g id="Grupo_1220945" data-name="Grupo 1220945" transform="translate(9.516 8.772)">
                <g id="Grupo_1220944" data-name="Grupo 1220944">
                  <path id="Trazado_1170391" data-name="Trazado 1170391" d="M496.828,154.809a9,9,0,0,0-1.075-2.671l-12.436,12.436a9,9,0,0,0,2.671,1.075Z" transform="translate(-479.077 -147.898)" fill="#ffeea4"/>
                  <path id="Trazado_1170392" data-name="Trazado 1170392" d="M484.675,143.009,474.188,153.5a9.046,9.046,0,0,0,3.114,5.384l12.757-12.756A9.047,9.047,0,0,0,484.675,143.009Z" transform="translate(-474.188 -143.009)" fill="#ffeea4"/>
                </g>
              </g>
            </g>
            <path id="Trazado_1170393" data-name="Trazado 1170393" d="M559.48,169.227c-6.64,15.417-20.788,19.747-40.484,7.273" transform="translate(-488.67 -123.042)" fill="none" stroke="#841849" stroke-linecap="round" stroke-miterlimit="10" stroke-width="13"/>
            <g id="Grupo_1220949" data-name="Grupo 1220949" transform="translate(20.674 44.824)">
              <g id="Grupo_1220947" data-name="Grupo 1220947">
                <path id="Trazado_1170394" data-name="Trazado 1170394" d="M509.856,176.181c2.914-2.1-.847-5.716-.847-5.716l-.5-3.611s-3.2.584-2.062,3.637c0,0-2.921-1.413-4.053-3.56-1.382-2.62-4.672,3.543-4.12,6.5.3,1.606,2.729,1.7,4.156,3.192C504.42,178.709,508.384,180.1,509.856,176.181Z" transform="translate(-498.213 -166.297)" fill="#a56f62"/>
              </g>
              <g id="Grupo_1220948" data-name="Grupo 1220948" transform="translate(0.006 0.867)">
                <path id="Trazado_1170395" data-name="Trazado 1170395" d="M504.527,177.267l-.117.238a13.51,13.51,0,0,1-5.191-3.393c.051-.152.1-.3.16-.454A10.19,10.19,0,0,0,504.527,177.267Z" transform="translate(-498.758 -171.107)" fill="#8c5c53"/>
                <path id="Trazado_1170396" data-name="Trazado 1170396" d="M503.006,181.577a16.932,16.932,0,0,1-4.78-2.54c.007-.161.022-.327.042-.5a14.369,14.369,0,0,0,4.869,2.784Z" transform="translate(-498.226 -173.722)" fill="#8c5c53"/>
                <path id="Trazado_1170397" data-name="Trazado 1170397" d="M506.819,172.768a9.53,9.53,0,0,1-5.043-4.087,6.294,6.294,0,0,1,.382-.516,9.845,9.845,0,0,0,4.732,4.434Z" transform="translate(-500.127 -168.165)" fill="#8c5c53"/>
              </g>
            </g>
          </g>
          <g id="Grupo_1220969" data-name="Grupo 1220969" transform="translate(9.352 3.274)">
            <g id="Grupo_1220951" data-name="Grupo 1220951" transform="translate(50.616 47.735)">
              <path id="Trazado_1170398" data-name="Trazado 1170398" d="M182.106,179.614c3.206,23.657,14.9,33.838,30.695,25.189" transform="translate(-182.106 -179.614)" fill="none" stroke="#ffb692" stroke-miterlimit="10" stroke-width="10"/>
            </g>
            <g id="Grupo_1220952" data-name="Grupo 1220952" transform="translate(74.345 74.101)">
              <path id="Trazado_1170399" data-name="Trazado 1170399" d="M233.2,236.386c3.956,4.278,9.984,3.9,14.724,0Z" transform="translate(-233.2 -236.386)" fill="#ffb692"/>
            </g>
            <path id="Trazado_1170400" data-name="Trazado 1170400" d="M174.341,183.979l-1.557-9.09a4.691,4.691,0,0,1,4.092-5.222h0a4.691,4.691,0,0,1,5.222,4.092l1.557,9.09Z" transform="translate(-126.479 -126.533)" fill="#98d3e5"/>
            <g id="Grupo_1220954" data-name="Grupo 1220954" transform="translate(41.847 83.972)">
              <line id="Línea_650" data-name="Línea 650" y2="79.282" transform="translate(4.799)" fill="none" stroke="#284159" stroke-miterlimit="10" stroke-width="15"/>
              <g id="Grupo_1220953" data-name="Grupo 1220953" transform="translate(0 66.893)">
                <path id="Trazado_1170401" data-name="Trazado 1170401" d="M172.883,401.755l-.045,5.129s6.4.091,7.99,7.274l-17.6-.015.281-12.47Z" transform="translate(-163.225 -401.673)" fill="#ff8b0d"/>
                <path id="Trazado_1170402" data-name="Trazado 1170402" d="M170.37,411.207a1.612,1.612,0,1,1-1.6-1.985A1.832,1.832,0,0,1,170.37,411.207Z" transform="translate(-165.38 -405.716)" fill="#19283b"/>
              </g>
            </g>
            <path id="Trazado_1170403" data-name="Trazado 1170403" d="M150.57,228.825h-6.649a8.943,8.943,0,0,0-8.917,8.917h0a8.943,8.943,0,0,0,8.917,8.917h6.649a8.943,8.943,0,0,0,8.917-8.917h0A8.943,8.943,0,0,0,150.57,228.825Z" transform="translate(-106.264 -158.235)" fill="#284159"/>
            <g id="Grupo_1220955" data-name="Grupo 1220955" transform="translate(29.641 39.461)">
              <path id="Trazado_1170404" data-name="Trazado 1170404" d="M159.594,196.847a2.529,2.529,0,0,1-1.427,2.3,22.911,22.911,0,0,1-19.611.106,2.539,2.539,0,0,1-1.469-2.3c-.047-8.882-.1-17.021-.143-25.85a9.234,9.234,0,0,1,9.184-9.283l4.653-.025a8.622,8.622,0,0,1,8.668,8.576Z" transform="translate(-136.944 -161.8)" fill="#c0f3ff"/>
            </g>
            <g id="Grupo_1220962" data-name="Grupo 1220962" transform="translate(28.323)">
              <g id="Grupo_1220956" data-name="Grupo 1220956" transform="translate(6.764 37.531)">
                <path id="Trazado_1170405" data-name="Trazado 1170405" d="M148.7,160.3c-.332,1.946,2.037,3.975,5.29,4.53s6.16-.573,6.492-2.52-2.036-3.975-5.29-4.53S149.033,158.357,148.7,160.3Z" transform="translate(-148.67 -157.643)" fill="#ffb692"/>
              </g>
              <g id="Grupo_1220961" data-name="Grupo 1220961">
                <path id="Trazado_1170406" data-name="Trazado 1170406" d="M154.748,100.682l-.435,0c-2.787.015-5.028,3.556-5,7.91l.114,21.583,10.528-.056-.114-21.583C159.814,104.184,157.535,100.667,154.748,100.682Z" transform="translate(-142.248 -89.605)" fill="#ffb692"/>
                <path id="Trazado_1170407" data-name="Trazado 1170407" d="M154.744,100.682l-.435,0c-2.787.015-5.029,3.3-5.008,7.335l.078,14.746A5.264,5.264,0,0,0,154.672,128h0a5.264,5.264,0,0,0,5.236-5.292l-.078-14.746C159.809,103.927,157.531,100.667,154.744,100.682Z" transform="translate(-142.244 -89.605)" fill="#d88d87"/>
                <path id="Trazado_1170408" data-name="Trazado 1170408" d="M154.2,113.263l-11.347.06a4.862,4.862,0,0,1-4.887-4.836l-.035-6.606a10.535,10.535,0,0,1,10.479-10.591h0A10.535,10.535,0,0,1,159,101.771l.035,6.606A4.862,4.862,0,0,1,154.2,113.263Z" transform="translate(-136.152 -84.576)" fill="#252538"/>
                <path id="Trazado_1170409" data-name="Trazado 1170409" d="M157.85,90.948c5.032-3.509,1.615-11.078,1.615-11.078l-3.5,3.676s.774-4.651-2.429-6.715l-2.465,4.9s-14.511-1.789-13.23,12.037Z" transform="translate(-136.066 -76.832)" fill="#252538"/>
                <path id="Trazado_1170410" data-name="Trazado 1170410" d="M156.7,121.077H135.764a1.659,1.659,0,0,1-1.658-1.658h0a1.659,1.659,0,0,1,1.658-1.658H156.7a1.659,1.659,0,0,1,1.658,1.658h0A1.658,1.658,0,0,1,156.7,121.077Z" transform="translate(-134.106 -98.752)" fill="#d88d87"/>
                <path id="Trazado_1170411" data-name="Trazado 1170411" d="M136.75,121.208a.8.8,0,1,1,0-1.609h20.937a.8.8,0,0,1,0,1.609Z" transform="translate(-135.091 -99.737)" fill="#aa635f"/>
                <path id="Trazado_1170412" data-name="Trazado 1170412" d="M149.82,121.669h0a9.433,9.433,0,0,1-9.482-9.382l-.047-8.954a9.043,9.043,0,0,1,8.995-9.091l.779,0a9.043,9.043,0,0,1,9.091,8.995l.047,8.954A9.432,9.432,0,0,1,149.82,121.669Z" transform="translate(-137.418 -86.154)" fill="#ffb692"/>
                <path id="Trazado_1170413" data-name="Trazado 1170413" d="M139.921,108.144h1.325V99.157a8.249,8.249,0,0,0,3.968-2.174,4.542,4.542,0,0,1,3.24-1.331h4.762A4.671,4.671,0,0,1,157.233,98a9.592,9.592,0,0,0,1.558,1.968v8.177h.722V97.722a3.478,3.478,0,0,0-.949-2.392,12.534,12.534,0,0,0-9.09-4.037,10.606,10.606,0,0,0-8.773,4.835,3.485,3.485,0,0,0-.608,1.968Z" transform="translate(-137.22 -84.576)" fill="#252538"/>
                <g id="Grupo_1220957" data-name="Grupo 1220957" transform="translate(7.042 18.868)">
                  <path id="Trazado_1170414" data-name="Trazado 1170414" d="M152.324,117.571l-2.167.012a.893.893,0,0,0,.01,1.787l2.167-.012a.893.893,0,1,0-.01-1.787Z" transform="translate(-149.268 -117.519)" fill="#d88d87"/>
                  <path id="Trazado_1170415" data-name="Trazado 1170415" d="M173.3,117.459l-2.167.012a.893.893,0,1,0,.01,1.787l2.168-.012a.893.893,0,0,0-.01-1.787Z" transform="translate(-160.502 -117.459)" fill="#d88d87"/>
                </g>
                <g id="Grupo_1220958" data-name="Grupo 1220958" transform="translate(8.604 18.753)">
                  <path id="Trazado_1170416" data-name="Trazado 1170416" d="M153.731,117.306a1.1,1.1,0,1,0,1.11,1.1A1.1,1.1,0,0,0,153.731,117.306Z" transform="translate(-152.633 -117.261)" fill="#252538"/>
                  <path id="Trazado_1170417" data-name="Trazado 1170417" d="M171.74,117.21a1.1,1.1,0,1,0,1.11,1.1A1.1,1.1,0,0,0,171.74,117.21Z" transform="translate(-162.278 -117.21)" fill="#252538"/>
                </g>
                <g id="Grupo_1220959" data-name="Grupo 1220959" transform="translate(6.736 16.089)">
                  <path id="Trazado_1170418" data-name="Trazado 1170418" d="M172.354,112.1l-1.917-.593a.8.8,0,0,0-.47,1.521l1.917.593a.8.8,0,1,0,.47-1.521Z" transform="translate(-159.747 -111.474)" fill="#252538"/>
                  <path id="Trazado_1170419" data-name="Trazado 1170419" d="M151.072,111.6l-1.91.613a.8.8,0,0,0,.487,1.516l1.91-.613a.8.8,0,1,0-.487-1.516Z" transform="translate(-148.609 -111.521)" fill="#252538"/>
                </g>
                <path id="Trazado_1170420" data-name="Trazado 1170420" d="M160.993,141.277c-.083.494-1.1.733-2.284.536s-2.067-.757-1.985-1.251,1.1-.733,2.284-.536S161.076,140.784,160.993,141.277Z" transform="translate(-146.217 -110.64)" fill="#d88d87"/>
                <path id="Trazado_1170421" data-name="Trazado 1170421" d="M162.229,122.947h0a1.571,1.571,0,0,1-1.579-1.563l-.013-2.547a1.57,1.57,0,0,1,1.563-1.579h0a1.571,1.571,0,0,1,1.579,1.563l.013,2.547A1.572,1.572,0,0,1,162.229,122.947Z" transform="translate(-148.315 -98.483)" fill="#d88d87"/>
                <path id="Trazado_1170422" data-name="Trazado 1170422" d="M165.354,123.221h0a.415.415,0,0,1-.417-.413l-.016-2.949a.415.415,0,0,1,.413-.417h0a.415.415,0,0,1,.417.413l.016,2.949A.415.415,0,0,1,165.354,123.221Z" transform="translate(-150.61 -99.653)" fill="#f79c97"/>
                <g id="Grupo_1220960" data-name="Grupo 1220960" transform="translate(9.862 24.48)">
                  <path id="Trazado_1170423" data-name="Trazado 1170423" d="M160.869,130.833a20.712,20.712,0,0,1-4.045-1.21c-.939-.405-1.818.774-1.356,1.835a3.762,3.762,0,0,0,3.05,2.419,3.489,3.489,0,0,0,2.815-.632A1.433,1.433,0,0,0,160.869,130.833Z" transform="translate(-155.342 -129.541)" fill="#252538"/>
                  <path id="Trazado_1170424" data-name="Trazado 1170424" d="M158.53,135.283a3.762,3.762,0,0,1-3.05-2.419,1.515,1.515,0,0,1-.118-.479,3.819,3.819,0,0,1,2.436-.046,3.722,3.722,0,0,1,2.7,2.782v.007A4.2,4.2,0,0,1,158.53,135.283Z" transform="translate(-155.353 -130.947)" fill="#ff9292"/>
                  <path id="Trazado_1170425" data-name="Trazado 1170425" d="M161.461,134.326c-.175.274-.8.2-1.4-.157s-.941-.875-.766-1.149.8-.2,1.4.158S161.635,134.052,161.461,134.326Z" transform="translate(-157.435 -131.314)" fill="#ffabab"/>
                  <path id="Trazado_1170426" data-name="Trazado 1170426" d="M161.006,130.833a20.713,20.713,0,0,1-4.045-1.21,1.039,1.039,0,0,0-1.364.653,7.633,7.633,0,0,0,3.6,1.8,8.568,8.568,0,0,0,2.737.178A1.315,1.315,0,0,0,161.006,130.833Z" transform="translate(-155.478 -129.541)" fill="#fff"/>
                </g>
              </g>
            </g>
            <g id="Grupo_1220964" data-name="Grupo 1220964" transform="translate(30.96 83.972)">
              <line id="Línea_651" data-name="Línea 651" y2="79.282" transform="translate(4.799)" fill="none" stroke="#284159" stroke-miterlimit="10" stroke-width="15"/>
              <g id="Grupo_1220963" data-name="Grupo 1220963" transform="translate(0 66.893)">
                <path id="Trazado_1170427" data-name="Trazado 1170427" d="M149.442,401.755l-.045,5.129s6.4.091,7.99,7.274l-17.6-.015.281-12.47Z" transform="translate(-139.784 -401.673)" fill="#ecb220"/>
                <path id="Trazado_1170428" data-name="Trazado 1170428" d="M146.928,411.207a1.612,1.612,0,1,1-1.6-1.985A1.832,1.832,0,0,1,146.928,411.207Z" transform="translate(-141.938 -405.716)" fill="#19283b"/>
              </g>
            </g>
            <g id="Grupo_1220967" data-name="Grupo 1220967" transform="translate(0 9.09)">
              <path id="Trazado_1170429" data-name="Trazado 1170429" d="M81.456,119.806c-5.011,17.347,11.267,28.282,22.309,26.482" transform="translate(-77.085 -108.938)" fill="none" stroke="#ffb692" stroke-miterlimit="10" stroke-width="10"/>
              <g id="Grupo_1220966" data-name="Grupo 1220966">
                <path id="Trazado_1170430" data-name="Trazado 1170430" d="M77.869,110.286c3.637,1.683,5.092-3.961,5.092-3.961l3.238-2.468s-2.323-2.788-4.668-.008c0,0,.364-5.122-1.159-6.747-.715-.763-4.766-1.024-6.761-.148a.816.816,0,0,0-.411,1.1,7.589,7.589,0,0,1,.544,5.3C72.809,106.435,73.254,111,77.869,110.286Z" transform="translate(-73.121 -96.405)" fill="#ffb692"/>
                <path id="Trazado_1170431" data-name="Trazado 1170431" d="M86.305,112.416a4.166,4.166,0,0,0-4.269,2.812s1.651-2.625,4.251-2.58Z" transform="translate(-77.896 -104.972)" fill="#d88d87"/>
                <path id="Trazado_1170432" data-name="Trazado 1170432" d="M78.427,110.973a10.079,10.079,0,0,1,4.627-.636S81.087,108.622,78.427,110.973Z" transform="translate(-75.963 -103.543)" fill="#d88d87"/>
                <g id="Grupo_1220965" data-name="Grupo 1220965" transform="translate(0.752 0.001)">
                  <path id="Trazado_1170433" data-name="Trazado 1170433" d="M77.306,103.943l.173-.095s-.271-4.091-2.548-6.621c-.065.021-.129.043-.191.065A13.252,13.252,0,0,1,77.306,103.943Z" transform="translate(-74.74 -96.846)" fill="#d88d87"/>
                  <path id="Trazado_1170434" data-name="Trazado 1170434" d="M82.408,102.9l.308.078s.959-3.988-.889-6.474a12.84,12.84,0,0,0-2.524-.057A9.9,9.9,0,0,1,81,103l.244,0S82.22,99,79.768,96.491l1.736-.02A8.252,8.252,0,0,1,82.408,102.9Z" transform="translate(-77.184 -96.407)" fill="#d88d87"/>
                </g>
              </g>
            </g>
            <path id="Trazado_1170435" data-name="Trazado 1170435" d="M115.872,166.88l9.22.2a4.691,4.691,0,0,1,4.349,5.009h0a4.691,4.691,0,0,1-5.009,4.349l-9.22-.2Z" transform="translate(-95.664 -125.059)" fill="#98d3e5"/>
            <g id="Grupo_1220968" data-name="Grupo 1220968" transform="translate(61.509 56.248)">
              <path id="Trazado_1170436" data-name="Trazado 1170436" d="M252.883,214.619l-23.71,0,4.951-16.672H257.81Z" transform="translate(-218.207 -197.944)" fill="#294459"/>
              <rect id="Rectángulo_420398" data-name="Rectángulo 420398" width="34.675" height="1.184" transform="translate(0 16.669)" fill="#3e5c70"/>
              <rect id="Rectángulo_420399" data-name="Rectángulo 420399" width="23.708" height="1.184" transform="translate(10.967 16.669)" fill="#252538"/>
              <path id="Trazado_1170437" data-name="Trazado 1170437" d="M233.005,197.944h-.9l-5.021,16.723.971-.053Z" transform="translate(-217.088 -197.944)" fill="#3e5c70"/>
              <path id="Trazado_1170438" data-name="Trazado 1170438" d="M261.433,213.569a2.189,2.189,0,1,0,1.091,2.631A2.026,2.026,0,0,0,261.433,213.569Z" transform="translate(-234.117 -206.27)" fill="#fff"/>
            </g>
          </g>
        </g>
      </g>
    </g>
  </g>
</svg>
