<svg xmlns="http://www.w3.org/2000/svg" xmlns:xlink="http://www.w3.org/1999/xlink" width="400" height="303" viewBox="0 0 400 303">
  <defs>
    <clipPath id="clip-path">
      <rect id="Rectángulo_420412" data-name="Rectángulo 420412" width="400" height="303" transform="translate(1020 8656)" fill="#fff" stroke="#707070" stroke-width="1"/>
    </clipPath>
    <clipPath id="clip-path-2">
      <rect id="Rectángulo_420402" data-name="Rectángulo 420402" width="345" height="302" transform="translate(1019.798 8627.698)" fill="#fff" stroke="#707070" stroke-width="1"/>
    </clipPath>
    <linearGradient id="linear-gradient" x1="0.25" y1="0.959" x2="0.79" y2="-0.033" gradientUnits="objectBoundingBox">
      <stop offset="0.001" stop-color="#e1e7ff"/>
      <stop offset="0.985" stop-color="#fff"/>
    </linearGradient>
    <clipPath id="clip-path-3">
      <ellipse id="Elipse_14431" data-name="Elipse 14431" cx="49.904" cy="49.902" rx="49.904" ry="49.902" transform="translate(0.499 100.306) rotate(-90.286)"/>
    </clipPath>
    <linearGradient id="linear-gradient-2" x1="0.94" y1="0.5" x2="-0.06" y2="0.5" gradientUnits="objectBoundingBox">
      <stop offset="0" stop-color="#e1e7ff"/>
      <stop offset="1" stop-color="#bbd2fe"/>
    </linearGradient>
    <linearGradient id="linear-gradient-3" x1="-2.379" y1="-5.788" x2="-3.379" y2="-5.788" xlink:href="#linear-gradient-2"/>
    <linearGradient id="linear-gradient-4" x1="-15.735" y1="-6.695" x2="-16.735" y2="-6.695" xlink:href="#linear-gradient-2"/>
    <linearGradient id="linear-gradient-5" x1="-24.798" y1="-10.812" x2="-25.798" y2="-10.812" xlink:href="#linear-gradient-2"/>
    <linearGradient id="linear-gradient-6" x1="-24.779" y1="-7.993" x2="-25.779" y2="-7.993" xlink:href="#linear-gradient-2"/>
    <linearGradient id="linear-gradient-7" x1="7.158" y1="0.5" x2="8.158" y2="0.5" gradientUnits="objectBoundingBox">
      <stop offset="0.001" stop-color="#fff"/>
      <stop offset="1" stop-color="#8fb3ff"/>
    </linearGradient>
    <filter id="Trazado_1170463" x="65.075" y="124.02" width="48.087" height="48.088" filterUnits="userSpaceOnUse">
      <feOffset dy="3" input="SourceAlpha"/>
      <feGaussianBlur stdDeviation="3" result="blur"/>
      <feFlood flood-opacity="0.161"/>
      <feComposite operator="in" in2="blur"/>
      <feComposite in="SourceGraphic"/>
    </filter>
    <linearGradient id="linear-gradient-8" x1="0" y1="0.5" x2="1" y2="0.5" xlink:href="#linear-gradient-7"/>
    <filter id="Trazado_1170468" x="29.309" y="92.745" width="58.355" height="58.354" filterUnits="userSpaceOnUse">
      <feOffset dy="3" input="SourceAlpha"/>
      <feGaussianBlur stdDeviation="3" result="blur-2"/>
      <feFlood flood-opacity="0.161"/>
      <feComposite operator="in" in2="blur-2"/>
      <feComposite in="SourceGraphic"/>
    </filter>
    <linearGradient id="linear-gradient-10" x1="-0.103" y1="-0.263" x2="1.003" y2="1.141" xlink:href="#linear-gradient-7"/>
    <linearGradient id="linear-gradient-11" x1="-0.516" y1="1.072" x2="1.788" y2="-0.829" xlink:href="#linear-gradient-7"/>
  </defs>
  <g id="Enmascarar_grupo_1211481" data-name="Enmascarar grupo 1211481" transform="translate(-1020 -8656)" clip-path="url(#clip-path)">
    <g id="Grupo_1221226" data-name="Grupo 1221226" transform="translate(-8 -30)">
      <rect id="Rectángulo_420401" data-name="Rectángulo 420401" width="388" height="154" rx="23" transform="translate(1040 8812)" fill="#36ceef"/>
      <g id="Enmascarar_grupo_1211476" data-name="Enmascarar grupo 1211476" transform="translate(43.202 58.302)" clip-path="url(#clip-path-2)">
        <g id="Grupo_1221037" data-name="Grupo 1221037" transform="translate(1020 8632.12)">
          <g id="Grupo_1221036" data-name="Grupo 1221036">
            <g id="OBJECTS" transform="translate(0 0)">
              <g id="Grupo_1221035" data-name="Grupo 1221035" transform="translate(0 0)">
                <g id="Grupo_1220991" data-name="Grupo 1220991" transform="translate(195.751 70.495)">
                  <path id="Trazado_1170471" data-name="Trazado 1170471" d="M94.587,228.042c-10.039,2.868-19,.716-26.889-6.1-7.887-6.453-13.624-17.567-6.095-26.53,6.095-7.17,19-7.17,24.021-14.7,4.661-6.812-3.943-17.926-5.378-24.738-2.151-13.623,7.666-28.5,22.828-28.5,16.144,0,27.51,6.991,28.227,19.54.359,8.962-.5,18.642,3.44,27.248,3.943,8.963,14.341,12.549,22.586,16.492,11.473,5.02,19,13.624,19.719,26.888.717,15.416-7.17,26.531-21.511,30.833Z" transform="translate(-58.084 -127.477)" fill="#110777"/>
                </g>
                <g id="Grupo_1220993" data-name="Grupo 1220993" transform="translate(105.525 108.703)">
                  <g id="Grupo_1220992" data-name="Grupo 1220992" transform="translate(0)">
                    <path id="Trazado_1170472" data-name="Trazado 1170472" d="M329.349,196.2c-.006.38-.384,18.616-7.619,21.641,0,0,4.321,15.039,6.954,23.509a34.382,34.382,0,0,1-19.152,3.446s-1.134-19.556-1.326-24.97c0,0-5.815-6.03-4.41-13.4s9.711-8.123,9.711-8.123-1.126-11.245-.895-14.85,4.828-4.589,5.129-.907,1.32,20.85,2.861,22.036,3.394-2.079,4.012-6.024C325.389,193.619,329.391,193.6,329.349,196.2Z" transform="translate(-297.936 -180.226)" fill="#f6a9a3"/>
                    <path id="Trazado_1170473" data-name="Trazado 1170473" d="M327.713,203.3a48.485,48.485,0,0,1,2.843,9.408c.3,1.615-2.28,3.352-3.971.728-1.356-2.108-4.661-7.614-4.835-10.73C321.612,200.224,325.293,197.531,327.713,203.3Z" transform="translate(-312.328 -185.639)" fill="#f6a9a3"/>
                    <path id="Trazado_1170474" data-name="Trazado 1170474" d="M333.748,207.257a40.432,40.432,0,0,1,3.5,8.386c.424,1.586-2.019,3.515-3.9,1.025-1.512-2-5.181-6.458-5.589-9.553C327.432,204.648,330.9,201.685,333.748,207.257Z" transform="translate(-323.383 -186.803)" fill="#f6a9a3"/>
                    <path id="Trazado_1170475" data-name="Trazado 1170475" d="M338.607,212.855a29.865,29.865,0,0,1,4.208,6.491c.729,1.471-1.354,3.58-3.693,1.512-1.878-1.659-5.473-4.27-6.484-7.222C331.831,211.282,334.713,207.956,338.607,212.855Z" transform="translate(-332.502 -188.524)" fill="#f6a9a3"/>
                    <path id="Trazado_1170476" data-name="Trazado 1170476" d="M330.552,213.794c.3,1.615-2.28,3.352-3.971.728-1.356-2.108-4.661-7.614-4.835-10.73" transform="translate(-312.324 -186.722)" fill="none" stroke="#f48b78" stroke-linecap="round" stroke-miterlimit="10" stroke-width="1"/>
                    <path id="Trazado_1170477" data-name="Trazado 1170477" d="M333.727,208.411a40.43,40.43,0,0,1,3.5,8.386c.424,1.586-2.019,3.515-3.9,1.025-1.512-2-5.18-6.458-5.589-9.553" transform="translate(-323.362 -187.956)" fill="none" stroke="#f48b78" stroke-linecap="round" stroke-miterlimit="10" stroke-width="1"/>
                    <path id="Trazado_1170478" data-name="Trazado 1170478" d="M342.68,220.6c.729,1.471-1.354,3.58-3.693,1.512-1.878-1.659-5.473-4.27-6.484-7.222" transform="translate(-332.366 -189.783)" fill="none" stroke="#f48b78" stroke-linecap="round" stroke-miterlimit="10" stroke-width="1"/>
                  </g>
                  <path id="Trazado_1170479" data-name="Trazado 1170479" d="M153.738,237.036s-14.665,1.737-22,4.052c0,0-8.683,108.851,24.891,118.1s123.331-8.14,123.331-8.14-16.044-125.955-27.151-123.826-52.908,56.468-68.088,61.626C175.277,292.057,153.738,237.036,153.738,237.036Z" transform="translate(-123.35 -193.173)" fill="#5758ff"/>
                </g>
                <g id="Grupo_1220997" data-name="Grupo 1220997" transform="translate(216.579 83.155)">
                  <path id="Trazado_1170480" data-name="Trazado 1170480" d="M147.788,183.679l9.63,23.932s-4.185,14.864-22.726,11.146l1.894-29.187Z" transform="translate(-114.729 -155.63)" fill="#f6a9a3"/>
                  <path id="Trazado_1170481" data-name="Trazado 1170481" d="M191.426,164.21c-.367,2-1.039,9.182-1.754,9.684s-4.062-1.21-4-2.161S191.709,162.626,191.426,164.21Z" transform="translate(-185.674 -150.207)" fill="#dd4f4b"/>
                  <g id="Grupo_1220994" data-name="Grupo 1220994" transform="translate(4.261)">
                    <path id="Trazado_1170482" data-name="Trazado 1170482" d="M173.776,164.061c.75.133,1.488.212,2.234.286l-1.087,6.018a14.992,14.992,0,1,1-29.505-5.333l2.234-12.357a14.924,14.924,0,0,1,3.94-7.719A28.851,28.851,0,0,0,173.776,164.061Z" transform="translate(-145.175 -144.956)" fill="#f6a9a3"/>
                  </g>
                  <path id="Trazado_1170483" data-name="Trazado 1170483" d="M138.076,175.928a6,6,0,1,0,6.969-4.835A6,6,0,0,0,138.076,175.928Z" transform="translate(-109.673 -152.134)" fill="#f6a9a3"/>
                  <g id="Grupo_1220995" data-name="Grupo 1220995" transform="translate(30.418 20.97)">
                    <path id="Trazado_1170484" data-name="Trazado 1170484" d="M143.615,181.508a4.858,4.858,0,0,0,.476.118,3.89,3.89,0,0,0,2.91-.637,3.841,3.841,0,0,0,1.61-2.5,3.889,3.889,0,1,0-5,3.018Zm2.173-6.883a3.344,3.344,0,1,1-.415-.1A3.157,3.157,0,0,1,145.788,174.625Z" transform="translate(-140.895 -173.906)" fill="#dd4f4b"/>
                  </g>
                  <path id="Trazado_1170485" data-name="Trazado 1170485" d="M177.362,165.192c-.253,1.405.14,2.653.882,2.789s1.544-.9,1.8-2.3-.143-2.651-.882-2.779S177.615,163.79,177.362,165.192Z" transform="translate(-168.285 -149.898)" fill="#110777"/>
                  <g id="Grupo_1220996" data-name="Grupo 1220996" transform="translate(7.663 24.821)">
                    <path id="Trazado_1170486" data-name="Trazado 1170486" d="M175.651,183.255c2.853,1.3,5.215-.707,5.3-3.654.017-.506-.763-.5-.781,0-.07,2.308-1.82,4.028-4.128,2.981-.454-.208-.855.466-.393.674Z" transform="translate(-175.446 -179.222)" fill="#110777"/>
                  </g>
                  <path id="Trazado_1170487" data-name="Trazado 1170487" d="M170.01,171.627a2.74,2.74,0,1,0,3.181-2.213A2.738,2.738,0,0,0,170.01,171.627Z" transform="translate(-158.306 -151.686)" fill="#f48b78"/>
                </g>
                <g id="Grupo_1221001" data-name="Grupo 1221001" transform="translate(177.007 135.135)">
                  <path id="Trazado_1170488" data-name="Trazado 1170488" d="M192.633,351.888S185.6,243.112,128.724,216.717c0,0-11.591,10.351-22.418,6.42,0,0-29.646,13.733-59.842,128.751Z" transform="translate(-46.463 -216.717)" fill="#e1e7ff"/>
                  <g id="Grupo_1221000" data-name="Grupo 1221000" transform="translate(34.549 0.381)">
                    <g id="Grupo_1220998" data-name="Grupo 1220998" transform="translate(17.762)">
                      <path id="Trazado_1170489" data-name="Trazado 1170489" d="M151.743,245.289c.694-.043,2.2-1.42,7.34-13.665,2.868-6.828,5.5-13.82,5.524-13.891a.362.362,0,1,0-.678-.254c-4.941,13.153-10.888,26.876-12.286,27.071-1.361-.382-4.584-10.793-6.429-18.064a.362.362,0,0,0-.668-.085c-3.741,6.818-8.134,13.994-9.269,14.655-.223-1.156,2.554-8.741,5.48-15.61a.362.362,0,1,0-.666-.283c-2.467,5.794-6.428,15.65-5.222,16.553a.562.562,0,0,0,.461.092c1.578-.343,7.417-10.659,9.411-14.258,1.121,4.311,4.613,17.111,6.736,17.7A.747.747,0,0,0,151.743,245.289Z" transform="translate(-134.644 -217.243)" fill="#fff"/>
                    </g>
                    <g id="Grupo_1220999" data-name="Grupo 1220999" transform="translate(0 13.942)">
                      <path id="Trazado_1170490" data-name="Trazado 1170490" d="M162.528,354.6a.366.366,0,0,0,.353-.361c.39-51.3,26.8-116.6,27.067-117.255a.361.361,0,1,0-.669-.273c-.267.654-26.73,66.084-27.122,117.521a.364.364,0,0,0,.36.367A.022.022,0,0,1,162.528,354.6Z" transform="translate(-162.157 -236.491)" fill="#fff"/>
                    </g>
                    <path id="Trazado_1170491" data-name="Trazado 1170491" d="M162.94,255.224a1.943,1.943,0,1,0,1.943-1.943A1.944,1.944,0,0,0,162.94,255.224Z" transform="translate(-139.575 -227.177)" fill="#fff"/>
                    <path id="Trazado_1170492" data-name="Trazado 1170492" d="M176.562,300.849a1.943,1.943,0,1,0,1.943-1.943A1.943,1.943,0,0,0,176.562,300.849Z" transform="translate(-163.064 -239.754)" fill="#fff"/>
                    <path id="Trazado_1170493" data-name="Trazado 1170493" d="M185.866,348.286a1.943,1.943,0,1,0,1.943-1.943A1.944,1.944,0,0,0,185.866,348.286Z" transform="translate(-179.107 -252.83)" fill="#fff"/>
                    <path id="Trazado_1170494" data-name="Trazado 1170494" d="M190.622,390.109a1.943,1.943,0,1,0,1.943-1.943A1.944,1.944,0,0,0,190.622,390.109Z" transform="translate(-187.308 -264.359)" fill="#fff"/>
                  </g>
                </g>
                <g id="Grupo_1221004" data-name="Grupo 1221004" transform="translate(173.177 135.135)">
                  <path id="Trazado_1170495" data-name="Trazado 1170495" d="M74.309,216.717S48.284,299.073,41.931,355.2h96.711S132.077,239.064,74.309,216.717Z" transform="translate(14.64 -216.717)" fill="#5758ff"/>
                  <g id="Grupo_1221002" data-name="Grupo 1221002" transform="translate(62.717 1.064)">
                    <path id="Trazado_1170496" data-name="Trazado 1170496" d="M130.6,354a.363.363,0,0,0,.345-.251c.143-.446,14.387-44.646,15.4-46.9s-3.56-14.977-4.542-17.653c1.65-.579,8.452-3.015,9.677-4.232,1.352-1.343,4.7-55.543,5.357-66.394a.362.362,0,0,0-.723-.043c-1.552,25.624-4.211,64.333-5.17,65.954-1.013,1-7.367,3.338-9.727,4.153a.361.361,0,0,0-.209.188.367.367,0,0,0-.012.281c2.277,6.145,5.4,15.863,4.689,17.45-1.033,2.289-14.845,45.15-15.433,46.974a.362.362,0,0,0,.234.456A.4.4,0,0,0,130.6,354Z" transform="translate(-130.232 -218.186)" fill="#110777"/>
                  </g>
                  <path id="Trazado_1170497" data-name="Trazado 1170497" d="M229.315,225.58s-30.849,55.259-31.177,132.063H165.643S193.206,244.829,229.315,225.58Z" transform="translate(-165.643 -219.16)" fill="#5758ff"/>
                  <path id="Trazado_1170498" data-name="Trazado 1170498" d="M198.138,357.643H165.643s27.563-112.814,63.672-132.063" transform="translate(-165.643 -219.16)" fill="none" stroke="#110777" stroke-linecap="round" stroke-miterlimit="10" stroke-width="1"/>
                  <g id="Grupo_1221003" data-name="Grupo 1221003" transform="translate(27.688 10.513)">
                    <path id="Trazado_1170499" data-name="Trazado 1170499" d="M173.089,357.594h.008a.362.362,0,0,0,.354-.37c-.046-2.12-1.125-51.954-1.437-54.445-.217-1.726,5.633-10.094,9.618-15.3a.363.363,0,0,0-.035-.48c-.053-.051-5.294-5.143-6.134-6.719-.093-1.84,16.493-30.023,27.669-48.5a.362.362,0,1,0-.619-.375c-.072.118-7.221,11.943-14.171,23.817-14.161,24.193-13.726,25.009-13.518,25.4.8,1.5,4.991,5.648,6.039,6.674-1.662,2.183-9.874,13.118-9.566,15.572s1.42,53.852,1.432,54.37A.362.362,0,0,0,173.089,357.594Z" transform="translate(-171.287 -231.23)" fill="#110777"/>
                  </g>
                </g>
                <g id="Grupo_1221005" data-name="Grupo 1221005" transform="translate(0 194.17)">
                  <path id="Trazado_1170500" data-name="Trazado 1170500" d="M360.985,380.686a1.97,1.97,0,0,0,1.97,1.969h85.859a1.97,1.97,0,0,0,1.969-1.969l-20.158-79.81a1.969,1.969,0,0,0-1.969-1.969H342.8a1.969,1.969,0,0,0-1.969,1.969Z" transform="translate(-340.827 -298.408)" fill="url(#linear-gradient)"/>
                  <path id="Trazado_1170501" data-name="Trazado 1170501" d="M360.613,380.97a1.99,1.99,0,0,0,2.423,1.432l.59-.151a1.991,1.991,0,0,0,1.432-2.424l-20.593-80.115a1.989,1.989,0,0,0-2.422-1.432l-.59.151a1.992,1.992,0,0,0-1.433,2.423Z" transform="translate(-254.534 -298.218)" fill="#fff"/>
                  <path id="Trazado_1170502" data-name="Trazado 1170502" d="M228.708,412.78a1.989,1.989,0,0,1-1.99-1.99v-.608a1.99,1.99,0,0,1,1.99-1.991h82.72a1.988,1.988,0,0,1,1.988,1.989v.609a1.991,1.991,0,0,1-1.99,1.99Z" transform="translate(-120.807 -328.533)" fill="#fff"/>
                </g>
                <g id="Grupo_1221032" data-name="Grupo 1221032" transform="translate(40.939 0)">
                  <ellipse id="Elipse_14430" data-name="Elipse 14430" cx="49.904" cy="49.902" rx="49.904" ry="49.902" transform="translate(30.443 100.306) rotate(-90.286)" fill="#8199fd"/>
                  <g id="Grupo_1221008" data-name="Grupo 1221008" transform="translate(29.944 0)">
                    <g id="Grupo_1221007" data-name="Grupo 1221007" transform="translate(0)" clip-path="url(#clip-path-3)">
                      <path id="Trazado_1170503" data-name="Trazado 1170503" d="M304.894,61.7a4.64,4.64,0,0,1,2.021.06c1,.255,1.007.252,1.859-.35a2.647,2.647,0,0,0,.826-.645,1.085,1.085,0,0,0-.5-.26c-.279-.093-.555-.194-.832-.3-.084-.031-.188-.061-.2-.171s.088-.146.174-.18.172-.063.259-.1c1.144-.465,2.3-.908,3.425-1.407a1.708,1.708,0,0,1,1.462-.064c1.623.654,3.274,1.239,4.911,1.855.349.131.356.152.188.47-.1.178-.213.345-.316.521-.053.093-.147.2-.072.3s.2.056.305.045c1.2-.138,2.408-.275,3.612-.4.877-.1,1.756-.174,2.631-.277a.746.746,0,0,1,.426.035c1.143.514,2.287,1.029,3.432,1.535a.587.587,0,0,1,.378.555c.024.329.1.655.12.986a.717.717,0,0,0,.526.69c.608.218,1.207.461,1.8.707.136.057.329.066.377.293a8.578,8.578,0,0,0-1.626.689c.352.208.651.385.95.563.1.06.2.146.119.263a6.562,6.562,0,0,1-.588.73c-.171.179-.421.1-.637.1q-1.964.008-3.93,0c-.254,0-.458.026-.581.3-.305.691-.632,1.372-.958,2.054a14.844,14.844,0,0,1-1.77,3.18c-.258.312-.481.653-.71.989-.279.408-.272.449.027.815.162.2.308.416.486.6a1.06,1.06,0,0,1,.308.958c-.05.308-.073.62-.11.931-.1.876-.216,1.751-.3,2.628a.664.664,0,0,1-.327.533c-1.017.7-2.022,1.418-3.035,2.125-.74.517-.667.6-1.1-.3-.625-1.295-1.257-2.587-1.879-3.885-.125-.263-.247-.446-.6-.463-.309-.014-.624-.079-.933-.077a1.56,1.56,0,0,1-1.441-.738.865.865,0,0,0-.058-.093,3.5,3.5,0,0,0-1.882-1.332c-1.173-.3-2.311-.747-3.464-1.133-.109-.038-.271-.011-.279-.208.1-.039.2-.083.305-.116.492-.154.984-.3,1.474-.458.106-.033.21-.061.194-.216a.86.86,0,0,0-.735-.773c-.348-.04-.7-.059-1.043-.117-.2-.035-.5.1-.594-.147-.079-.215.186-.377.3-.553.221-.319.474-.614.7-.926.14-.189.12-.334-.136-.41a4.741,4.741,0,0,0-.569-.21,1.891,1.891,0,0,1-1.627-1.542,3.482,3.482,0,0,1-.177-1.722c.16-.85.247-1.713.377-2.568a.646.646,0,0,0-.262-.676c-.275-.215-.528-.461-.8-.677a23.457,23.457,0,0,0-1.932-1.552v-.221C303.545,61.866,304.225,61.816,304.894,61.7Z" transform="translate(-260.561 -58.626)" fill="#5758ff" fill-rule="evenodd"/>
                      <path id="Trazado_1170504" data-name="Trazado 1170504" d="M411.226,146.914a1.331,1.331,0,0,1,.249-.363,17.44,17.44,0,0,1,1.441-1.372,1.651,1.651,0,0,0,.668-1.045,7.435,7.435,0,0,1,1.017-2.377,5.65,5.65,0,0,1,.649-1.077,1.337,1.337,0,0,1,.353.751c.073.841.152,1.682.229,2.524.034.371.111.421.446.264.756-.347,1.451-.807,2.232-1.1.275-.107.34-.282.247-.568-.105-.313-.133-.651-.228-.966-.075-.247.027-.352.236-.4.342-.073.7-.108,1.028-.209a.577.577,0,0,1,.709.256c.338.459.7.9,1.045,1.357a.837.837,0,0,0,.7.35c.406.022.592-.222.824-.463.269-.283.284-.277.533.042q.544.7,1.08,1.4c.1.125.18.21.367.146.395-.134.4-.122.5.246.055.2.11.39.159.588a.675.675,0,0,0,.448.5c1.144.47,2.271.973,3.406,1.464.479.209.484.22.363.746-.323,1.4-.624,2.8-.97,4.195a1.652,1.652,0,0,0,.053,1.277.891.891,0,0,1-.361,1.331.608.608,0,0,1-.592.134c-.917-.275-1.844-.52-2.772-.761a1.076,1.076,0,0,1-.675-.43.941.941,0,0,0-.588-.469c-.868-.156-1.739-.308-2.6-.489a.65.65,0,0,0-.515.111c-1.223.754-2.439,1.52-3.673,2.258a1.1,1.1,0,0,0-.614.846c-.021.18-.018.413-.168.515-.482.325-.939.756-1.6.618-.956-.2-1.906-.428-2.862-.624a.709.709,0,0,1-.551-.475c-.164-.391-.342-.776-.511-1.166a9.787,9.787,0,0,1-.717-1.732c-.2-.949-.261-1.929-.379-2.9a.83.83,0,0,1,.136-.47C410.388,148.557,410.8,147.732,411.226,146.914Z" transform="translate(-448.84 -71.712)" fill="#5758ff" fill-rule="evenodd"/>
                      <path id="Trazado_1170505" data-name="Trazado 1170505" d="M294.109,135.025a25.981,25.981,0,0,1,4.089-1.814c.938-.266,1.858-.6,2.79-.884a.5.5,0,0,0,.418-.545c0-.44.075-.878.09-1.321a.654.654,0,0,1,.529-.676l.221-.018c.1-.472.525-.565.875-.746l.238-.136a2.676,2.676,0,0,1,.916-.109c.205,0,.3.092.3.3,0,.438.292.527.158-.056a.481.481,0,0,1,.28-.544c.378-.223.753-.455,1.128-.682a.348.348,0,0,1,.3-.239,5.151,5.151,0,0,1,.835-.948.715.715,0,0,1,.584-.254,5.032,5.032,0,0,0,.552-.005,3.547,3.547,0,0,0,1.743-.409c.748-.512.767-.491,1.469.075.383.312.515.294.685-.144a.521.521,0,0,1,.109-.19c.164-.162.21-.018.258.109l.172,0c.048-.062.119-.12.183-.066a9.475,9.475,0,0,1,2.184,1.84h.007c.088-.166-.194-.441.174-.533a3.509,3.509,0,0,1,1.937-.143.74.74,0,0,0,.428.017.023.023,0,0,1,0-.007l.005,0c.191-.708.613-.959,1.442-.8-.34.374-.648.723-.97,1.06-.067.072-.166-.023-.252-.04a.006.006,0,0,0,0,0l-.007,0c-.042.42-.443.426-.7.6-.215.143-.366.13-.544-.109-.387-.521-.409-.506-.846-.013a.626.626,0,0,0-.105.125c-.126.252-.3.122-.456.061,0,0,0,0,0,.005s0,0-.005,0a3.518,3.518,0,0,1,.012,1.452,1.489,1.489,0,0,0,.414,1.452,6.522,6.522,0,0,1,.517.635c.074.093.052.205.063.312a.345.345,0,0,1,.158.271,12.582,12.582,0,0,1,.28,2.194c0,.1.007.194.011.291,0,.309,0,.616-.007.923.151.146.13.261-.067.34-.253.385-.484.788-.768,1.149a4.9,4.9,0,0,0-.858,1.715c-.124.424-.291.836-.423,1.26a1.1,1.1,0,0,1-.4.572c-.539.419-1.043.88-1.589,1.285-.321.237-.563.6-1,.671a.21.21,0,0,1-.1.2,3.363,3.363,0,0,1-.1.766,2.11,2.11,0,0,0-.1.705c.126,1.17.231,2.345.433,3.5q.621,3.586,1.344,7.155a3.568,3.568,0,0,1-.168,2.61.744.744,0,0,0,.007.689c.252.613.462,1.244.736,1.849a1.968,1.968,0,0,1,.12,1.132c-.1.746-.213,1.493-.292,2.241-.1.926-.088.918-.933,1.359a7.911,7.911,0,0,0-1.5.8H310.9q.009-.7.019-1.41h0c.4-.126-.007-.114,0,0h0c-.009-.114-.018-.231-.027-.347a2.109,2.109,0,0,0-.57-1.924,2.281,2.281,0,0,1-.616-2.121c.017-.108.024-.22.051-.327a.909.909,0,0,0-.14-.734c-.7-1.129-1.391-2.258-2.073-3.394a.763.763,0,0,0-.5-.386c-.374-.094-.741-.224-1.119-.307-.363-.081-.512-.323-.693-.628a1.473,1.473,0,0,1,.12-1.777,3.218,3.218,0,0,0,.174-.7c-.045,0-.088,0-.134.006a6.521,6.521,0,0,1-1.821.543.231.231,0,0,1-.248-.077c-.175-.269-.517-.432-.532-.806-.065-.064-.129-.129-.2-.193a3.211,3.211,0,0,1-.183-.273c-.721-1.372-1.456-2.736-2.151-4.121a1.262,1.262,0,0,0-.9-.715c-.678-.169-1.345-.382-2.019-.564a.669.669,0,0,1-.5-.462c-.286-.818-.586-1.63-.882-2.444a2.181,2.181,0,0,1-.122-.649c-.029-.643-.067-1.282-.114-1.924a1.437,1.437,0,0,0-.5-1.058c-.35-.3-.645-.659-.968-.989a.635.635,0,0,1-.2-.38c-.058-.548-.128-1.094-.2-1.64A.411.411,0,0,1,294.109,135.025Z" transform="translate(-240.467 -69.316)" fill="#5758ff" fill-rule="evenodd"/>
                      <path id="Trazado_1170506" data-name="Trazado 1170506" d="M300.259,62.469c-.739-.045-.75.008-.448.682.344.769.341.756,1.144.589a5.936,5.936,0,0,1,1.289-.24,2.471,2.471,0,0,1-.274.577c-.087.221-.34.411-.292.634.054.252.383.243.591.348.258.13.268.193.041.391-.137.12-.294.22-.428.347a.758.758,0,0,0-.1.768c.141.183.341.091.513.067a6.2,6.2,0,0,0,.7-.149.323.323,0,0,1,.358.065,2.178,2.178,0,0,1,.565.844,1.4,1.4,0,0,1-.581.053c-.846,0-1.7-.047-2.543.016a2.05,2.05,0,0,1-1.987-.781.737.737,0,0,0-.12-.114c-.457-.4-.921-.793-1.373-1.2-.289-.258-.27-.326.061-.508a3.222,3.222,0,0,0,.693-.343.405.405,0,0,0-.316-.21c-.6-.183-1.195-.369-1.8-.541a5,5,0,0,1-1.452-.646c-.977-.663-1.972-1.3-2.959-1.937-.356-.231-.716-.453-1.074-.68-.132-.086-.183-.205-.034-.306a2.157,2.157,0,0,1,.962-.51c.913-.084,1.829-.147,2.745-.206,1.006-.065,2.015-.124,3.021-.21a4.986,4.986,0,0,1,1.807.1c2,.565,4.014,1.095,6.021,1.637.1.028.229.009.258.224a14.567,14.567,0,0,0-1.515.582A6.591,6.591,0,0,1,300.259,62.469Z" transform="translate(-223.552 -58.798)" fill="#5758ff" fill-rule="evenodd"/>
                      <path id="Trazado_1170507" data-name="Trazado 1170507" d="M295.139,76.477c.268-.067.539-.132.808-.181a.968.968,0,0,0,.529-.276c.406-.4.847-.774,1.218-1.206a1.056,1.056,0,0,1,1.3-.408,2.846,2.846,0,0,0,.541.1c.527.088,1.053.172,1.578.261a.3.3,0,0,0,.39-.273c.056-.288.123-.575.193-.86.1-.415.113-.419.516-.337.089.019.181.04.272.05a.54.54,0,0,1,.5.5c.076.36.167.718.256,1.074.033.137.046.29.2.35.13-.033.115-.139.134-.222.112-.464.226-.929.326-1.4.042-.189.127-.257.309-.179.3.129.609.263.912.4a.38.38,0,0,1,.221.292,2.278,2.278,0,0,1-.316,2.047.644.644,0,0,1-.586.311c-.812-.015-1.624,0-2.435-.007a5.5,5.5,0,0,0-2.823.841c-1.093.643-2.1,1.44-3.131,2.177-.3.211-.289.279.038.429q1.334.606,2.672,1.2c.581.263.519.232.183.788-.128.213-.307.2-.529.145a1.721,1.721,0,0,0-1.632.328c-.72.572-1.522,1.039-2.275,1.568-.212.148-.371.194-.581,0a6.32,6.32,0,0,0-.58-.424c-.489-.357-.488-.372-.193-.882.247-.432.488-.868.729-1.3.046-.082.091-.181.035-.26-.082-.114-.2-.061-.3-.019-.371.16-.741.326-1.112.487s-.38.162-.547-.185c-.135-.282-.256-.571-.373-.862-.155-.38-.134-.445.221-.675.7-.448,1.383-.923,2.1-1.329.6-.337.969-.712.811-1.477C294.615,76.608,294.687,76.59,295.139,76.477Z" transform="translate(-224.708 -61.021)" fill="#5758ff" fill-rule="evenodd"/>
                      <path id="Trazado_1170508" data-name="Trazado 1170508" d="M277.076,74.253a.376.376,0,0,1,.089.067c.4.516.4.516.963.248.086-.04.163-.085.25-.122a5.359,5.359,0,0,1,1.266-.53c.443-.069.877.224,1.327.313a3.3,3.3,0,0,1,.421.134c1.318.448,1.076.093.9,1.483,0,.019-.006.036-.009.055a.388.388,0,0,1-.447.373c-.534-.015-1.07,0-1.6.016-.116,0-.268-.05-.319.143.236.2.549.184.819.29a4.625,4.625,0,0,1,.9.332.482.482,0,0,1-.45.2,1.628,1.628,0,0,0-1.733.777c-.166.248-.358.243-.619.175-1.032-.269-2.069-.517-3.106-.772-.321-.079-.644-.149-.963-.23-.149-.037-.3-.1-.264-.292.029-.157.039-.338.247-.391a3.264,3.264,0,0,0,.314-.105c1.114-.393.792-.111,1.349-1.133.14-.259.282-.517.431-.772C276.9,74.412,276.909,74.259,277.076,74.253Z" transform="translate(-187.397 -61.124)" fill="#5758ff" fill-rule="evenodd"/>
                      <path id="Trazado_1170509" data-name="Trazado 1170509" d="M380.572,72.692c-.947.3-.947.3-1.552-.467a1.734,1.734,0,0,0-.817-.624c-.61-.2-1.209-.445-1.812-.67-.842-.314-1.686-.627-2.578-.958.471-.639.594-.689,1.23-.523,1.352.353,2.694.768,4.06,1.039a2.242,2.242,0,0,1,1.814,1.449C381.185,72.585,381.2,72.491,380.572,72.692Z" transform="translate(-369.633 -60.405)" fill="#5758ff" fill-rule="evenodd"/>
                      <path id="Trazado_1170510" data-name="Trazado 1170510" d="M292.408,71.013c-.034.324-.25.454-.561.5-.6.09-1.192.214-1.79.314a3.018,3.018,0,0,1-.926.105c-.528-.083-1.061-.066-1.588-.158-.7-.123-.688-.093-.359-.734a.616.616,0,0,1,.643-.382c.864.008,1.727.021,2.588.1a.9.9,0,0,0,.922-.451,1.313,1.313,0,0,1,.671-.629c.666-.207,1.344-.383,2-.618.443-.158.735.015,1.106.37-.583.176-1.065.358-1.563.462A1.23,1.23,0,0,0,292.408,71.013Z" transform="translate(-210.579 -60.347)" fill="#5758ff" fill-rule="evenodd"/>
                      <path id="Trazado_1170511" data-name="Trazado 1170511" d="M399.462,134.01c.127-.135.251-.271.377-.4.955-1,1.913-1.988,2.862-2.99a1.759,1.759,0,0,1,.7-.512c.231-.078.534-.4.67-.208.193.273-.208.453-.39.618a6.567,6.567,0,0,0-1.551,2.123c-.236.517-.549,1-.8,1.511a4.769,4.769,0,0,1-1.211,1.417.894.894,0,0,1-.912.247c-.259-.113-.1-.464-.117-.705A1.1,1.1,0,0,1,399.462,134.01Z" transform="translate(-413.907 -69.992)" fill="#5758ff" fill-rule="evenodd"/>
                      <path id="Trazado_1170512" data-name="Trazado 1170512" d="M421.02,138.854a7.83,7.83,0,0,1,.949-1,.6.6,0,0,0,.21-.687.372.372,0,0,1,.118-.444,7.134,7.134,0,0,1,2.974-1.732c.021-.007.043-.012.063-.017a5.922,5.922,0,0,1,1.271-.54,1.374,1.374,0,0,0,.2-.094c.281-.19.475-.086.645.166.125.184.284.344.4.533a.463.463,0,0,0,.517.217c.594-.075.6-.076.705-.687a1.7,1.7,0,0,0,.026-.22c.035-.682-.008-.622.719-.626.075,0,.146,0,.222,0,.228,0,.264.094.216.316-.071.336-.413.336-.588.518a.484.484,0,0,0,.022.125c.225.423.223.42-.2.619-.8.377-1.6.758-2.4,1.14a.753.753,0,0,0-.3,1.154.6.6,0,0,1,.151.429,3.744,3.744,0,0,0-1.547.211h0a.788.788,0,0,1-.113.042c-.578.162-.6.167-.974-.3-.048-.058-.1-.111-.144-.17a.424.424,0,0,0-.573-.148,2.483,2.483,0,0,0-1.212.83,1.382,1.382,0,0,1-1.421.571C420.908,138.958,420.979,138.91,421.02,138.854Z" transform="translate(-458.464 -70.608)" fill="#5758ff" fill-rule="evenodd"/>
                      <path id="Trazado_1170513" data-name="Trazado 1170513" d="M421.572,105.305c.071.321.125.649.2.97.046.194.046.422.2.563.708.643,1.3,1.464,2.391,1.526a2.424,2.424,0,0,1,1.2.38c.147.1.376.149.265.4-.09.2-.26.145-.431.1-.335-.088-.679-.156-1.019-.228-.443-.1-.507-.054-.606.382-.012.053-.008.11-.02.163-.048.213-.181.188-.335.119-.22-.1-.18-.3-.207-.473-.056-.352-.079-.386-.419-.288a.974.974,0,0,1-.845-.084.629.629,0,0,0-.366-.1c-.236.012-.316-.125-.357-.332-.1-.522-.236-1.038-.329-1.563a2.909,2.909,0,0,1-.136-.708c.063-.361.119-.724.189-1.085.018-.1.058-.224.194-.237a.359.359,0,0,1,.287.141A.7.7,0,0,1,421.572,105.305Z" transform="translate(-453.906 -66.024)" fill="#5758ff" fill-rule="evenodd"/>
                      <path id="Trazado_1170514" data-name="Trazado 1170514" d="M290.261,65.745c.01.145-.005.269-.175.285-.457.044-.914.074-1.372.114a.351.351,0,0,1-.353-.213c-.231-.4-.463-.8-.709-1.185-.13-.21-.065-.327.13-.437q1.01-.571,2.013-1.156a.428.428,0,0,1,.511.006c.532.362,1.069.714,1.722,1.147-.453.178-.788.317-1.126.443C290.214,65,290.211,65,290.261,65.745Z" transform="translate(-208.013 -59.406)" fill="#5758ff" fill-rule="evenodd"/>
                      <path id="Trazado_1170515" data-name="Trazado 1170515" d="M329.044,82.991c.249-.218.494-.44.74-.661.1-.087.2-.2.332-.174.618.1,1.306-.018,1.8.512.172.184.313.16.447-.029a.517.517,0,0,1,.507-.247c.225-.007.429.007.517.244.082.22.206.44.012.673a3.015,3.015,0,0,1-1.839,1.292.717.717,0,0,1-.521-.073q-.972-.582-1.947-1.157C328.9,83.258,328.871,83.145,329.044,82.991Z" transform="translate(-284.274 -62.432)" fill="#5758ff" fill-rule="evenodd"/>
                      <path id="Trazado_1170516" data-name="Trazado 1170516" d="M351.924,65.818a7.2,7.2,0,0,0-1.871,2.5c-.136.354-.273.356-.5.059-.484-.649-.951-1.312-1.435-1.961-.146-.2-.131-.318.094-.428.579-.284,1.154-.576,1.731-.865a.365.365,0,0,1,.264-.055c.64.163,1.313.156,1.969.357C352.164,65.64,352.026,65.719,351.924,65.818Z" transform="translate(-319.023 -59.721)" fill="#5758ff" fill-rule="evenodd"/>
                      <path id="Trazado_1170517" data-name="Trazado 1170517" d="M273.307,75.612c-.305.35-.409.355-.767.05-.49-.418-.993-.821-1.467-1.255a3.827,3.827,0,0,1-.947-.917c-.143-.263-.146-.32.138-.38.665-.141,1.335-.255,2.041-.387a2.739,2.739,0,0,1,.918.406c.206.135.089.412.109.627.01.109,0,.22.006.331a.439.439,0,0,0,.207.364c.459.353.452.356.077.777C273.51,75.351,273.416,75.488,273.307,75.612Z" transform="translate(-175.109 -60.936)" fill="#5758ff" fill-rule="evenodd"/>
                      <path id="Trazado_1170518" data-name="Trazado 1170518" d="M280.22,71.241a1.115,1.115,0,0,1-.6.155c-.274,0-.549.026-.823.054s-.46.131-.444.484-.036.387-.385.3c-.7-.171-1.388-.348-2.077-.54a8.342,8.342,0,0,1-1.351-.4,9.757,9.757,0,0,1,1.641-.935.22.22,0,0,1,.322.105c.038.062.086.119.128.18.382.544.38.54,1.033.3.466-.167.938-.32,1.409-.475.175-.059.367-.127.517.029A2.278,2.278,0,0,1,280.22,71.241Z" transform="translate(-185.225 -60.556)" fill="#5758ff" fill-rule="evenodd"/>
                      <path id="Trazado_1170519" data-name="Trazado 1170519" d="M442.868,161.514c.2-.14.327-.088.439.114.171.3.375.592.528.9a1.846,1.846,0,0,0,.884.948c.554.253.815.776,1.173,1.209.113.134.087.243,0,.395-.2.354-.522.277-.825.284-.707-.013-.623.125-.946-.587a13.809,13.809,0,0,0-1.448-2.338C442.206,161.8,442.274,161.939,442.868,161.514Z" transform="translate(-492.19 -75.003)" fill="#5758ff" fill-rule="evenodd"/>
                      <path id="Trazado_1170520" data-name="Trazado 1170520" d="M244.665,91.079a5.165,5.165,0,0,0,.616-.705,2.673,2.673,0,0,1,1.3-.98.866.866,0,0,0,.463-.448c.418-.717.848-1.426,1.279-2.135.22-.362.238-.374.607-.179.489.257.968.533,1.45.809.436.248.454.246.59-.216.109-.371.223-.74.326-1.113a1.084,1.084,0,0,1,.414-.627c.36-.257.71-.529,1.051-.81a1.594,1.594,0,0,1,.968-.353,4.678,4.678,0,0,0,.878-.075c.25-.06.39.038.459.327.1.434.082.878.178,1.313a3.467,3.467,0,0,1-.317,2.773.67.67,0,0,0-.027.583c.25.942.466,1.894.73,2.832.327,1.165.038.962,1.3,1a.491.491,0,0,0,.552-.4c.224-.664.491-1.314.693-1.984a.875.875,0,0,1,.67-.641c1.287-.384,2.567-.8,3.856-1.178a.974.974,0,0,0,.684-.57c.263-.588.549-1.167.854-1.736a.685.685,0,0,0-.037-.772c-.47-.729-.926-1.465-1.385-2.2a2.343,2.343,0,0,0-.458-.551c-.755-.646-1.516-1.287-2.262-1.945a.656.656,0,0,0-.6-.17c-.416.074-.837.114-1.255.177-.239.036-.372-.024-.424-.291-.153-.777-.33-1.548-.5-2.321-.05-.225.088-.3.259-.348.284-.076.575-.132.856-.213a.409.409,0,0,1,.544.229c.254.47.525.931.8,1.392.183.311.273.312.441.009.1-.177.178-.364.271-.545.724-1.422.287-1.025,1.81-1.329.618-.123.6-.1.634-.724.023-.423-.229-.984.154-1.239.335-.222.862-.048,1.3-.061a.688.688,0,0,1,.11.009c.132.019.21.108.177.23a3.471,3.471,0,0,0-.039.983.823.823,0,0,1-.549.859c-.1.04-.194.11-.294.154-.261.114-.354.257-.229.558.262.629.478,1.276.72,1.913.035.1.055.22.22.247a7.288,7.288,0,0,0,.493-1.2c.2-.464.226-.5.693-.343a3.623,3.623,0,0,0,1.474.146c.971-.075,1.941-.163,2.913-.233.711-.05.706-.042.487.647a9.286,9.286,0,0,0-.4,1.292.179.179,0,0,0,.23-.046c.339-.387.7-.763,1.011-1.17a.837.837,0,0,1,.786-.4c.476.033.958.005,1.436.033a.66.66,0,0,0,.651-.305,1.307,1.307,0,0,1,.751-.61c1.733-.425,3.458-.879,5.19-1.318a1.128,1.128,0,0,1,.539-.053,15.947,15.947,0,0,0,1.9.329,2.819,2.819,0,0,1,1.641.713,1.35,1.35,0,0,0,1.609.218,11.557,11.557,0,0,1,1.313-.454c-.047.037.1-.032,0,0a4.7,4.7,0,0,1,.982-.37,7.9,7.9,0,0,1,2-.38,20.53,20.53,0,0,0,3.206-.528c.737-.229,1.494-.4,2.238-.614a.7.7,0,0,1,.62.093c1.311.824,2.631,1.632,3.942,2.454.134.083.308.14.364.313-.025.135-.14.169-.235.22-.551.3-1.107.586-1.657.889-.153.084-.418.1-.4.319.013.2.268.227.427.3.63.3,1.268.594,1.9.9.106.05.263.063.257.241a1.042,1.042,0,0,1-.5.217c-.6.19-1.194.372-1.79.564-.21.067-.257.188-.1.364.273.3.543.6.818.9s.56.586.835.885a.456.456,0,0,1,.114.549c-.221.507-.422,1.022-.613,1.54a.51.51,0,0,1-.492.362c-.638.062-1.278.137-1.914.236-.31.05-.618.082-.93.114-.156.016-.309.09-.234.288a1.883,1.883,0,0,0,.868,1.219c.693.341,1.354.749,2.028,1.128a1.182,1.182,0,0,1,.186.119.143.143,0,0,1,.046.194.175.175,0,0,1-.178.1.7.7,0,0,1-.209-.067c-1.308-.637-2.614-1.281-3.928-1.912a.414.414,0,0,1-.264-.53c.067-.288.043-.6.121-.871a.813.813,0,0,0-.283-.83c-.2-.215-.337-.518-.673-.595-.2.39.2.777-.072,1.169-.4-.258-.8-.484-1.165-.758a.923.923,0,0,0-1.124-.07c-.176.1-.364.179-.549.262a4.962,4.962,0,0,1-1.781.538c-.607.029-1.215-.01-1.823.031a1.252,1.252,0,0,0-.585.121c-.558.323-1.122.634-1.69.941a5.634,5.634,0,0,0-1.563,1.291,8.33,8.33,0,0,1-1.133,1.127.223.223,0,0,1-.2.084,1.049,1.049,0,0,1-.162.628c-.255.508-.514,1.015-.747,1.533a1.185,1.185,0,0,1-.691.647,4.023,4.023,0,0,0-2.181,1.39l0,0,0,0h0l.005.236c.073.056.145.112.22.167a1.318,1.318,0,0,1,.563,1.223c-.045,1.359-.019,2.722-.012,4.084a1.526,1.526,0,0,1-.164.741c-.553,1.039-1.09,2.086-1.632,3.128a.91.91,0,0,1-.35.415c-.465.259-.922.533-1.381.8h0l-.135.3a2.932,2.932,0,0,0-.261.477c-.234.581-.532,1.138-.723,1.733a9.233,9.233,0,0,1-2.226,3.045.485.485,0,0,1-.448.162c-.167-.014-.239-.088-.162-.252a2.267,2.267,0,0,1,.149-.233q1.121-1.773,2.238-3.551a1.327,1.327,0,0,0,.321-.693.746.746,0,0,0-.908.312c-1.185,1.573-2.4,3.124-3.609,4.676a1.311,1.311,0,0,0-.369,1.053.7.7,0,0,1-.451.793c-1.074.568-2.141,1.148-3.209,1.728a1.3,1.3,0,0,1-.631.16c-1.447.013-1.2-.152-2.164.776-.1.092-.188.1-.273-.013l-.182.005c.013.082.024.165.035.248-.016.28-.148.2-.288.092l-.671-.006c-.043.035-.088.069-.133.1a1.287,1.287,0,0,1-.972.555.213.213,0,0,1-.2.113c-.227.252-.265.253-.353.034-.045-.115.059-.311-.166-.339-.135.151-.027.286.018.416a.5.5,0,0,1-.227.618,1.235,1.235,0,0,1-1,.147.184.184,0,0,1-.164-.19,8.985,8.985,0,0,1,.045-1.637c.412.077.717.392,1.143.263-.351-.166-.7-.332-1.091-.515.265-.333.443-.62.952-.5a9.4,9.4,0,0,0,1.254.156c.058.1.117.194.177.295l-.176-.295.218-.006c-.047-.21.178-.2.251-.316-.082-.073-.161-.146-.243-.221a2.238,2.238,0,0,1-.107-1.014.225.225,0,0,1-.1-.235,9.345,9.345,0,0,1-.464-1.12c-.091-.21-.014-.3.171-.373a1.017,1.017,0,0,1,1.234.421,5.025,5.025,0,0,1,.349.751.443.443,0,0,0,.532.352c.605-.06,1.211-.092,1.814-.147a.557.557,0,0,0,.537-.459c.172-.641.362-1.275.566-1.905a2.03,2.03,0,0,0,.058-1.244.643.643,0,0,1,.078-.68l-.234-.225c-.058-.306-.125-.612-.173-.921a.466.466,0,0,0-.393-.4,3.845,3.845,0,0,0-2.641-.093,1,1,0,0,1-.871-.169,1.376,1.376,0,0,0-.639-.313,10.808,10.808,0,0,0-1.651-.1c-.548.03-.548.012-.746.512-.047.119-.087.242-.131.364-.178.483-.345.971-.536,1.45a.514.514,0,0,1-.685.289c-.284-.1-.163-.34-.137-.515.156-1.036.32-2.071.5-3.1a.557.557,0,0,0-.3-.631c-.644-.43-1.266-.891-1.908-1.322a.637.637,0,0,1-.333-.635c.026-.386-.017-.776.013-1.161a.823.823,0,0,0-.394-.793c-.374-.267-.729-.563-1.117-.811a3.082,3.082,0,0,1-1.469-1.844.978.978,0,0,0-.576-.63c-.443-.22-.876-.466-1.313-.7-.082-.005-.163-.011-.246-.014-.224-.013-.393-.194-.621-.2-.2-.007-.265.066-.241.262s.2.368.056.574a4.842,4.842,0,0,1-1.669-.971.871.871,0,0,1,.669-.179.661.661,0,0,0,.655-.39c.306-.5.545-.96.085-1.492-.158-.181-.064-.316.109-.453a.444.444,0,0,1,.555-.049c.323.178.651.345.978.517a13.876,13.876,0,0,0,1.254.621c.07-.137.029-.2-.027-.245-.567-.5-1.13-1-1.7-1.493a1.271,1.271,0,0,0-.613-.354c-1.36-.226-2.72-.461-4.079-.691-.724-.122-.7-.119-.724-.873A1.185,1.185,0,0,1,244.665,91.079Z" transform="translate(-180.408 -61.394)" fill="#5758ff"/>
                      <path id="Trazado_1170521" data-name="Trazado 1170521" d="M374.329,76.023a.9.9,0,0,1-.99.508c-.192,0-.3,0-.411,0-.412-.013-.441-.053-.365-.458.057-.307.119-.613.173-.921.149-.821.15-.8.987-.965a.559.559,0,0,1,.687.289c.158.268.457.508.486.783C374.933,75.584,374.5,75.749,374.329,76.023Z" transform="translate(-362.359 -61.165)" fill="#5758ff" fill-rule="evenodd"/>
                      <path id="Trazado_1170522" data-name="Trazado 1170522" d="M415.925,135.918c-.042.1-.091.217-.226.2-.185-.019-.158-.172-.16-.3,0-.338,0-.677,0-1.008-.209-.019-.258.1-.319.179-.1.132-.179.278-.268.417s-.21.273-.4.177-.112-.244-.061-.384a1.421,1.421,0,0,1,.094-.259.787.787,0,0,0-.134-1.116,1.471,1.471,0,0,1,.725-.021c.094.019.207.039.235-.068a1.128,1.128,0,0,0-.088-.752c-.091-.2-.286-.135-.441-.137-.481,0-.959,0-1.435.007-.162,0-.316-.027-.283-.237.021-.153.141-.2.289-.179a10.985,10.985,0,0,0,1.531.093.529.529,0,0,1,.451.259,6.13,6.13,0,0,1,.644,1.574A2.08,2.08,0,0,1,415.925,135.918Z" transform="translate(-437.815 -70.405)" fill="#5758ff" fill-rule="evenodd"/>
                      <path id="Trazado_1170523" data-name="Trazado 1170523" d="M409.746,130.444c.355.344.828.57,1.048,1.042a1.359,1.359,0,0,0,.459.509l.245.008c.35-.118.38-.1.47.186a.611.611,0,0,1-.051.427c-.156.412-.33.819-.487,1.233a.53.53,0,0,1-.486.368,3.437,3.437,0,0,0-1.628.451.326.326,0,0,1-.259.068c-.237-.051-.79-.67-.771-.915a1.151,1.151,0,0,0-.374-.941c-.153-.157-.263-.358-.421-.51a.358.358,0,0,1-.063-.532,1.314,1.314,0,0,0,.217-.894.816.816,0,0,1,.088-.484.729.729,0,0,1,.558.119.729.729,0,0,0-.558-.119c-.007-.067-.012-.135-.019-.206a.723.723,0,0,1-.159-.04c-.542-.275-.555-.387-.093-.767.056-.046.109-.1.165-.146.319-.257.373-.263.65.008a1.583,1.583,0,0,1,.588.966c.033.291.134.316.427.221C409.441,130.448,409.587,130.289,409.746,130.444Zm-1.335.247a.558.558,0,0,0-.081-.08A.558.558,0,0,1,408.411,130.691Z" transform="translate(-428.564 -69.877)" fill="#5758ff" fill-rule="evenodd"/>
                      <path id="Trazado_1170524" data-name="Trazado 1170524" d="M428.228,99.573c0,.236-.088.346-.323.318s-.326-.148-.271-.379c.109-.448.067-.912.153-1.366.079-.428.009-.46-.414-.3-.022.009-.061-.023-.162-.066.244-1.1.493-2.221.754-3.4.3.188.231.388.234.56.01.809.013,1.616.018,2.428C428.221,98.1,428.217,98.838,428.228,99.573Z" transform="translate(-461.701 -64.37)" fill="#5758ff" fill-rule="evenodd"/>
                      <path id="Trazado_1170525" data-name="Trazado 1170525" d="M400.881,65.066c-.176.21-.327.49-.591.56-.495.13-1.007.189-1.514.278-.073-.015-.171,0-.212-.048a1.759,1.759,0,0,1-.559-.8c-.047-.228.26-.273.393-.416a2.153,2.153,0,0,1,.342-.276.44.44,0,0,1,.414-.085c.54.178,1.082.353,1.621.533C400.9,64.856,400.974,64.954,400.881,65.066Z" transform="translate(-409.815 -59.595)" fill="#5758ff" fill-rule="evenodd"/>
                      <path id="Trazado_1170526" data-name="Trazado 1170526" d="M446.745,159.055a.549.549,0,0,0,.673-.225c.307-.412.631-.815.952-1.216.084-.105.139-.262.391-.241-.17.35-.31.684-.491,1a.98.98,0,0,0-.034,1.218c.123.157.155.376-.036.49a1.165,1.165,0,0,0-.489.819,9.042,9.042,0,0,1-1.539-1.876A.655.655,0,0,1,446.745,159.055Z" transform="translate(-498.188 -74.358)" fill="#5758ff" fill-rule="evenodd"/>
                      <path id="Trazado_1170527" data-name="Trazado 1170527" d="M283.947,73.366c-.084-.2.007-.274.2-.275.3,0,.59,0,.885,0,.207,0,.3.057.231.3-.167.6-.157.6.475.666.089.009.178.028.373.058a6.494,6.494,0,0,1-.952.709c-.666.491-.669.49-1.305-.005l-.041-.035c-.313-.255-.31-.288.013-.5.365-.244.378-.277.236-.661C284.027,73.532,283.984,73.449,283.947,73.366Z" transform="translate(-198.721 -60.995)" fill="#5758ff" fill-rule="evenodd"/>
                      <path id="Trazado_1170528" data-name="Trazado 1170528" d="M336.668,93.85l-.006,0h0Z" transform="translate(-293.948 -64.287)" fill="#5758ff" fill-rule="evenodd"/>
                      <path id="Trazado_1170529" data-name="Trazado 1170529" d="M423.933,71.835c-.213-.032-.259-.255-.274-.434s.158-.178.276-.213c.634-.189,1.283-.34,1.9-.572a1.035,1.035,0,0,1,1.214.268,9.287,9.287,0,0,0-1.124.752C425.292,72.2,424.608,71.934,423.933,71.835Z" transform="translate(-457.531 -60.588)" fill="#5758ff" fill-rule="evenodd"/>
                      <path id="Trazado_1170530" data-name="Trazado 1170530" d="M355.677,64.47c-.527.422-1,.953-1.789.8a1.24,1.24,0,0,0-.224,0c-.257,0-.515-.008-.772,0a.348.348,0,0,1-.407-.347c-.029-.234.138-.268.3-.315.725-.212,1.453-.417,2.173-.642.321-.1.525.1.753.237C355.839,64.276,355.774,64.394,355.677,64.47Z" transform="translate(-326.373 -59.543)" fill="#5758ff" fill-rule="evenodd"/>
                      <path id="Trazado_1170531" data-name="Trazado 1170531" d="M294.609,119.795c.37-.348.65-.6.924-.869a1.016,1.016,0,0,1,.435-.226c.613-.193,1.225-.389,1.842-.57a2.015,2.015,0,0,1,1.621.5c-.072.053-.14.014-.207-.009a2.7,2.7,0,0,0-2.4.406c-.305.206-.541.349-.333.779A14.873,14.873,0,0,1,294.609,119.795Z" transform="translate(-221.326 -68.131)" fill="#5758ff" fill-rule="evenodd"/>
                      <path id="Trazado_1170532" data-name="Trazado 1170532" d="M312.262,97.762c.17.324.347.645.509.972.1.192.041.326-.192.332-.33.007-.658,0-.99,0H310.6c-.114,0-.227-.021-.273-.141a1.01,1.01,0,0,1,.474-1c.366-.114.742-.2,1.106-.314A.255.255,0,0,1,312.262,97.762Z" transform="translate(-247.919 -64.879)" fill="#5758ff" fill-rule="evenodd"/>
                      <path id="Trazado_1170533" data-name="Trazado 1170533" d="M403.571,66.926c-.276,0-.55,0-.825,0v0c-.238,0-.477-.01-.716,0-.265.014-.342-.113-.35-.363a1.221,1.221,0,0,1,.753-1.2.347.347,0,0,1,.356.055c.234.142.462.3.705.427a.821.821,0,0,1,.392.679C403.929,66.779,403.835,66.923,403.571,66.926Z" transform="translate(-415.885 -59.766)" fill="#5758ff" fill-rule="evenodd"/>
                      <path id="Trazado_1170534" data-name="Trazado 1170534" d="M427.631,102.206c.015.053.03.106.047.159.1.31.038.7.507.806.146.032.149.277.162.442.007.091.015.19-.106.22a.133.133,0,0,1-.165-.1c-.061-.264-.241-.229-.429-.182l-.691.179a.318.318,0,0,1-.378-.146c-.146-.213-.3-.416-.452-.623s-.094-.374.119-.5c.269-.159.536-.32.805-.478C427.5,101.713,427.5,101.713,427.631,102.206Z" transform="translate(-460.835 -65.547)" fill="#5758ff" fill-rule="evenodd"/>
                      <path id="Trazado_1170535" data-name="Trazado 1170535" d="M401.955,131.976a6.145,6.145,0,0,1,.579-2.038,3.834,3.834,0,0,1,.3-.39c.071-.086.167-.2.276-.116.223.166.423-.058.682,0a3.4,3.4,0,0,1-.478,1.65A2.581,2.581,0,0,1,401.955,131.976Z" transform="translate(-416.017 -69.924)" fill="#5758ff" fill-rule="evenodd"/>
                      <path id="Trazado_1170536" data-name="Trazado 1170536" d="M417.662,108.384a1.574,1.574,0,0,1,.192-1.007c.043-.077.07-.17.174-.2.192-.047.825.333.821.526a7.312,7.312,0,0,0,.193,1.464c.043.247-.175.4-.421.321-.1-.034-.2-.088-.3-.129C417.662,109.1,417.662,109.1,417.662,108.384Z" transform="translate(-444.483 -66.4)" fill="#5758ff" fill-rule="evenodd"/>
                      <path id="Trazado_1170537" data-name="Trazado 1170537" d="M429.079,161.639h.714v-.015c.238,0,.476,0,.714,0,.215,0,.32.072.226.3-.173.423-.349.845-.524,1.268a.232.232,0,0,1-.154.145,1.787,1.787,0,0,1-.932-.488c-.105-.311-.2-.629-.282-.946C428.789,161.707,428.9,161.638,429.079,161.639Z" transform="translate(-465.599 -75.033)" fill="#5758ff" fill-rule="evenodd"/>
                      <path id="Trazado_1170538" data-name="Trazado 1170538" d="M294.89,83.138c.152.293.326.576.475.869.07.135.235.3.053.438s-.3.391-.6.288c-.569-.194-1.14-.38-1.71-.57-.007-.048-.011-.094-.018-.142l1.45-.971C294.686,82.949,294.8,82.963,294.89,83.138Z" transform="translate(-216.113 -62.564)" fill="#5758ff" fill-rule="evenodd"/>
                      <path id="Trazado_1170539" data-name="Trazado 1170539" d="M415.67,122.792c-.263.394-.352.963-1.017.935-.107-.005-.224.114-.335.18a.794.794,0,0,1-.479.21c.017-.077.013-.125.034-.143.115-.092.231-.18.351-.262.763-.515.777-.52.477-1.388a1.7,1.7,0,0,1-.024-.972.436.436,0,0,1,.459-.372c.231.017.227.21.259.364a2.906,2.906,0,0,1,.031.385c.02.288-.04.6.236.815C415.755,122.614,415.723,122.717,415.67,122.792Z" transform="translate(-437.941 -68.588)" fill="#5758ff" fill-rule="evenodd"/>
                      <path id="Trazado_1170540" data-name="Trazado 1170540" d="M273.446,70.357a1.409,1.409,0,0,0-1.379-.946c-.017,0-.037-.005-.055-.005-.178,0-.363-.041-.354-.252.01-.255.244-.137.385-.168a.118.118,0,0,1,.035,0c.421.046.823.089,1.223.135a.9.9,0,0,1,.484.244c.2.167.39.336.591.495a.34.34,0,0,1,.082.553C274.133,70.859,273.673,70.878,273.446,70.357Z" transform="translate(-177.145 -60.344)" fill="#5758ff" fill-rule="evenodd"/>
                      <path id="Trazado_1170541" data-name="Trazado 1170541" d="M285.711,71.03c0,.241-.162.312-.344.368-.3.091-.6.183-.9.262a1.419,1.419,0,0,1-1.111-.442.255.255,0,0,1-.04-.1c-.015-.226.448-.693.716-.69.42.083.873.165,1.322.263C285.532,70.729,285.713,70.773,285.711,71.03Z" transform="translate(-198.102 -60.573)" fill="#5758ff" fill-rule="evenodd"/>
                      <path id="Trazado_1170542" data-name="Trazado 1170542" d="M284.272,66.079c-.637.236-1.275.47-1.907.713a.439.439,0,0,1-.465-.045c-.2-.155-.211-.268.016-.412.355-.228.724-.434,1.084-.654a1.311,1.311,0,0,1,.9-.239c.149,0,.259-.008.368,0a.291.291,0,0,1,.263.452A.406.406,0,0,1,284.272,66.079Z" transform="translate(-195.647 -59.78)" fill="#5758ff" fill-rule="evenodd"/>
                      <path id="Trazado_1170543" data-name="Trazado 1170543" d="M405.446,138.355c-.024-.1.053-.169.142-.208.438-.186.878-.37,1.319-.549.065-.027.168-.054.207-.023.283.226.56.058.834,0,.377-.078.749-.177,1.123-.263.132-.031.274-.028.332.118.073.187-.109.208-.215.246a13.312,13.312,0,0,1-3.479.779C405.6,138.474,405.477,138.5,405.446,138.355Z" transform="translate(-424.575 -71.176)" fill="#5758ff" fill-rule="evenodd"/>
                      <path id="Trazado_1170544" data-name="Trazado 1170544" d="M417.179,128.169a.2.2,0,0,1,.032.206c-.041.077-.114.059-.191.045-.247-.047-.448-.245-.71-.224-.128.179-.059.369-.086.546-.015.13-.024.264-.187.3s-.3.016-.365-.155a.419.419,0,0,0-.39-.321c-.04,0-.087-.062-.108-.105a1.418,1.418,0,0,1,.247-1.084c.071-.072.159-.119.235-.037a3.393,3.393,0,0,0,1.258.637A.6.6,0,0,1,417.179,128.169Z" transform="translate(-440.543 -69.59)" fill="#5758ff" fill-rule="evenodd"/>
                      <path id="Trazado_1170545" data-name="Trazado 1170545" d="M289.12,73.685c-.173-.058-.353-.1-.524-.167a.907.907,0,0,1-.59-.678c.341,0,.618-.019.892.005.378.034.755.1,1.135.155a3.682,3.682,0,0,1-.135,1.181c-.017.128-.027.284-.216.24-.157-.037-.364-.091-.278-.318C289.512,73.8,289.32,73.751,289.12,73.685Z" transform="translate(-206.392 -60.954)" fill="#5758ff" fill-rule="evenodd"/>
                      <path id="Trazado_1170546" data-name="Trazado 1170546" d="M398.544,64.007a5.644,5.644,0,0,1-1.583-.663c1.035-.572,1.461-.534,2.252.172C399.024,63.737,398.846,64.062,398.544,64.007Z" transform="translate(-407.231 -59.387)" fill="#5758ff" fill-rule="evenodd"/>
                      <path id="Trazado_1170547" data-name="Trazado 1170547" d="M346.565,92.56a.212.212,0,0,1-.239-.181,6.226,6.226,0,0,1-.157-1.623c.81.437.995.883.694,1.6A.3.3,0,0,1,346.565,92.56Z" transform="translate(-312.262 -63.796)" fill="#5758ff" fill-rule="evenodd"/>
                      <path id="Trazado_1170548" data-name="Trazado 1170548" d="M420.211,110.365c.115.065.316.04.407.193a.309.309,0,0,1-.14.424c-.257.141-.233.339-.187.56a1.512,1.512,0,0,1,.031.161.2.2,0,0,1-.18.232.179.179,0,0,1-.21-.13c-.1-.237-.2-.47-.277-.714A.74.74,0,0,1,420.211,110.365Z" transform="translate(-447.764 -66.905)" fill="#5758ff" fill-rule="evenodd"/>
                      <path id="Trazado_1170549" data-name="Trazado 1170549" d="M269.553,97.337c-.472.853-.746.876-1.38.823A1.715,1.715,0,0,1,269.553,97.337Z" transform="translate(-169.203 -64.839)" fill="#5758ff" fill-rule="evenodd"/>
                      <path id="Trazado_1170550" data-name="Trazado 1170550" d="M301.289,120.562c.573-.25.64-.228.915.285h0c0-.126.009-.253.008-.378s.025-.224.165-.231a.2.2,0,0,1,.236.178.846.846,0,0,0,.427.682c-.549.185-.549.185-.841-.258,0,.109,0,.218-.008.329a.177.177,0,0,1-.1.178.174.174,0,0,1-.238-.069c-.143-.3-.45-.4-.7-.516A.2.2,0,0,1,301.289,120.562Z" transform="translate(-230.439 -68.47)" fill="#5758ff" fill-rule="evenodd"/>
                      <path id="Trazado_1170551" data-name="Trazado 1170551" d="M414.235,118.052c-.135-.319-.236-.65-.321-.9,0-.178,0-.273.079-.337s.137-.022.2.018a1.176,1.176,0,0,1,.289,1.2C414.416,118.138,414.3,118.2,414.235,118.052Z" transform="translate(-436.832 -67.923)" fill="#5758ff" fill-rule="evenodd"/>
                      <path id="Trazado_1170552" data-name="Trazado 1170552" d="M422.083,111.044a2.241,2.241,0,0,1-.464-.158.292.292,0,0,1-.184-.311c.029-.178.192-.124.354-.141a3.008,3.008,0,0,1,.441.084c.155.047.16.184.125.319S422.236,111.078,422.083,111.044Z" transform="translate(-450.978 -66.916)" fill="#5758ff" fill-rule="evenodd"/>
                      <path id="Trazado_1170553" data-name="Trazado 1170553" d="M432.263,137.008a.9.9,0,0,1-.613-.763c.414.2.706.651,1.247.615A.479.479,0,0,1,432.263,137.008Z" transform="translate(-470.104 -71.009)" fill="#5758ff" fill-rule="evenodd"/>
                      <path id="Trazado_1170554" data-name="Trazado 1170554" d="M416.932,138.8c.2.109.457.149.549.4.024.069.037.151-.034.2a.185.185,0,0,1-.146.013c-.325-.148-.647-.3-1.016-.474C416.528,138.723,416.724,138.686,416.932,138.8Z" transform="translate(-441.78 -71.404)" fill="#5758ff" fill-rule="evenodd"/>
                      <path id="Trazado_1170555" data-name="Trazado 1170555" d="M336.668,93.85l-.006,0a.013.013,0,0,1,.006,0Z" transform="translate(-293.948 -64.287)" fill="#5758ff" fill-rule="evenodd"/>
                      <path id="Trazado_1170556" data-name="Trazado 1170556" d="M336.451,93.1c.146-.171.3-.1.428.009.225.184.178.358-.143.607a.99.99,0,0,1-.26-.066C336.286,93.542,336.277,93.3,336.451,93.1Z" transform="translate(-294.016 -64.151)" fill="#5758ff" fill-rule="evenodd"/>
                      <path id="Trazado_1170557" data-name="Trazado 1170557" d="M407.252,120.3a.517.517,0,0,1,.329.194c.1.11.2.228.034.362-.113.089-.243.114-.324-.028s-.289-.254-.169-.466C407.142,120.331,407.212,120.323,407.252,120.3Z" transform="translate(-424.24 -68.481)" fill="#5758ff" fill-rule="evenodd"/>
                      <path id="Trazado_1170558" data-name="Trazado 1170558" d="M418.774,132.366a.115.115,0,0,1,.075.125,1.989,1.989,0,0,1-.2.807,1.35,1.35,0,0,1-.04-.826A.131.131,0,0,1,418.774,132.366Z" transform="translate(-445.043 -70.393)" fill="#5758ff" fill-rule="evenodd"/>
                      <path id="Trazado_1170559" data-name="Trazado 1170559" d="M305.508,121.087c.013.137-.11.174-.226.169s-.247-.017-.267-.141c-.029-.175.128-.128.228-.141C305.338,121,305.492,120.93,305.508,121.087Z" transform="translate(-236.156 -68.587)" fill="#5758ff" fill-rule="evenodd"/>
                      <path id="Trazado_1170560" data-name="Trazado 1170560" d="M416.873,125.673c-.058-.163.051-.271.142-.384a.693.693,0,0,1,.115-.055.337.337,0,0,1-.169.482A.1.1,0,0,1,416.873,125.673Z" transform="translate(-441.928 -69.263)" fill="#5758ff" fill-rule="evenodd"/>
                      <path id="Trazado_1170561" data-name="Trazado 1170561" d="M298.824,121.35c.034.125-.093.183-.2.2s-.252.05-.368-.094c.084-.145.205-.116.3-.136S298.782,121.188,298.824,121.35Z" transform="translate(-223.793 -68.633)" fill="#5758ff" fill-rule="evenodd"/>
                      <path id="Trazado_1170562" data-name="Trazado 1170562" d="M415.67,127.008a.3.3,0,0,1-.166-.352c.012-.084.072-.141.141-.116.16.054.189.194.169.346A.132.132,0,0,1,415.67,127.008Z" transform="translate(-439.436 -69.469)" fill="#5758ff" fill-rule="evenodd"/>
                      <g id="Grupo_1221006" data-name="Grupo 1221006" transform="translate(-57.409 8.46)">
                        <path id="Trazado_1170563" data-name="Trazado 1170563" d="M368.195,142.1c.517.5,1,1.035,1.542,1.5a1.4,1.4,0,0,1,.539,1.4,1.123,1.123,0,0,0,.067.812,1.921,1.921,0,0,1,.066,1.881c-.088.22-.128.461-.194.689-.135.453-.146.459-.612.459s-.489-.013-.638-.438c-.024-.07-.043-.14-.066-.212-.5-1.652-.99-3.309-1.511-4.954a.964.964,0,0,1,.2-1.1C367.881,141.842,367.9,141.81,368.195,142.1Z" transform="translate(-296.276 -80.365)" fill="#5758ff" fill-rule="evenodd"/>
                        <path id="Trazado_1170564" data-name="Trazado 1170564" d="M340.2,92.282c-.088.243-.034.521-.421.488-.115-.01-.2.076-.264.173a.745.745,0,0,0,.246,1.221c.061.04.129.072.187.118a.49.49,0,0,1-.077.875c-.076.04-.185.034-.215.179.28.341.793.452,1.032.868a.264.264,0,0,1-.241.079c-.859-.188-1.722-.373-2.579-.569a1.772,1.772,0,0,1-.4-.183c-.133-.068-.137-.157-.029-.257.063-.058.173-.082.153-.21-.093-.157-.31-.176-.406-.348-.126-.228-.124-.4.118-.5a1.531,1.531,0,0,0,.783-.879c.176-.343.368-.679.547-1.021a.762.762,0,0,1,.316-.37c.406-.2.6-.474.372-.926a.507.507,0,0,1-.018-.219.2.2,0,0,1,.192-.223c.14-.024.33.049.406-.1s-.05-.315-.083-.475a1.133,1.133,0,0,1-.016-.158c.475-.117.709-.091.782.136a.927.927,0,0,1,.018.845A6.56,6.56,0,0,0,340.2,92.282Z" transform="translate(-240.942 -72.102)" fill="#5758ff" fill-rule="evenodd"/>
                        <path id="Trazado_1170565" data-name="Trazado 1170565" d="M336.137,95.667c-.121-.043-.241-.083-.363-.123-.879-.3-.871-.3-.905-1.239a.613.613,0,0,1,.215-.568.446.446,0,0,0,.373-.035c.219-.149-.038-.406.1-.592.32.374.317.387.594.433.175.029.329.053.363.262s-.086.3-.246.384c-.243.124-.236.291-.081.491.122.16.229.331.351.491a.345.345,0,0,1-.019.41C336.426,95.749,336.284,95.718,336.137,95.667Z" transform="translate(-234.96 -72.63)" fill="#5758ff" fill-rule="evenodd"/>
                        <path id="Trazado_1170566" data-name="Trazado 1170566" d="M364.4,136.658Z" transform="translate(-287.618 -79.534)" fill="#5758ff" fill-rule="evenodd"/>
                        <path id="Trazado_1170567" data-name="Trazado 1170567" d="M330.515,79.844c.041-.205.267-.235.428-.312,1.317-.623,2.629-1.258,3.956-1.851a5.017,5.017,0,0,1,1.432-.567c.964-.116,1.924-.281,2.889-.4.657-.083.66-.066.959.549a.9.9,0,0,1,.045.1c.089.278.257.262.472.139.32-.183.655-.341.963-.539a.924.924,0,0,1,.63-.143c.82.086,1.643.162,2.465.263.45.055.536.04.772-.337a4.914,4.914,0,0,0,.385-.669.6.6,0,0,1,.754-.38c.563.089,1.134.137,1.691.252a.51.51,0,0,0,.6-.242c.212-.3.445-.585.665-.88a.934.934,0,0,1,.827-.456,10.176,10.176,0,0,0,1.259-.127c1.1-.109,2.189-.262,3.278-.406a1.289,1.289,0,0,1,.747.13q1.7.808,3.4,1.6c.417.2.422.194.741-.149.7-.739,1.4-1.469,2.073-2.226a.7.7,0,0,1,.783-.229c.607.157,1.218.3,1.819.463a1.323,1.323,0,0,0,.811-.029c.924-.307,1.859-.591,2.789-.89a1.26,1.26,0,0,1,.7-.029c1.024.235,2.051.456,3.082.647a1.984,1.984,0,0,0,1.057.1,1.2,1.2,0,0,0-.491-.376c-.968-.571-1.945-1.131-2.917-1.695-.41-.237-.421-.252-.2-.685.145-.279.31-.544.453-.824a.631.631,0,0,1,.52-.359c.69-.1,1.372-.264,2.056-.4a3.435,3.435,0,0,1,1.629-.032c1.864.515,3.741.985,5.612,1.477a7.947,7.947,0,0,1,1.006.3c1.488.6,2.969,1.213,4.448,1.827.486.2.489.21.284.671-.323.724-.657,1.442-.984,2.164-.052.115-.158.246-.056.356.135.143.273,0,.395-.064.454-.242.911-.484,1.358-.745a2.083,2.083,0,0,1,2.267-.342c.579.139.581.139.583.727,0,1.421,0,2.842,0,4.263,0,.167-.085.37.109.5.13-.05.153-.167.209-.259a6.192,6.192,0,0,0,.672-2.813c.08-.915.167-1.832.229-2.747a.41.41,0,0,1,.448-.438,5.01,5.01,0,0,0,.883-.051c.3-.074.356.076.4.291.021.108.032.219.049.328.164,1.016.317,2.034.493,3.049.088.511.16.548.657.429.841-.2,1.684-.4,2.519-.621a1.6,1.6,0,0,1,1.017.05c1.863.7,3.738,1.362,5.6,2.062a.736.736,0,0,0,.848-.157c.356-.321.727-.624,1.093-.933.1-.082.192-.2.334-.122.113.064.07.2.071.3a9.9,9.9,0,0,0,.073,1.656c.075.4.092.417.435.219.079-.046.156-.1.236-.145.341-.2.329-.194.619.113.521.549,1.062,1.077,1.579,1.629a.422.422,0,0,0,.586.082,5.074,5.074,0,0,1,.8-.384,1.184,1.184,0,0,0,.653-.559c.308-.5.632-1,.945-1.5.055-.088.161-.166.063-.312a.516.516,0,0,0-.3.02c-.779.222-1.559.438-2.338.66a.765.765,0,0,1-.692,0,10.015,10.015,0,0,1-1.2-.9.232.232,0,0,1,.151-.2c.889-.408,1.8-.78,2.66-1.23a5.09,5.09,0,0,1,2.927-.589.8.8,0,0,0,.11,0,.232.232,0,0,1,.212-.1c0-.184,0-.369,0-.554.007-.832-.1-.76.782-.75a3.373,3.373,0,0,1,1.26.075q2.158.853,4.308,1.72a.93.93,0,0,1,.423.337c.907,1.275,1.839,2.532,2.736,3.816a4.142,4.142,0,0,0,1.409,1.361c.275.148.515.359.788.509a.844.844,0,0,1,.459.816,3.676,3.676,0,0,0,.061.824.969.969,0,0,1-.149.786c-.125.2-.245.412-.375.612-.228.35-.3.374-.676.2-.572-.257-1.137-.529-1.7-.8-.071.007-.14.013-.21.019-.213.845-.649,1.6-.938,2.417-.075.209-.213.21-.4.128-.266-.123-.542-.235-.82-.332a.824.824,0,0,1-.529-.519,10.381,10.381,0,0,0-.583-1.371,1.057,1.057,0,0,1,.135-1.313.7.7,0,0,0,.234-.488,2.335,2.335,0,0,0-.709-1.825c-.873-.7-1.671-1.493-2.5-2.246.054-.269.111-.539.164-.809-.054.27-.11.539-.164.809h-.14c-.135.122-.281.235-.407.368-.279.3-.279.3.009.624.4.451.808.9,1.222,1.345a.646.646,0,0,1,.2.49c-.01.478.005.957-.007,1.435a1.066,1.066,0,0,1-1.063.864c-.794-.14-1.587-.3-2.381-.444a.219.219,0,0,1-.2.088c.009.3-.105.665.347.767l.335.035c.307.031.613.059.921.094.277.031.637-.056.777.251.148.324-.118.579-.3.827,0,.087,0,.173,0,.259.052.135.106.269.152.406.076.236.213.267.411.137a3.8,3.8,0,0,1,.464-.281c.216-.1.416.039.5.341.077.279-.164.209-.3.255,0,.051,0,.1,0,.154.619-.028.675.017.781.632.037.045.073.093.109.139.348.114.449.232.435.514,0,.055,0,.11.006.165.219-.014.437-.04.655-.041a2.182,2.182,0,0,1,1.994.666l.22-.007a1.362,1.362,0,0,0,.156-.225.769.769,0,0,1,.862-.443c.274.024.551,0,.828,0,.156,0,.3-.022.356-.2.039-.112.113-.214.234-.184.174.045.1.207.112.326a.821.821,0,0,1-.012.164c-.031.249.014.434.316.47a.514.514,0,0,1,.373.3h.146c-.011-.134.052-.213.184-.208.248.009.566-.119.731.077a2.789,2.789,0,0,1,.788,1.316c.008.05.019.1.028.151a1,1,0,0,1,.761.226.512.512,0,0,1,.353.406.8.8,0,0,0,.644.6c.285.072.556.191.836.284.145.048.282.1.305.276.064.476.371.576.792.522a2.965,2.965,0,0,1,.441,0c.108,0,.234-.008.268.133a.307.307,0,0,1-.107.3,1.222,1.222,0,0,1-.535.28,1.417,1.417,0,0,0-1.006,1.059,1.392,1.392,0,0,0-.034.912,1.689,1.689,0,0,1,.152.639h0c0,.072.008.143.013.214l.206-.036c.087-.193.2-.21.342-.055a3.635,3.635,0,0,0,.88-.088c.1-.157.21-.165.334-.035.44-.035.878-.089,1.318-.1.768-.019.963.234.778.953-.024.094-.054.157-.125.178a.608.608,0,0,1,.12.242,4.414,4.414,0,0,1,.046,2.5c-.087.3-.328.324-.63.331a.425.425,0,0,1-.3-.075,1.089,1.089,0,0,1-.558.618c-.277.158-.5.05-.741.006a2.9,2.9,0,0,1-1.967-.851c-.2-.238-.348-.439-.261-.719a1,1,0,0,0-.353-1.072,1.865,1.865,0,0,0-.792-.475.513.513,0,0,1-.4-.626c0-.082,0-.16-.008-.24-.186-.1-.107-.346-.318-.479a.953.953,0,0,0-1.074,0c-.427.232-.53.176-.8-.293l-.135-.106c-.068-.026-.164-.032-.2-.08-.255-.362-.563-.258-.882-.125a1.276,1.276,0,0,0-.4.285c-.732.724-1.461,1.457-2.209,2.169a2.1,2.1,0,0,0-.671,1.106c-.023.115-.009.3-.234.342-.053-.232-.233-.423-.212-.673s.294-.414.22-.7a1.526,1.526,0,0,0-.587.231c-.115.05-.216.072-.289-.049s.009-.215.1-.278c.212-.146.435-.275.65-.417a4.038,4.038,0,0,0,.984-.7c.355-.422.713-.841,1.07-1.26.4-.464.272-.816-.34-.965l-.25-.033-.183.034c-.029.061-.06.121-.088.182-.055.408-.456.547-.655.846a1.142,1.142,0,0,1-.914.515c-.079,0-.16,0-.238,0-.075.1-.131.219-.288.2-.05.01-.1.019-.15.027.024.241,0,.443-.32.422-.039.044-.077.088-.113.13a2.248,2.248,0,0,1-.126.975.2.2,0,0,1-.211.141c0,.079-.012.157-.018.236a.609.609,0,0,1-.082.474c-.281.495-.557.995-.838,1.488-.04.072-.075.177-.234.137-.008-.41-.238-.634-.736-.619.214-.363.376-.668.571-.953.146-.212.1-.332-.12-.415a2.981,2.981,0,0,0-1.711-.385l-.287.011c-.243-.05-.407-.241-.62-.345a.15.15,0,0,1-.068-.231c.148-.2.263-.47.6-.361.006-.056.009-.11.013-.164a1.942,1.942,0,0,1-.482-.866c-.1-.09-.076-.211-.078-.327-.311-.171-.361-.492-.459-.788a.362.362,0,0,1-.212-.314c-.124-.225-.256-.444-.367-.674a.352.352,0,0,0-.444-.22c-.317.083-.636.172-.948.266-.16.048-.293.146-.156.316.263.326.019.5-.183.686a.511.511,0,0,1-.691-.006c-.214-.179-.027-.322.061-.47.027-.049.062-.093.088-.14.152-.276.14-.337-.152-.442-.43-.156-.866-.294-1.3-.439-.118.069-.167.248-.348.22-.127.369.117.636.27.92.116.215.116.382-.1.52a14.7,14.7,0,0,1-1.265.885c0,.146.018.3-.188.337-.192.157-.263.416-.475.556h0c0,.055.005.109.008.167a.319.319,0,0,1,.214.164.8.8,0,0,0,.868.438,4.6,4.6,0,0,0,1.882-.364,1.2,1.2,0,0,1,1.157-.019,2.805,2.805,0,0,0,1.7.378.9.9,0,0,1,.645.268c.738.536.735.538.729,1.441a1.272,1.272,0,0,1-1.21,1.166c-.329-.013-.653-.054-.98-.079-.6-.049-1.211-.1-1.818-.137-.167-.009-.39-.067-.439.205-.018.126-.164.136-.212.236a.722.722,0,0,1,.219.883c.036.077.074.156.113.232a.884.884,0,0,1,.207.637c-.005.1-.107.2.013.3a1.776,1.776,0,0,1,.463,1.05l.246.035a5.462,5.462,0,0,1,.595-.093,4.228,4.228,0,0,1,1.086-.107,5.29,5.29,0,0,0,2.482.072,1.334,1.334,0,0,1,.329-.011c.092,0,.187-.011.278-.018a3.032,3.032,0,0,1,1.162-.7,1.3,1.3,0,0,1,.963.087c.219.072.2.329.293.5a5.8,5.8,0,0,1,.229.559c.075.19.185.237.385.156.407-.163.82-.315,1.239-.447a1.076,1.076,0,0,0,.687-.509.919.919,0,0,1,.759-.477,3.613,3.613,0,0,1,1.094-.026c.04-.04.079-.081.117-.122.016-.088,0-.205.055-.261a1.407,1.407,0,0,0,.236-1.74.232.232,0,0,1,.187-.366c.241-.036.477-.183.732-.069l.222,0a13.28,13.28,0,0,1,1.911.126,6.767,6.767,0,0,1,3.436.974c.2.05.374-.135.576-.05.31-.044.618-.088.926-.13.183-.024.37-.063.517.094.666.714,1.568,1.258,1.754,2.328a2.821,2.821,0,0,0,1.693,2.138,1.507,1.507,0,0,1,.645.724c.419.817.865,1.621,1.3,2.429l.2.006v5.978c-.175-.022-.21.137-.3.228-.218.175-.341.474-.666.517-.05.01-.1.019-.153.03.014.455-.369.581-.655.788a.2.2,0,0,1-.174.213,1.8,1.8,0,0,1-.823.76l-.122.122c-.012.052-.008.121-.039.156-.38.392-.762.784-1.154,1.166a.426.426,0,0,1-.6.013l-.305-.007c-.228-.07-.455-.138-.682-.209a.991.991,0,0,0-.746-.061c-.049.121-.112.2-.231.06l-.438-.027a.215.215,0,0,1-.268.091,2.041,2.041,0,0,1-1.547-.511c-.1-.04-.2-.082-.3-.121-.223.032-1.89.029-2.043.241a1.7,1.7,0,0,1-1.577.7,1.226,1.226,0,0,0-.217.031c-.088.011-.177.019-.264.027-.159.162-.367.264-.347.57.012.179.041.445.07.693a.321.321,0,0,1,.045.179.309.309,0,0,1-.011.082c.027.2.051.36.061.406a1.559,1.559,0,0,1,.013,1.122,8.607,8.607,0,0,1-.786,1.053c-.084.108-.177.12-.265,0-.047,0-.1,0-.144,0a3.375,3.375,0,0,1,.025.581c-.019.182-.04.4-.312.413-.011.05-.02.1-.03.151a.531.531,0,0,1,.036.311c-.076.069-.152.141-.227.212.13.024.191.083.142.228-.126.365-.247.734-.365,1.1a1.833,1.833,0,0,0-.137.592,7.055,7.055,0,0,0,.329,2.614,5.512,5.512,0,0,1,.183.635c.251.873.406.734.206,1.156-.723,2.141-1.425,4.222-2.125,6.3a.347.347,0,0,1-.22.315,2.339,2.339,0,0,1-.489.857,2.207,2.207,0,0,0-.4,1.126c-.019.257-.087.509-.1.765-.02.277-.131.406-.423.348-.125-.024-.257-.019-.384-.038-.985-.126-1.966-.277-2.954-.382a1.039,1.039,0,0,1-.791-.42c-.823-1.086-1.656-2.166-2.484-3.25-.231-.061-.148-.258-.178-.408a.909.909,0,0,1-.1-.423,1.149,1.149,0,0,0-.473-.768c-.95-.714-.822-.39-.594-1.621a1,1,0,0,0-.016-.638,3.65,3.65,0,0,0-2.182-2.544.826.826,0,0,0-.146-.08.566.566,0,0,1-.358-.664c.046-.751.082-1.5.129-2.256a1.1,1.1,0,0,1,.09-.256c.01-.077.019-.157.031-.234a1.117,1.117,0,0,1,0-.492c.145-.737.294-1.473.44-2.21h0c-.008-.081-.018-.16-.025-.238l-.051-.058h0a9.89,9.89,0,0,1-.867-1.439,1.237,1.237,0,0,1-.214-.727l-.2-.012c-.191.017-.3-.13-.425-.229-.79-.632-1.575-1.271-2.364-1.9a1.1,1.1,0,0,1-.282-.4q-.833-1.714-1.664-3.431a.947.947,0,0,1-.125-.474c.018-.346.106-.429.438-.353.682.156,1.36.321,2.038.486a1.884,1.884,0,0,0,1.519.024c.119.155.292.134.324-.013l-.1-.253c-.12-.426-.092-.477.293-.565.02-.107.017-.223.117-.3a.851.851,0,0,1,.279-.4,6.116,6.116,0,0,0,1.4-2.03.655.655,0,0,1,.221-.337c.166-.806.5-1.56.724-2.347a.857.857,0,0,1,.6-.645c.038-.038.081-.076.122-.114-.1-.238.031-.429.129-.625.347-.692.7-1.382,1.048-2.072a1.753,1.753,0,0,0,.206-1.078c-.283.091-.4.31-.576.462-.121.108-.215.131-.319-.007l-.058-.109h0a.2.2,0,0,0-.223.171.218.218,0,0,1-.173.171q-1.284,2.446-2.565,4.888c-.283.537-.565,1.075-.853,1.609-.082.151-.123.372-.382.312h0c-.006.056-.01.109-.013.162a.377.377,0,0,1,.029.365c-.128.344-.233.7-.353,1.043-.168.495-.172.5-.648.333-1.058-.371-2.11-.761-3.174-1.12a1.549,1.549,0,0,1-.958-.843.229.229,0,0,1-.2-.1,1.886,1.886,0,0,1-1.336-.664c-.484-.622-1-1.215-1.481-1.841-.166-.215-.507-.4-.459-.65.055-.286.459-.3.707-.428.335-.176.719-.269.9-.648.051-.037.1-.074.153-.109-.124-.2-.234-.417.009-.576s.343.1.474.234a.4.4,0,0,1,.029.046,1.036,1.036,0,0,0,1.1.541,5.051,5.051,0,0,1,.766-.006c.048-.054.1-.109.141-.164-.236-.2-.138-.438-.042-.657.033-.076.119-.022.174.025l.193.008a11.648,11.648,0,0,1,.974-1.656.323.323,0,0,1,.24-.121c.037-.106.071-.214.109-.321a.449.449,0,0,1,.1-.3,1.744,1.744,0,0,1-.781-.279c-.567.462-1.176.886-1.695,1.4a1.157,1.157,0,0,1-1.372.3.855.855,0,0,0-1.154.411,3.282,3.282,0,0,1-.377.473c-.056.067-.138.169-.205.166a3.411,3.411,0,0,1-1.455-.09l-.263.013a8.583,8.583,0,0,1-1.213-.006,1.667,1.667,0,0,0-1.874.8c-.018.2-.162.215-.316.21a2.8,2.8,0,0,1-.692,1.167c-.3.438-.316.43-.816.2-.209-.093-.35-.093-.4.175-.066.362-.139.72-.218,1.08a8.875,8.875,0,0,1-.36,1.72c-.613,1.38-1.271,2.736-1.921,4.1-.123.261-.211.268-.387.042-.326-.422-.628-.862-.95-1.287a.784.784,0,0,1-.131-.522c0-.534,0-1.069,0-1.6a.516.516,0,0,0-.153-.446c-.954-.836-1.907-1.673-2.844-2.528a6.989,6.989,0,0,1-1.266-1.207c-.069-.011-.141-.023-.214-.033a2.187,2.187,0,0,1-.8-.147c-.426-.082-.423-.094-.708.3-.018.2-.169.205-.32.21.019.423-.275.709-.471,1.03a2.83,2.83,0,0,0-.659,1.979c.008.044-.034.1-.056.157a2.233,2.233,0,0,1-.728-.24c-.576-.231-.608-.213-.661.391a.329.329,0,0,1-.1.245,8.66,8.66,0,0,0-.236,1.833c.026.232-.161.247-.335.247.051.215.091.432.159.645a1.524,1.524,0,0,1,.036.763,2.248,2.248,0,0,1-1.056,1.42c-.157.108-.373.264-.608.1-.032-.187.122-.261.216-.364.272-.3.54-.606.83-.887a1.094,1.094,0,0,0,.3-1.065,14.066,14.066,0,0,0-.363-1.387c-.081-.265-.18-.292-.406-.141-.283.188-.555.4-.832.6-.054-.083-.1-.161-.148-.238-.063,0-.123.005-.187.009a1,1,0,0,1-.7,1.112c0,.071,0,.141,0,.211a1.361,1.361,0,0,1-.175.63c-.065.206-.175.263-.363.107q-.83-.689-1.669-1.362a.6.6,0,0,1-.216-.533,11.19,11.19,0,0,0,.106-1.265.861.861,0,0,1,.284-.688c.345-.36.668-.738.99-1.117a1.753,1.753,0,0,0,.37-.914c.039-.3-.279-.411-.42-.618a2.067,2.067,0,0,0-.316-.307.3.3,0,0,1-.093-.348l-.159-.013h0c-.214.156-.428-.008-.643-.007-.293,0-.618-.094-.616.381a.163.163,0,0,1-.146.143.142.142,0,0,1-.162-.119c-.117-.4-.461-.495-.792-.61-.417-.146-.828-.32-1.255-.427a5.49,5.49,0,0,1-1.982-1.162,1.089,1.089,0,0,1-.248-.294c-.382-.63-.748-1.269-1.139-1.895a1.2,1.2,0,0,1-.2-.726,4.163,4.163,0,0,0-.013-.663,1.627,1.627,0,0,1,.347-1.237c.225-.289.388-.626.6-.927a.552.552,0,0,0-.019-.74,1.49,1.49,0,0,0-.864-.716.859.859,0,0,1-.25-.118.192.192,0,0,1-.1-.233.2.2,0,0,1,.257-.154c.18.046.351.11.527.164a.563.563,0,0,0,.53-.034c.316-.222.64-.435.953-.661.177-.126.173-.253,0-.395-.534-.426-1.057-.862-1.587-1.291a.441.441,0,0,0-.19-.105.6.6,0,0,0-.567.135c-.119.139.051.268.088.4a.553.553,0,0,1,.022.051c.027.187.277.39.066.546-.187.137-.37-.082-.541-.175a6.818,6.818,0,0,0-.882-.454,3.572,3.572,0,0,0-.666-.734,3.489,3.489,0,0,1,.664.734l-.259.028c-.119.376-.365.733-.122,1.157.072.126-.051.21-.178.287-.286.173-.524.035-.767-.077-.384-.175-.443-.3-.249-.666.128-.24.091-.381-.145-.474a1.642,1.642,0,0,1-.889-.931,6.341,6.341,0,0,0-.4-.663.591.591,0,0,1-.139-.4c-.066-.007-.091-.052-.1-.111l-.244-.126a2.063,2.063,0,0,0-.762.093.33.33,0,0,1-.364-.057,6.861,6.861,0,0,1-1.507-1.367c-.511-.789-1.047-1.563-1.575-2.34a1.176,1.176,0,0,1-.21-.558,12.348,12.348,0,0,0-.262-1.743,1.3,1.3,0,0,1,.37-1.34c.23-.243.432-.321.708-.181a.811.811,0,0,0,1.006-.121,1.829,1.829,0,0,1,.281-.174c.392-.243.406-.263.065-.592-.963-.938-1.94-1.862-2.905-2.8a1.252,1.252,0,0,0-.8-.326c-.549-.054-1.1-.133-1.644-.173a14.773,14.773,0,0,0-2.092-.087,11.564,11.564,0,0,0-1.65.111c-.3.065-.432-.086-.475-.394a.593.593,0,0,0-.132-.3c-.516-.666-.96-1.436-2-1.294-.034.005-.072-.019-.107-.027-.409-.075-.409-.073-.577.3-.03.066-.054.137-.088.2-.133.251-.194.269-.407.068a10.641,10.641,0,0,1-.854-.867,1.014,1.014,0,0,0-.952-.3c-.2.015-.278.138-.2.3a3.237,3.237,0,0,0,.775,1.319c.349.275.686.559,1.032.837.828.672,1.662,1.344,2.492,2.014a.631.631,0,0,1,.305.607c-.128.873-.144,1.755-.226,2.631a2.857,2.857,0,0,1-.163,1.028,5.013,5.013,0,0,1-.907-.94c-.772-.789-1.518-1.605-2.279-2.4a.517.517,0,0,1-.115-.6c.115-.291.21-.59.324-.882a.534.534,0,0,0,.014-.478q-.355-.658-.709-1.314a.546.546,0,0,0-.311-.22c-.564-.226-1.132-.446-1.7-.67a.475.475,0,0,0-.506.079c-.247.178-.454.581-.74.5s-.43-.477-.61-.754a1.491,1.491,0,0,0-.72-.655,2.973,2.973,0,0,1-.58-.319,2.453,2.453,0,0,0-2.38-.391c-.279.111-.406-.021-.492-.268s-.112-.464.126-.643c.146-.111.277-.244.421-.356a.394.394,0,0,0,.125-.534c-.2-.487-.263-.533-.828-.534h-2.656c-.517,0-1.035,0-1.551,0-.124,0-.287.023-.323-.14A2.039,2.039,0,0,1,330.515,79.844Zm51.452,28.327a.4.4,0,0,1,.045-.046c-.016.015-.03.03-.045.046Z" transform="translate(-330.475 -68.77)" fill="#5758ff" fill-rule="evenodd"/>
                        <path id="Trazado_1170568" data-name="Trazado 1170568" d="M364.42,136.646l-.016-.066Z" transform="translate(-287.634 -79.522)" fill="#5758ff" fill-rule="evenodd"/>
                        <path id="Trazado_1170569" data-name="Trazado 1170569" d="M364.484,136.537l-.061-.231h0Z" transform="translate(-287.715 -79.479)" fill="#5758ff" fill-rule="evenodd"/>
                        <path id="Trazado_1170570" data-name="Trazado 1170570" d="M389.507,128.075a1.028,1.028,0,0,1,.448-.6.148.148,0,0,1,.235.024,1.372,1.372,0,0,1-.064,1.422c-.168.188-.34.023-.507.018-.151-.005-.221-.114-.192-.266C389.454,128.472,389.469,128.271,389.507,128.075Z" transform="translate(-334.623 -78.071)" fill="#5758ff" fill-rule="evenodd"/>
                        <path id="Trazado_1170571" data-name="Trazado 1170571" d="M348.788,108.114c-.07.034-.157.043-.2-.03a.71.71,0,0,1-.14-.517c.051-.19.241-.12.379-.135.053,0,.109,0,.164,0,.11,0,.222,0,.332,0,.091,0,.2-.011.238.094.05.129-.035.212-.134.265C349.22,107.906,349,108.01,348.788,108.114Z" transform="translate(-259.359 -74.9)" fill="#5758ff" fill-rule="evenodd"/>
                        <path id="Trazado_1170572" data-name="Trazado 1170572" d="M346.29,105.085a1.834,1.834,0,0,1-.25,1.106,1.71,1.71,0,0,1-.077-1.124.156.156,0,0,1,.174-.107C346.216,104.962,346.29,105,346.29,105.085Z" transform="translate(-253.937 -74.508)" fill="#5758ff" fill-rule="evenodd"/>
                        <path id="Trazado_1170573" data-name="Trazado 1170573" d="M360.93,109.532a.716.716,0,0,1-.682-.057C360.459,109.415,360.68,109.3,360.93,109.532Z" transform="translate(-280.648 -75.212)" fill="#5758ff" fill-rule="evenodd"/>
                        <path id="Trazado_1170574" data-name="Trazado 1170574" d="M346.051,104.208c-.062-.311-.062-.311.068-.555C346.177,103.837,346.294,104.036,346.051,104.208Z" transform="translate(-253.936 -74.301)" fill="#5758ff" fill-rule="evenodd"/>
                      </g>
                      <path id="Trazado_1170575" data-name="Trazado 1170575" d="M410.453,130.5a.074.074,0,0,1-.049-.111c.012-.021.054-.025.082-.035a.079.079,0,0,1,.049.113A.106.106,0,0,1,410.453,130.5Z" transform="translate(-429.865 -70.074)" fill="#5758ff" fill-rule="evenodd"/>
                    </g>
                  </g>
                  <g id="Grupo_1221012" data-name="Grupo 1221012" transform="translate(0.192 21.168)">
                    <g id="Grupo_1221009" data-name="Grupo 1221009" transform="translate(28.144 33.985)">
                      <path id="Trazado_1170576" data-name="Trazado 1170576" d="M387.443,125.7a.415.415,0,0,0,.2-.05l1.11-.595a.421.421,0,1,0-.395-.743l-1.115.6a.421.421,0,0,0,.2.791Z" transform="translate(-387.021 -124.262)" fill="#fff"/>
                    </g>
                    <g id="Grupo_1221010" data-name="Grupo 1221010" transform="translate(0)">
                      <path id="Trazado_1170577" data-name="Trazado 1170577" d="M249.107,150.254q.764,0,1.558-.017a.421.421,0,0,0-.009-.841h-.009q-1.294.027-2.5.009a.421.421,0,1,0-.012.841Q248.612,150.254,249.107,150.254Zm4.9-.151h.024q1.233-.072,2.523-.177a.421.421,0,0,0,.384-.454.429.429,0,0,0-.453-.385q-1.28.1-2.5.177a.421.421,0,0,0,.025.841Zm-9.227,0a.421.421,0,0,0,.031-.841c-.87-.066-1.7-.155-2.478-.264a.421.421,0,1,0-.116.833c.792.111,1.643.2,2.531.269Zm15.083-.5.046,0q1.233-.134,2.509-.294a.421.421,0,1,0-.105-.836q-1.268.16-2.494.293a.421.421,0,0,0,.044.84Zm-20.878-.435a.421.421,0,0,0,.112-.826,14.284,14.284,0,0,1-2.3-.835.421.421,0,1,0-.362.76,15.21,15.21,0,0,0,2.432.885A.42.42,0,0,0,238.989,149.172Zm26.708-.314a.393.393,0,0,0,.062,0q1.231-.182,2.495-.385a.421.421,0,0,0-.135-.831q-1.257.2-2.483.383a.42.42,0,0,0,.061.836Zm5.8-.946a.382.382,0,0,0,.075-.007q1.228-.218,2.482-.458a.421.421,0,0,0-.158-.826q-1.25.237-2.473.455a.421.421,0,0,0,.074.836Zm5.773-1.108a.43.43,0,0,0,.086-.008q1.223-.251,2.469-.519a.421.421,0,0,0-.178-.822q-1.241.268-2.461.518a.42.42,0,0,0,.084.832Zm-43.3-.5a.421.421,0,0,0,.335-.677,4.007,4.007,0,0,1-.607-1.117,3.913,3.913,0,0,1-.205-.975.42.42,0,1,0-.838.068,4.713,4.713,0,0,0,.249,1.185,4.835,4.835,0,0,0,.732,1.351A.422.422,0,0,0,233.976,146.306Zm49.039-.748a.4.4,0,0,0,.093-.011q1.221-.279,2.457-.574a.421.421,0,0,0-.194-.819q-1.236.293-2.45.572a.421.421,0,0,0,.094.831Zm5.716-1.37a.427.427,0,0,0,.1-.013q1.215-.3,2.445-.623a.42.42,0,1,0-.211-.814q-1.228.318-2.438.621a.42.42,0,0,0,.1.828Zm5.688-1.48a.386.386,0,0,0,.11-.015q1.209-.327,2.433-.667a.421.421,0,0,0-.225-.811q-1.22.34-2.428.666a.421.421,0,0,0,.109.827Zm5.66-1.583a.4.4,0,0,0,.117-.017q1.2-.348,2.421-.709a.421.421,0,1,0-.24-.807q-1.213.361-2.414.708a.421.421,0,0,0,.116.825Zm-66.312-.377a.419.419,0,0,0,.382-.245,13.5,13.5,0,0,1,1.234-2.1.42.42,0,1,0-.687-.485,14.166,14.166,0,0,0-1.312,2.235.419.419,0,0,0,.382.6Zm71.945-1.3a.411.411,0,0,0,.123-.018q1.2-.369,2.408-.749a.421.421,0,0,0-.253-.8q-1.205.38-2.4.747a.421.421,0,0,0,.125.823Zm5.6-1.77a.433.433,0,0,0,.13-.02q1.194-.387,2.4-.787a.421.421,0,0,0-.265-.8q-1.2.4-2.391.785a.42.42,0,0,0,.13.82Zm-74.141-1.683a.418.418,0,0,0,.307-.133c.533-.569,1.126-1.16,1.765-1.756a.421.421,0,0,0-.576-.615c-.651.609-1.259,1.213-1.8,1.8a.421.421,0,0,0,.308.709Zm79.717-.176a.429.429,0,0,0,.136-.023q.949-.324,1.9-.656l.482-.167a.421.421,0,0,0-.278-.8l-.48.167q-.95.331-1.9.654a.421.421,0,0,0,.136.82Zm5.547-1.944a.421.421,0,0,0,.142-.024q1.191-.428,2.371-.861a.42.42,0,1,0-.289-.789q-1.178.432-2.367.858a.42.42,0,0,0,.143.816Zm-80.951-1.865a.414.414,0,0,0,.267-.1q.935-.769,1.963-1.554a.421.421,0,0,0-.511-.669q-1.04.8-1.986,1.573a.421.421,0,0,0,.267.746Zm86.468-.164a.415.415,0,0,0,.148-.027q1.186-.447,2.359-.9a.421.421,0,1,0-.3-.785q-1.17.449-2.352.9a.42.42,0,0,0,.148.814Zm5.484-2.117a.421.421,0,0,0,.155-.029q1.179-.466,2.343-.936a.421.421,0,1,0-.316-.78q-1.161.47-2.336.933a.421.421,0,0,0,.154.812Zm-87.267-1.269a.424.424,0,0,0,.242-.077q1-.706,2.067-1.42a.421.421,0,0,0-.468-.7q-1.075.721-2.084,1.432a.42.42,0,0,0,.242.764Zm92.715-.938a.415.415,0,0,0,.161-.032q1.173-.486,2.327-.976a.421.421,0,0,0-.328-.775q-1.151.488-2.321.974a.421.421,0,0,0,.161.809Zm5.41-2.3a.424.424,0,0,0,.168-.035q1.164-.507,2.308-1.017a.421.421,0,1,0-.342-.769q-1.142.507-2.3,1.015a.421.421,0,0,0,.168.806Zm-93.235-.018a.419.419,0,0,0,.225-.065q1.041-.658,2.136-1.322a.421.421,0,1,0-.438-.719q-1.1.668-2.147,1.329a.421.421,0,0,0,.225.777Zm98.6-2.383a.436.436,0,0,0,.176-.038q1.155-.531,2.288-1.063a.42.42,0,1,0-.357-.762q-1.13.53-2.283,1.059a.421.421,0,0,0,.176.8Zm-93.57-.656a.417.417,0,0,0,.211-.056q1.072-.621,2.184-1.244a.421.421,0,0,0-.413-.734q-1.117.626-2.193,1.25a.42.42,0,0,0,.211.784Zm98.888-1.851a.42.42,0,0,0,.183-.042q1.147-.555,2.266-1.112a.421.421,0,0,0-.374-.753q-1.114.554-2.258,1.108a.421.421,0,0,0,.183.8Zm5.26-2.624a.43.43,0,0,0,.193-.046q1.135-.583,2.238-1.166a.421.421,0,0,0-.393-.745q-1.1.582-2.23,1.162a.421.421,0,0,0,.192.8Zm5.192-2.757a.424.424,0,0,0,.2-.051q1.122-.616,2.205-1.229a.421.421,0,1,0-.415-.732q-1.078.611-2.2,1.223a.42.42,0,0,0,.2.789Zm5.108-2.909a.415.415,0,0,0,.215-.059q1.106-.655,2.163-1.3a.421.421,0,0,0-.441-.717q-1.05.646-2.152,1.3a.42.42,0,0,0,.215.783Zm5-3.094a.421.421,0,0,0,.229-.067q1.085-.7,2.108-1.4a.42.42,0,0,0-.472-.7q-1.016.689-2.092,1.388a.42.42,0,0,0-.125.581A.415.415,0,0,0,375.542,108.925Zm4.846-3.326a.416.416,0,0,0,.247-.081q1.053-.77,2.022-1.526a.421.421,0,0,0-.518-.664q-.958.747-2,1.509a.421.421,0,0,0,.25.762ZM385,101.951a.421.421,0,0,0,.276-.1c.667-.58,1.3-1.157,1.875-1.716a.421.421,0,0,0-.585-.6c-.566.548-1.186,1.115-1.842,1.685a.421.421,0,0,0-.041.594A.416.416,0,0,0,385,101.951Zm4.156-4.146a.421.421,0,0,0,.323-.151,20.4,20.4,0,0,0,1.531-2.06.421.421,0,0,0-.708-.455,19.658,19.658,0,0,1-1.469,1.975.42.42,0,0,0,.322.691Zm2.89-5.045a.422.422,0,0,0,.408-.319,6.257,6.257,0,0,0,.194-1.5,4.988,4.988,0,0,0-.142-1.193.421.421,0,1,0-.817.2,4.134,4.134,0,0,1,.118.991,5.4,5.4,0,0,1-.169,1.293.421.421,0,0,0,.306.51A.434.434,0,0,0,392.043,92.759Zm-1.834-5.18a.421.421,0,0,0,.255-.756,9.983,9.983,0,0,0-2.3-1.263.421.421,0,1,0-.315.781,9.106,9.106,0,0,1,2.1,1.154A.421.421,0,0,0,390.209,87.58Zm-25.5-2.141.049,0q1.272-.144,2.5-.261a.421.421,0,0,0,.379-.459.428.428,0,0,0-.459-.379q-1.233.116-2.513.263a.42.42,0,0,0,.046.838Zm20.078,0a.421.421,0,0,0,.083-.833c-.779-.159-1.627-.294-2.521-.4a.421.421,0,0,0-.1.836c.87.1,1.7.236,2.452.39A.382.382,0,0,0,384.791,85.436Zm-14.226-.527h.028q1.285-.085,2.5-.132a.42.42,0,0,0-.017-.841h-.017q-1.231.048-2.526.133a.42.42,0,0,0,.027.84Zm8.393-.135a.421.421,0,0,0,.018-.841q-1.219-.054-2.535-.059h0a.421.421,0,0,0,0,.841q1.3,0,2.5.058Z" transform="translate(-232.659 -83.873)" fill="#fff"/>
                    </g>
                    <g id="Grupo_1221011" data-name="Grupo 1221011" transform="translate(126.999 1.149)">
                      <path id="Trazado_1170578" data-name="Trazado 1170578" d="M269.8,86.254a.367.367,0,0,0,.061,0q.629-.091,1.246-.174a.421.421,0,0,0-.114-.834q-.621.085-1.253.176a.42.42,0,0,0,.06.836Z" transform="translate(-269.375 -85.238)" fill="#fff"/>
                    </g>
                  </g>
                  <g id="Grupo_1221016" data-name="Grupo 1221016" transform="translate(0 9.876)">
                    <g id="Grupo_1221013" data-name="Grupo 1221013" transform="translate(38.35 4.231)">
                      <path id="Trazado_1170579" data-name="Trazado 1170579" d="M376.634,76.644a.421.421,0,0,0,.109-.828l-1.223-.321a.421.421,0,1,0-.212.815l1.218.321A.4.4,0,0,0,376.634,76.644Z" transform="translate(-374.993 -75.481)" fill="#fff"/>
                    </g>
                    <g id="Grupo_1221014" data-name="Grupo 1221014">
                      <path id="Trazado_1170580" data-name="Trazado 1170580" d="M381.405,147.123c.289,0,.574,0,.854-.008a.421.421,0,0,0-.008-.841h-.008q-1.194.024-2.5-.02a.408.408,0,0,0-.435.406.42.42,0,0,0,.406.434Q380.585,147.123,381.405,147.123Zm4.194-.235a.369.369,0,0,0,.052,0,20.489,20.489,0,0,0,2.528-.465.42.42,0,1,0-.209-.815,19.608,19.608,0,0,1-2.422.446.42.42,0,0,0,.051.837Zm-9.218,0a.421.421,0,0,0,.036-.841q-1.212-.106-2.494-.258a.431.431,0,0,0-.467.369.421.421,0,0,0,.369.468q1.294.154,2.518.261Zm-5.834-.714a.421.421,0,0,0,.063-.836q-1.213-.187-2.477-.408a.428.428,0,0,0-.486.342.421.421,0,0,0,.342.487q1.272.223,2.494.411A.42.42,0,0,0,370.547,146.173Zm20.618-1.016a.415.415,0,0,0,.229-.068,5.545,5.545,0,0,0,1.87-1.94.42.42,0,1,0-.736-.406,4.71,4.71,0,0,1-1.593,1.642.42.42,0,0,0,.231.772Zm-26.405-.015a.421.421,0,0,0,.082-.833q-1.209-.244-2.459-.516a.421.421,0,0,0-.179.822q1.256.274,2.472.518A.413.413,0,0,0,364.76,145.143Zm-5.741-1.264a.421.421,0,0,0,.1-.831q-1.2-.288-2.441-.6a.421.421,0,0,0-.205.816q1.241.313,2.451.6A.393.393,0,0,0,359.018,143.879Zm-5.7-1.447a.421.421,0,0,0,.109-.827q-1.2-.323-2.424-.667a.421.421,0,1,0-.228.81q1.229.346,2.433.67A.418.418,0,0,0,353.323,142.432Zm-5.656-1.6a.421.421,0,0,0,.119-.825q-1.193-.353-2.407-.726a.421.421,0,0,0-.247.8q1.217.374,2.416.729A.391.391,0,0,0,347.667,140.831Zm45.677-.723a.357.357,0,0,0,.073-.007.419.419,0,0,0,.341-.487,10.036,10.036,0,0,0-.824-2.487.421.421,0,0,0-.762.358,9.225,9.225,0,0,1,.757,2.276A.421.421,0,0,0,393.343,140.108Zm-51.294-1.01a.421.421,0,0,0,.129-.821q-1.189-.38-2.393-.778a.42.42,0,1,0-.263.8q1.207.4,2.4.78A.426.426,0,0,0,342.049,139.1Zm-5.579-1.849a.421.421,0,0,0,.137-.819q-1.181-.4-2.377-.825a.421.421,0,1,0-.279.793q1.2.42,2.384.826A.4.4,0,0,0,336.47,137.25Zm-5.543-1.955a.421.421,0,0,0,.144-.817q-1.176-.427-2.363-.867a.421.421,0,1,0-.293.789q1.189.442,2.368.869A.429.429,0,0,0,330.927,135.3Zm59.9-.444a.416.416,0,0,0,.244-.078.421.421,0,0,0,.1-.587c-.463-.646-.992-1.323-1.573-2.009a.421.421,0,1,0-.641.544c.566.669,1.082,1.327,1.531,1.955A.42.42,0,0,0,390.83,134.851Zm-65.412-1.608a.421.421,0,0,0,.151-.814q-1.169-.447-2.347-.908a.421.421,0,0,0-.305.784q1.181.462,2.352.91A.421.421,0,0,0,325.418,133.243Zm-5.472-2.146a.421.421,0,0,0,.157-.811q-1.162-.467-2.332-.946a.421.421,0,1,0-.319.778q1.173.48,2.337.947A.393.393,0,0,0,319.946,131.1Zm67.062-.7a.421.421,0,0,0,.3-.716q-.856-.871-1.817-1.77a.421.421,0,0,0-.576.613q.945.886,1.791,1.745A.418.418,0,0,0,387.008,130.395Zm-72.5-1.53a.421.421,0,0,0,.163-.809q-1.155-.485-2.316-.982a.42.42,0,1,0-.33.773q1.164.5,2.322.984A.4.4,0,0,0,314.509,128.865Zm-5.4-2.317a.421.421,0,0,0,.168-.806l-.467-.2q-.92-.405-1.834-.813a.421.421,0,1,0-.343.768q.916.409,1.839.815l.469.205A.408.408,0,0,0,309.108,126.548ZM382.7,126.4a.42.42,0,0,0,.274-.74q-.935-.8-1.942-1.623a.421.421,0,0,0-.531.653q1,.813,1.924,1.609A.423.423,0,0,0,382.7,126.4Zm-78.958-2.249a.42.42,0,0,0,.175-.8q-1.15-.525-2.286-1.053a.421.421,0,0,0-.355.763q1.138.53,2.291,1.055A.432.432,0,0,0,303.743,124.148Zm74.39-1.448a.42.42,0,0,0,.256-.754q-.982-.754-2.019-1.519a.421.421,0,1,0-.5.677q1.029.76,2.006,1.509A.416.416,0,0,0,378.134,122.7Zm-79.719-1.036a.421.421,0,0,0,.181-.8q-1.142-.543-2.269-1.089a.42.42,0,1,0-.367.756q1.13.548,2.274,1.092A.409.409,0,0,0,298.414,121.664Zm-5.287-2.568a.421.421,0,0,0,.187-.8q-1.133-.563-2.251-1.127a.421.421,0,1,0-.379.751q1.12.565,2.256,1.129A.426.426,0,0,0,293.128,119.1Zm-5.244-2.656a.42.42,0,0,0,.193-.794q-1.126-.583-2.23-1.165a.421.421,0,1,0-.393.745q1.108.584,2.237,1.168A.421.421,0,0,0,287.884,116.439Zm-5.2-2.748a.421.421,0,0,0,.2-.791q-1.116-.6-2.209-1.206a.421.421,0,0,0-.406.737q1.1.6,2.214,1.209A.428.428,0,0,0,282.686,113.691Zm-5.144-2.845a.421.421,0,0,0,.207-.787q-1.1-.626-2.184-1.25a.421.421,0,0,0-.421.73q1.082.626,2.19,1.253A.425.425,0,0,0,277.543,110.846Zm-5.085-2.951a.421.421,0,0,0,.215-.783q-1.092-.65-2.156-1.3a.42.42,0,0,0-.437.719q1.067.649,2.162,1.3A.409.409,0,0,0,272.458,107.9Zm-5.016-3.066a.42.42,0,0,0,.224-.777q-1.077-.677-2.121-1.35a.42.42,0,0,0-.455.707q1.048.675,2.13,1.355A.415.415,0,0,0,267.442,104.829Zm-4.933-3.2a.42.42,0,0,0,.233-.77q-1.061-.709-2.081-1.411a.42.42,0,1,0-.476.693q1.024.706,2.09,1.418A.421.421,0,0,0,262.508,101.633Zm-4.834-3.347a.421.421,0,0,0,.246-.762q-1.036-.747-2.026-1.484a.421.421,0,0,0-.5.675q.993.741,2.038,1.493A.416.416,0,0,0,257.674,98.286Zm-4.7-3.532a.421.421,0,0,0,.261-.751q-1.008-.8-1.953-1.576a.421.421,0,0,0-.536.649q.952.786,1.968,1.588A.42.42,0,0,0,252.976,94.754Zm-4.51-3.769a.421.421,0,0,0,.279-.735q-.967-.861-1.841-1.7a.421.421,0,1,0-.581.608q.885.847,1.864,1.719A.415.415,0,0,0,248.466,90.985Zm-4.21-4.1a.421.421,0,0,0,.309-.706c-.591-.639-1.141-1.272-1.635-1.881a.42.42,0,1,0-.652.531c.5.622,1.067,1.268,1.669,1.921A.419.419,0,0,0,244.256,86.884Zm-3.606-4.627a.421.421,0,0,0,.359-.641,14.264,14.264,0,0,1-1.11-2.173.421.421,0,0,0-.782.311,15.218,15.218,0,0,0,1.176,2.3A.412.412,0,0,0,240.65,82.257Zm-1.716-5.5a.421.421,0,0,0,.418-.38,4.009,4.009,0,0,1,.316-1.235,3.893,3.893,0,0,1,.512-.851.421.421,0,0,0-.661-.521,4.71,4.71,0,0,0-.622,1.034,4.845,4.845,0,0,0-.384,1.492.421.421,0,0,0,.379.459A.23.23,0,0,0,238.934,76.76Zm35.091-2.053a.421.421,0,0,0,.1-.83q-1.244-.3-2.456-.578a.421.421,0,1,0-.188.82q1.205.275,2.446.576A.4.4,0,0,0,274.024,74.706Zm-5.734-1.287a.421.421,0,0,0,.083-.833q-1.26-.259-2.477-.488a.42.42,0,0,0-.157.826q1.212.227,2.465.486A.432.432,0,0,0,268.291,73.419Zm-25.724-.875a.415.415,0,0,0,.161-.032,13.283,13.283,0,0,1,2.334-.7.42.42,0,0,0-.173-.823,14.1,14.1,0,0,0-2.483.745.42.42,0,0,0,.162.809Zm19.945-.188a.421.421,0,0,0,.066-.836q-1.279-.2-2.5-.37a.426.426,0,0,0-.474.36.421.421,0,0,0,.36.474q1.213.165,2.481.368A.484.484,0,0,0,262.511,72.355Zm-5.826-.758a.42.42,0,0,0,.04-.839q-1.3-.126-2.526-.2a.411.411,0,0,0-.445.395.42.42,0,0,0,.395.445q1.208.073,2.5.2A.324.324,0,0,0,256.685,71.6Zm-8.386-.216h.029c.783-.054,1.62-.083,2.489-.086a.421.421,0,0,0,0-.841h0c-.889,0-1.745.032-2.545.088a.421.421,0,0,0,.028.841Z" transform="translate(-238.512 -70.453)" fill="#fff"/>
                    </g>
                    <g id="Grupo_1221015" data-name="Grupo 1221015" transform="translate(133.395 47.182)">
                      <path id="Trazado_1170581" data-name="Trazado 1170581" d="M263.714,128.089a.421.421,0,0,0,.242-.765q-.512-.361-1.037-.724a.421.421,0,0,0-.48.693q.521.361,1.032.72A.421.421,0,0,0,263.714,128.089Z" transform="translate(-262.26 -126.525)" fill="#fff"/>
                    </g>
                  </g>
                  <g id="Grupo_1221019" data-name="Grupo 1221019" transform="translate(3.96 25.456)">
                    <path id="Trazado_1170582" data-name="Trazado 1170582" d="M406.584,105.733h-1a8.382,8.382,0,1,1,0-16.764h1a8.382,8.382,0,0,1,0,16.764Z" transform="translate(-397.203 -88.969)" fill="#8fb3ff"/>
                    <path id="Trazado_1170583" data-name="Trazado 1170583" d="M413.966,97.351a8.382,8.382,0,1,0-8.382,8.382A8.381,8.381,0,0,0,413.966,97.351Z" transform="translate(-396.203 -88.969)" fill="url(#linear-gradient-2)"/>
                    <g id="Grupo_1221017" data-name="Grupo 1221017" transform="translate(2.402 1.404)">
                      <path id="Trazado_1170584" data-name="Trazado 1170584" d="M405.849,90.637a6.978,6.978,0,1,0,6.979,6.978A6.987,6.987,0,0,0,405.849,90.637Zm0,13.538a6.559,6.559,0,1,1,6.56-6.56A6.567,6.567,0,0,1,405.849,104.175Z" transform="translate(-398.87 -90.637)" fill="#8fb3ff"/>
                    </g>
                    <g id="Grupo_1221018" data-name="Grupo 1221018" transform="translate(7.51 4.28)">
                      <path id="Trazado_1170585" data-name="Trazado 1170585" d="M406.789,102.927v-1.052a3.6,3.6,0,0,0,1.755-.477l-.292-1.02a3.416,3.416,0,0,1-1.692.477c-.684,0-1.149-.336-1.149-.857,0-.488.38-.8,1.181-1.095,1.139-.412,1.876-.933,1.876-1.941a1.889,1.889,0,0,0-1.745-1.844V94.056h-.889v1.009a3.466,3.466,0,0,0-1.5.358l.294,1a3.218,3.218,0,0,1,1.474-.369c.759,0,1.032.39,1.032.759,0,.444-.392.694-1.313,1.063-1.215.455-1.757,1.041-1.757,2.006a1.976,1.976,0,0,0,1.831,1.93v1.117Z" transform="translate(-404.067 -94.056)" fill="#8fb3ff"/>
                    </g>
                  </g>
                  <g id="Grupo_1221022" data-name="Grupo 1221022" transform="translate(31.779 78.164)">
                    <path id="Trazado_1170586" data-name="Trazado 1170586" d="M373.523,168.373h-1a8.382,8.382,0,1,1,0-16.764h1a8.382,8.382,0,0,1,0,16.764Z" transform="translate(-364.142 -151.609)" fill="#8fb3ff"/>
                    <path id="Trazado_1170587" data-name="Trazado 1170587" d="M380.905,159.991a8.382,8.382,0,1,0-8.382,8.382A8.382,8.382,0,0,0,380.905,159.991Z" transform="translate(-363.142 -151.609)" fill="url(#linear-gradient-3)"/>
                    <g id="Grupo_1221020" data-name="Grupo 1221020" transform="translate(2.402 1.404)">
                      <path id="Trazado_1170588" data-name="Trazado 1170588" d="M372.788,153.277a6.979,6.979,0,1,0,6.979,6.978A6.987,6.987,0,0,0,372.788,153.277Zm0,13.539a6.559,6.559,0,1,1,6.56-6.56A6.567,6.567,0,0,1,372.788,166.816Z" transform="translate(-365.809 -153.277)" fill="#8fb3ff"/>
                    </g>
                    <g id="Grupo_1221021" data-name="Grupo 1221021" transform="translate(6.94 3.856)">
                      <path id="Trazado_1170589" data-name="Trazado 1170589" d="M374.17,165.865v-1.147a3.938,3.938,0,0,0,1.914-.521l-.319-1.112a3.72,3.72,0,0,1-1.844.521c-.746,0-1.254-.366-1.254-.935,0-.532.415-.874,1.288-1.193,1.243-.45,2.047-1.018,2.047-2.117a2.062,2.062,0,0,0-1.9-2.011v-1.159h-.969v1.1a3.766,3.766,0,0,0-1.632.39l.321,1.088a3.512,3.512,0,0,1,1.606-.4c.828,0,1.125.426,1.125.827,0,.485-.427.756-1.43,1.159-1.325.5-1.916,1.135-1.916,2.188a2.155,2.155,0,0,0,2,2.105v1.218Z" transform="translate(-371.202 -156.192)" fill="#8fb3ff"/>
                    </g>
                  </g>
                  <g id="Grupo_1221025" data-name="Grupo 1221025" transform="translate(132.774 80.909)">
                    <path id="Trazado_1170590" data-name="Trazado 1170590" d="M257.929,156.084l.765.491a7.634,7.634,0,1,1-8.252,12.845l-.765-.491a7.634,7.634,0,0,1,8.252-12.845Z" transform="translate(-246.169 -154.871)" fill="#8fb3ff"/>
                    <path id="Trazado_1170591" data-name="Trazado 1170591" d="M248.29,158.381a7.634,7.634,0,1,0,10.548-2.3A7.634,7.634,0,0,0,248.29,158.381Z" transform="translate(-247.078 -154.871)" fill="url(#linear-gradient-4)"/>
                    <g id="Grupo_1221023" data-name="Grupo 1221023" transform="translate(1.28 1.281)">
                      <path id="Trazado_1170592" data-name="Trazado 1170592" d="M251.52,168.095a6.355,6.355,0,1,0-1.913-8.782A6.364,6.364,0,0,0,251.52,168.095Zm6.663-10.374a5.974,5.974,0,1,1-8.255,1.8A5.981,5.981,0,0,1,258.183,157.721Z" transform="translate(-248.6 -156.393)" fill="#8fb3ff"/>
                    </g>
                    <g id="Grupo_1221024" data-name="Grupo 1221024" transform="translate(5.355 3.121)">
                      <path id="Trazado_1170593" data-name="Trazado 1170593" d="M256.214,167.61v-1.07a3.679,3.679,0,0,0,1.788-.486l-.3-1.038a3.48,3.48,0,0,1-1.722.486c-.7,0-1.171-.342-1.171-.873,0-.5.387-.816,1.2-1.114,1.16-.42,1.911-.95,1.911-1.977a1.925,1.925,0,0,0-1.777-1.877V158.58h-.9v1.027a3.509,3.509,0,0,0-1.524.364l.3,1.016a3.284,3.284,0,0,1,1.5-.375c.773,0,1.05.4,1.05.772,0,.453-.4.707-1.336,1.082-1.238.464-1.789,1.06-1.789,2.042a2.011,2.011,0,0,0,1.865,1.965v1.138h.906Z" transform="translate(-253.443 -158.58)" fill="#8fb3ff"/>
                    </g>
                  </g>
                  <g id="Grupo_1221028" data-name="Grupo 1221028" transform="translate(149.875 71.617)">
                    <path id="Trazado_1170594" data-name="Trazado 1170594" d="M240.007,144.641l.513.33a5.121,5.121,0,1,1-5.536,8.617l-.512-.331a5.12,5.12,0,0,1,5.535-8.616Z" transform="translate(-232.118 -143.828)" fill="#8fb3ff"/>
                    <path id="Trazado_1170595" data-name="Trazado 1170595" d="M233.543,146.182a5.12,5.12,0,1,0,7.076-1.542A5.12,5.12,0,0,0,233.543,146.182Z" transform="translate(-232.731 -143.828)" fill="url(#linear-gradient-5)"/>
                    <g id="Grupo_1221026" data-name="Grupo 1221026" transform="translate(0.858 0.86)">
                      <path id="Trazado_1170596" data-name="Trazado 1170596" d="M235.71,152.7a4.263,4.263,0,1,0-1.283-5.89A4.268,4.268,0,0,0,235.71,152.7Zm4.471-6.96a4.008,4.008,0,1,1-5.538,1.207A4.013,4.013,0,0,1,240.18,145.739Z" transform="translate(-233.752 -144.85)" fill="#8fb3ff"/>
                    </g>
                    <g id="Grupo_1221027" data-name="Grupo 1221027" transform="translate(3.778 2.459)">
                      <path id="Trazado_1170597" data-name="Trazado 1170597" d="M238.853,152.075v-.631a2.171,2.171,0,0,0,1.053-.287l-.176-.612a2.05,2.05,0,0,1-1.015.286c-.411,0-.69-.2-.69-.514,0-.293.228-.481.709-.657.684-.247,1.127-.56,1.127-1.165a1.135,1.135,0,0,0-1.048-1.107v-.638h-.533v.606a2.067,2.067,0,0,0-.9.215l.176.6a1.936,1.936,0,0,1,.885-.221c.456,0,.618.235.618.455,0,.267-.235.417-.788.638-.73.273-1.054.625-1.054,1.2a1.186,1.186,0,0,0,1.1,1.159v.671h.533Z" transform="translate(-237.22 -146.75)" fill="#8fb3ff"/>
                    </g>
                  </g>
                  <g id="Grupo_1221031" data-name="Grupo 1221031" transform="translate(127.319 17.522)">
                    <path id="Trazado_1170598" data-name="Trazado 1170598" d="M266.339,80.431l.563.362a5.618,5.618,0,1,1-6.073,9.454l-.563-.363a5.618,5.618,0,1,1,6.073-9.453Z" transform="translate(-257.684 -79.539)" fill="#8fb3ff"/>
                    <path id="Trazado_1170599" data-name="Trazado 1170599" d="M259.244,82.122a5.618,5.618,0,1,0,7.763-1.69A5.618,5.618,0,0,0,259.244,82.122Z" transform="translate(-258.352 -79.539)" fill="url(#linear-gradient-6)"/>
                    <g id="Grupo_1221029" data-name="Grupo 1221029" transform="translate(0.942 0.943)">
                      <path id="Trazado_1170600" data-name="Trazado 1170600" d="M261.623,89.271a4.677,4.677,0,1,0-1.409-6.462A4.683,4.683,0,0,0,261.623,89.271Zm4.9-7.635a4.4,4.4,0,1,1-6.075,1.324A4.4,4.4,0,0,1,266.527,81.636Z" transform="translate(-259.474 -80.66)" fill="#8fb3ff"/>
                    </g>
                    <g id="Grupo_1221030" data-name="Grupo 1221030" transform="translate(4.269 2.39)">
                      <path id="Trazado_1170601" data-name="Trazado 1170601" d="M264.741,88.838v-.766a2.643,2.643,0,0,0,1.279-.348l-.213-.742a2.488,2.488,0,0,1-1.232.348c-.5,0-.837-.244-.837-.624,0-.355.277-.584.86-.8.83-.3,1.366-.68,1.366-1.414a1.377,1.377,0,0,0-1.271-1.343v-.773h-.648v.735a2.514,2.514,0,0,0-1.09.261l.214.726a2.347,2.347,0,0,1,1.073-.268c.553,0,.751.284.751.553,0,.324-.285.5-.956.774-.885.332-1.28.758-1.28,1.461a1.439,1.439,0,0,0,1.334,1.405v.814h.65Z" transform="translate(-262.758 -82.379)" fill="#8fb3ff"/>
                    </g>
                  </g>
                </g>
                <g id="Grupo_1221034" data-name="Grupo 1221034" transform="translate(127.576 143.283)">
                  <g id="Grupo_1221033" data-name="Grupo 1221033" transform="translate(0 110.748)">
                    <path id="Trazado_1170603" data-name="Trazado 1170603" d="M297.348,402.674a4.769,4.769,0,0,0,.295-.794c.954-3.425,3.081-7.865,5.277-8.543l-4.886-5.172a17.1,17.1,0,0,0-4.948,14.078,2.515,2.515,0,0,0,.087.428Z" transform="translate(-285.875 -382.874)" fill="#f48b78"/>
                    <path id="Trazado_1170604" data-name="Trazado 1170604" d="M292.553,382.091l-26.707-.112s-12.948-4.337-20.11,4.059a17.105,17.105,0,0,0-11.886,9.025c-1.073,2.115,1.323,4.54,4,2.206s6.9-4.866,9.109-4.224,11.655,7.934,19.659,1.967l27.024,6.752Z" transform="translate(-233.588 -380.86)" fill="#f6a9a3"/>
                  </g>
                  <path id="Trazado_1170605" data-name="Trazado 1170605" d="M133.685,228c23.738-1.758,84.788,73.194,61.484,118.818-36.368,71.2-178.555,13.129-178.555,13.129V337.294s77.851-3.438,101.1-17.551S104.6,230.149,133.685,228Z" transform="translate(16.844 -227.965)" fill="#5758ff"/>
                  <path id="Trazado_1170606" data-name="Trazado 1170606" d="M225.759,228.007c-29.083,2.153,7.286,77.634-15.967,91.748s-101.1,17.551-101.1,17.551v22.647" transform="translate(-75.23 -227.977)" fill="none" stroke="#110777" stroke-linecap="round" stroke-miterlimit="10" stroke-width="1"/>
                </g>
              </g>
            </g>
            <g id="Grupo_1220985" data-name="Grupo 1220985" transform="translate(38.873 125.598)">
              <g id="Grupo_1220984" data-name="Grupo 1220984" transform="translate(0 0)">
                <g transform="matrix(1, 0, 0, 1, -74.07, -130.02)" filter="url(#Trazado_1170463)">
                  <path id="Trazado_1170463-2" data-name="Trazado 1170463" d="M24.419,190.127a15.043,15.043,0,1,0,15.044-15.045A15.043,15.043,0,0,0,24.419,190.127Zm6.6,0a8.446,8.446,0,1,1,8.445,8.444A8.446,8.446,0,0,1,31.018,190.127Z" transform="translate(49.66 -45.06)" fill="url(#linear-gradient-7)"/>
                </g>
              </g>
              <path id="Trazado_1170464" data-name="Trazado 1170464" d="M56.05,198.74a8.44,8.44,0,0,0,.407-16.87l1.374-6.51a15.043,15.043,0,1,1-6.193,29.32l1.374-6.511A8.419,8.419,0,0,0,56.05,198.74Z" transform="translate(-41.006 -175.251)" fill="url(#linear-gradient-8)"/>
            </g>
            <g id="Grupo_1220988" data-name="Grupo 1220988" transform="translate(3.107 94.323)">
              <g transform="matrix(1, 0, 0, 1, -38.31, -98.75)" filter="url(#Trazado_1170468)">
                <path id="Trazado_1170468-2" data-name="Trazado 1170468" d="M362.782,247.246a20.177,20.177,0,1,0,20.178-20.177A20.177,20.177,0,0,0,362.782,247.246Z" transform="translate(-324.47 -128.32)" fill="url(#linear-gradient-8)"/>
              </g>
              <path id="Trazado_1170469" data-name="Trazado 1170469" d="M362.806,248.177c-.015-.309-.024-.618-.024-.931a20.148,20.148,0,0,1,22.488-20.041l-2.311,20.041Z" transform="translate(-362.782 -227.069)" fill="url(#linear-gradient-10)"/>
              <path id="Trazado_1170470" data-name="Trazado 1170470" d="M382.986,268.663l-14.661,13.854a20.09,20.09,0,0,1-5.493-12.923Z" transform="translate(-362.808 -248.486)" fill="url(#linear-gradient-11)"/>
            </g>
          </g>
        </g>
      </g>
    </g>
  </g>
</svg>
