<svg xmlns="http://www.w3.org/2000/svg" xmlns:xlink="http://www.w3.org/1999/xlink" width="103" height="103" viewBox="0 0 103 103">
  <defs>
    <filter id="Trazado_978624" x="0" y="0" width="103" height="103" filterUnits="userSpaceOnUse">
      <feOffset dy="3" input="SourceAlpha"/>
      <feGaussianBlur stdDeviation="3" result="blur"/>
      <feFlood flood-opacity="0.161"/>
      <feComposite operator="in" in2="blur"/>
      <feComposite in="SourceGraphic"/>
    </filter>
  </defs>
  <g id="Grupo_1221039" data-name="Grupo 1221039" transform="translate(-614 -9246)">
    <g id="Grupo_1215635" data-name="Grupo 1215635" transform="translate(623 9252)">
      <g id="Grupo_1208646" data-name="Grupo 1208646">
        <g id="Grupo_1180764" data-name="Grupo 1180764">
          <g id="Grupo_1179463" data-name="Grupo 1179463">
            <g id="Grupo_1144531" data-name="Grupo 1144531">
              <g transform="matrix(1, 0, 0, 1, -9, -6)" filter="url(#Trazado_978624)">
                <g id="Trazado_978624-2" data-name="Trazado 978624" transform="translate(9 6)" fill="#f2f7e5">
                  <path d="M 42.5 83.5 C 36.96437835693359 83.5 31.59512901306152 82.41617584228516 26.54141235351562 80.27863311767578 C 21.65934181213379 78.21369171142578 17.27447128295898 75.25723266601562 13.50862312316895 71.49137878417969 C 9.742764472961426 67.72553253173828 6.786305904388428 63.34066009521484 4.721364498138428 58.45858764648438 C 2.583823442459106 53.40486907958984 1.5 48.03562164306641 1.5 42.5 C 1.5 36.96437835693359 2.583823442459106 31.59512901306152 4.721364498138428 26.54141235351562 C 6.786305904388428 21.65934181213379 9.742764472961426 17.27447128295898 13.50862312316895 13.50862312316895 C 17.27447128295898 9.742764472961426 21.65934181213379 6.786305904388428 26.54141235351562 4.721364498138428 C 31.59512901306152 2.583823442459106 36.96437835693359 1.5 42.5 1.5 C 48.03562164306641 1.5 53.40486907958984 2.583823442459106 58.45858764648438 4.721364498138428 C 63.34066009521484 6.786305904388428 67.72553253173828 9.742764472961426 71.49137878417969 13.50862312316895 C 75.25723266601562 17.27447128295898 78.21369171142578 21.65934181213379 80.27863311767578 26.54141235351562 C 82.41617584228516 31.59512901306152 83.5 36.96437835693359 83.5 42.5 C 83.5 48.03562164306641 82.41617584228516 53.40486907958984 80.27863311767578 58.45858764648438 C 78.21369171142578 63.34066009521484 75.25723266601562 67.72553253173828 71.49137878417969 71.49137878417969 C 67.72553253173828 75.25723266601562 63.34066009521484 78.21369171142578 58.45858764648438 80.27863311767578 C 53.40486907958984 82.41617584228516 48.03562164306641 83.5 42.5 83.5 Z" stroke="none"/>
                  <path d="M 42.5 3 C 37.16621398925781 3 31.99356079101562 4.043960571289062 27.125732421875 6.102882385253906 C 22.42246627807617 8.092185974121094 18.19785308837891 10.94070434570312 14.56928253173828 14.56928253173828 C 10.94070434570312 18.19785308837891 8.092185974121094 22.42246627807617 6.102882385253906 27.125732421875 C 4.043960571289062 31.99356079101562 3 37.16621398925781 3 42.5 C 3 47.83378601074219 4.043960571289062 53.00643920898438 6.102882385253906 57.87425231933594 C 8.092185974121094 62.57753372192383 10.94070434570312 66.80213165283203 14.56928253173828 70.43071746826172 C 18.19786834716797 74.05929565429688 22.42246627807617 76.90781402587891 27.125732421875 78.89711761474609 C 31.99356079101562 80.95603942871094 37.16621398925781 82 42.5 82 C 47.83378601074219 82 53.00642395019531 80.95603942871094 57.87425231933594 78.89711761474609 C 62.57753372192383 76.90781402587891 66.80213165283203 74.05929565429688 70.43071746826172 70.43071746826172 C 74.05929565429688 66.80213165283203 76.90781402587891 62.57753372192383 78.89711761474609 57.87425231933594 C 80.95603942871094 53.00642395019531 82 47.83378601074219 82 42.5 C 82 37.16621398925781 80.95603942871094 31.99356079101562 78.89711761474609 27.125732421875 C 76.90781402587891 22.42246627807617 74.05929565429688 18.19786834716797 70.43071746826172 14.56928253173828 C 66.80213165283203 10.94070434570312 62.57753372192383 8.092185974121094 57.87425231933594 6.102882385253906 C 53.00643920898438 4.043960571289062 47.83378601074219 3 42.5 3 M 42.5 0 C 65.97209167480469 0 85 19.02789306640625 85 42.5 C 85 65.97209167480469 65.97209167480469 85 42.5 85 C 19.02789306640625 85 0 65.97209167480469 0 42.5 C 0 19.02789306640625 19.02789306640625 0 42.5 0 Z" stroke="none" fill="#86b60c"/>
                </g>
              </g>
            </g>
          </g>
        </g>
      </g>
    </g>
    <g id="Filled_outline" data-name="Filled outline" transform="translate(633 9263)">
      <circle id="Elipse_14432" data-name="Elipse 14432" cx="27" cy="27" r="27" transform="translate(5 5)" fill="#195c85"/>
      <circle id="Elipse_14433" data-name="Elipse 14433" cx="22" cy="22" r="22" transform="translate(10 10)" fill="#cdeef6"/>
      <path id="Trazado_1170607" data-name="Trazado 1170607" d="M17,41h5l2-2h4l4-1,3,2,1,4,3,3h3l2.851,2.851a21.992,21.992,0,0,1-32.3-7.578Z" fill="#8ec13f"/>
      <path id="Trazado_1170608" data-name="Trazado 1170608" d="M20,20h3l1,4,2,3,3,1v3l-5,1-4,3-4-1-3,2-2.464.821a21.978,21.978,0,0,1,5.331-19.773Z" fill="#8ec13f"/>
      <path id="Trazado_1170609" data-name="Trazado 1170609" d="M32,10A22,22,0,0,1,51.044,43.009L51,43l-4-3-5,1-3-4,3-2,1-4-4-1-1-4-3,1-4-2,1-4-3-4-4-1-3.891-3.112A21.883,21.883,0,0,1,32,10Z" fill="#8ec13f"/>
      <g id="Grupo_1221038" data-name="Grupo 1221038">
        <path id="Trazado_1170610" data-name="Trazado 1170610" d="M48.5,60.865l-1-1.73A28.985,28.985,0,0,0,59.144,46.58l1.8.867A30.966,30.966,0,0,1,48.5,60.865Z" fill="#32b1cc"/>
        <path id="Trazado_1170611" data-name="Trazado 1170611" d="M3.9,18.434l-1.8-.868A31.191,31.191,0,0,1,16.611,3.054l.868,1.8A29.177,29.177,0,0,0,3.9,18.434Z" fill="#32b1cc"/>
        <path id="Trazado_1170612" data-name="Trazado 1170612" d="M2,20H4v2H2Z" fill="#32b1cc"/>
        <path id="Trazado_1170613" data-name="Trazado 1170613" d="M60,43.014h2v2H60Z" fill="#32b1cc"/>
        <path id="Trazado_1170614" data-name="Trazado 1170614" d="M44,60h2v2H44Z" fill="#32b1cc"/>
      </g>
      <circle id="Elipse_14434" data-name="Elipse 14434" cx="10" cy="10" r="10" transform="translate(41 3)" fill="#ffd782"/>
      <path id="Trazado_1170615" data-name="Trazado 1170615" d="M55,18H46V16h8V14H47a1,1,0,0,1-1-1V9a1,1,0,0,1,1-1h9v2H48v2h7a1,1,0,0,1,1,1v4A1,1,0,0,1,55,18Z" fill="#394d5c"/>
      <path id="Trazado_1170616" data-name="Trazado 1170616" d="M50,6h2V20H50Z" fill="#394d5c"/>
      <circle id="Elipse_14435" data-name="Elipse 14435" cx="10" cy="10" r="10" transform="translate(3 41)" fill="#ffd782"/>
      <path id="Trazado_1170617" data-name="Trazado 1170617" d="M17,56H8V54h8V52H9a1,1,0,0,1-1-1V47a1,1,0,0,1,1-1h9v2H10v2h7a1,1,0,0,1,1,1v4A1,1,0,0,1,17,56Z" fill="#394d5c"/>
      <path id="Trazado_1170618" data-name="Trazado 1170618" d="M12,44h2V58H12Z" fill="#394d5c"/>
      <path id="Trazado_1170619" data-name="Trazado 1170619" d="M52,6H50V8H47a1,1,0,0,0-1,1v4a1,1,0,0,0,1,1h3v2H46v2h4v2h2V18h3a1,1,0,0,0,1-1V13a1,1,0,0,0-1-1H52V10h4V8H52Zm-2,6H48V10h2Zm4,2v2H52V14Z"/>
      <path id="Trazado_1170620" data-name="Trazado 1170620" d="M14,44H12v2H9a1,1,0,0,0-1,1v4a1,1,0,0,0,1,1h3v2H8v2h4v2h2V56h3a1,1,0,0,0,1-1V51a1,1,0,0,0-1-1H14V48h4V46H14Zm-2,6H10V48h2Zm4,2v2H14V52Z"/>
      <path id="Trazado_1170621" data-name="Trazado 1170621" d="M51,2a10.98,10.98,0,0,0-8.513,4.044A27.66,27.66,0,0,0,32,4,28.032,28.032,0,0,0,4,32,27.66,27.66,0,0,0,6.043,42.488,10.994,10.994,0,1,0,21.512,57.957,27.66,27.66,0,0,0,32,60,28.032,28.032,0,0,0,60,32a27.66,27.66,0,0,0-2.043-10.488A10.994,10.994,0,0,0,51,2ZM6,32A26.029,26.029,0,0,1,32,6a25.707,25.707,0,0,1,9.345,1.735,10.978,10.978,0,0,0-1.059,2.808A22.7,22.7,0,0,0,32,9,23.025,23.025,0,0,0,9,32a22.7,22.7,0,0,0,1.543,8.286,10.978,10.978,0,0,0-2.808,1.059A25.707,25.707,0,0,1,6,32ZM19.305,42H22a1,1,0,0,0,.707-.293L24.414,40H28a.984.984,0,0,0,.242-.03l3.571-.893,2.311,1.54.906,3.625a1,1,0,0,0,.263.465l3,3A1,1,0,0,0,39,48h2.586l1.688,1.688A20.867,20.867,0,0,1,23.98,51.4c0-.134.02-.265.02-.4A10.99,10.99,0,0,0,19.305,42Zm23.4,4.293A1,1,0,0,0,42,46H39.414L36.9,43.488l-.933-3.73a1,1,0,0,0-.415-.59l-3-2a1,1,0,0,0-.8-.138L27.877,38H24a1,1,0,0,0-.707.293L21.586,40H17a.985.985,0,0,0-.271.038l-1.067.3A10.975,10.975,0,0,0,13,40c-.135,0-.266.015-.4.02a20.61,20.61,0,0,1-.879-2.54l1.6-.532a.96.96,0,0,0,.239-.116l2.632-1.755,3.571.893a1,1,0,0,0,.842-.17l3.819-2.863L29.2,31.98A1,1,0,0,0,30,31V28a1,1,0,0,0-.684-.948l-2.674-.892-1.714-2.57-.958-3.832A1,1,0,0,0,23,19H20.32l-2.906-2.076a21.177,21.177,0,0,1,3.632-2.806l3.329,2.663a.983.983,0,0,0,.383.189l3.655.914,2.5,3.335-.884,3.539a1,1,0,0,0,.523,1.137l4,2a.978.978,0,0,0,.763.053l1.976-.658.738,2.952a1,1,0,0,0,.728.728l3.029.758-.663,2.655-2.679,1.785A1,1,0,0,0,38.2,37.6l3,4a1,1,0,0,0,1,.38l4.562-.912,2.933,2.2a21.117,21.117,0,0,1-4.763,5.246ZM11.294,35.515A21.214,21.214,0,0,1,11,32a20.891,20.891,0,0,1,5.033-13.6l3.386,2.418A.994.994,0,0,0,20,21h2.219l.811,3.242a1,1,0,0,0,.138.313l2,3a1,1,0,0,0,.516.393L28,28.721v1.46l-4.2.839a.99.99,0,0,0-.4.18l-3.619,2.714-3.539-.884a.991.991,0,0,0-.8.138l-2.888,1.926ZM47.6,39.2a1,1,0,0,0-.8-.18l-4.382.876-1.987-2.65,2.12-1.414a1,1,0,0,0,.415-.59l1-4a1,1,0,0,0-.728-1.212l-3.418-.854-.854-3.418a1,1,0,0,0-1.286-.706l-2.607.868-2.912-1.456.8-3.222a1,1,0,0,0-.17-.842l-3-4a1,1,0,0,0-.558-.37l-3.788-.947-2.5-2A20.813,20.813,0,0,1,40.02,12.6c-.005.134-.02.265-.02.4A11.013,11.013,0,0,0,51,24c.135,0,.266-.015.4-.02a20.85,20.85,0,0,1-.706,17.541ZM13,60a9,9,0,1,1,9-9,9,9,0,0,1-9,9ZM58,32A26.029,26.029,0,0,1,32,58a25.707,25.707,0,0,1-9.345-1.735,10.978,10.978,0,0,0,1.059-2.808A22.7,22.7,0,0,0,32,55,23.025,23.025,0,0,0,55,32a22.7,22.7,0,0,0-1.543-8.286,10.978,10.978,0,0,0,2.808-1.059A25.707,25.707,0,0,1,58,32ZM51,22a9,9,0,1,1,9-9A9,9,0,0,1,51,22Z"/>
      <path id="Trazado_1170622" data-name="Trazado 1170622" d="M60.946,47.447l-1.8-.867A28.985,28.985,0,0,1,47.5,59.135l1,1.73A30.966,30.966,0,0,0,60.946,47.447Z"/>
      <path id="Trazado_1170623" data-name="Trazado 1170623" d="M17.479,4.856l-.868-1.8A31.191,31.191,0,0,0,2.1,17.566l1.8.868A29.177,29.177,0,0,1,17.479,4.856Z"/>
      <path id="Trazado_1170624" data-name="Trazado 1170624" d="M2,20H4v2H2Z"/>
      <path id="Trazado_1170625" data-name="Trazado 1170625" d="M60,43.014h2v2H60Z"/>
      <path id="Trazado_1170626" data-name="Trazado 1170626" d="M44,60h2v2H44Z"/>
    </g>
  </g>
</svg>
